<?xml version="1.0" encoding="UTF-8"?><svg id="Layer_2" xmlns="http://www.w3.org/2000/svg" viewBox="0 0 2824.26 1617.55"><defs><style>.cls-1{fill:none;opacity:.7;}.cls-2{fill:#d62b33;}</style></defs><g id="Layer_1-2"><g class="cls-1"><path class="cls-2" d="m342.72,832.59c-1.74-1.26-1.54-2.87.46-3.56,2.04-.7,4.13.12,4.7,1.78.05.15.09.29.13.44l654.81-225.47c.69-.88,1.43-1.31,2.16-1.02.09.04.17.12.26.19l686.53-236.39c.02-.44.06-.94.11-1.51.27-3.44,1.61-5.77,3-5.19,1.32.53,1.17,3.06-.24,5.72l35.78-12.32c-.16-.1-.32-.21-.48-.32-1.74-1.26-1.54-2.87.48-3.56,2.02-.7,4.13.12,4.7,1.78.05.15.09.29.13.44l521.65-179.62c-.7-.72-.95-1.46-.56-2.09.79-1.45,4.18-1.56,7.79-.39l328.29-113.04-20.13-58.45-127.24,43.81c1.93,1.64,2.54,3.19,1.53,4.44-3.91,4.85-10.43,6.78-14.08,4.12-1.78-1.3-.61-2.3,2.83-2.33,4.11,0,5.54-2.37,4.38-4.39l-29.8,10.26c.97,2.14,3.07,4,6.73,6.5,11.09,7.52,9.08,8.11-4.73,1.35-4.77-2.3-7.43-3.64-8.72-5.53l-307.12,105.75c-.46.25-1.01.44-1.63.56l-6.87,2.37c-.34.4-.58.84-.68,1.29-.34,1.94-.87,1.67-1.08-.6,0-.03,0-.06,0-.09l-83.34,28.7c-5.43,4.73-6.87,5.36-6.87,2.37l-135.67,46.71c.14.2.26.42.35.66.58,1.67-.46,3.56-2.36,4.21-1.92.66-3.97-.16-4.54-1.83-.08-.24-.12-.49-.13-.74l-276.26,95.13c1.34,3.7,4.01,6.16,5.91,5.51,1.86-.64,3.91.18,4.49,1.85.62,1.81-2.46,2.55-7.62,1.79-6.88-1.03-8.68-.41-8.94,3.03-.32,6.04-6.22,7.47-8.11,1.98-.86-2.5.23-5.14,2.36-5.88,1.79-.62,4.1-3.17,5.72-6.15l-11.72,4.03c-.29.97-1.11,1.25-2.39.82l-224.93,77.45c-.82,2.6-1.43,5.75-1.49,7.89.02,3.29-1.16,4.07-3.56,2.39-2.34-1.7-3.24-4.63-2.96-7.52l-292.53,100.73c.67,2.82-.73,4.43-4.59,5.76-3.74,1.29-8.56,1.06-10.81-.46l-113.87,39.21c2.33,2.17,4.08,4.88,4.01,6.48-.18,5.37-6.13,1.74-8.53-4.92l-50.33,17.33c1.39,1.86,1.29,3.74-.37,4.31-1.63.56-3.58-.61-4.58-2.6L0,885.7l20.13,58.45,323.07-111.24c-.16-.1-.32-.21-.48-.32ZM2394.14,85.79c7.81-2.69,8.36-2.34,5.15,3.26-2.01,3.45-4.33,6.56-5.24,6.87-.83.29-3.19-1.21-5.11-3.3-2.56-2.78-1.16-4.63,5.2-6.82Zm1.24,21.46c2.27.36,4.27,1.29,4.52,2.01.26.74-1.05,1.85-2.97,2.51-1.92.66-3.97-.23-4.58-2-.61-1.77.75-2.91,3.02-2.53Zm-87.91-2.99c2.54-1.97,5.01-2.21,5.57-.6.56,1.63-1.28,3.73-4.15,4.72-2.82.97-5.35,1.24-5.59.55-.22-.64,1.67-2.76,4.17-4.68Zm-133.18,33.56c1.92-.66,3.95.18,4.52,1.84.58,1.67-.53,3.55-2.44,4.21-1.85.64-3.9-.15-4.48-1.82-.57-1.66.55-3.59,2.4-4.22Zm.39,40.38c.61-2.08,3.74-4.64,6.96-5.74,5.07-1.7,5.27-1.31,1.69,2.77-5.42,6.1-10.04,7.69-8.64,2.98Zm-22.39,24.56c.62-2.07,2.6-4.31,4.52-4.97,1.9-.65,3,.53,2.38,2.6-.6,2.06-2.66,4.26-4.58,4.92-1.9.65-2.93-.48-2.33-2.55Zm-48.29,3.12c-.12-3.64.34-6.86,1.06-7.11.73-.25,2.24,2.3,3.37,5.59,1.15,3.33.68,6.53-1.02,7.12-1.74.6-3.28-1.91-3.41-5.59Zm-209.98,60.72c.44-4.59,1.8-5.89,4.35-4.03,2.07,1.51,2.36,6.56.71,11.24-3.28,9.09-6.13,4.97-5.06-7.21Zm-32.52-4.17c1.4-.48,3.45,1.83,4.6,5.18,2.21,6.42-.92,9.2-6.11,5.43-3.49-2.47-2.49-9.24,1.51-10.61Zm-28.12,18.51c1.54-3.37.84-8.51-1.59-11.52-5.11-6.3-2.61-7.98,6.47-4.26,4.5,1.82,5.51,3.65,3.37,5.98-1.69,1.85-1.28,6.3.92,10,4.35,7.17,3.15,8.57-6.08,6.97-4.82-.85-5.4-2.2-3.1-7.17Zm-44.5-7.02c1.92-.66,3.9.2,4.46,1.83.58,1.67-.46,3.56-2.38,4.22-1.92.66-3.89-.18-4.47-1.86-.56-1.63.47-3.53,2.39-4.19Zm-112.73,91.36c4.18-3.21,4.56-2.84,2.22,2.25-3.19,6.98-4.98,8.18-6.32,4.31-.51-1.47,1.3-4.4,4.09-6.56Zm-80.52-16.74c.62-1.1,2.79-.25,4.79,1.92,4.16,4.53,2.52,6.16-2.56,2.53-1.87-1.4-2.87-3.37-2.23-4.45Zm-46.77,13.09c2.27.36,4.56,1.93,5.1,3.52.54,1.57-.58,3.37-2.5,4.03-1.92.66-4.15-.93-5.05-3.53-.9-2.6.17-4.4,2.45-4.02Zm-19.19,8.31c2.14,2.94,3.59,5.51,3.19,5.65-1.97.68-11.58-4.46-12.31-6.57-1.73-5.02,5.43-4.3,9.11.92Zm-237.35,81.72c2.86-.98,4.69-3.14,4.12-4.82-1.65-4.81,4.76-5.54,8.96-1.01,2.69,2.92,2.11,4.16-1.9,4.16-3.14.04-6.15,1.68-6.73,3.63-1.39,4.71-7.26,6.63-8.58,2.8-.58-1.67,1.26-3.78,4.13-4.77Zm-67.82,17.65c3.51-.06,5.87-1.41,5.29-3.09-.62-1.81,2.58-2.59,8.01-1.94,4.99.61,10.13.42,11.41-.46,1.33-.86,2.82-.16,3.4,1.52.58,1.67-.48,3.51-2.39,4.17s-2.75,3.13-1.92,5.55c.81,2.34.19,5.69-1.35,7.37-1.56,1.7-3.41,1.29-4.17-.92-.76-2.2-5.25-4.18-9.97-4.35-10.2-.44-17.92-7.77-8.3-7.84Zm-16.34,25.88c2.18-1.74,5.18-2.67,6.67-2.02,1.51.57-.25,1.99-3.95,3.11-4.12,1.24-5.13.83-2.72-1.09Zm-168.97,45.28c1.56-1.63,3.58-.9,4.46,1.66.89,2.59.04,5.24-1.86,5.9-1.92.66-3.88-.09-4.42-1.65-.54-1.58.26-4.22,1.82-5.9Zm-212.59,79.01c1.91-1.37,2.52-5.48,1.29-9.05-1.77-5.32-1.29-5.94,2.71-3.19,3.23,2.29,4.5,2.11,3.64-.39-.67-2.13.22-4.31,1.96-4.91,5.63-1.94,9.39,8.3,6.87,18.67-1.36,5.57-4.28,10.75-6.51,11.52-5.56,1.96-14.51-9.45-9.96-12.66Zm-24.03,6.47c2.25-2.98,4.35-8.36,4.62-11.96.27-3.61,1.82-6.02,3.42-5.41,1.54.68,2,5.12.94,9.89-1.41,6.29-.35,9.94,3.78,13.35,4.13,3.42,4.86,6.11,2.84,9.93-2.25,4.19-1.26,4.18,5.05.03,4.29-2.87,7.22-4.41,6.48-3.44-.74.97-4.44,6.47-8.27,12.3q-6.98,10.57-9.24,4c-1.23-3.58-4.04-5.91-6.22-5.16-2.41.83-2.52-1.61-.2-6.07,2.98-5.87,2.63-7.88-1.8-9.72-4.45-1.8-4.74-3.4-1.39-7.74Zm-12.48-4.7c3.3-1.14,6.45-.75,7.03.93,1.27,3.67.86,3.82-6.92,2.38-5.22-.99-5.27-1.48-.11-3.31Zm-10.93,10.46c2.87-.99,5.96.31,6.86,2.91.89,2.59,2.84,3.36,4.41,1.67,4.18-4.58,10.7-2.49,10.18,3.34-.53,6.65-6.55,8.19-16.27,4.18-9.68-4.02-12.08-9.73-5.18-12.11Zm1.59,21.41c5.2-.42,10.07-.5,10.91-.24.79.27,1.7,2.92,2.02,5.88.48,4.5-1.46,4.53-10.91.24l-11.41-5.18,9.39-.7Zm-49.06,31.62c1.66-13.09,1.73-13.07,7.13-.17,2.81,6.73,2.24,9.67-2.16,11.49-7.07,2.99-6.93,3.39-4.97-11.33Zm-25.76-4.43c.09-2.44,2-5.73,4.26-7.35,2.32-1.61,4.01-.93,3.89,1.62-.05,2.45-1.99,5.75-4.21,7.33-2.32,1.68-4,1-3.95-1.61Zm-16.71,7.68c-1.04,6.84-3.11,12.88-4.56,13.38-3.71,1.28-3.79.52-1.29-12.51,2.92-15.56,8.12-16.36,5.85-.87Zm-17.69-15.81c1.92-.66,3.88.15,4.45,1.81s-.46,3.57-2.37,4.23c-1.92.66-3.91-.22-4.48-1.88-.57-1.66.48-3.51,2.39-4.17Zm-136.65,64.95c2.25-1.71,5.24-2.64,6.72-2.05,1.53.64-.29,2.03-3.95,3.13-4.09,1.25-5.19.85-2.77-1.07Zm-45.72-12.35c2.18-5.36,4.4-8.38,4.92-6.7,1.86,5.57-3.09,20.61-6,18.49-1.65-1.15-1.16-6.47,1.08-11.78Zm-12.73,27.76c2.73-6.65,11.27-8.82,13.15-3.38.61,1.78-.18,2.7-1.86,2.03-1.62-.66-5.1,2.02-7.58,5.96-5.21,8.04-7.63,4.99-3.71-4.6Zm-49.74,44.4c2.98-1.03,5.87-.48,6.42,1.13.57,1.66-.41,3.54-2.2,4.16-1.81.62-4.7.07-6.44-1.18-1.74-1.2-.76-3.08,2.22-4.11Zm-25.2,5.04c1.61,1.23,1.79,3.41.37,4.94-1.37,1.51-4.11,1.03-6.08-1.05-3.81-4.15.87-7.32,5.71-3.89Z"/><path class="cls-2" d="m2804.14,673.4l-401.87,138.37c.9,5.4.83,9.43-.29,9.82-1.56.54-4.89,2.57-7.36,4.46-2.5,1.9-6.05,2.36-7.96,1.04-1.85-1.39-1.27-4.1,1.29-6.1,2.38-1.79,3.06-3.27,2.12-5.02l-49.55,17.06c.14.28.14.57-.02.84-.64,1.11-2.46,1.31-4.94.87l-188.94,65.06c.14.82.08,1.58-.23,2.13-.59,1.06-1.55.47-2.38-1.23l-90.38,31.12c.04,1.68-.41,4.34-1.18,6.72-1.43,4.6-2.26,4.4-4.15-1.09-.45-1.24-.68-2.45-.73-3.55l-148.59,51.16c.67.32,1.29.76,1.83,1.35,5.21,5.63,3.4,7.28-5.58,5.11-4.87-1.16-6.39-1.85-5.26-3.36l-427.84,147.32c3.91.95,6.67,2.46,7.29,4.26.51,1.47-1.59,3.5-4.63,4.54-3.55,1.22-5.42,0-5.1-3.29.19-2.32-.77-3.69-2.49-3.81l-28.7,9.88c.72.33,1.22.7,1.34,1.04.25.73-1.13,1.86-3.02,2.52-1.65.57-3.48-.07-4.28-1.5l-32.95,11.35c.05.41.07.86.03,1.43-.48,5.87-1.66,6.66-5.6,3.79-.95-.7-1.04-1.9-.39-3.17l-70.11,24.14c.99.49.98,2.44-.86,6.06-2.09,4.14-3.06,9.73-2.1,12.53.95,2.74.23,5.57-1.63,6.22-1.79.62-3.12-1.23-2.92-4.09.29-2.84-1.16-4.65-3.12-3.97-1.97.68-3.45,3.88-3.3,7.07.17,4.31-.38,4.73-1.99,1.5-1.23-2.32-3.54-6.48-5.21-9.13-3.23-5.36,1.21-8.71,5.25-3.9,1.62,1.92,3.79.62,6.4-3.9,1.92-3.34,4.09-5.76,5.94-7.15l-60.65,20.88c-1.22,3.99-3.19,4.18-9.03,3.11l-273.32,94.11s.04.07.05.11c2.57,7.46-3.13,8.8-9.46,3.13l-533.29,183.63c-.29.31-.56.59-.8.83-.93.93-2.39,1.12-4.02.82l-31.11,10.71c1.17.3,1.71,2.11.94,5.56-.82,3.8-.22,7.38,1.38,7.99,1.52.62,1.1,1.75-1.03,2.49-6.25,2.15-10.6-3.06-7.78-9.29,1.35-2.94,2.88-4.93,4.23-5.97l-123.15,42.41c.86,3.28.27,6.22-1.4,6.8-3.39,1.17-4.78-.57-4.11-4.9l-25.54,8.79,20.13,58.45,80.01-27.55c-.52-.38-.93-.89-1.15-1.53-.59-1.72.75-2.89,3.02-2.53,2.07.38,4.01,1.18,4.44,1.88l49.55-17.06c-.78-.09-1.2-.75-1.17-1.97.21-5.05,7.22-10.27,8.59-6.29.56,1.61-1.19,4.62-3.88,6.66-.37.29-.72.53-1.06.74l362.02-124.65c-1.21-1.16-2.52-2.66-3.93-4.52-3.65-4.78-9.42-8.22-12.87-7.64-4.39.73-5.14,2.2-2.53,5.03,2.1,2.24,2.21,4.58.3,5.24-1.86.64-5.16-1.26-7.3-4.25-3.75-5.23-1.6-7.69,8.89-9.93,2.75-.6,5.57-2.96,6.23-5.27.87-2.94,3.07-3.31,7.29-1.09,4.2,2.18,4.85,3.55,2.05,4.51-2.52.87-.99,3.31,4.18,6.85,3.57,2.44,6.26,5.6,6.87,7.9l206.87-71.23c-.05-.57-.09-1.21-.12-1.93-.16-4.49.92-6.42,2.56-4.45,1.06,1.24,1.47,3.22,1.22,5.13l139.67-48.09c.35-1.16.76-1.98,1.15-2.11.39-.14.96.34,1.53,1.19l94.13-32.41c-.52-.65-1.03-1.72-1.45-3.18-1.04-3.54-.51-4.54,1.43-2.52,1.45,1.49,2.22,3.54,1.99,5.02l52.5-18.08c.1-1.15,1.4-2.82,3.98-5.1,5.85-5.21,6.75-5.19,7.02.15.02.4.02.79.02,1.15l56.28-19.38c.47-1.17,1.19-2.63,2.19-4.38,3.81-6.64,6.96-8.61,8.18-5.07.37,1.07-1.23,4.14-3.72,7.16l40.6-13.98c-3.25-3.72-3.24-10.67.99-12.13,3.21-1.11,6.14,1.06,7.74,5.71.39,1.15.65,2.19.8,3.14l35.66-12.28c.89-2.44,1.32-4.51.99-5.46-.56-1.61,2.06-4.04,5.9-5.36,3.74-1.29,7.98-2.87,9.28-3.49,1.39-.58,3.32-.03,4.31,1.22,1.05,1.22-1.4,3.6-5.4,5.31-4.09,1.7-6.91,3.51-8.55,5.52l413.91-142.52c-.55-5.42,2.43-11.58,5.46-9.84.63.36.48,3.84-.29,8.06l70.67-24.33c-1.47-.18-3.19-.53-5.22-1.06-4.85-1.29-6.56-3.55-5.46-7.28,1.15-3.74,2.04-4.28,2.99-1.69.76,2.04,3.72,2.95,6.54,1.98,2.86-.98,5.92.25,6.77,2.7.46,1.33.61,2.41.45,3.26l15.11-5.2c1.13-.62,2.55-1.28,4.27-1.97,4.16-1.66,7.73-2.67,8.64-2.47l90.75-31.25c-1.29-5.92-.51-11.61,2.6-12.68,4.17-1.44,6,3.69,2.6,7.32-.61.69-.78,2.07-.6,3.78l195.94-67.47c.15-3.49-.53-8.61-1.61-11.74-1.13-3.29-.18-5.64,2.06-5.32,2.25.37,4.93,3.19,5.96,6.19.8,2.34.33,5.95-1.03,9.02l228.11-78.54c-.2-.39-.38-.8-.53-1.24-1.1-3.19-4.15-5.72-6.77-5.65-2.63.09-3.91-1.5-2.86-3.51,2.12-3.99,14.29,1.99,16.93,8.06l9.32-3.21c-2.44-2.69-5.36-8.05-6.78-12.33-2.34-6.96-1.95-7.5,2.75-3.89,2.98,2.27,6.19,7.96,7.13,12.7.18.86.32,1.63.44,2.31l326.71-112.5-20.13-58.45ZM275.45,1562.05c-.9-2.6.24-4.42,2.45-4.02,2.25.37,4.57,1.93,5.12,3.51.54,1.57-.62,3.39-2.52,4.04-1.85.64-4.15-.93-5.05-3.53Zm22.11,33.61c.44,5.78.26,5.84-4.12,1.54-4.56-4.53-3.77-10.61,1.12-8.62,1.45.59,2.82,3.8,3,7.08Zm17.59-16.48c-1.67,2.99-6.92-.38-8.55-5.47-1.27-3.93-.57-4.02,4.02-.55,3.05,2.3,5.07,5.05,4.53,6.02Zm-.47-15.27c-1.86.64-3.93-.23-4.54-1.99-.61-1.77.77-2.9,2.98-2.52,2.24.39,4.32,1.25,4.58,2,.25.73-1.14,1.87-3.02,2.52Zm-.36-17.98c-1.92,9.06-2.5,9.58-4.4,4.05-1.22-3.54-.49-8.9,1.66-12,2.09-3.03,4.12-4.82,4.4-3.99.29.85-.48,6.27-1.66,11.95Zm9.75,14.82c-2.34-3.32-1.55-6.28,2.39-8.73,4.24-2.61,6.56-2.1,7.88,1.73,2.59,7.52-5.82,13.26-10.27,7.01Zm31.01-14.1c-1.9.65-4.22-.96-5.1-3.5-.9-2.6.24-4.44,2.5-4.05,2.2.39,4.5,1.95,5.05,3.53.54,1.57-.6,3.38-2.45,4.02Zm38.15,7.73c-2.21,3.95-3.46,3.45-5.39-2.15-1.94-5.64-1.26-6.76,2.9-5.06,4.17,1.68,4.73,3.31,2.48,7.21Zm-18.05-20.89c-6.15.4-7.84-1.05-7.32-6.43.55-5.9.97-6.16,2.72-1.77,1.28,3.13,4.79,4.23,8.94,2.8,3.82-1.31,7.38-1,7.95.66,1.13,3.29-.47,3.89-12.3,4.74Zm43.11-17.65c-1.68,3.72-4.22,7.11-5.68,7.61-3.37,1.16-10.8-6.76-9.11-9.69.65-1.23,1.76-.73,2.36,1.04.65,1.88,4.13,1.39,8.26-1.2,6.36-3.94,6.83-3.67,4.17,2.24Zm44.84-18.51c-.28,3.06-1.84,6.01-3.53,6.59-4.54,1.56-4.74-1.54-.68-8.71,3.94-6.84,4.92-6.36,4.21,2.12Zm93.12.26c-.61,2.08-3.33,4.56-6.08,5.51-2.71.93-5.43.32-6-1.35-.57-1.66,2.18-4.1,6.05-5.43,3.94-1.36,6.63-.79,6.03,1.27Zm220.15-104.3c.41,3.15-1.2,7.12-3.52,8.74-2.66,1.9-4.41.86-4.81-2.84-.35-3.19,1.2-7.12,3.54-8.74,2.68-1.86,4.41-.86,4.79,2.84Zm98.79-25.66c.85,3.38-.66,6.85-3.3,7.76-2.98,1.03-4.59-.43-4.33-3.82.23-3.01-.02-6.81-.58-8.44-.56-1.61.73-2.66,2.86-2.3,2.06.35,4.5,3.39,5.36,6.79Zm2.53-20.37c-4.23,7.44-5.62,8.3-6.95,4.42-1.96-5.69,4.88-16.66,9.25-14.87,1.63.69.61,5.39-2.3,10.45Zm49.09-2.3c-5.32-.86-4,11.04,1.7,15.56,3.1,2.38,3.62,4.29,1.47,5.03-4.37,1.5-12.18-8.21-10.72-13.32.65-2.15-.95-5.07-3.52-6.37-3.45-1.83-2.49-3.25,3.62-5.35,4.56-1.57,8.95-1.05,9.69,1.12.74,2.14-.25,3.64-2.24,3.34Zm9.66,6.89c-.22-.64,1.63-2.76,4.17-4.68,2.46-1.96,5.01-2.23,5.57-.6.56,1.61-1.37,3.7-4.17,4.66-2.86.98-5.33,1.3-5.56.62Zm19.91,18.05c-.83.29-2.94-.46-4.68-1.72-1.75-1.27-1.53-2.82.5-3.52,2.01-.69,4.11.06,4.69,1.73.57,1.66.35,3.21-.5,3.5Zm6.37-8.87c-1.92.66-3.94-.31-4.52-2.01-.61-1.77.7-2.88,2.95-2.56,2.25.37,4.34,1.31,4.59,2.04.23.68-1.12,1.88-3.02,2.53Zm25.85-23.62c.54,5.42-.12,5.47-6.29.53-7.47-6.01-6.94-11.73.89-8.54,2.63,1.06,5.06,4.67,5.4,8.01Zm10.32-5.76c-1.85.64-3.88-.14-4.45-1.81-.57-1.66.55-3.54,2.39-4.17,1.92-.66,3.94.14,4.51,1.79.58,1.67-.53,3.53-2.45,4.19Zm1.72-20.78c.12,3.64-2.48,7.6-5.78,8.74-7.03,2.42-18.83-2.69-16.31-7.01.94-1.64,3.94-1.53,6.76.26,3.77,2.43,5.14,2.18,5.51-1.13.77-7.45,9.56-8.22,9.83-.85Zm43.35,28.86c-2.02.7-3.13-.4-2.53-2.46.56-2.07,1.77-3.96,2.61-4.24.85-.29,1.98.79,2.56,2.47.57,1.66-.66,3.56-2.63,4.24Zm6.98-36.1c-1.97.68-5.2-.57-7.21-2.72-5.52-6.01-2.49-7.99,4.58-2.96,3.93,2.83,4.94,4.89,2.63,5.68Zm23.77-16.35c-4.86-7.02-4.72-7.71,1.24-5.92,4.57,1.39,6.36.95,5.58-1.31-.64-1.86.57-3.99,2.72-4.73,2.47-.85,4.26,2.16,4.92,8.29.57,5.3,2.78,9.92,4.98,10.27,2.14.41,4.6,2.63,5.43,5.03,4.03,11.69-14.76,2.9-24.86-11.62Zm131.97-47.36c-1.92.66-3.95-.17-4.52-1.84-.56-1.63.53-3.55,2.44-4.21,1.92-.66,3.9.2,4.46,1.83.58,1.67-.46,3.56-2.38,4.22Zm35-2.01c-4.26,1.52-8.21,1.34-8.77-.28-1.3-3.77,2.36-5.03,10.33-3.56,5.02.91,4.71,1.62-1.56,3.83Zm28.73,14.16c-.56,1.82-2.27,3.8-3.84,4.34-3.71,1.28-9.96-5.41-8.08-8.7,2.03-3.61,13.09.43,11.92,4.36Zm12.58-31.89c-.62,2.17-2.85,4.53-4.85,5.23-2.24.77-2.62-1.02-.86-4.87,3.02-6.57,7.61-6.89,5.71-.35Zm38.57-16.47c-1.92.66-3.88-.14-4.46-1.81-.58-1.67.46-3.56,2.38-4.22,1.9-.65,3.95.17,4.52,1.84.58,1.67-.55,3.54-2.45,4.19Zm105.63-14.9c-5.49-2.24-7.81-14.44-3.81-20.16,2.09-3.03,4.28-4.34,4.83-2.93.51,1.47,1.75.11,2.66-2.89.9-3.05,2.39-5.11,3.32-4.54,3.04,1.87-3.81,31.78-7,30.52Zm28.6-38.06c-.61,2.08-2.61,4.3-4.51,4.95-1.92.66-3.01-.49-2.4-2.57.61-2.03,2.67-4.28,4.59-4.94,1.83-.63,2.92.54,2.31,2.57Zm133.21-55.98c1.9-.65,4.1.84,4.96,3.34.86,2.51.05,5.05-1.85,5.7-1.92.66-4.12-.84-4.98-3.35-.86-2.5-.05-5.03,1.87-5.69Zm-76,53.17c-2.82.97-4.23,5.41-3.28,10.36,1.57,8.03,1.28,8.28-3.09,3.25-5.2-5.98-5.66-16.21-.76-17.89,1.69-.58,2.38-3.13,1.52-5.62-.84-2.45-3.86-3.72-6.73-2.73-5.77,1.99-7.34-.39-5.16-7.55,1.16-3.77,3.13-4.04,8.79-1.33,11.55,5.46,16.92,18.7,8.72,21.52Zm18.24-19.77c-4.08,1.41-10.44-3-8.72-6,1.72-3.02,9.76-1.56,11,2.02.54,1.57-.47,3.35-2.28,3.98Zm42.2-14.3c.42,10.33-4.09,12.39-6.58,2.96-1.66-6.66-3.49-7.95-7.9-5.66-6.3,3.26-9.59-1.05-4.78-6.21,4.65-5.07,18.99,1.53,19.26,8.91Zm35.58,27.98c-1.85.64-3.89-.22-4.44-1.82-.58-1.67.51-3.59,2.36-4.23,1.92-.66,3.97.18,4.55,1.85.55,1.6-.55,3.54-2.47,4.2Zm2.96-38.51c-1.98,2.1-4.75,9.37-6.25,16.15-1.52,6.71-4.37,13.42-6.39,14.81-5.65,4.05-6.86-4.92-1.69-12.58,2.63-3.82,6.19-11.03,7.96-15.92,1.78-4.93,4.72-8.37,6.55-7.61,1.82.73,1.75,3.06-.17,5.16Zm23.34,36.19c-1.92.66-3.95-.17-4.52-1.84-.56-1.61.54-3.51,2.45-4.17,1.85-.64,3.89.19,4.45,1.8.58,1.67-.53,3.58-2.38,4.22Zm22.78-16.29c-.5,6.38-5.97,8.37-15.76,5.81-6.96-1.77-7.09-2.33-2.5-9.44,2.63-4.17,6.94-7.18,9.6-6.77,3.54.6,3.78,1.87.96,4.99-2.95,3.32-2.47,3.77,2.21,2.21,3.83-1.27,5.79-.14,5.49,3.21Zm12.05-22.71c-.61,2.08-1.82,4.04-2.68,4.34-.78.27-1.98-.86-2.56-2.53-.56-1.61.66-3.57,2.61-4.24,2.04-.7,3.19.44,2.63,2.44Zm20.14-19.06c-8.91,6.8-15.42,7.62-14.96,1.86.28-3.06-.22-7.78-1.17-10.56-1.45-4.56-1.12-4.68,3.72-1.02,2.91,2.24,7.63,3.3,10.38,2.36,6.67-2.3,8.05,2.73,2.04,7.36Zm19.44-6.26c-3.74-1.94-4.55-3.58-2.31-4.35,2.02-.7,5.23-.15,7.08,1.19,5.51,3.96,1.66,6.5-4.77,3.17Zm3.13-12.98c-1.51,4.91-1.99,4.95-3.56.62-1.04-2.83-.54-6.46.97-8.14,1.56-1.68,3.21-1.97,3.63-.64.4,1.39-.04,5.06-1.04,8.16Zm116.01,7.02c-4.09,1.25-5.14.8-2.71-1.08,2.18-1.74,5.18-2.67,6.64-2.06,1.54.61-.25,1.99-3.92,3.14Zm-11.45-34.7c-6.55-1.68-7.63-3.18-5.23-7.36,2.34-4.1,3.97-4.49,7.8-1.8,2.64,1.83,5.38,5.07,6.16,7.11,1.65,4.63,1.46,4.65-8.72,2.05Zm28.28-28.45c-4.04,1.24-5.13.85-2.7-1.1,2.17-1.72,5.18-2.67,6.7-2.03,1.48.6-.31,2.03-4,3.13Zm40.81,36.27c-5.98-2.61-6.79-3.85-3.2-5.09,2.59-.89,7.24-.36,10.22,1.2,8.41,4.35,2.07,7.85-7.02,3.89Zm-4.54-38.38c-1.92.66-3.92-.26-4.52-2.01-.61-1.77.7-2.88,2.97-2.51,2.27.38,4.27,1.29,4.52,2.01.26.74-1.05,1.85-2.97,2.51Zm48.31-8.03c-1.45,6-2,6.08-6.36.66-5.7-7.04-4.94-9.38,2.47-8.15,3.93.68,5.04,2.76,3.89,7.49Zm87.76-33.95c.83,2.4.31,5.62-1.1,7.19-3.34,3.61-9.45-.59-7.95-5.55,1.59-5.59,7.32-6.65,9.04-1.64Zm-11.28-11.1c2-.69,3.17.45,2.54,2.47-.59,2.08-1.76,4-2.61,4.3-.83.29-1.98-.84-2.56-2.52-.56-1.61.6-3.55,2.63-4.25Zm25.06,43.09c-.27,2.66-4.37,7.04-9.22,9.64l-8.77,4.79,7.48-10.33c7.99-10.92,11.13-12.17,10.52-4.11Zm15-37.49c-.58,12.2-1.26,13.16-6.43,9.46-1.93-1.38-1.14-6.6,1.76-11.55l5.17-9.01-.51,11.1Zm44.32,15.97c-1.92.66-3.95-.3-4.54-2.01-.61-1.77.71-2.88,2.97-2.57,2.25.37,4.34,1.31,4.59,2.04.23.68-1.12,1.88-3.02,2.53Zm139.66-85.2c-5.06,1.74-12.55,5.74-16.67,8.88-6.47,4.97-7.49,4.87-7.71-.48-.19-3.68,1.95-6.22,5.15-6.21,3-.05,7.27-2.63,9.46-5.74,3.23-4.68,5.27-5.16,11.43-2.62,6.98,2.82,6.89,3.23-1.65,6.17Zm42.88,15.58c-2.16,7.44-11.04,7.2-13.64-.35-1.44-4.17-3.95-7.1-5.64-6.52-1.69.58-4.82-1.36-6.97-4.34-4.51-6.35-4.4-6.39,8.56-5.79,7.79.39,9.97,2.15,10.32,8.24.23,4.86,1.92,7.25,4.4,6.39,2.24-.77,3.56.3,2.96,2.38Zm15.47-3.73c-1.61,2.81-6.86.66-8.25-3.37-.66-1.91.97-2.26,4.18-.94,2.93,1.18,4.79,3.12,4.06,4.31Zm2.84-15.86c-.54-1.57.21-4.13,1.57-5.66,1.42-1.53.81-5.15-1.28-8.16-2.18-2.98-2.2-5.99-.07-6.72,2.15-.74,4.78,1.27,5.88,4.44,1.1,3.19,3.98,5.72,6.42,5.57,2.47-.14,3.89,1.8,3.17,4.23-1.51,5.31-14.28,10.36-15.68,6.28Zm22.81,14.59c-.78,1.43-2.22-.05-3.14-3.31-1.05-3.57-.46-4.56,1.43-2.52,1.75,1.81,2.56,4.44,1.71,5.83Zm6.68-38.58c-5.96,2.17-17.12-9.09-14.15-14.28.83-1.45,2.33-.14,3.36,2.85,1.03,2.99,5.2,6.33,9.33,7.38,6.96,1.83,7.03,2.04,1.45,4.04Zm116.09-46.6c-1.92.66-3.99-.24-4.6-1.99-.61-1.77.77-2.9,3.04-2.54,2.24.39,4.26,1.29,4.51,2.02.26.74-1.07,1.86-2.95,2.51Zm19.2,6.88c-2.82.97-5.38-1.39-6.54-6.19-1.03-4.26-.85-8.12.45-8.56,1.22-.42,4.2,2.35,6.51,6.17,2.87,4.65,2.71,7.51-.42,8.59Zm30.13-20.47c-1.92.66-3.89-.19-4.47-1.86-.56-1.63.47-3.53,2.39-4.19,1.92-.66,3.9.2,4.46,1.83.58,1.67-.46,3.56-2.38,4.22Zm28.4,10.41c-3.19,1.1-5.69-.28-6.05-3.5-.92-8.15,6.82-11.96,9.33-4.65,1.29,3.74-.07,7.05-3.29,8.16Zm60.76-22.07c-1.57,6.04-2.17,5.74-4.98-2.01-2.28-6.46-1.85-8.31,1.8-6.83,3.58,1.4,4.46,3.96,3.18,8.84Zm-2.39-16.57c-1.55,1.68-3.49.93-4.37-1.63-.9-2.6-.11-5.23,1.78-5.89,1.92-.66,3.87.11,4.41,1.67.52,1.52-.24,4.19-1.82,5.85Zm64.77,19.84c-1.92.66-4.22-.9-5.1-3.45-.9-2.6.24-4.44,2.51-4.06,2.2.39,4.5,1.95,5.05,3.53.53,1.53-.62,3.33-2.46,3.97Zm157.64-91.32c-1.9.65-3.9-.2-4.47-1.86-.58-1.67.5-3.52,2.39-4.17,1.92-.66,3.95.11,4.53,1.79.57,1.66-.53,3.58-2.45,4.24Z"/><path class="cls-2" d="m302.48,1027.14c-16.72-17.19-35.52-27.85-56.43-31.97-20.91-4.12-44.1-1.79-69.58,6.98-2.18.75-4.3,1.54-6.4,2.34-1.21,1.46-2.65,2.96-4.4,4.44-4.77,4-7.88,9.63-6.9,12.47.98,2.85-.75,7.61-3.82,10.59-11.98,11.6-13.78,6.67-3.66-9.87,2.28-3.71,4.26-8.1,5.54-11.98-16.76,7.97-30.61,17.93-41.51,29.88-10.54,11.55-18.12,24.66-22.77,39.32,1.31,1.58,2.3,3.79,2.52,5.93.39,4.28-.65,4.05-3.93-1.07-1.23,4.59-2.2,9.31-2.87,14.18-3.13,22.56-.02,47.42,9.34,74.59l29.52,85.74c.69-4.72,1.77-8.51,3-8.93,3.92-1.35,6.3,7.16,2.96,10.77-1.56,1.7-1.95,5.63-.89,8.72.61,1.77.73,3.77.46,5.48l20.21,58.68c9.35,27.17,22.19,48.63,38.52,64.38,16.32,15.76,35.39,25.49,57.2,29.18,7.55,1.28,15.35,1.79,23.39,1.56,0,0,0,0,0-.01,1.51-1.64,3.16-1.66,3.76-.15,14.06-.8,28.83-3.86,44.34-9.2,25.48-8.77,45.14-21.2,58.99-37.29,13.84-16.08,22.06-36.04,24.65-59.88,2.58-23.84-.51-51.85-9.29-84.03l-75.32,25.93c4.16,15.13,5.93,28.19,5.32,39.19-.16,2.92-.49,5.69-.96,8.33.21,1.01.25,2.47.1,4.44-.2,2.01-1.34,4.12-2.9,5.66-1.23,3.11-2.75,5.94-4.57,8.49-4.95,6.94-12.1,12.03-21.47,15.25-9.93,3.42-19.18,4.25-27.75,2.48-8.57-1.76-16.17-6.01-22.78-12.75-6.61-6.73-11.92-15.91-15.92-27.52l-51.34-149.1c-2.59,4.31-3.77,3.98-7.17-1.6-3.22-5.32-2.75-7.41,2.25-9.14.37-.13.74-.23,1.11-.32l-.11-.32c-3.93-11.43-5.4-21.92-4.4-31.49,1-9.56,4.33-17.68,10.01-24.35,5.67-6.67,13.46-11.71,23.4-15.13,9.18-3.16,17.9-3.54,26.17-1.15,8.26,2.4,15.98,7.76,23.14,16.08,7.16,8.33,13.86,19.7,20.08,34.11l75.32-25.93c-12.71-30.83-27.42-54.84-44.14-72.03Zm-140.49,273.81c-.69,1.28-5.02,1.35-9.49.18-8.89-2.3-5-5.18,4.77-3.5,3.33.55,5.42,2.09,4.72,3.32Zm37.62,96.87c-1.9.65-4.41-1.5-5.55-4.83-1.14-3.3-.5-6.58,1.4-7.23,1.92-.66,4.36,1.55,5.5,4.85,1.15,3.33.57,6.55-1.35,7.21Zm-85.68-282.43c-3.57,3.87-4.94-.1-2.6-7.55,1.52-4.86,2.07-4.94,3.63-.59.96,2.79.52,6.46-1.03,8.14Zm71.63,179.37c-.85.29-2.96-.52-4.69-1.73-1.77-1.27-1.5-2.9.47-3.58,2.01-.69,4.11.13,4.69,1.8.56,1.61.36,3.22-.48,3.51Zm43.37,92.97c-.6,2.06-1.76,4-2.59,4.29s-1.98-.86-2.55-2.52c-.57-1.66.58-3.55,2.61-4.24,2.02-.7,3.16.4,2.54,2.47Zm-11.99-39.73c-2.01.69-3.13-.4-2.54-2.47.61-2.08,1.77-3.96,2.63-4.25.83-.29,1.96.8,2.54,2.47.58,1.67-.58,3.55-2.63,4.25Zm165.17-79.37c2.23-1.76,5.25-2.69,6.72-2.05,1.46.61-.3,2.03-4,3.13-4.06,1.24-5.13.79-2.71-1.08Zm-10.56,99.62c2.93,1.19,4.74,3.16,4.06,4.31-1.61,2.81-6.91.68-8.29-3.34-.66-1.92,1.02-2.28,4.23-.97Zm-105.54-18.04c2.95-2.28,4.24-1.74,3.96,1.65-.17,2.75-1.75,5.47-3.49,6.07-4.95,1.7-5.34-4.04-.48-7.73Zm-14.86,15.92c-2.79-12.32,3.71-15.1,7.76-3.33,1.52,4.42.97,9.33-1.31,10.94-2.98,2.07-4.77-.02-6.45-7.61Zm-42.92-362.74c-4.08,1.23-5.11.84-2.68-1.11,2.16-1.73,5.2-2.6,6.65-2.01,1.51.57-.31,2.03-3.97,3.12Zm20.73,3.23c-.59,2.08-2.55,4.29-4.34,4.91-1.79.62-3.72-.26-4.3-1.94-.56-1.61,1.38-3.82,4.36-4.85,2.98-1.03,4.89-.14,4.28,1.87Zm52.31,104.06c-.07,2.23-1.79,5.23-3.82,6.66-2.27,1.6-3.54.49-3.26-2.88.52-6.33,7.26-9.92,7.08-3.77Zm10.23-17.67c-1.92.66-3.88-.14-4.45-1.81-.58-1.67.48-3.51,2.39-4.17,1.92-.66,3.93.12,4.51,1.79.58,1.67-.53,3.53-2.45,4.19Z"/><path class="cls-2" d="m636.6,1104.5c0,.18.02.34.03.53.2,4.04-1.02,7.81-2.64,8.37-1.65.57-2.43-3.01-1.66-7.89.34-2.27.71-4.04,1.09-5.35l-33.62-45.88c-.11.04-.21.11-.32.15-4.38,1.51-4.99.83-2.76-3.06.14-.24.25-.51.36-.8l-103.92-141.82c-1.52.03-2.92-.82-3.41-2.24-.28-.8-.12-1.48.35-1.94l-3.33-4.54-48.9,16.84,13.95,452.26,75.88-26.13-4.42-70.47,115.14-39.65,17.14,25.02c.62.32,1.26.63,1.9.92,7.19,3.18,9.09,5.92,8.62,12.4-.05.67-.1,1.26-.15,1.81l12.4,18.1,75.88-26.13-117.61-160.5Zm-33.42-31.12c.6-2.06,1.76-4,2.59-4.29.83-.29,1.98.86,2.55,2.52.58,1.67-.58,3.56-2.6,4.26-2.02.7-3.16-.4-2.54-2.49Zm32.97,82.45c1.71,1.84,2.48,4.49,1.7,5.85-.82,1.43-2.22-.05-3.14-3.31-1.06-3.61-.51-4.54,1.45-2.54Zm-52.5-102.67c3.3-1.14,6.53-.76,7.1.92,1.27,3.67.86,3.81-6.92,2.38-5.3-.98-5.35-1.47-.18-3.3Zm3.56,94.28c2.08-1.63,3.08-4.89,2.27-7.25-.79-2.29-.02-4.78,1.72-5.38,1.81-.62,3.13-3.7,2.97-6.88-.17-4.71.3-4.66,2.39.32,1.36,3.43.47,9.44-2.07,13.36-2.53,3.94-6.07,7.57-7.86,8.03-1.78.49-1.53-.46.58-2.19Zm-85.1-216.31c2.22.4,4.27,1.27,4.52,2.01.25.73-1.11,1.86-2.97,2.5-1.92.66-3.96-.21-4.58-2-.59-1.71.76-2.88,3.02-2.52Zm44.89,121.6c-.12,3.51-.9,3.78-4.17,1.44-4.26-3.09-2.99-8.68,1.61-6.87,1.47.64,2.62,3.05,2.56,5.43Zm-24.48-42.61c-1.92.66-6.09-.16-9.31-1.86-3.29-1.71-4.36-3.55-2.39-4.22,1.9-.65,6.07.16,9.29,1.85,3.22,1.7,4.33,3.57,2.41,4.23Zm-5.52,12.1c-3.32,1.09-6.5.59-7.1-1.13-.72-2.09,1.72-2.83,7.28-2.21,7.94.82,8.17,1.25,4.32,8.73-4.19,8.24-5.93,9.93-7.03,6.74-.37-1.09,1.42-4.65,3.96-7.99,4.48-5.83,4.41-6.03-1.43-4.14Zm-34.44-106.26c2.11,3.02,3.55,5.54,3.15,5.68-1.95.67-11.58-4.47-12.31-6.58-1.7-4.95,5.43-4.28,9.16.9Zm-6.84,22.63c.59-2.08,1.75-4.02,2.6-4.31.83-.29,1.98.86,2.56,2.54.55,1.6-.61,3.54-2.63,4.24-2.02.7-3.17-.45-2.53-2.46Zm-11.6,17.44c1.97-.68,4.13.11,4.7,1.78.58,1.67.36,3.22-.48,3.51-.85.29-2.97-.45-4.69-1.73-1.75-1.27-1.54-2.87.46-3.56Zm-1.39,152.24c1.88-.65,3.95.18,4.53,1.86.55,1.6-.57,3.53-2.45,4.17-1.92.66-3.92-.19-4.47-1.79-.58-1.67.47-3.58,2.39-4.24Zm33.58,184.06c.19,3.61-.73,7-2.02,7.44-1.3.45-3.48-1.87-4.88-5.07-1.43-3.24-.52-6.57,2.02-7.44,2.91-1,4.73.83,4.88,5.07Zm22.2-96.09l-9.54-152.32,41.47,60.53c-.45-.8-.88-1.78-1.3-2.98-1.77-5.15-1.05-6.17,3.12-4.42,7.59,3.09,11.16,1.15,9.38-5.1-1.18-3.93-.65-4.44,1.83-1.77,1.88,1.99,1.19,6.39-1.53,9.79-5.19,6.53-8.28,8.41-10.62,5.79l43.9,64.08-76.71,26.41Zm156.77,2.42c2.27.36,4.98,3.33,6.07,6.51,1.17,3.4-.35,6.66-3.51,7.75-3.64,1.25-5.38.05-5.12-3.56.29-3.01,0-6.8-.56-8.43-.56-1.61.84-2.65,3.11-2.27Zm-14.1-7.16c-1.17-3.4-.26-5.89,1.99-5.52,2.27.38,4.76,2.63,5.57,5,.83,2.4-.02,4.9-1.94,5.56-1.9.65-4.44-1.61-5.62-5.03Zm25.78,56.43c-5.06-2.06-4.76-6.16.58-8,2.86-.98,5.61-.49,6.15,1.07,1.32,3.83-3.15,8.38-6.73,6.93Z"/><path class="cls-2" d="m954.07,898.61c-1.37-3.97.21-6.82,4.65-8.35.73-.25,1.45-.61,2.16-1.01l-46.94-136.32-68.57,23.61,94.81,275.34-20.99-23.31c-.4.17-.81.33-1.24.48-3.83,1.32-7.61.38-8.47-2.13-1.41-4.08-1.31-5.13,3.32-5.45l-167.86-186.39c-2.63,3.83-4.53,4.47-6.93,2.73-2.45-1.74-2.55-4.06-.37-5.58.74-.54,1.63-1.4,2.56-2.42l-11.73-13.03-74.19,25.55,61.98,179.99c-.11-.8.43-1.53,1.63-1.95,2.01-.69,4.13.12,4.71,1.8.55,1.6.35,3.21-.5,3.5-.85.29-2.94-.53-4.68-1.72-.43-.31-.74-.64-.93-.98l78.4,227.69,68.29-23.51-65.82-191.16c-.2-.02-.26-.19-.18-.53l-25.92-75.27,208.27,226.9,75.04-25.84-71.74-208.35c-1.22-.45-1.45-1.1-.68-1.98l-9.35-27.14c-1.06.63-2.27,1.21-3.62,1.67-9.85,3.39-11.68,1.54-6.22-6.2,1.85-2.62,4.36-4.1,6.75-4.44l-4.07-11.82c-1.57-.45-3.26-.5-4.64-.03-2.64.91-5.78-1.1-6.91-4.38Zm-9.5-38.89c2.26.38,4.73,2.66,5.54,5.03.82,2.39,0,4.88-1.91,5.53-1.92.66-4.44-1.59-5.62-5.03-1.16-3.38-.28-5.89,1.99-5.52Zm-210.91,189c-1.78-1.31-.6-2.27,2.84-2.31,3.32-.03,6.15.52,6.37,1.15.85,2.47-6.21,3.35-9.21,1.16Zm82.38,164.67c-2.14,3.63-3.34,3.28-5.02-1.62-1.22-3.55-3.75-6.74-5.61-7.02-1.92-.28-4.16-4.93-5.04-10.25-.88-5.33-.26-9.45,1.44-9.15,1.73.29,3.52,4.22,4.07,8.69.55,4.53,3.68,9.59,6.98,11.33,4.51,2.38,5.31,4.31,3.19,8.01Zm-22.45-85.85c-1.56,1.68-3.53.92-4.43-1.67-.88-2.56-.1-5.24,1.82-5.9,1.9-.65,3.92.07,4.46,1.66.54,1.57-.31,4.22-1.86,5.91Zm34.05,62.58c.49,4.37-.32,8.4-1.78,8.9-3.19,1.1-4.24-11.39-1.22-14.67,1.13-1.27,2.48,1.33,3,5.77Zm-65.37-181.61c-2.86.98-5.35,1.24-5.58.58-.2-.59,1.35-3.59,3.49-6.63,3.14-4.55,4.18-4.68,5.57-.65.93,2.7-.67,5.73-3.49,6.7Zm67.59,168.93c-2.02.7-3.17-.45-2.55-2.52.54-2.06,1.77-3.96,2.61-4.25.83-.29,1.98.79,2.56,2.47.57,1.66-.64,3.62-2.61,4.3Zm-7.84-37.76c.43,9.84-3.67,12.57-4.76,3.18-.49-4.37.27-8.38,1.78-8.9,1.51-.52,2.85,2.04,2.98,5.72Zm-60.09-163.34c-4.32,3.31-4.83,3.09-2.49-1,1.65-2.87,4.1-4.76,5.48-4.19,1.38.56.06,2.88-3,5.19Zm8.67-16.43c1.81,5.26,0,6.75-4.36,3.58-1.64-1.13-1.69-3.48-.1-5.24,1.55-1.68,3.56-.95,4.46,1.65Zm-5.35-11.51c-2.16-2.31-1.55-4.51,1.55-5.58,2.73-.94,5.48-.45,6.02,1.12,1.74,5.05-3.92,8.44-7.57,4.46Zm62.3-12.99c-2.01.69-3.15-.44-2.54-2.47.61-2.08,1.76-4,2.61-4.3.83-.29,1.98.85,2.56,2.52.56,1.63-.58,3.55-2.63,4.25Zm53.45,109.75c-1.92.66-3.89-.19-4.47-1.86-.58-1.67.48-3.51,2.39-4.17,1.92-.66,3.93.12,4.51,1.79.58,1.67-.52,3.58-2.43,4.24Zm70.95,109.55c-.85,1.39-2.22-.1-3.16-3.35-1.06-3.59-.49-4.55,1.45-2.54,1.76,1.82,2.47,4.47,1.71,5.9Zm-10.17-253.04c3.27-.02,5.87,1.53,5.83,3.54-.23,6.88-7.52,8.88-9.66,2.67-1.49-4.33-.29-6.21,3.84-6.21Zm68.64,179.29c.44,10.55-5.27,10.76-8.88.27-1.73-5.02-1.66-9.54.08-10.14,5.11-1.76,8.48,1.97,8.8,9.87Zm-112.7-250.69c1.06-.37,1.29,2.64.34,6.65-.88,4.03-4.15,8.18-7.31,9.26-4.7,1.62-4.77.5-.39-6.61,2.97-4.7,6.22-8.91,7.36-9.3Zm36.05,150.88c-3.43,2.62-4,1.88-2.77-3.71,2.18-9.86,6.57-13.72,6.83-6.06.16,3.57-1.68,7.91-4.06,9.77Zm39.45,96.31c.57,1.66-.53,3.58-2.43,4.24-1.92.66-3.92-.19-4.49-1.85-.58-1.67.49-3.53,2.41-4.19,1.9-.65,3.94.14,4.51,1.81Zm-100.86-270.44c2.22.38,4.29,1.26,4.54,1.99s-1.13,1.86-2.99,2.5c-1.9.65-3.96-.21-4.57-1.98-.61-1.77.77-2.9,3.02-2.52Zm90.8,280.65c1.75,1.27,1.65,2.78-.26,3.44-1.92.66-4.87.2-6.58-1.08-1.75-1.27-1.63-2.78.25-3.43,1.92-.66,4.91-.22,6.6,1.07Zm-9.73,43.81c-1.81.62-4.68.14-6.43-1.13-1.75-1.27-.76-3.14,2.22-4.16,2.91-1,5.86-.49,6.44,1.18.58,1.67-.44,3.5-2.23,4.12Zm18.51,3.44c-2.84,13.93-8.43,16.57-8.62,4.13-.1-5.08,1.7-9.48,3.97-9.81,2.35-.32,3.65-2.21,2.99-4.12-.66-1.91-.06-3.05,1.41-2.46,1.39.58,1.51,6.07.25,12.26Zm16.66-27.36c.46,4.45-9.41,9.73-10.78,5.76-.59-1.72-3.18-1.56-5.7.4-2.48,1.91-5.11,1.93-5.78-.02-.75-2.17,3.25-4.64,10.35-6.43,6.35-1.63,11.67-1.5,11.91.29Zm-60.29-175.85c-.73,2.5.84,9.54,3.4,15.74,6.11,14.47,4.38,14.67-5.83.53-9.06-12.42-9.3-16.24-1.46-18.94,3.21-1.11,4.7-.07,3.89,2.66Zm-5.18-19.77c-6.88,11.96-15.7,5.89-10.62-7.32,2-5.32,4.76-10.05,6.21-10.6,4.08-1.63,7.59,12.42,4.4,17.92Zm20.55,23.93c.05-2.45,9.82,7.7,11.62,12.02.89,2-.44,4.37-2.86,5.2-3.71,1.28-8.79-8.76-8.77-17.22Zm37.58,98.36c-2.02.7-3.17-.45-2.63-2.5.63-2.02,1.84-3.98,2.68-4.27.8-.27,2,.85,2.56,2.47.57,1.66-.66,3.63-2.61,4.3Zm42.38,100.07c-1.92.66-4.39-1.63-5.57-5.05-1.17-3.4-.33-5.87,1.94-5.5,2.27.38,4.75,2.67,5.55,5.01.83,2.42,0,4.89-1.92,5.55Zm-.56-21.17c.39,5.74.18,5.82-4.13,1.54-4.62-4.49-3.79-10.66,1.1-8.67,1.46.61,2.82,3.8,3.03,7.13Zm5.84-7.65c-2.02.7-3.15-.39-2.56-2.47.61-2.08,1.78-4.01,2.61-4.3s1.98.85,2.55,2.52c.58,1.67-.58,3.55-2.61,4.25Zm-52.6-142.34c3.82-1.31,6.92-.89,6.87.93-.14,4.38-5.52,8.06-9.4,6.48-5.49-2.22-4.55-4.97,2.53-7.41Z"/><path class="cls-2" d="m1319.28,919.54l-75.32,25.93c3.34,12.15,5.11,22.94,5.38,32.42,1.2-.07,2.76,1.67,4.14,5.83.97,2.81.89,7.65-.16,10.83-1.35,3.97-2.54,2.91-4.58-4.32-1.13,8.49-3.71,15.63-7.79,21.35-4.95,6.94-12.1,12.03-21.47,15.25-9.93,3.42-19.18,4.25-27.75,2.48-8.57-1.76-16.17-6.01-22.78-12.75-6.61-6.73-11.92-15.91-15.92-27.52l-55.25-160.47c-3.93-11.43-5.4-21.92-4.4-31.49,1-9.56,4.34-17.68,10.01-24.35,5.67-6.67,13.46-11.71,23.4-15.13,9.18-3.16,17.9-3.54,26.17-1.15,8.26,2.4,15.98,7.76,23.14,16.08,7.16,8.33,13.86,19.7,20.08,34.11l75.32-25.93c-1.51-3.67-3.06-7.24-4.63-10.72-1.31-.41-2.5-1.61-3.08-3.3-.43-1.26-.45-2.52-.11-3.55-10.82-22.53-22.92-40.69-36.31-54.46-16.72-17.19-35.52-27.85-56.43-31.97-3.03-.6-6.12-1.04-9.25-1.37.84,1.19,1.85,2.33,2.9,3.24,5.6,4.78,5.81,4.66-6.09,3.87-9.94-.63-13.13-4.81-5.73-7.36.23-.08.46-.19.69-.29-16.15-.46-33.52,2.49-52.11,8.89-25.85,8.9-46.24,21.53-61.15,37.87-14.91,16.35-23.93,35.8-27.06,58.36-3.13,22.56-.02,47.42,9.34,74.59l55.25,160.47c9.35,27.17,22.19,48.63,38.51,64.38,16.32,15.76,35.39,25.49,57.2,29.18,21.81,3.7,45.65,1.1,71.5-7.8,25.48-8.77,45.14-21.2,58.99-37.29,13.84-16.08,22.06-36.04,24.65-59.88,2.58-23.84-.51-51.85-9.29-84.03Zm-85.39-161.14c1.92-.66,3.87.11,4.41,1.67.54,1.57-.24,4.21-1.8,5.89-1.56,1.68-3.56.95-4.46-1.65-.9-2.6-.06-5.25,1.86-5.91Zm-42.68-67.91c2.22.38,4.5,1.95,5.05,3.53.52,1.52-.6,3.33-2.46,3.97-1.9.65-4.2-.91-5.08-3.45-.9-2.6.24-4.44,2.5-4.05Zm24.56,70.8c2.04-.7,3.17.4,2.56,2.47-.59,2.08-1.75,4.02-2.59,4.31-.85.29-2-.85-2.58-2.53-.57-1.66.6-3.55,2.61-4.24Zm-30.94-23.86c2.63,1.07,4.67,3.94,4.61,6.41-.07,2.56-2.12,1.74-4.75-1.92-3.21-4.55-3.16-5.88.14-4.49Zm-55.24-40.93c.63-2.02,2.57-4.23,4.36-4.85,1.74-.6,3.67.28,4.22,1.89.58,1.67-1.36,3.89-4.29,4.89-2.96,1.02-4.89.14-4.3-1.94Zm-10.72-3c1.92-.66,4.17.82,5.03,3.31.85,2.47,0,5.06-1.92,5.72-1.9.65-4.12-.89-4.97-3.35-.86-2.5-.04-5.03,1.85-5.68Zm-2.53,14.33c2.2-.76,3.65,1.66,3.59,5.69-.06,3.8,2.41,8.27,5.55,9.88,4.59,2.37,4.59,3.31.1,4.85-4.1,1.41-6.59-.87-9.26-8.62-1.99-5.78-2-11.1.03-11.8Zm-44.81,195.51c.22.64-1.68,2.78-4.24,4.7-2.47,1.94-5.01,2.21-5.57.6-.56-1.63,1.37-3.7,4.17-4.66,2.87-.99,5.4-1.32,5.64-.64Zm-34.3-60.37c-1.73-1.21-1.53-2.82.48-3.51,1.97-.68,4.13.12,4.69,1.73.57,1.66.32,3.3-.46,3.57-.85.29-3.02-.52-4.71-1.8Zm-2.25-43.95c1.55,2.31,1.09,6.09-.96,8.39-6.9,7.65-9.28,6.26-5.57-3.25,2.89-7.29,4.37-8.46,6.53-5.14Zm-19.57-2.49c-.56-1.61.42-3.51,2.21-4.13,1.79-.62,4.69-.05,6.43,1.15,1.75,1.27.76,3.14-2.2,4.16-2.98,1.03-5.86.49-6.44-1.18Zm76.48,186.96c-2.8,6.62-5.06,9.17-5.91,6.7-.22-.64,1.67-3.92,4.19-7.36,4.21-5.63,4.36-5.56,1.72.66Zm35.28,50.98c-3.39,1.27-7.91.19-10.08-2.3-2.18-2.47-4.82-5.19-5.82-6.06-.96-.82.13-4.23,2.45-7.54,3.76-5.35,4.19-5.17,4.09,1.84-.1,5.69,2.03,8.42,7.67,9.88,7.38,1.9,7.47,2.15,1.7,4.18Zm-65.06-203.18c-.61-1.77-3.58-2.39-6.62-1.35-3.66,1.26-5.4.04-5.12-3.56.27-3.01.23-6.01-.02-6.74-.24-.7,1.15-1.78,3.05-2.44,1.92-.66,4.34,1.42,5.42,4.57,1.09,3.18,4.09,5.67,6.57,5.59,3.51-.17,3.78.61,1.18,3.43-1.81,1.99-3.88,2.22-4.47.5Zm89.81,228.53c-3.82,1.31-10.25-4.98-10.06-9.84.12-1.9,3.1-.67,6.69,2.66,3.71,3.39,5.16,6.57,3.37,7.18Zm-63.37-308.67c1.9-.65,3.94.14,4.51,1.81.57,1.66-.53,3.58-2.43,4.24-1.86.64-3.9-.2-4.47-1.86-.58-1.67.53-3.55,2.39-4.19Zm-1.32,28.84c-1.04-3.6-.44-4.57,1.45-2.54,1.76,1.82,2.54,4.45,1.71,5.83-.78,1.43-2.22-.04-3.16-3.28Zm91.84,305.16c-.28,3.06-.83,3.25-1.92.82-.8-1.91-3.27-5.62-5.38-8.29-3.72-4.58-3.6-4.62,1.92-.77,3.21,2.17,5.63,5.9,5.38,8.24Zm-106.18-317.08c-5.33,9.29-6.78,8.97-5.22-1.32.71-4.86,2.65-9.32,4.21-9.86,4.65-1.6,5.14,4.04,1.01,11.18Zm233.8,223.02c-.55,6.24-.9,6.36-4.78,2.2-6.32-6.88-6.54-9.87-.87-11.82,2.87-.99,5.41-.72,5.72.54.33,1.31.29,5.38-.07,9.08Zm-5.83-36.08c-5.73,6.36-7.69,6.15-12.11-1.1-3.96-6.54-3.82-6.65,5.84-4.87,7.55,1.47,9.05,2.94,6.27,5.98Z"/><path class="cls-2" d="m1504.1,549.73l-154.29,53.12-43.84,15.1-29.23,10.06,140.7,408.62,29.23-10.06,43.84-15.1,154.29-53.12-24.48-71.1-154.29,53.12-33.29-96.67,131.8-45.38-24.29-70.54-131.8,45.38-34.16-99.2,154.29-53.12-24.48-71.1Zm109.76,359.42c1.57-1.65,3.6-.91,4.48,1.65.89,2.59.04,5.24-1.88,5.9-1.9.65-3.86-.09-4.41-1.67-.54-1.57.26-4.2,1.81-5.88Zm-11,24.04c1.56-1.68,3.25-1.68,3.83,0,.56,1.61-.2,4.33-1.75,6.03-1.56,1.68-3.26,1.66-3.83.02-.56-1.63.18-4.36,1.75-6.05Zm10.03,17.83c5.27-8.61,6.84-9.53,10.94-6.56,2.65,1.88,7.47,4.57,10.75,5.85,3.23,1.37,6.3,3.71,6.84,5.28,1.68,4.87-4.01,4.78-10.94-.19-5.22-3.68-8.57-3.57-15.22.47l-8.57,5.21,6.2-10.06Zm-83.15-205.73c2.16-1.73,5.2-2.6,6.65-2.01,1.53.57-.31,2.03-3.95,3.11-4.09,1.25-5.11.84-2.7-1.1Zm-179.78,62.66c-1.99-2.16-1.94-4.54.19-5.27,2.09-.72,5.03-4.37,6.57-8.14,2.35-5.96,2.77-5.62,3.12,2.88.52,11.13-4.45,16.41-9.87,10.53Zm46.52,106.12c-5.52,3.86-6.66-1.99-1.66-9.04,3.61-5.2,4.26-5.14,4.88.12.34,3.4-1.07,7.34-3.22,8.91Zm49.88,111.82c-4.22,1.45-11.03-2.62-9.4-5.56.65-1.04,3.8-.49,7.08,1.19,3.73,1.91,4.57,3.59,2.32,4.37Zm-82.88-271.38c3.77-6.57,5.25-7.36,8.01-4.46,1.95,2.19,1.25,4.39-1.71,5.41-2.82.97-4.58,3.12-4.02,4.75.57,1.66-.53,3.58-2.45,4.24-5.06,1.74-5.02-.92.17-9.94Zm85.5-122.41c-1.52,3.26-4.28,6.52-6.2,7.18-1.92.66-2.2-1.5-.7-4.8,1.5-3.32,4.33-6.56,6.2-7.2,1.95-.67,2.24,1.43.71,4.82Z"/><path class="cls-2" d="m1898.45,792.1l-88.59,30.5c-.64.53-1.32.95-1.98,1.18-.64.22-1.18.22-1.6.05l-32.05,11.04c.82,2.08,1.64,4.48,2.37,6.98,4.11,13.95,3.9,16.28-1.21,14.19-1.84-.74-5.16-.74-7.41.04-2.18.75-5.13-1.42-6.56-4.82-1.38-3.48-3.95-7.33-5.68-8.54-.4-.29-.55-.74-.5-1.31l-8.27,2.85-2.97-8.63c-.16.08-.32.16-.51.23-1.92.66-4.9.19-6.58-1.08-1.75-1.27-1.65-2.83.23-3.48,1.56-.54,3.84-.3,5.55.5l-24.81-72.04c-1.53-.35-2.67-2.04-4.88-6.11-.85-1.56-4.49-5.2-8.1-8.14-5.46-4.38-5.64-5.24-1.07-5.29,2.98-.05,6.93,1.94,8.83,4.38l-82.1-238.43-58.69,20.21c3.95,1.09,7.01.45,8.3-1.77,1.43-2.42,4.7-1.62,8.77,2.13,4.24,3.88,5,5.75,2.2,5.29-2.34-.41-5.4,2.19-6.76,5.73-3.06,7.9-9.54,5.32-16.65-6.56-.65-1.11-1.18-2.04-1.61-2.84l-8.62,2.97,140.7,408.62,31.19-10.74,41.87-14.42,88.38-30.43c-3.15-3.05-7.01-5.66-9.17-5.97-2.39-.44-3.94-2.34-3.42-4.27.61-1.91,6.49-.71,13.13,2.68,3.51,1.78,6.01,3.32,7.64,4.74l54.9-18.9-24.29-70.54Zm-248.98-14.93c-1.85.64-4.47-1.86-5.69-5.62-1.84-5.51-1.39-6.16,2.58-3.4,2.72,1.85,5.3,4.38,5.77,5.57.44,1.29-.75,2.79-2.66,3.45Zm21.59-96.4c1.93.31,3,2.14,2.47,4.07-1.45,4.9-2.67,4.82-4.42-.28-.83-2.4.01-4.11,1.95-3.79Zm-11.74,19.18c1.9-6.53,6.01-6.46,8.29.16,1.14,3.3,2.01,6,1.94,6.03-6.46-.19-11.12-2.97-10.23-6.19Zm18.99,48.75c1.56-1.7,3.17-1.92,3.57-.59.46,1.33.03,4.98-.97,8.14-1.59,4.88-2.05,4.99-3.65.58-.96-2.78-.51-6.45,1.05-8.13Zm-27.86-52.77c.61-2.08,1.78-4.01,2.61-4.3.85-.29,2,.84,2.57,2.51.58,1.67-.6,3.55-2.62,4.25-1.97.68-3.15-.39-2.56-2.47Zm99.56,211.89c-1.29,3.24-2.47,8.2-2.7,11.02-.26,4.32-.63,4.4-2.26.35-1.09-2.64.08-7.61,2.62-11.01,4.04-5.4,4.34-5.43,2.34-.35Zm-10.94-16.26c-.54-1.57.29-4.23,1.86-5.91,1.49-1.66,3.51-.95,4.4,1.66.9,2.6.04,5.26-1.8,5.89-1.92.66-3.92-.07-4.46-1.64Zm8.15-14.44c-1.9-2.05-6.32-1.93-10.42.22-4.13,2.25-5.24,2.25-2.61.03,2.48-2.07,5.14-5.65,5.86-7.95,1-2.93,1.83-3.04,2.72-.45.76,2.04,3.72,2.95,6.59,1.96,2.8-.97,5.86.24,6.72,2.73,1.96,5.69-4.47,8.18-8.86,3.45Zm80.63-27.61c-1.7,1.8-2.49,1.47-1.78-.86.63-2.21-.71-4.37-2.96-4.74-5.15-.88-7.27-5.96-3.12-7.39,1.7-.59,4.82,1.36,6.97,4.34,2.09,2.96,2.53,6.83.89,8.64Zm14.35,16.48c-1.9.65-3.98-.28-4.59-2.04-.59-1.72.77-2.9,3.02-2.52,2.27.36,4.3,1.31,4.54,1.99.25.73-1.05,1.9-2.97,2.56Zm7-46.27c-2.01.69-3.15-.46-2.55-2.52.63-2.04,1.77-3.97,2.62-4.27.83-.29,1.98.86,2.54,2.49.57,1.66-.57,3.59-2.61,4.3Zm14.34,18.65c-1.85.64-3.91-.23-4.52-2-.61-1.77.77-2.9,2.97-2.51,2.27.38,4.34,1.25,4.6,1.99s-1.13,1.86-3.04,2.52Zm14.88-2.97c-6.13-3.21-8.06-11.55-5.15-22.26,1.68-6.41,2.78-5.24,7.51,8.32,5.97,17,5.81,18.15-2.36,13.94Zm23.83,3.15c-1.92.66-4.19-.86-5.05-3.36-.84-2.45,0-5.05,1.92-5.71,1.92-.66,4.13.88,4.98,3.33.86,2.5.06,5.08-1.86,5.74Z"/><path class="cls-2" d="m2177.84,772.48c2.78-4.79,8.56-9.68,12.85-11.71l-21.33-61.94-146.89,50.58c.94,1.07,1.72,2.62,2.07,4.62.58,3.37,3.45,6.55,6.31,7.03,3.33.62,3.81,1.43,1.31,2.36-5.95,2.1-15.14-3.84-15.87-10.35-.23-2.04.13-3.47.81-4.34l-66.06-191.85c-.55.88-1.26,1.71-2.13,2.55-3.21,3.07-5.15,7.53-4.36,9.83.81,2.36.24,5.59-1.2,7.23-3.21,3.46-12.47-8.49-11.81-15.15.27-2.83,1.2-2.5,2.51.78,1.77,4.39,3.19,4.3,7.93-.3,6.43-6.17,4.98-15.12-2.97-18.3-3.79-1.56-4.13-3.75-1.28-8.68,1.51-2.63,2.72-4.48,3.8-5.54l-40.07-116.38-73.07,25.16,100.24,291.11c.98-.47,2-.75,3-.75,7.77-.08,9.68,5.63,2.71,8.03-1.27.44-2.15,1.03-2.63,1.67l.96,2.78c1.75,1.3,2.29,1.85.71,2.06l1.41,4.09c1,.24,1.81.86,2.13,1.78.32.93.17,2.22-.32,3.46l28.4,82.49c.77-2.03,2.47-1.83,5.73-.49,3.6,1.47,3.55,4.66-.18,11.65l-.16.3,29.9-10.3,41.87-14.42,1.75-.6c.27-1.06.82-2.14,1.7-3.08,4.62-5.04,1.63-8.07-7.39-7.39l-8.44.67,6.62-5.96c3.65-3.29,6.23-7.09,5.78-8.41-.46-1.33,4.28-.38,10.42,2.12l11.24,4.57-6.98,10.57c-.73,1.11-1.47,2.17-2.21,3.21l121.85-41.96c.24-.73.67-1.63,1.34-2.78Zm-181.92-33.9c.04-2.01,1.56-4.16,3.36-4.78,1.86-.64,4.39.12,5.68,1.67,1.28,1.59-.23,3.7-3.45,4.81-3.14,1.08-5.65.35-5.59-1.7Zm-90.18-276.82c3.77-2.88,4.36-2.26,3.01,3.68-1.87,8.45-4.21,10.02-6.26,4.08-.8-2.31.65-5.77,3.24-7.76Zm21.93,69.57c.86,2.5.95,4.72.28,4.95-.75.26-3.96-.89-7.18-2.57-4.82-2.47-4.87-3.37-.26-4.96,3.09-1.06,6.32.13,7.16,2.58Zm-24.57,21.47c-2.02-1.44-1.58-4.17.89-6.12,3.04-2.31,5.07-1.69,6.04,1.81.81,2.91,1.27,9.17,1.06,13.86l-.32,8.57-1.98-7.78c-1.14-4.22-3.7-8.89-5.68-10.34Zm17.93,38.22c1.85-1.95,4.39-3.09,5.73-2.56,4.93,1.98,1.99,7.98-3.48,7.13-4.07-.75-4.67-1.91-2.25-4.57Zm33.15,67.8c1.73,1.21,1.65,2.78-.27,3.44-1.92.66-4.91.15-6.66-1.06-1.69-1.29-1.61-2.84.3-3.5,1.92-.66,4.85-.14,6.62,1.12Zm-56.06-162.82c.59-2.08,1.76-4,2.61-4.3.83-.29,1.98.84,2.55,2.52.58,1.67-.6,3.55-2.63,4.25-1.95.67-3.15-.39-2.54-2.47Zm64.34,176.81c-.73.25-2.06-1.6-2.9-4.05-.86-2.51-.07-5.09,1.78-5.73,1.81-.62,3.12,1.23,2.94,4.1-.29,2.84-1.09,5.42-1.82,5.67Zm-63.4-192.67c-1.53,1.74-4.39,2.01-6.31.65-4.84-3.5-1.37-8.02,4.39-5.69,3.23,1.32,3.84,2.96,1.92,5.05Zm2.5,141.86c-2.02,8.2-8.09,2.61-7.45-6.83.48-6.86,1.03-7.26,4.69-3.32,2.24,2.47,3.51,7.03,2.76,10.15Zm-13.71-38.15c-1.9.65-3.9-.2-4.47-1.86-.56-1.63.49-3.53,2.39-4.19,1.92-.66,3.97.18,4.53,1.8.57,1.66-.53,3.58-2.45,4.24Zm-23.35-130.23c2.7-.93,3.98-4.46,2.86-7.73-1.15-3.35-.73-6.51.95-7.09,1.69-.58,4.35,5.32,5.96,13.1,1.92,9.38,4.23,13.73,6.81,12.85,2.15-.74,3.35-3.06,2.7-5.14-1.65-5.03,8.01,1.58,9.83,6.71.8,2.08-.13,4.28-2.05,4.94-1.92.66-3.95-.34-4.58-2.17-.64-1.85-3.96-1.64-7.43.5-4.17,2.63-8.76,2.11-14.17-1.55-8.61-5.81-8.91-11.64-.87-14.41Zm97.37,300.31c-.58-1.67.42-3.49,2.22-4.11,1.81-.62,4.68-.14,6.42,1.13,1.71,1.27.71,3.15-2.2,4.16-2.98,1.03-5.87.48-6.44-1.18Zm11.06,9.69c-.58-1.67.48-3.51,2.39-4.17,1.92-.66,3.93.12,4.51,1.79.58,1.67-.53,3.53-2.45,4.19-1.92.66-3.88-.14-4.46-1.81Zm21.02,23.11c-3.58,1.23-5.38.05-5.06-3.58.22-3.04.02-6.75-.51-8.27-.53-1.53.62-3.28,2.53-3.94,1.86-.64,4.59,2.2,6.01,6.32,1.71,4.96.68,8.21-2.97,9.47Zm.86-26.74c-1.49-4.33,8.64-17.75,13.53-18,3.03-.13,2.6,3.04-1.19,9.18-6.12,9.79-10.84,13.19-12.35,8.81Zm37.85,20.16c-1.92.66-4.35-1.5-5.5-4.85-1.15-3.33-.57-6.55,1.35-7.21,1.92-.66,4.35,1.52,5.5,4.85,1.15,3.35.57,6.55-1.35,7.21Zm48.26,19.73c-9.58-5.22-9.94-5.86-7.52-13.49,1.46-4.63,2.22-4.46,4.15.98,1.68,4.64,3.71,5.64,6.94,3.14,3.32-2.57,5.29-1.42,7.26,4.32,3.29,9.57.22,11.01-10.83,5.05Zm15.19-41.84c-4.05,1.22-5.13.83-2.71-1.11,2.22-1.74,5.22-2.66,6.71-2.02,1.53.57-.31,2.03-4,3.13Zm28.52,20.81c-2.02.7-3.17-.45-2.56-2.54.62-2,1.77-3.96,2.61-4.24s2.01.87,2.56,2.47c.58,1.67-.58,3.62-2.6,4.31Zm12.71-1.03c-3.14,1.08-4.67.51-3.35-1.38,1.25-1.78,3.01-5.09,3.87-7.2.84-2.22,2.3-1.68,3.4,1.34,1.01,2.95-.73,6.13-3.92,7.23Zm6.49-22.44c-1.92.66-4.21-.86-5.07-3.35-.84-2.45.03-5.06,1.94-5.72,1.83-.63,4.12.89,4.96,3.34.86,2.5,0,5.1-1.84,5.73Zm20.5,14.85c-1.49,1.67-3.25,1.68-3.81.05-.58-1.67.25-4.4,1.74-6.08,1.55-1.68,3.31-1.69,3.88-.02.56,1.61-.26,4.37-1.81,6.05Zm-5.38-30.37c.1,3.76-1.14,7.31-2.82,7.89-4.65,1.6-5.26-3.63-1.18-9.48,3.04-4.32,3.75-4.03,4,1.59Z"/><path class="cls-2" d="m2192.35,765.58c-.15.06-.29.13-.44.18-2.6.89-5.27,3.71-6.18,6.33l7.92-2.73-1.3-3.78Z"/><path class="cls-2" d="m2465.77,670.47c-.63-.5-1.48-1.31-2.63-2.43-3.66-3.63-3.88-8.29-1.29-8.96l-18.96-55.06-154.29,53.12-33.29-96.67,131.8-45.38-4.96-14.4c-.64-.26-1.27-.53-1.88-.83-7.27-3.6-11.82-3.73-16.61-.44-5.37,3.72-6.48,3.44-6.05-1.54.31-4.06-2.39-6.76-8.17-7.99-5.98-1.34-8.53-4.03-8.49-8.82.11-4.65-.87-5.81-2.97-3.54-1.74,1.87-3.83,1.32-4.75-1.33-1.19-3.44,1.91-5.93,11.14-9.11,11.52-3.97,12.27-3.79,7.79,1.88-3.64,4.53-3.61,8.09.11,13.4,4.23,6.12,6.93,6.63,17.1,3.13,2.76-.95,4.93-1.87,6.59-2.8l-13.14-38.16-36,12.4c-.91,1.54-2.64,3.48-5.26,5.94-12.72,11.96-14.58,11.66-7.2-1.2.11-.2.22-.38.33-.57l-83.68,28.81-34.16-99.2,143.98-49.58c-.52-2.28.34-4.47,2.09-5.08,1.73-.6,3.71.62,4.7,2.74l3.51-1.21-24.48-71.1-27.62,9.51c.66,2.23.68,4.15.02,4.38-.66.23-2.57-1.04-4.42-2.86l-6.12,2.11c.37.65.73,1.44,1.04,2.32.86,2.51.03,5.04-1.84,5.68-1.79.62-3.1-1.17-2.88-4.05.09-1.02.25-1.99.44-2.83l-112.9,38.88-43.84,15.1-29.23,10.06,67.8,196.9c1.74-.43,3.53.29,4.03,1.75.49,1.42-.21,3.87-1.53,5.5l8.65,25.12c.29-.55.63-1.16,1.02-1.86,2.1-3.58,4.82-6.05,6.19-5.53,5.14,2.13,2.58,10.04-3.49,11.02-.94.15-1.71.25-2.37.3l1.58,4.59s.02,0,.03,0c2.06.33,3.24,2.16,2.72,4.11-.2.66-.45,1.24-.74,1.76l4.2,12.21c2.03.43,3.85,1.24,4.09,1.92.24.69-.95,1.72-2.61,2.37l51.12,148.47,11.13-3.83c-3.72-3.98-.99-10.6,7.32-13.46,5.06-1.74,9.27-5.93,10.22-10.28.9-3.97,3.46-7.87,5.65-8.62,2.2-.76-.3,5.36-5.56,13.66-4.15,6.57-6.37,11.52-6.71,14.95l7.18-2.47,3.23-1.11c-.15-.39-.36-.72-.67-.95-1.57-1.11-1.19-2.61.72-3.27,1.49-.51,4.24.28,6.87,1.83l33.69-11.6,49.64-17.09c-.21-3.09.01-6.03.9-7.58,1.86-3.25,4.06-.75,5.25,5.46l98.49-33.91-1.6-4.64Zm-97.82-160.89c1.9-.65,3.87.16,4.44,1.83.57,1.66-.46,3.56-2.36,4.21-1.92.66-3.95-.18-4.52-1.84-.58-1.67.53-3.55,2.44-4.21Zm-19.17-.15c2.02-.7,3.15.39,2.56,2.47-.61,2.08-1.78,4.01-2.61,4.3-.85.29-2-.84-2.57-2.51-.58-1.67.6-3.55,2.63-4.25Zm-38.9-231.74c1.26.5,1.25,5.6-.05,11.32l-2.38,10.38-2.92-8.07c-2.81-7.63.33-15.64,5.35-13.63Zm-63.44,361.11c.62,1.81-.43,3.82-2.35,4.48-1.86.64-4.13-.88-4.99-3.38-.85-2.47,1.48-5.57,5.13-6.83,3.71-1.28,7.23-3.96,7.79-6.01,1.95-6.72,11.02-7.37,13.24-.93,1.85,5.38.6,6.47-8.91,7.84-6.93,1.02-10.62,2.77-9.91,4.83Zm-28.47-49.14c-.88-2.56.26-4.37,2.51-4,2.27.38,3.73,2.24,3.13,4.19-1.53,5.19-3.82,5.11-5.64-.19Zm53.54,44.19c2.01-.69,4.09.07,4.67,1.74s.37,3.22-.48,3.51c-.85.29-2.92-.47-4.69-1.73-1.75-1.27-1.47-2.84.5-3.52Zm-65.48-124.45c-1.03-3.58-.42-4.57,1.47-2.53,1.74,1.81,2.53,4.45,1.67,5.84-.77,1.41-2.15-.07-3.14-3.31Zm86.16-33.5c.74-1.31,3.38-.23,5.8,2.44,2.43,2.68,6.81,5.55,9.75,6.41,4.31,1.22,4.71,2.56,2.18,6.5-2.56,3.85-5,2.99-11.18-4-4.34-4.92-7.29-10.05-6.55-11.34Zm-55.58,21.55c2-.69,3.15.46,2.56,2.53-.64,2.01-1.78,3.94-2.63,4.24-.83.29-1.98-.86-2.53-2.46-.58-1.67.56-3.61,2.6-4.31Zm-35.22-39.85c5.65,1.07,9.86,3.45,9.29,5.32-1.56,5.34-9.87,6.85-13.91,2.48-7-7.58-5.71-9.72,4.62-7.8Zm55.14-154.95c1.47.64,2.67,3.03,2.56,5.43-.07,3.42-.92,3.72-4.15,1.43-4.28-3.09-2.95-8.69,1.59-6.86Zm-96.45,25.63c5.31-1.88,12.74-2.19,16.41-.66,5.98,2.45,5.9,2.91-1.11,4.61-5.07,1.19-7.56,3.76-7.05,7.25.69,4.55,2.09,4.45,8.61-.54,9.86-7.52,14.86-5.72,8.04,2.88-2.9,3.63-8.98,7.86-13.47,9.41-7.47,2.57-8.36,1.84-9.16-7.39-.59-7.03-2.61-10.51-6.44-11.22-3.86-.65-2.64-2.01,4.18-4.35Zm86.82,330.82c1.53-.53,2.34.75,1.73,2.82-1.51,5.08-4.4,5.62-14.48,2.78-8.38-2.39-8.33-2.46.71-3.59,5.06-.58,10.52-1.54,12.05-2.02Zm-47.64-95.11c2.02,1.49,2.66,4.95,1.4,7.69-1.23,2.78-.36,7.7,1.97,11.01,2.4,3.35,2.67,6.49.66,7.18-6.51,2.24-8.88-2.21-8.3-15.52.37-7.86,2.04-11.96,4.28-10.35Zm-62.37-153.63c1-3.1,2.28-4.29,2.85-2.63.56,1.61.23,5.57-.77,8.66-.95,3.12-2.22,4.34-2.8,2.66-.57-1.66-.23-5.57.72-8.69Zm29.97,107.74c-4.6,1.58-11.44-9.17-8.15-12.78,4.06-4.41,12.27-.1,11.75,6.22-.3,3-1.91,5.98-3.6,6.56Zm35.85,90.56c-3.07-7.23-.09-11.38,5.32-7.49,1.52,1.07,1.64,4.88.2,8.43-2.15,5.75-2.75,5.61-5.52-.94Zm34.73,70.59c-4.08,1.41-10.43-2.98-8.71-5.98,1.72-3.02,9.78-1.51,11,2.02.54,1.57-.48,3.34-2.29,3.96Zm20.18-13.69c-1.77-1.27.03-3.36,3.9-4.69,3.94-1.36,7.59-1.14,8.16.54.58,1.67-1.22,3.77-3.96,4.71-2.77.95-6.42.73-8.11-.55Zm38.31,41.97c-3.56-1.46-2.06-7.25,2.27-8.74,1.79-.62,3.97.94,4.82,3.4,1.6,4.65-2.06,7.39-7.09,5.34Zm17.21-29.96c2.02-1.41,4.36-.41,5.26,2.19.91,2.65-.77,5.59-3.81,6.64-6.07,2.09-7.22-4.76-1.45-8.83Zm12.72,23.44c-1.55,3.33-4.45,6.63-6.36,7.29-1.97.68-1.7-2.41.64-6.97,4.77-9.32,9.93-9.61,5.72-.32Zm47.42-23c-.26,2.88-1,5.44-1.8,5.72-.73.25-2.06-1.6-2.92-4.09-.85-2.46-.03-5.05,1.83-5.69,1.79-.62,3.12,1.23,2.89,4.07Zm16.67-3.94l-4.83,10.01-.24-8.36c-.3-10.34.1-11.18,5.56-11.42,2.75-.19,2.57,3.43-.49,9.77Zm4.34-31.96c-1.92.66-3.97-.18-4.53-1.79-.58-1.67.53-3.58,2.45-4.24,1.85-.64,3.89.18,4.47,1.86.56,1.61-.55,3.54-2.39,4.17Zm16.88,4.28c-1.86.64-3.9-.13-4.47-1.81-.57-1.66.55-3.54,2.41-4.18,1.88-.65,3.94.14,4.51,1.79.58,1.67-.57,3.54-2.45,4.19Zm10.96,3.25c-1.66-1.18-1.71-3.52-.11-5.23,1.56-1.68,3.57-1,4.46,1.6,1.83,5.3.02,6.79-4.35,3.63Zm26.32-8.41c-2.35,4.12-2.87,3.9-2.51-1.06.29-3.38,1.63-5.71,2.99-5.14,1.39.53,1.15,3.35-.48,6.2Z"/><path class="cls-2" d="m2734.11,520.87c3.49-21.21,1.07-43.91-7.25-68.07l-39.84-115.7c-.04.09-.08.18-.12.27-1.5,3.31-4.13,6.47-5.76,7.03-1.69.58-3.71-.98-4.57-3.47-.9-2.6,1.52-5.57,5.74-7.02,1.35-.46,2.42-.79,3.27-.98l-17.56-50.99c-8.58-24.91-20.92-44.61-37.01-59.09-16.09-14.47-35.24-23.07-57.45-25.8-22.21-2.72-46.71.52-73.5,9.75l-17.97,6.19c3.73,2.09,3.47,3.19.13,4.34-2.91,1-5.86.08-7.04-1.96l-22.04,7.59-30.63,10.55-42.44,14.61,54.53,158.36c.39,0,.76.05,1.04.17.85.36.6.97-.42,1.64l4.02,11.67c.62-1.04,1.2-2.16,1.72-3.35,2.34-5.25,3.9-7.65,3.46-5.3-.46,2.31,1.3,4.17,4,4.12,3.56-.03,3.73,1.51.56,6-2.31,3.33-4.2,8.26-4.21,10.95.02,1.22-.1,2.06-.35,2.6l34.59,100.45c8.1-.25,9.79,2.07,10.75,10.6.5,4.63-1.04,8.94-3.53,10.37l34.54,100.32,42.44-14.61,30.63-10.55,46.65-16.06c27.35-9.42,48.93-22.24,64.71-38.47,15.79-16.23,25.42-34.95,28.91-56.17Zm-48.62-105.85c-1.62-.66-2.39-3.08-1.69-5.42.75-2.27.98-5.21.62-6.46-1.85-5.78,6.22-3.84,8.21,1.94,2.28,6.62-1.67,12.16-7.14,9.93Zm-23.87-95.19c5.94-.68,6.98.34,5.01,4.69-3.54,7.76-8.21,8.6-10.55,1.83-1.47-4.28-.09-5.9,5.54-6.52Zm-23.88-34.7c1.63-.56,4.58.73,6.52,2.85,1.97,2.08,2.22,4.3.53,4.88-1.62.56-4.51-.75-6.49-2.83-1.92-2.13-2.17-4.35-.56-4.91Zm7.92,47.27c1.46,1.7.17,3.95-2.87,4.99-2.98,1.03-6.19-.28-7.1-2.93-1.83-5.3,5.91-6.93,9.97-2.06Zm-125.4-129.55c1.47-1.55,4.38-.42,6.51,2.54,2.32,3.21,6.79,4.34,11.05,2.87,6.12-2.11,7.87-.66,11.4,9.58,2.28,6.62,2.58,12.55.66,13.21-1.85.64-4.39-1.61-5.57-5.05-1.16-3.38-7.63-9.37-14.41-13.25-6.76-3.88-11.05-8.34-9.65-9.91Zm-20.83,210.85c-3.71,1.28-6.5-.66-8.21-5.62-1.42-4.12-.95-8.07,1.07-8.76,2.01-.69,3.11.51,2.48,2.65-.6,2.13,1.42,5.22,4.57,6.87,4.57,2.38,4.59,3.31.09,4.86Zm-33.99-54.21c.36-4.08,6.86-6.37,8.09-2.79.19.54-1.65,2.54-4.08,4.42-2.96,2.29-4.31,1.71-4.02-1.63Zm-41.99-103.38c1.55-1.68,3.29-1.74,3.87-.07.57,1.66-.24,4.42-1.81,6.05-1.56,1.68-3.26,1.73-3.83.05-.57-1.66.19-4.4,1.77-6.04Zm53,147.4c6.37,10.48,4.19,21.45-2.74,13.9-2.19-2.32-3.46-5.83-2.88-7.78.57-1.97-1.36-4.8-4.18-6.31-3.97-2.03-4.13-3.57-.68-6.18,3.3-2.58,6.19-.81,10.48,6.38Zm-54.52-66.03c-4.32-4.72-4.01-5.43,5.26-11.7,4.85-3.27,7.47-3.51,8.42-.75.76,2.2-1.17,6.82-4.32,10.21-4.7,5.19-6.26,5.56-9.35,2.23Zm24.45,52.61c-2.01-5.83-.88-8.42,4.5-10.27,5.39-1.86,7.44-.69,8.35,4.7,1.83,10.56-9.45,15.45-12.85,5.57Zm76.85,140.86c11.1-4.78,12.57-4.55,14.86,2.11,1.4,4.06.41,9.03-2.27,11.1-6.75,5.19-7.49,5.22-11.49.94-1.92-2.13-5.82-3.06-8.64-2.09-10.88,3.75-4.12-7.08,7.54-12.06Zm35.75,101.63c-2.49,3.55-4.37,4.42-5.07,2.4-1.25-3.63,3.86-10.12,6.93-8.87,1.16.49.27,3.38-1.86,6.47Zm7.17-61.1c2.75-2.96,7.75-1.77,9.09,2.14.49,1.43-.57,3.06-2.37,3.68-4.67,1.61-9.6-2.68-6.73-5.82Zm16.19,29.51c-2.64.91-5.76-1.04-6.9-4.37-1.13-3.29-.73-6.51.95-7.09,1.69-.58,4.82,1.43,6.96,4.37,2.54,3.51,2.18,5.99-1.01,7.09Zm15.18-10.67c-2.72,4.73-6.44,4.37-10.33-1.11-2.15-2.97-3.14-5.66-2.24-5.98,3.6-1.24,13.96,4.64,12.56,7.09Zm38.1-31.28c-2.02.7-3.17-.45-2.56-2.47.61-2.08,1.78-4.01,2.61-4.3.85-.29,2,.84,2.57,2.51.56,1.61-.62,3.56-2.63,4.25Zm36.87,6.03c-1.47,3.18-4,6.25-5.69,6.83-5.18,1.78-6.24-7.18-1.74-14.92,3.95-6.93,4.36-7.07,7.17-2.54,1.6,2.62,1.74,7.41.26,10.63Zm-32.31-142.2c.14,4.62-1.26,6.03-4.96,4.95-.34-.11-.67-.18-.99-.24l12.71,36.9c1.66-.65,2.79.16,2.71,2.29-.03.96-.35,2.04-.85,3.1l1.95,5.68c5.68,16.49,5.31,30.81-1.08,42.97-6.4,12.16-18.31,21.24-35.73,27.24l-44.4,15.29-8.29-24.09c-1.55-.15-3.12-.9-3.86-2.41-8.29-16.59-9.84-21.98-6.82-28.62l-2.26-6.56c-8.05,3.96-11.95.44-3.87-5.14.58-.4,1.16-.74,1.74-1.04l-37.25-108.19c-1.46-1.7-2.34-3.75-1.81-5.25l-19.83-57.6c-1.39.67-3.07.61-4.29-.26-1.68-1.17-1.83-3.48-.38-5.09.65-.67,1.5-1.1,2.39-1.29l-7.58-22.01,40.69-14.01c-.05-1.74.02-3.59.25-5.52.75-5.53,1.71-4.82,4.88,3.77,16.82-5.53,31.32-5.56,43.51-.07,12.52,5.64,21.63,16.71,27.3,33.19l36.74,106.69c.76-.68,2.1-1.13,3.79-1.15,3.07-.02,5.45,2.68,5.62,6.46Zm-13.33-29.42c-2.98,1.03-4.93.14-4.26-1.95,1.01-3.47,8.08-4.43,9.18-1.24.25.73-2.01,2.18-4.92,3.18Zm79.5,121.46c-1.46,3.59-1.98,7.57-1.14,8.85.88,1.29,1.19,5.12.74,8.54-.48,3.39-2.95,6.93-5.67,7.87-5.89,2.03-7.41-1.51-3.56-8.21,2.23-3.91,1.04-5.51-5.35-7.11-7.91-1.99-7.95-2.1.15-3.02,4.65-.56,10.45-3.77,12.98-7.21,4.13-5.53,4.32-5.49,1.84.28Zm-38.39-125.03c-1.12,3.89-3.22,4.53-14.54,4.45-8.57-.05-16.36-11.15-9.5-13.52,1.92-.66,3.95.17,4.54,1.89.59,1.72,5.42,3.28,10.71,3.56,5.36.24,9.32,1.89,8.79,3.62Z"/><path class="cls-2" d="m2554.55,517.47l-.93-2.71c.11.82.42,1.71.93,2.71Z"/></g></g></svg>