<?xml version="1.0" encoding="UTF-8"?><svg id="Layer_2" xmlns="http://www.w3.org/2000/svg" viewBox="0 0 15 15"><defs><style>.cls-1{fill:#ff0096;stroke-width:0px;}</style></defs><g id="Defects_Configuration_1R"><path class="cls-1" d="M15,0v15H0V0h15ZM13.78,13.78V1.22s-12.57,0-12.57,0v12.57s12.57,0,12.57,0Z"/><g id="Icon_delete"><path class="cls-1" d="M10.91,4.19h-2.3v-.47c0-.11-.1-.19-.22-.19h-1.78c-.12,0-.22.09-.22.19v.47h-2.3c-.07,0-.13.05-.13.12v.37h7.09v-.37c0-.06-.06-.12-.13-.12ZM8.21,4.08h-1.42v-.13s.03-.06.07-.06h1.28s.07.03.07.06v.13Z"/><path class="cls-1" d="M4.84,11.47c-.25,0-.45-.17-.45-.38v-5.34l-.44-.35.03-.3h7.06v.36l-.36.22-.04,5.42c0,.21-.2.38-.45.38h-5.35ZM8.67,10.9h.91v-4.79h-.91v4.79ZM7.06,10.9h.91v-4.79h-.91v4.79ZM5.45,10.9h.91v-4.79h-.91v4.79Z"/></g></g></svg>