<?xml version="1.0" encoding="UTF-8"?><svg id="Layer_2" xmlns="http://www.w3.org/2000/svg" viewBox="0 0 21 15.86"><defs><style>.cls-1{fill-rule:evenodd;}.cls-1,.cls-2{fill:#ff0096;stroke-width:0px;}</style></defs><g id="Edit"><path class="cls-1" d="M10.72,11.05c.33.33.33.83,0,1.16l-1.38.46-.24-.24.46-1.38c.34-.31.85-.31,1.17.02h0ZM17.12,2.55l-8.14,8.16-1.03,3.09,3.11-1.03,8.14-8.14"/><path class="cls-1" d="M20.81,2.11l-1.16-1.16c-.26-.26-.67-.26-.93,0l-1.15,1.14,2.08,2.07,1.15-1.14c.28-.24.28-.65.02-.91h0Z"/><path class="cls-2" d="M15.86,2.94V.88c0-.49-.4-.88-.88-.88H.88c-.49,0-.88.4-.88.88v14.1c0,.49.4.88.88.88h14.1c.49,0,.88-.4.88-.88v-5.86l-1.06,1.06v4.63H1.06V1.06h13.74v2.94l1.06-1.06Z"/><rect class="cls-2" x="3.43" y="4.92" width="8.22" height="1.13"/><rect class="cls-2" x="3.43" y="7.36" width="6.04" height="1.13"/><rect class="cls-2" x="3.43" y="9.8" width="3.78" height="1.13"/></g></svg>