<?xml version="1.0" encoding="UTF-8"?><svg id="Layer_2" xmlns="http://www.w3.org/2000/svg" viewBox="0 0 12 12"><defs><style>.cls-1{fill:#ff0096;stroke-width:0px;}</style></defs><g id="PO_CG_Entry"><path class="cls-1" d="m11.05,1.22h-.63v.69c0,.2-.08.4-.23.54-.15.14-.35.22-.56.22s-.41-.08-.56-.22c-.15-.14-.23-.34-.23-.54v-.69h-2.06v.69c0,.2-.08.4-.23.54-.15.14-.35.22-.56.22s-.41-.08-.56-.22c-.15-.14-.23-.34-.23-.54v-.69h-2.06v.69c0,.2-.08.4-.23.54-.15.14-.35.22-.56.22s-.41-.08-.56-.22c-.15-.14-.23-.34-.23-.54v-.69h-.63c-.52,0-.95.41-.95.92v8.95c0,.51.42.92.95.92h10.1c.52,0,.95-.41.95-.92V2.13c0-.51-.42-.92-.95-.92Zm.16,9.77c0,.14-.12.26-.26.26H1.05c-.15,0-.26-.11-.26-.26V3.69h10.42v7.29Z"/><path class="cls-1" d="m1.82,1.91c0,.29.24.52.54.52s.54-.23.54-.52V.52c0-.29-.24-.52-.54-.52s-.54.23-.54.52v1.38Z"/><path class="cls-1" d="m5.46,1.91c0,.29.24.52.54.52s.54-.23.54-.52V.52c0-.29-.24-.52-.54-.52s-.54.23-.54.52v1.38Z"/><path class="cls-1" d="m9.1,1.91c0,.29.24.52.54.52s.54-.23.54-.52V.52c0-.29-.24-.52-.54-.52s-.54.23-.54.52v1.38Z"/></g></svg>