<?xml version="1.0" encoding="UTF-8"?><svg id="Layer_2" xmlns="http://www.w3.org/2000/svg" width="22.65" height="13.63" viewBox="0 0 22.65 13.63"><defs><style>.cls-1{fill:#737373;opacity:.8;}</style></defs><g id="PR_Log"><path class="cls-1" d="M12.06,13.63c-.16,0-.32-.04-.46-.12L0,6.82,11.61,.12c.14-.08,.29-.12,.46-.12,.3,0,.57,.14,.73,.37,.12,.18,.16,.38,.11,.59-.05,.21-.19,.38-.38,.49L4.57,6.03H21.79c.47,0,.86,.35,.86,.78s-.39,.78-.86,.78H4.57l7.95,4.58c.19,.11,.33,.29,.38,.49,.05,.2,.01,.41-.11,.59-.16,.23-.43,.37-.73,.37Z"/></g></svg>