<?xml version="1.0" encoding="UTF-8"?><svg id="Layer_2" xmlns="http://www.w3.org/2000/svg" viewBox="0 0 17 20"><defs><style>.cls-1{fill:#ec1e24;stroke-width:0px;}</style></defs><g id="mrn_supplier_wise"><path class="cls-1" d="m2.9,16.43c-.08,0-.15,0-.23-.02-.36-.07-.61-.29-.7-.61-.16-.61.29-1.42,1.28-2.28.95-.83,2.06-1.38,3.2-1.74.38-.71.76-1.52,1.06-2.37-.37-.62-.67-1.27-.86-1.91-.48-1.59-.23-3.12.29-3.67.21-.22.46-.3.72-.24.42.11.74.6.98,1.5.34,1.31.11,2.81-.34,4.22.44.69.97,1.34,1.53,1.91,1.65-.06,3.04.17,3.69.39,1.36.47,1.66,1.17,1.49,1.66-.22.63-1.27,1.01-2.82.48-.8-.28-1.75-.93-2.65-1.8-.83.05-1.72.18-2.6.42-.7,1.28-1.35,2.18-1.42,2.28-.9,1.25-1.92,1.77-2.62,1.77Zm3.02-3.7c-.79.32-1.54.75-2.2,1.33-.94.82-1.1,1.37-1.06,1.55,0,.02.02.08.14.1.37.07,1.28-.27,2.14-1.47h0s.44-.61.97-1.51Zm4.67-.79c.65.55,1.29.96,1.83,1.15,1.19.41,1.86.14,1.92-.04.03-.09-.16-.45-1.05-.76-.44-.15-1.45-.33-2.69-.35Zm-2.6-1.78c-.19.48-.4.94-.61,1.37.51-.11,1.01-.19,1.51-.24-.32-.36-.62-.74-.9-1.13Zm-.51-5.87c-.23.09-.65,1.39-.16,3,.12.39.28.78.48,1.18.29-1.1.4-2.21.15-3.19-.2-.75-.41-.98-.47-.99Z"/><path class="cls-1" d="m17,3.87l-.33-.32L13.4.32,13.08,0h0s-11.44,0-11.44,0C.73,0,0,.72,0,1.61v16.77c0,.89.73,1.61,1.63,1.61h13.73c.9,0,1.63-.72,1.63-1.61V3.87h0Zm-1.63,15.48H1.63c-.54,0-.98-.43-.98-.97V1.61c0-.53.44-.97.98-.97h11.44v3.23h3.27v14.52c0,.53-.44.97-.98.97Z"/></g></svg>