<?xml version="1.0" encoding="UTF-8"?><svg id="Layer_2" xmlns="http://www.w3.org/2000/svg" viewBox="0 0 15 10"><defs><style>.cls-1{fill:#c8c8c8;stroke-width:0px;}</style></defs><g id="PO_CG_Entry"><path class="cls-1" d="M14.97,2.75s.01-.03.02-.05c0-.01,0-.03,0-.04,0-.01,0-.02,0-.03s0-.02,0-.03c0-.02,0-.03,0-.04,0-.02-.01-.03-.02-.05,0-.02-.01-.04-.02-.06,0-.01-.01-.03-.02-.04,0,0,0,0,0-.01,0,0-.02-.01-.03-.02-.01-.02-.03-.03-.05-.05,0,0-.01-.02-.02-.02L11.56.07c-.19-.13-.45-.09-.58.09-.13.18-.09.43.1.56l2.2,1.51H.42c-.23,0-.42.18-.42.4s.19.4.42.4h12.87l-2.2,1.51c-.19.13-.23.38-.1.56.08.11.21.17.34.17.08,0,.17-.02.24-.07l3.26-2.23s.01-.02.02-.02c.02-.02.03-.03.05-.05,0,0,.02-.01.02-.02,0,0,0,0,0-.01,0-.01.01-.03.02-.04.01-.02.02-.04.02-.06Z"/><path class="cls-1" d="M.03,7.25s-.01.03-.02.05c0,.01,0,.03,0,.04,0,.01,0,.02,0,.03s0,.02,0,.03c0,.02,0,.03,0,.04,0,.02.01.03.02.05,0,.02.01.04.02.06,0,.01.01.03.02.04,0,0,0,0,0,.01,0,0,.02.01.03.02.01.02.03.03.05.05,0,0,.01.02.02.02l3.26,2.23c.19.13.45.09.58-.09.13-.18.09-.43-.1-.56l-2.2-1.51h12.87c.23,0,.42-.18.42-.4s-.19-.4-.42-.4H1.72s2.2-1.51,2.2-1.51c.19-.13.23-.38.1-.56-.08-.11-.21-.17-.34-.17-.08,0-.17.02-.24.07L.17,7.04s-.01.02-.02.02c-.02.02-.03.03-.05.05,0,0-.02.01-.02.02,0,0,0,0,0,.01,0,.01-.01.03-.02.04-.01.02-.02.04-.02.06Z"/></g></svg>