<?xml version="1.0" encoding="UTF-8"?><svg id="Layer_2" xmlns="http://www.w3.org/2000/svg" xmlns:xlink="http://www.w3.org/1999/xlink" viewBox="0 0 12 12"><defs><style>.cls-1{fill:red;opacity:.8;}.cls-2{opacity:.9;}.cls-3{clip-path:url(#clippath);}.cls-4{fill:none;}</style><clipPath id="clippath"><rect class="cls-4" width="12" height="12"/></clipPath></defs><g id="PO"><g id="_12_sidebar_tab_reports" class="cls-2"><g class="cls-3"><path class="cls-1" d="M11.63,1.19h-3.88V.3c0-.17-.16-.3-.37-.3h-2.77c-.2,0-.36,.13-.36,.3v.89H.37c-.2,0-.37,.13-.37,.3V11.7c0,.17,.16,.3,.37,.3H11.63c.2,0,.37-.14,.37-.3V1.49c0-.17-.16-.3-.37-.3M4.98,.6h2.04v.59h-2.04V.6Zm6.29,10.8H.73V1.79h1.36s-.01,.05-.01,.07v.45c0,.17,.16,.3,.37,.3h7.1c.2,0,.37-.13,.37-.3v-.45s0-.05-.01-.07h1.36V11.4Z"/><path class="cls-1" d="M9.12,9.39H2.83c-.2,0-.37,.13-.37,.3s.16,.3,.37,.3h6.28c.2,0,.37-.13,.37-.3s-.16-.3-.37-.3"/><path class="cls-1" d="M9.17,5.68H2.89c-.2,0-.37,.13-.37,.3s.16,.3,.37,.3h6.28c.2,0,.37-.13,.37-.3s-.16-.3-.37-.3"/><path class="cls-1" d="M9.17,3.82H2.89c-.2,0-.37,.13-.37,.3s.16,.3,.37,.3h6.28c.2,0,.37-.13,.37-.3s-.16-.3-.37-.3"/><path class="cls-1" d="M9.17,7.53H2.89c-.2,0-.37,.13-.37,.3s.16,.3,.37,.3h6.28c.2,0,.37-.14,.37-.3s-.16-.3-.37-.3"/></g></g></g></svg>