<?xml version="1.0" encoding="UTF-8"?><svg id="Layer_2" xmlns="http://www.w3.org/2000/svg" viewBox="0 0 16 17"><defs><style>.cls-1{fill:#32467d;}</style></defs><g id="Franstek"><rect class="cls-1" y="15.78" width="16" height="1.22"/><rect class="cls-1" y="12.96" width="16" height="1.22"/><path class="cls-1" d="m3.74,0h9.48v.02c-.56.67-.87,1.03-.95,1.08h-2.53c.35.32.58.71.71,1.16h2.7s.05.02.05.03c-.6.71-.91,1.06-.93,1.06h-1.75c-.04.36-.26.8-.67,1.32-.54.52-1.05.86-1.55,1.01-.92.34-1.8.52-2.64.52v.02c0,.05.21.26.62.64l4.68,4.42v.21s-.02.03-.05.03h-2.06c-3.7-3.38-5.56-5.07-5.56-5.09v-1.03l.02-.04c.33.04.71.05,1.15.05,2.08,0,3.37-.53,3.87-1.58.08-.15.12-.31.12-.48H2.82s-.04-.01-.04-.03c.62-.71.94-1.06.96-1.06h4.47v-.02c-.26-.41-.75-.72-1.49-.95-.53-.13-1-.2-1.42-.2h-2.5v-.04c.6-.7.92-1.06.94-1.06Z"/></g></svg>