<?xml version="1.0" encoding="UTF-8"?><svg id="Layer_2" xmlns="http://www.w3.org/2000/svg" viewBox="0 0 16.27 28"><defs><style>.cls-1{fill:#007dfa;}</style></defs><g id="Franstek"><path class="cls-1" d="m8.14,21.12c-1.9,0-3.44,1.54-3.44,3.44s1.54,3.44,3.44,3.44,3.44-1.54,3.44-3.44-1.54-3.44-3.44-3.44Zm1.52,1.74c-.16.2-.25.31-.28.32h-.74c.1.09.17.21.21.34h.79s.01,0,.01,0c-.18.21-.27.31-.27.31h-.51c-.01.11-.08.24-.2.39-.16.15-.31.25-.45.3-.27.1-.52.15-.77.15h0s.06.08.18.19l1.36,1.31v.06s0,0-.01,0h-.6c-1.08-1-1.62-1.5-1.62-1.51v-.3h0c.1,0,.21,0,.34,0,.6,0,.98-.16,1.13-.47.02-.05.03-.09.03-.14h-1.64s-.01,0-.01,0c.18-.21.27-.31.28-.31h1.3c-.07-.12-.22-.22-.43-.29-.15-.04-.29-.06-.41-.06h-.73c.18-.22.27-.32.27-.32h2.76Z"/><path class="cls-1" d="m4.32,8.14c0-1,.39-2,1.17-2.75,1.52-1.46,3.93-1.41,5.39.1.71.74,1.07,1.69,1.07,2.65h4.32c0-.49-.04-.98-.13-1.46l-2.25.27-.36-.91-.36-.91,1.84-1.33c-.57-.91-1.33-1.71-2.25-2.35l-1.4,1.78-.9-.39-.9-.39.36-2.24c-1.09-.25-2.19-.26-3.25-.07l.27,2.25-.91.36-.91.36-1.33-1.84c-.91.57-1.71,1.33-2.35,2.25l1.78,1.4-.39.9-.39.9-2.24-.36C.06,6.94,0,7.54,0,8.14h4.32Z"/><path class="cls-1" d="m8.13,9.16H0l7.01,8.27v2.67h2.25v-2.67l7.01-8.27h-8.13Zm0,6.64l-2.9-2.9h1.99v-2.45h1.83v2.45h1.99l-2.9,2.9Z"/></g></svg>