<?xml version="1.0" encoding="UTF-8"?><svg id="Layer_2" xmlns="http://www.w3.org/2000/svg" viewBox="0 0 24.83 14.38"><defs><style>.cls-1{fill:#fa3264;}</style></defs><g id="Franstek"><path class="cls-1" d="m5.08,9.2c-1.43,0-2.59,1.16-2.59,2.59s1.16,2.59,2.59,2.59,2.59-1.16,2.59-2.59-1.16-2.59-2.59-2.59Zm0,4.39c-.95,0-1.72-.77-1.72-1.72s.77-1.72,1.72-1.72,1.72.77,1.72,1.72-.77,1.72-1.72,1.72Zm14.58-4.39c-1.43,0-2.59,1.16-2.59,2.59s1.16,2.59,2.59,2.59,2.59-1.16,2.59-2.59-1.16-2.59-2.59-2.59Zm0,4.39c-.95,0-1.72-.77-1.72-1.72s.77-1.72,1.72-1.72,1.72.77,1.72,1.72-.77,1.72-1.72,1.72Zm4.74-2.99h.04v-2.47c0-.28-.11-1.4-.19-1.68l-1.25-4.69c-.07-.28-.39-.49-.68-.49h-6.37c-.28,0-.45.21-.45.5v8.83h-1.69V.73c0-.41-.38-.73-.78-.73H1.16C.75,0,.39.32.39.73v9.99c-.2,0-.39.17-.39.37v.37c0,.2.21.32.42.32h1.68,0c0-1.67,1.34-2.98,2.99-2.98s2.99,1.31,2.99,2.96c0,.01,0,.02,0,.02h8.69,0c0-1.67,1.34-2.98,2.99-2.98s2.99,1.31,2.99,2.96c0,.01,0,.02,0,.02h1.68c.2,0,.43-.12.43-.32v-.37c0-.2-.23-.49-.43-.49Zm-3.4-4.71h-4.15c-.29,0-.46-.06-.46-.34v-3.03c0-.28.17-.45.46-.45h4.15v3.83Zm1.69,0h-1.11V1.99c.39,0,.61.23.68.5l.8,2.98c.07.28-.09.41-.37.41Z"/></g></svg>