<?xml version="1.0" encoding="UTF-8"?><svg id="Layer_2" xmlns="http://www.w3.org/2000/svg" viewBox="0 0 22 17.77"><defs><style>.cls-1{fill:#fff;}.cls-2{fill:#007dfa;}</style></defs><g id="Franstek"><path class="cls-2" d="m21.36,11.43c-.62.97-1.66,1.81-2.98,2.44-1.53,1.97-4.87,3.34-8.74,3.34-.6,0-1.19-.03-1.76-.1,1.34.42,2.86.66,4.48.66,4.9,0,8.94-2.19,9.55-5.02.05-.25.08-.5.08-.75,0-.45-.09-.89-.26-1.32-.1.26-.23.51-.39.75Z"/><path class="cls-2" d="m2.88,6.81c.04.14.09.28.15.41.05.12.11.23.17.34.26.47.61.91,1.04,1.32.28.27.6.52.96.75,1.76,1.18,4.32,1.92,7.17,1.92,2.56,0,4.88-.6,6.61-1.58.1-.06.2-.12.3-.18.09-.05.17-.11.26-.16.35-.23.67-.49.96-.75.44-.41.79-.85,1.04-1.32.13-.24.24-.5.32-.75.03-.09.05-.19.07-.28.05-.25.08-.5.08-.75,0-3.19-4.32-5.78-9.64-5.78S2.72,2.59,2.72,5.78c0,.04,0,.08,0,.12-1.69,1.04-2.73,2.46-2.73,4.02,0,.25.03.51.08.75.28,1.27,1.24,2.42,2.67,3.29.27.17.56.32.87.47,1.65.79,3.74,1.26,6.02,1.26,1.62,0,3.14-.24,4.48-.66-.57.06-1.16.1-1.76.1-4.11,0-7.61-1.54-9-3.7-.16-.24-.28-.5-.39-.75-.17-.42-.26-.86-.26-1.32,0-.26.03-.51.08-.75.1.46.29.9.56,1.32.17.26.37.51.59.75,1.65,1.76,4.8,2.95,8.41,2.95,2.28,0,4.37-.47,6.02-1.26.3-.15.59-.3.87-.47.59-.36,1.11-.77,1.52-1.22.23-.24.42-.49.59-.75.27-.42.46-.86.56-1.32.05-.25.08-.5.08-.75,0-.09,0-.19-.01-.28-.02.26-.07.51-.15.75-.14.46-.37.9-.68,1.32-.2.26-.42.51-.68.75-.35.33-.76.64-1.21.92-.12.08-.25.15-.38.22-1.72.95-4.01,1.53-6.54,1.53-3.41,0-6.41-1.06-8.12-2.67-.26-.24-.48-.49-.68-.75-.31-.42-.54-.86-.68-1.32-.07-.25-.13-.5-.15-.75,0-.06.01-.12.02-.18,0,0-.02.01-.03.02,0-.04,0-.08,0-.12,0-.26.03-.51.08-.75.02.09.05.19.07.28Z"/><path class="cls-1" d="m9,1.93h7.18c-.42.48-.66.72-.72.76h-1.92c.26.22.44.49.54.8h2.05s.04.01.04.02c-.46.49-.69.73-.7.73h-1.33c-.03.25-.2.55-.51.91-.41.36-.8.59-1.17.7-.7.24-1.36.36-2,.36h0s.16.19.47.45l3.55,3.05v.14s-.01.02-.04.02h-1.56c-2.81-2.33-4.21-3.5-4.21-3.51v-.73c.26.02.56.04.89.04,1.57,0,2.55-.36,2.93-1.09.06-.11.09-.22.09-.33h-4.27s-.03,0-.03-.02c.47-.49.71-.73.72-.73h3.39c-.19-.29-.57-.51-1.13-.66-.4-.09-.76-.14-1.08-.14h-1.9v-.03c.46-.49.69-.73.71-.73Z"/></g></svg>