<?xml version="1.0" encoding="UTF-8"?><svg id="Layer_2" xmlns="http://www.w3.org/2000/svg" xmlns:xlink="http://www.w3.org/1999/xlink" viewBox="0 0 25.54 25.16"><defs><style>.cls-1{fill:url(#linear-gradient-2);}.cls-2{fill:url(#radial-gradient);}.cls-3{fill:none;}.cls-4{fill:url(#linear-gradient-3);}.cls-5{fill:url(#linear-gradient);}.cls-6{fill:url(#linear-gradient-4);}</style><linearGradient id="linear-gradient" x1="13.8" y1="22.58" x2="1.81" y2="9.21" gradientUnits="userSpaceOnUse"><stop offset="0" stop-color="#f0047f"/><stop offset=".12" stop-color="#f00678"/><stop offset=".29" stop-color="#f20d67"/><stop offset=".48" stop-color="#f6184b"/><stop offset=".54" stop-color="#f81d40"/><stop offset=".68" stop-color="#f81f3d"/><stop offset=".78" stop-color="#f92937"/><stop offset=".86" stop-color="#fa382b"/><stop offset=".94" stop-color="#fc4e1b"/><stop offset="1" stop-color="#ff660a"/></linearGradient><linearGradient id="linear-gradient-2" x1="11.29" y1="4.65" x2="4.14" y2="11.02" gradientUnits="userSpaceOnUse"><stop offset="0" stop-color="#f0047f"/><stop offset=".26" stop-color="#cc0fa2"/><stop offset=".76" stop-color="#8a24e4"/><stop offset="1" stop-color="#702dff"/></linearGradient><linearGradient id="linear-gradient-3" x1="13.89" y1="21.36" x2="21.04" y2="13.99" xlink:href="#linear-gradient-2"/><radialGradient id="radial-gradient" cx="12.73" cy="12.54" fx="12.73" fy="12.54" r="10" gradientUnits="userSpaceOnUse"><stop offset="0" stop-color="#fe330a"/><stop offset=".53" stop-color="#f6194a"/><stop offset="1" stop-color="#f0047f"/></radialGradient><linearGradient id="linear-gradient-4" x1="1733.19" y1="-1223.49" x2="1721.2" y2="-1236.86" gradientTransform="translate(1744.93 -1220.92) rotate(-180)" gradientUnits="userSpaceOnUse"><stop offset="0" stop-color="#f0047f"/><stop offset=".12" stop-color="#f00678"/><stop offset=".29" stop-color="#f20d67"/><stop offset=".48" stop-color="#f6184b"/><stop offset=".54" stop-color="#f81d40"/><stop offset=".68" stop-color="#f81f3d"/><stop offset=".78" stop-color="#f92937"/><stop offset=".86" stop-color="#fa382b"/><stop offset=".94" stop-color="#fc4e1b"/><stop offset="1" stop-color="#ff660a"/></linearGradient></defs><g id="Franstek"><path class="cls-3" d="m14.86,13.19c.34-.34.34-.89,0-1.24l-1.46-1.44c-.34-.34-.9-.34-1.26,0l-1.46,1.44c-.34.34-.34.9,0,1.24l1.46,1.45c.35.34.91.34,1.26,0l1.46-1.45Z"/><path class="cls-5" d="m6.18,12.79l-.11-.11c-.88-.88-1.37-2.04-1.37-3.29,0-.54.1-1.07.27-1.57.02-.07.04-.13.07-.2,0,0,0-.01.01-.02.01-.04.03-.07.04-.11L0,12.58l9.38,9.31c.76-.81,1.17-1.85,1.17-2.96s-.45-2.25-1.28-3.07l-3.09-3.07Z"/><path class="cls-1" d="m5.66,10.13c.03.11.07.23.11.33,0,.02.01.04.03.07.04.12.1.23.16.35.04.08.08.15.12.22.04.07.08.13.13.2.01.04.04.07.06.1.05.07.1.15.16.21.05.07.11.13.16.19.02.02.05.05.07.08l2.9-2.88c1.64-1.66,1.67-4.31.08-6l-2.87,2.85-.03.03c-.81.82-1.25,1.9-1.25,3.04,0,.15,0,.29.02.43.02.26.08.53.15.78Z"/><path class="cls-4" d="m16.01,16.16l-.03.03c-.81.82-1.25,1.9-1.25,3.04,0,.15,0,.29.02.43.02.26.08.53.15.78.03.11.07.23.11.33,0,.02.01.04.03.07.04.12.1.23.16.35.04.08.08.15.12.22.04.07.08.13.13.2.01.04.04.07.06.1.05.07.1.15.16.21.05.07.11.13.16.19.02.02.05.05.07.08l2.9-2.88c1.64-1.66,1.67-4.31.08-6l-2.87,2.85Z"/><path class="cls-2" d="m14.18,22.75s0,0,0,0l-.56-.56c-.23-.22-.34-.5-.34-.82v-4.14c0-.7.28-1.35.78-1.84l2.29-2.27c.15-.14.23-.33.23-.54,0-.2-.08-.39-.23-.54l-2.29-2.27c-.5-.49-.78-1.15-.78-1.85V3.78c0-.31.12-.59.34-.81l.26-.26h0s.15-.15.15-.15l.15-.15s0,0,0,0l.42-.42c.06-.06.06-.15,0-.21L12.88.04c-.06-.06-.15-.06-.21,0l-1.73,1.73c-.06.06-.06.15,0,.21l.43.43s0,0,0,0l.05.05h0s.51.51.51.51c.22.22.34.5.34.81v4.14c0,.7-.27,1.36-.78,1.85l-2.29,2.27c-.15.15-.22.34-.22.54,0,.2.07.39.22.54l2.29,2.27c.5.49.78,1.14.78,1.84v4.14c0,.31-.12.6-.34.82l-.56.56s0,0,0,0l-.42.42c-.06.06-.06.15,0,.21l1.73,1.73c.06.06.15.06.21,0l1.73-1.73c.06-.06.06-.15,0-.21l-.43-.43Zm-2.04-8.11l-1.46-1.45c-.34-.34-.34-.89,0-1.24l1.46-1.44c.35-.34.91-.34,1.26,0l1.46,1.44c.34.34.34.9,0,1.24l-1.46,1.45c-.34.34-.9.34-1.26,0Z"/><path class="cls-6" d="m19.36,12.36l.11.11c.88.88,1.37,2.04,1.37,3.29,0,.54-.1,1.07-.27,1.57-.02.07-.04.13-.07.2,0,0,0,.01-.01.02-.01.04-.03.07-.04.11l5.11-5.07L16.16,3.27c-.76.81-1.17,1.85-1.17,2.96s.45,2.25,1.28,3.07l3.09,3.07Z"/></g></svg>