<?xml version="1.0" encoding="UTF-8"?><svg id="Layer_2" xmlns="http://www.w3.org/2000/svg" viewBox="0 0 20 20"><defs><style>.cls-1{fill:#fa3264;}</style></defs><g id="Franstek"><path class="cls-1" d="m13.47,2.59c.01-1.04-.55-1.97-1.43-2.55-.13-.09-.32,0-.32.14v2.2l-1.9,1.01-1.9-1.01V.17c0-.14-.19-.22-.32-.14-.86.57-1.42,1.46-1.43,2.48-.02,1.32.89,2.46,2.2,2.95v8.95c-1.28.48-2.18,1.58-2.2,2.87-.01,1.04.55,1.97,1.43,2.55.13.09.32,0,.32-.14v-2.2l1.9-1.01,1.9,1.01v2.2c0,.14.19.22.32.14.86-.57,1.42-1.46,1.43-2.48.02-1.32-.89-2.46-2.2-2.95V5.46c1.28-.48,2.18-1.58,2.2-2.87Z"/><path class="cls-1" d="m3.97,9.19h-1.14V3.3l.5-.69-.6-2.61h-1.21l-.6,2.61.5.69v5.89H.28c-.15,0-.28.12-.28.28v.48c0,.15.13.28.28.28h.06c-.22.32-.34.71-.34,1.12v6.63c0,1.12.92,2.03,2.05,2.03h.15c1.13,0,2.05-.91,2.05-2.03v-6.63c0-.42-.13-.8-.34-1.12h.06c.15,0,.28-.12.28-.28v-.48c0-.15-.13-.28-.28-.28Zm-2.97,9.44h-.46v-7.29h.46v7.29Zm1.33,0h-.46v-7.29h.46v7.29Zm1.33,0h-.46v-7.29h.46v7.29Z"/><path class="cls-1" d="m19.72,9.19h-1.14V3.3l.5-.69-.6-2.61h-1.21l-.6,2.61.5.69v5.89h-1.14c-.15,0-.28.12-.28.28v.48c0,.15.13.28.28.28h.06c-.22.32-.34.71-.34,1.12v6.63c0,1.12.92,2.03,2.05,2.03h.15c1.13,0,2.05-.91,2.05-2.03v-6.63c0-.42-.13-.8-.34-1.12h.06c.15,0,.28-.12.28-.28v-.48c0-.15-.13-.28-.28-.28Zm-2.97,9.44h-.46v-7.29h.46v7.29Zm1.33,0h-.46v-7.29h.46v7.29Zm1.33,0h-.46v-7.29h.46v7.29Z"/></g></svg>