<?xml version="1.0" encoding="UTF-8"?><svg id="Layer_2" xmlns="http://www.w3.org/2000/svg" viewBox="0 0 25.89 20.4"><defs><style>.cls-1{fill:#33487d;}</style></defs><g id="Franstek"><polygon class="cls-1" points="20.76 4.54 21.78 5.56 22.31 5.03 20.39 3.1 18.46 5.03 18.99 5.56 20.01 4.54 20.01 6.98 16.63 6.98 16.63 9.75 13.55 9.75 13.55 10.5 17.38 10.5 17.38 7.73 20.76 7.73 20.76 4.54"/><circle class="cls-1" cx="14.31" cy="5.38" r="1.14"/><polygon class="cls-1" points="22.88 8.99 22.35 8.46 21.71 9.1 21.08 8.46 20.54 8.99 21.18 9.63 20.54 10.27 21.08 10.8 21.71 10.16 22.35 10.8 22.88 10.27 22.24 9.63 22.88 8.99"/><path class="cls-1" d="m25.89,1.49v-.61c0-.48-.39-.88-.88-.88h-13.99c-.48,0-.88.39-.88.88v.61h.82v3.18h-3.11s-1.97-.01-2.12-.01c0,0,0,0,0,0,0,0-.15,0-.22,0h0s-.23,0-.23,0l-.75,1.47.38.26-.56,1.01-.23-1.66-.04-.32-.03-.65h-.47l-.03.65-.04.32-.23,1.66-.56-1.01.38-.26-.75-1.47h-.11c-1.24,0-2.24,1-2.24,2.24v5.06c0,.37.28.69.64.71.4.03.74-.29.74-.69v-5.09c0-.28.14-.53.34-.69v13.39c0,.41.31.77.72.8.45.03.83-.33.83-.77v-6.49h1.01v6.46c0,.41.31.77.72.8.45.03.83-.33.83-.77v-9.65c0-1.33.19-2.65.55-3.93.19,0,.39,0,.59,0,.46,0,.87,0,.88,0h3.11v6.15h-.82v.61c0,.48.39.88.88.88h4.58l-3.67,6.71h1.77l3.67-6.71h1.84l3.67,6.71h1.77l-3.67-6.71h4.03c.48,0,.88-.39.88-.88v-.61h-.78V1.49h.78Zm-1.25,10.72h-13.2v-6.17c.31-.07.55-.34.55-.67s-.23-.61-.55-.67V1.49h13.2v10.72Z"/><path class="cls-1" d="m3.82,4.01c1.06,0,1.92-.86,1.92-1.92S4.88.17,3.82.17s-1.92.86-1.92,1.92.86,1.92,1.92,1.92Z"/></g></svg>