<?xml version="1.0" encoding="UTF-8"?><svg id="Layer_2" xmlns="http://www.w3.org/2000/svg" viewBox="0 0 23 23"><defs><style>.cls-1{fill:#007dfa;}</style></defs><g id="Franstek"><path class="cls-1" d="m11.5,5.74c-3.18,0-5.76,2.58-5.76,5.76s2.58,5.76,5.76,5.76,5.76-2.58,5.76-5.76-2.58-5.76-5.76-5.76Zm.35,9.77c-2.22.19-4.17-1.45-4.36-3.66-.19-2.22,1.45-4.17,3.66-4.36,2.22-.19,4.17,1.45,4.36,3.66.19,2.22-1.45,4.17-3.66,4.36Z"/><path class="cls-1" d="m22.63,12.28l-1.02-.49c-.24-.12-.43-.42-.44-.69,0,0,0-.13-.03-.44v-.11c-.02-.12.15-.33.37-.47l.96-.61c.22-.14.35-.46.28-.72l-.57-1.74c-.1-.24-.39-.43-.66-.41l-1.13.08c-.26.02-.58-.12-.69-.32-.12-.2-.36-.88-.24-1.11l.53-1c.12-.23.07-.58-.11-.76l-1.36-1.22c-.21-.16-.55-.18-.77-.03l-.94.64c-.22.15-.56.18-.76.07-.2-.11-.75-.58-.76-.84l-.04-1.13c-.01-.26-.23-.54-.48-.61L12.97,0c-.26-.04-.57.12-.68.36l-.49,1.02c-.12.24-.42.43-.69.44,0,0-.13,0-.44.03h-.11c-.12.02-.33-.15-.47-.37l-.61-.96c-.14-.22-.46-.35-.72-.28l-1.74.57c-.25.1-.43.39-.41.65l.08,1.13c.02.26-.12.58-.32.69-.19.12-.87.36-1.11.24l-1-.53c-.23-.12-.58-.07-.76.11l-1.22,1.36c-.16.21-.18.55-.03.77l.64.94c.15.22.18.56.07.76-.11.2-.58.75-.84.76l-1.13.04c-.26.01-.54.23-.61.48L0,10.03c-.04.26.12.57.36.68l1.02.49c.24.11.43.42.44.69,0,0,0,.13.03.44v.11c.02.12-.15.33-.37.47l-.96.61c-.22.14-.35.46-.28.72l.57,1.74c.1.24.39.43.65.41l1.13-.08c.26-.02.58.12.69.32.12.19.36.88.24,1.11l-.53,1c-.12.23-.07.58.11.76l1.36,1.22c.21.16.55.18.77.03l.94-.64c.22-.15.56-.18.76-.07.2.11.75.58.76.84l.04,1.13c.01.26.23.54.48.61l1.79.37c.26.04.57-.12.68-.36l.49-1.02c.11-.24.42-.43.69-.44,0,0,.13,0,.44-.03h.11c.12-.02.33.15.47.37l.61.96c.14.22.46.35.72.28l1.74-.57c.24-.1.43-.39.41-.65l-.08-1.13c-.02-.26.13-.58.32-.69.19-.12.88-.36,1.11-.24l1,.53c.23.12.58.07.76-.11l1.22-1.36c.16-.21.18-.55.03-.77l-.64-.94c-.15-.22-.18-.56-.07-.76.11-.2.58-.75.84-.76l1.13-.04c.26-.01.54-.23.61-.48l.37-1.79c.04-.26-.12-.57-.36-.68Zm-11.13,7.02c-4.3,0-7.8-3.5-7.8-7.8s3.5-7.8,7.8-7.8,7.8,3.5,7.8,7.8-3.5,7.8-7.8,7.8Z"/></g></svg>