<?xml version="1.0" encoding="UTF-8"?><svg id="Layer_2" xmlns="http://www.w3.org/2000/svg" viewBox="0 0 26.16 19.02"><defs><style>.cls-1{fill:#fa0096;}</style></defs><g id="Franstek"><path class="cls-1" d="m19.74,19.02c-1.42,0-2.57-1.08-2.57-2.41s1.15-2.41,2.57-2.41,2.57,1.08,2.57,2.41-1.15,2.41-2.57,2.41Zm0-3.68c-.75,0-1.35.57-1.35,1.27s.61,1.27,1.35,1.27,1.35-.57,1.35-1.27-.61-1.27-1.35-1.27Zm-7.23,3.68c-1.42,0-2.57-1.08-2.57-2.41s1.15-2.41,2.57-2.41,2.57,1.08,2.57,2.41-1.15,2.41-2.57,2.41Zm0-3.68c-.75,0-1.35.57-1.35,1.27s.61,1.27,1.35,1.27,1.35-.57,1.35-1.27-.61-1.27-1.35-1.27Zm-1.2-1.89c-1.47,0-2.82-.8-3.44-2.05l-3.09-7.56C4.12,2.49,2.31,1.41.74,1.41c-.41,0-.74-.31-.74-.69v-.16C0,.24.25,0,.58,0c.04,0,.08,0,.12.01l3.76.51c.13.02.26.08.36.17.1.05.17.1.22.19l3.68,8.77c.7,1.42,2.22,2.33,3.88,2.33h10.31c.21,0,.4.16.4.33v.8c0,.19-.21.33-.4.33h-11.6Zm-.01-3.01c-.39,0-.71-.3-.71-.67,0-.45.32-.75.71-.75h11.67c.39,0,.71.3.71.67,0,.45-.32.75-.71.75h-11.67Zm-1.19-2.72c-.39,0-.71-.3-.71-.67,0-.45.32-.75.71-.75h14.1c.39,0,.71.3.71.67,0,.45-.32.75-.71.75h-14.1Zm-1.29-2.72c-.39,0-.71-.3-.71-.67,0-.45.32-.75.71-.75h16.63c.39,0,.71.3.71.67,0,.45-.32.75-.71.75H8.82Z"/></g></svg>