<?xml version="1.0" encoding="UTF-8"?><svg id="Layer_2" xmlns="http://www.w3.org/2000/svg" xmlns:xlink="http://www.w3.org/1999/xlink" viewBox="0 0 25 30"><defs><style>.cls-1{fill:#fff;}.cls-2{opacity:.75;}.cls-2,.cls-3,.cls-4{fill:#009600;}.cls-4{stroke:#009600;stroke-miterlimit:10;}</style><symbol id="Excel" viewBox="0 0 25 30"><g id="export_to_excel_icon"><path class="cls-3" d="M25,5.81l-.48-.48L19.71,.48,19.23,0h0s-16.83,0-16.83,0C1.08,0,0,1.08,0,2.42V27.58c0,1.33,1.08,2.42,2.4,2.42H22.6c1.33,0,2.4-1.08,2.4-2.42V5.81h0Zm-2.4,23.23H2.4c-.8,0-1.44-.65-1.44-1.45V2.42c0-.8,.65-1.45,1.44-1.45H19.23V5.81h4.81V27.58c0,.8-.65,1.45-1.44,1.45Z"/><g><rect class="cls-4" x=".94" y="8.78" width="11.54" height="11.61"/><polygon class="cls-1" points="11.26 19.62 7.66 14.39 11.11 9.55 9.58 9.55 6.8 13.51 3.95 9.55 2.34 9.55 5.9 14.46 2.16 19.62 3.69 19.62 6.77 15.35 9.68 19.62 11.26 19.62"/></g><g><rect class="cls-2" x="14.73" y="8.35" width="7.65" height="1.46"/><rect class="cls-2" x="14.73" y="11.14" width="7.65" height="1.46"/><rect class="cls-2" x="14.73" y="13.94" width="7.65" height="1.46"/><rect class="cls-2" x="14.73" y="16.73" width="7.65" height="1.46"/><rect class="cls-2" x="14.73" y="19.52" width="7.65" height="1.46"/></g></g></symbol></defs><g id="PR_Log"><use width="25" height="30" xlink:href="#Excel"/></g></svg>
