<?xml version="1.0" encoding="UTF-8"?><svg id="Layer_2" xmlns="http://www.w3.org/2000/svg" viewBox="0 0 22.48 14.99"><defs><style>.cls-1{fill:#007daf;}</style></defs><g id="Franstek"><path class="cls-1" d="m21.17,6.13l-.24-.74c-.08-.25-.07-.48-.03-.67.09-.43.04-.89-.22-1.24-.08-.11-.16-.19-.23-.26-.15-.14-.23-.33-.23-.54h0c0-.9-.42-1.7-1.06-2.19-.44-.34-.98-.49-1.52-.49h-.02c-.61,0-1.22.2-1.69.62-.55.5-.9,1.24-.9,2.06,0,.21-.09.4-.24.54-.07.06-.14.15-.22.25-.25.35-.31.82-.22,1.25.04.19.05.42-.03.67l-.22.69c-.23.71.27,1.45.99,1.45h1.46s0,0,0,0c-.48-.48-.84-1.23-.89-2.08,0-.08,0-.16,0-.24,0-.6.25-1.16.65-1.4.29-.17.48-.49.72-1.23,0,0,.07,1.43,1.13,1.09.56-.18.82-.49,1.17.12.21.35.3.8.3,1.25v.54c0,.54-.13,1.05-.35,1.46-.1.19-.21.35-.34.5h1.28c.69,0,1.17-.71.95-1.4Z"/><path class="cls-1" d="m21.46,9.11c-.07-.03-1.06-.33-1.74-.6-.07-.03-.14-.06-.21-.09h-.05l.14.67.12.57c.02.09-.02.19-.11.23l-.6.34c-.08.05-.13.15-.1.25l.15.52c.02.08,0,.16-.06.22l-.79.98-.14-2.22c-.01-.08,0-.17.04-.24l.24-.44c.06-.11.06-.25,0-.36l-.2-.37c-.06-.11-.17-.18-.3-.18h-.41c-.12,0-.24.07-.3.18l-.2.37c-.06.11-.06.25,0,.36l.24.44c.04.07.05.16.04.24l-.14,2.22-.79-.98c-.06-.06-.08-.14-.06-.22l.15-.52c.03-.1-.02-.2-.1-.25l-.6-.34c-.08-.04-.12-.14-.1-.23l.11-.53.15-.71h-.05c-.07.03-.14.06-.21.09-.34.14-.95.29-1.23.4-.01,0-.02,0-.03.01-.13.05-.24.09-.32.13-.09.04-.15.06-.16.06-.44.19-1.02.79-1.02,1.67v3.01c0,.61.47,1.1,1.05,1.1h7.58c.58,0,1.04-.49,1.04-1.1v-3.02c0-.76-.46-1.43-1.02-1.67Z"/><path class="cls-1" d="m10.82,11.46v2.84c0,.38-.29.68-.66.68h-4.02l-.27-3.24h0c-.02-.14.02-.28.1-.39,0,0,.01-.02.02-.02l.35-.64c.05-.09.05-.19,0-.28l-.35-.63c-.05-.09-.13-.14-.23-.14h-.7c-.09,0-.18.05-.23.14l-.35.63c-.05.09-.05.19,0,.28l.35.64s0,.02.02.02c.08.11.12.25.1.38h0s-.27,3.24-.27,3.24H.66c-.36,0-.66-.31-.66-.68v-2.84c0-.95.54-1.8,1.34-2.18.13-.06.25-.11.39-.14l1.49-.56s0-.03.01-.05l.26-.69c.05-.14.21-.19.33-.12l.95.6.64.4.64-.4.95-.6c.12-.08.28-.02.33.12l.26.69s.01.03.01.05l1.49.56c.14.04.27.08.39.14.8.38,1.34,1.22,1.34,2.18Z"/><path class="cls-1" d="m8,2.79v.75c0,.19-.01.36-.03.52-.04.28-.09.56-.17.83-.17.57-.44,1.09-.79,1.55-.06.07-.12.15-.18.22l-.21.23c-.27.31-.65.49-1.05.49h-.31c-.4,0-.78-.18-1.05-.49l-.21-.23c-.06-.07-.12-.14-.18-.22-.23-.3-.43-.63-.58-.99-.2-.45-.32-.92-.38-1.4-.02-.17-.04-.34-.04-.5v-.75c0-.26.03-.51.1-.75C3.23.9,4.26.09,5.41.09s2.18.81,2.49,1.97c.07.23.1.48.1.73Z"/></g></svg>