<?xml version="1.0" encoding="UTF-8"?><svg id="Layer_2" xmlns="http://www.w3.org/2000/svg" viewBox="0 0 101.13 13.57"><defs><style>.cls-1{fill:#fa0096;}</style></defs><g id="Franstek"><path class="cls-1" d="m1.07,10.89V1.87h1.22v9.02h-1.22Zm.82-3.51v-1.07h2.46c.34,0,.64-.07.9-.21.26-.14.47-.33.62-.58.15-.25.23-.55.23-.9s-.08-.65-.23-.9c-.15-.25-.36-.45-.62-.58-.26-.14-.57-.21-.9-.21H1.88v-1.07h2.54c.55,0,1.05.11,1.49.34.44.22.78.54,1.04.96.26.41.38.9.38,1.46s-.13,1.04-.38,1.45-.6.73-1.04.96-.93.34-1.49.34H1.88Z"/><path class="cls-1" d="m11.21,11.02c-.61,0-1.15-.14-1.64-.43s-.87-.67-1.16-1.16c-.29-.49-.43-1.04-.43-1.64s.14-1.14.43-1.62c.29-.48.67-.86,1.16-1.15s1.03-.43,1.64-.43,1.14.14,1.63.42c.49.28.88.67,1.16,1.15.29.49.43,1.03.43,1.62s-.14,1.16-.43,1.64c-.29.49-.67.88-1.16,1.16-.49.29-1.03.43-1.63.43Zm0-1.13c.39,0,.74-.09,1.04-.27.3-.18.54-.43.71-.75.17-.32.26-.68.26-1.09s-.09-.75-.27-1.07c-.18-.31-.42-.56-.71-.73-.3-.18-.64-.27-1.03-.27s-.74.09-1.04.27c-.3.18-.54.42-.71.73-.17.31-.26.67-.26,1.07s.09.77.26,1.09c.17.32.41.57.71.75.3.18.65.27,1.04.27Z"/><path class="cls-1" d="m17.33,10.89l-2.44-6.17h1.22l1.77,4.81h-.39l1.75-4.81h.68l1.75,4.81h-.39l1.77-4.81h1.22l-2.43,6.17h-.69l-1.78-4.67h.43l-1.79,4.67h-.68Z"/><path class="cls-1" d="m27.99,11.02c-.62,0-1.17-.14-1.66-.42-.49-.28-.88-.67-1.17-1.15s-.43-1.04-.43-1.65.14-1.15.42-1.64c.28-.48.66-.87,1.14-1.15.48-.28,1.02-.42,1.62-.42s1.08.13,1.51.39.78.62,1.03,1.08.37.98.37,1.56c0,.09,0,.18-.01.28s-.03.21-.05.34h-5.21v-.97h4.59l-.43.38c0-.42-.07-.77-.22-1.06-.15-.29-.36-.52-.62-.68s-.59-.24-.97-.24-.75.09-1.05.26c-.3.17-.54.42-.7.73-.17.31-.25.68-.25,1.11s.09.81.26,1.14c.17.32.42.58.74.75.32.18.69.27,1.1.27.35,0,.67-.06.96-.18.29-.12.54-.3.75-.55l.75.77c-.29.35-.66.61-1.08.79-.43.18-.89.27-1.37.27Z"/><path class="cls-1" d="m32.1,10.89v-6.17h1.17v6.17h-1.17Zm1.17-3.52l-.44-.19c0-.79.18-1.42.55-1.88.36-.47.89-.7,1.57-.7.31,0,.59.05.84.16s.49.29.7.54l-.77.79c-.13-.14-.27-.24-.43-.3-.16-.06-.34-.09-.55-.09-.43,0-.79.14-1.07.42s-.42.7-.42,1.26Z"/><path class="cls-1" d="m39.97,11.02c-.62,0-1.17-.14-1.66-.42-.49-.28-.88-.67-1.17-1.15s-.43-1.04-.43-1.65.14-1.15.42-1.64c.28-.48.66-.87,1.14-1.15.48-.28,1.02-.42,1.62-.42s1.08.13,1.51.39.78.62,1.03,1.08.37.98.37,1.56c0,.09,0,.18-.01.28s-.03.21-.05.34h-5.21v-.97h4.59l-.43.38c0-.42-.07-.77-.22-1.06-.15-.29-.36-.52-.62-.68s-.59-.24-.97-.24-.75.09-1.05.26c-.3.17-.54.42-.7.73-.17.31-.25.68-.25,1.11s.09.81.26,1.14c.17.32.42.58.74.75.32.18.69.27,1.1.27.35,0,.67-.06.96-.18.29-.12.54-.3.75-.55l.75.77c-.29.35-.66.61-1.08.79-.43.18-.89.27-1.37.27Z"/><path class="cls-1" d="m46.7,11.02c-.57,0-1.08-.14-1.53-.42-.45-.28-.81-.67-1.07-1.15s-.4-1.03-.4-1.64.13-1.15.4-1.64.62-.87,1.07-1.16c.45-.29.96-.43,1.53-.43.46,0,.88.1,1.25.29.37.2.67.46.9.81.23.34.36.74.38,1.19v1.86c-.03.44-.15.84-.38,1.18s-.52.62-.9.81c-.37.19-.79.29-1.26.29Zm.2-1.1c.39,0,.73-.09,1.02-.27s.52-.43.68-.75c.16-.32.25-.68.25-1.09s-.08-.79-.25-1.1c-.17-.31-.4-.56-.69-.74-.29-.18-.63-.27-1.02-.27s-.73.09-1.03.27c-.29.18-.53.43-.7.75s-.25.68-.25,1.09.08.78.25,1.1.4.57.7.75.64.27,1.03.27Zm3.05.97h-1.18v-1.66l.22-1.51-.22-1.5V1.61h1.18v9.28Z"/><path class="cls-1" d="m54.35,10.89V1.61h1.17v4.62l-.22,1.5.22,1.51v1.66h-1.17Zm3.25.13c-.47,0-.89-.1-1.27-.29-.38-.2-.68-.47-.9-.81-.22-.35-.35-.74-.38-1.18v-1.86c.03-.45.15-.85.38-1.19.23-.34.53-.61.91-.81.38-.19.79-.29,1.25-.29.56,0,1.07.14,1.53.43s.81.67,1.07,1.16.39,1.03.39,1.64-.13,1.15-.39,1.64-.62.87-1.07,1.15c-.46.28-.96.42-1.53.42Zm-.2-1.1c.39,0,.73-.09,1.03-.27.29-.18.53-.43.7-.75.17-.32.26-.68.26-1.1s-.09-.77-.26-1.09c-.17-.32-.41-.57-.7-.75-.29-.18-.63-.27-1.01-.27s-.73.09-1.03.27c-.29.18-.52.43-.69.75-.17.32-.25.69-.25,1.1s.08.77.24,1.09.39.57.69.75.64.27,1.02.27Z"/><path class="cls-1" d="m63.71,10.95l-2.68-6.23h1.3l1.99,4.88h-.42l2.09-4.88h1.3l-2.89,6.23h-.7Zm-1.77,2.54l1.82-3.73.65,1.2-1.17,2.54h-1.3Z"/><path class="cls-1" d="m71.28,10.89V1.87h1.22v9.02h-1.22Z"/><path class="cls-1" d="m74.63,10.89V1.87h1.22v9.02h-1.22Zm.81,0v-1.12h2.51c.67,0,1.25-.14,1.75-.44.5-.29.9-.69,1.18-1.2s.42-1.1.42-1.77-.14-1.24-.43-1.75c-.29-.51-.68-.91-1.18-1.2-.5-.29-1.08-.43-1.74-.43h-2.5v-1.12h2.52c.66,0,1.27.11,1.83.34.56.22,1.04.54,1.46.95.41.41.73.88.96,1.43s.34,1.14.34,1.79-.12,1.24-.34,1.79c-.23.55-.55,1.03-.96,1.44-.41.41-.89.72-1.45.95-.56.23-1.16.34-1.81.34h-2.56Z"/><path class="cls-1" d="m84.25,10.89V1.87h.86l3.82,6.28h-.58l3.82-6.28h.86v9.02h-1.22v-6.88l.29.08-3.02,4.95h-.86l-3.02-4.95.27-.08v6.88h-1.22Z"/><path class="cls-1" d="m97.49,11.02c-.71,0-1.32-.13-1.82-.39s-.95-.64-1.34-1.13l.83-.83c.29.4.62.7.99.9.37.2.83.31,1.38.31s.97-.12,1.29-.35c.33-.23.49-.55.49-.96,0-.34-.08-.61-.23-.82-.16-.21-.37-.38-.63-.51-.26-.13-.55-.26-.86-.36-.31-.11-.62-.23-.94-.35-.31-.13-.6-.28-.86-.47-.26-.19-.47-.43-.63-.73-.16-.3-.24-.68-.24-1.14,0-.51.12-.95.37-1.31s.58-.64,1.01-.83c.43-.2.91-.29,1.45-.29.59,0,1.12.12,1.59.34s.85.53,1.14.9l-.83.83c-.27-.31-.56-.55-.87-.7-.31-.16-.66-.23-1.06-.23-.49,0-.87.11-1.16.32-.29.21-.43.51-.43.89,0,.3.08.55.24.73.16.19.37.34.63.47s.55.25.87.36c.32.11.63.23.94.36.31.13.6.29.86.49s.47.46.63.77.24.71.24,1.19c0,.8-.28,1.42-.83,1.87-.55.45-1.29.68-2.23.68Z"/></g></svg>