<?xml version="1.0" encoding="UTF-8"?><svg id="Layer_2" xmlns="http://www.w3.org/2000/svg" viewBox="0 0 18 18"><defs><style>.cls-1{fill:#00af4b;}</style></defs><g id="Franstek"><polygon class="cls-1" points=".12 6.19 8.02 17.24 5.05 6.19 .12 6.19"/><polygon class="cls-1" points="10.06 17.12 17.88 6.19 13.27 6.19 10.06 17.12"/><polygon class="cls-1" points="14.78 0 9.76 0 12.85 4.66 14.78 0"/><polygon class="cls-1" points="2.47 .55 0 5.14 4.63 5.14 2.47 .55"/><polygon class="cls-1" points="18 5.14 15.55 .58 13.66 5.14 18 5.14"/><polygon class="cls-1" points="8.27 0 3.25 0 5.44 4.66 8.27 0"/><polygon class="cls-1" points="12.02 5.14 9.02 .61 6.27 5.14 12.02 5.14"/><polygon class="cls-1" points="6.01 6.19 9.02 18 12.31 6.19 6.01 6.19"/></g></svg>