<?xml version="1.0" encoding="UTF-8"?><svg id="Layer_2" xmlns="http://www.w3.org/2000/svg" viewBox="0 0 20 20"><defs><style>.cls-1{fill:#fa3264;}</style></defs><g id="Franstek"><path class="cls-1" d="m8.43,20c-.4,0-.74-.29-.79-.69l-.45-3.23-1.32-.72-3.21,1.26c-.09.04-.19.06-.29.06-.28,0-.54-.15-.69-.38L.11,13.73c-.21-.34-.12-.8.21-1.04l2.7-1.97c-.02-.2-.05-.49-.05-.72s.03-.52.05-.72L.32,7.31c-.33-.24-.42-.7-.21-1.04l1.56-2.56c.14-.24.41-.38.69-.38.1,0,.2.02.29.06l3.21,1.26,1.32-.72.45-3.23c.05-.39.39-.69.79-.69h3.14c.4,0,.74.3.79.69l.45,3.23,1.32.72,3.21-1.26c.09-.04.19-.05.29-.05.28,0,.55.15.69.38l1.56,2.57c.21.35.12.8-.21,1.04l-2.71,1.97c.02.2.05.49.05.72s-.03.52-.05.72l2.71,1.97c.33.24.42.69.21,1.04l-1.56,2.57c-.14.24-.41.38-.69.38-.1,0-.2-.02-.29-.05l-3.21-1.26-1.32.72-.45,3.23c-.05.39-.39.69-.79.69h-3.14Zm2.73-1.27l.42-3.01c.04-.29.25-.56.51-.69l1.56-.85c.11-.07.28-.12.45-.12.12,0,.23.02.33.06l3,1.18,1.13-1.86-2.54-1.85c-.25-.19-.39-.52-.35-.82.01-.09.07-.5.07-.78s-.06-.69-.07-.77c-.05-.32.1-.66.35-.84l2.54-1.85-1.13-1.86-3,1.18c-.1.04-.21.06-.32.06-.18,0-.36-.05-.5-.14l-1.56-.85c-.23-.1-.43-.37-.47-.66l-.42-3.01h-2.32l-.42,3.01c-.04.3-.25.57-.52.69l-1.55.85c-.11.07-.28.12-.45.12-.12,0-.23-.02-.33-.06l-3-1.18-1.13,1.86,2.54,1.85c.25.18.39.52.35.82-.02.12-.07.51-.07.78,0,.3.07.76.07.78.04.31-.1.64-.35.83l-2.54,1.85,1.13,1.86,3-1.18c.1-.04.21-.06.33-.06.18,0,.36.05.51.15l1.55.84c.23.1.43.38.47.66l.42,3.02h2.32Z"/><path class="cls-1" d="m10,13.66c-2.11,0-3.83-1.64-3.83-3.66s1.72-3.66,3.83-3.66,3.83,1.64,3.83,3.66-1.72,3.66-3.83,3.66Zm0-6.15c-1.47,0-2.67,1.12-2.67,2.5s1.2,2.5,2.67,2.5,2.67-1.12,2.67-2.5-1.2-2.5-2.67-2.5Z"/></g></svg>