<?xml version="1.0" encoding="UTF-8"?><svg id="Layer_2" xmlns="http://www.w3.org/2000/svg" viewBox="0 0 22 20"><defs><style>.cls-1{fill:#ff0096;}.cls-1,.cls-2{stroke-width:0px;}.cls-2{fill:#007daf;}</style></defs><g id="item_master"><path class="cls-2" d="m21.83,8.71c-.16-.62-.4-1.03-.75-1.35-.27-.24-.54-.35-.85-.36l-.76-.02c-.19,0-.26-.07-.29-.25l-.03-.23c-.03-.22-.07-.45-.12-.67-.38-1.56-1.2-2.89-2.45-3.95-.81-.69-1.74-1.19-2.78-1.51-.57-.18-1.16-.29-1.75-.33-.23-.02-.47-.02-.7-.03h-.53c-.81,0-1.53.08-2.2.26-1.25.33-2.36.93-3.3,1.78-.89.8-1.56,1.78-1.99,2.9-.21.55-.33,1.13-.41,1.63-.03.2-.1.26-.32.27h-.19c-.1,0-.41,0-.41,0-.35,0-.62.07-.85.23-.3.2-.53.48-.71.85-.32.67-.4,1.39-.42,1.95-.01.31-.02.62-.02.93v.39c0,.42-.02.85.08,1.27.13.6.38,1.01.77,1.31.29.22.56.33.84.34.18,0,.36,0,.54,0h.43s.43.02.43.02h1.12c.14,0,.29,0,.43-.03.38-.07.72-.44.73-.81l.04-3.81c0-.54,0-1.08.02-1.62.01-.43-.25-.92-.85-.99-.1-.01-.17-.03-.21-.08-.04-.05-.04-.13-.02-.24.09-.56.26-1.09.5-1.59.71-1.46,1.86-2.52,3.41-3.14.56-.23,1.15-.37,1.73-.41.35-.03.71-.03,1.06-.03h.17c.53,0,.97.04,1.37.11,1.48.28,2.72.98,3.68,2.08.81.92,1.29,1.98,1.44,3.16.01.1.01.16-.03.21-.04.04-.1.05-.19.06-.49.02-.88.42-.88.91l-.05,4.86c0,.26,0,.52.03.77.04.34.38.65.76.69.13.01.26.02.39.03h.25c.06.02.11.03.15.07.03.04.03.09.01.16-.16.66-.34,1.18-.57,1.66-.33.69-.7,1.17-1.16,1.53-.47.36-.99.55-1.54.56-.18,0-.36,0-.54,0h-1.09c-.16,0-.27-.06-.36-.2-.29-.47-.71-.7-1.34-.7h-1.05c-.16-.01-.32,0-.48.01-.38.05-.71.25-.93.56-.24.34-.3.77-.17,1.16.19.57.69.91,1.33.93h.11c.27,0,.54.02.8.02h.24c.21,0,.45-.02.67-.07.33-.08.59-.28.78-.58.08-.13.19-.19.36-.19h0c.37,0,.73.01,1.1.01h.34c.45,0,.82-.05,1.15-.14.82-.24,1.49-.72,2.05-1.47.45-.59.78-1.28,1.06-2.16.08-.25.14-.5.21-.75l.05-.2s.05-.18.25-.18c0,0,.7,0,.7,0,.07,0,.14,0,.22-.01.44-.06.81-.28,1.11-.65.32-.4.5-.91.53-1.54.02-.41.02-.81.02-1.22v-.53c.01-.62-.04-1.13-.17-1.6Z"/><path class="cls-1" d="m10.95,14.46l.05-5.28-2.25-.05.05-1.57,4.21.05-.05,6.85h-2.01Zm.94-8.03c-.78,0-1.32-.5-1.32-1.21s.54-1.23,1.32-1.23,1.32.51,1.32,1.23-.54,1.21-1.32,1.21Z"/></g></svg>