<?xml version="1.0" encoding="UTF-8"?><svg id="Layer_2" xmlns="http://www.w3.org/2000/svg" viewBox="0 0 173.39 102.05"><defs><style>.cls-1{fill:#6400c8;}.cls-2{fill:#8d00b9;}.cls-3{stroke:#6400c8;stroke-miterlimit:10;stroke-width:.71px;}.cls-3,.cls-4{fill:none;}</style></defs><g id="PO_Format_Domestic"><rect class="cls-4" width="173.39" height="102.05"/><path d="m34.02,13.35v-6.25h.85v6.25h-.85Zm.58-5.47v-.77h3.41v.77h-3.41Zm0,2.73v-.77h3.26v.77h-3.26Z"/><path d="m40.75,13.44c-.42,0-.8-.1-1.13-.3s-.6-.47-.8-.81c-.2-.34-.3-.72-.3-1.14s.1-.79.3-1.12c.2-.33.47-.6.8-.8.34-.2.71-.3,1.13-.3s.79.1,1.13.29c.34.19.61.46.81.8.2.34.3.71.3,1.12s-.1.8-.3,1.14c-.2.34-.47.61-.81.81-.34.2-.72.3-1.13.3Zm0-.78c.27,0,.51-.06.72-.19s.38-.3.5-.52c.12-.22.18-.47.18-.75s-.06-.52-.18-.74c-.12-.22-.29-.39-.49-.51s-.45-.18-.72-.18-.51.06-.72.18c-.21.12-.38.29-.5.51-.12.22-.18.46-.18.74s.06.53.18.75.28.39.5.52c.21.13.45.19.72.19Z"/><path d="m43.89,13.35v-4.28h.81v4.28h-.81Zm.81-2.44l-.31-.13c0-.55.13-.98.38-1.3s.61-.49,1.09-.49c.22,0,.41.04.58.11.17.08.34.2.49.37l-.53.55c-.09-.1-.19-.17-.3-.21s-.23-.06-.38-.06c-.3,0-.55.1-.74.29-.19.19-.29.48-.29.87Z"/><path d="m49.68,13.35v-6.25h.85v6.25h-.85Z"/><path d="m52,13.35v-6.25h.85v6.25h-.85Zm.56,0v-.77h1.74c.46,0,.87-.1,1.21-.3.35-.2.62-.48.81-.83.19-.35.29-.76.29-1.22s-.1-.86-.3-1.21c-.2-.35-.47-.63-.82-.83-.35-.2-.75-.3-1.21-.3h-1.73v-.77h1.75c.46,0,.88.08,1.26.23.39.16.72.38,1.01.66.28.28.51.61.67.99.16.38.24.79.24,1.24s-.08.86-.24,1.24c-.16.38-.38.71-.66,1-.28.28-.62.5-1,.66-.39.16-.81.23-1.26.23h-1.77Z"/><path d="m58.66,13.35v-6.25h.59l2.65,4.35h-.4l2.65-4.35h.59v6.25h-.85v-4.76l.2.05-2.09,3.43h-.59l-2.09-3.43.19-.05v4.76h-.85Z"/><path d="m67.82,13.44c-.49,0-.91-.09-1.26-.27-.35-.18-.66-.44-.93-.78l.58-.58c.2.28.43.48.68.63.26.14.58.21.95.21s.67-.08.9-.24.34-.38.34-.67c0-.23-.05-.42-.16-.57-.11-.14-.25-.26-.44-.36-.18-.09-.38-.18-.6-.25-.22-.08-.43-.16-.65-.24-.22-.09-.41-.2-.59-.32-.18-.13-.33-.3-.44-.51s-.17-.47-.17-.79c0-.35.09-.66.26-.9.17-.25.4-.44.7-.58.3-.13.63-.2,1-.2.41,0,.77.08,1.1.24.32.16.59.37.79.63l-.58.58c-.19-.22-.39-.38-.6-.49-.21-.11-.46-.16-.73-.16-.34,0-.6.07-.8.22-.2.15-.3.35-.3.62,0,.21.06.38.17.51.11.13.26.24.44.33.18.09.38.17.6.25.22.07.44.16.65.25.22.09.41.2.59.34.18.14.33.32.44.54.11.22.17.49.17.82,0,.55-.19.98-.57,1.3-.38.31-.9.47-1.54.47Z"/><path d="m72.95,13.35v-6.25h.85v6.25h-.85Z"/><path d="m75.13,13.35v-4.28h.81v4.28h-.81Zm3.02,0v-2.49c0-.32-.1-.59-.31-.8s-.47-.32-.79-.32c-.22,0-.41.05-.58.14s-.3.23-.4.4c-.1.17-.14.36-.14.58l-.33-.19c0-.32.07-.61.22-.86s.34-.45.6-.6c.26-.15.55-.22.87-.22s.61.08.86.24.45.37.59.63.22.54.22.83v2.66h-.81Z"/><path d="m79.57,9.81v-.74h3.22v.74h-3.22Zm1.05,3.54v-4.91c0-.32.07-.6.21-.83.14-.24.33-.42.57-.56.24-.14.53-.21.85-.21.25,0,.46.04.64.13.18.08.34.21.5.37l-.53.52c-.08-.08-.17-.15-.26-.19-.1-.04-.21-.07-.35-.07-.26,0-.46.08-.6.22-.14.15-.21.36-.21.62v4.91h-.81Z"/><path d="m85.31,13.44c-.42,0-.8-.1-1.13-.3s-.6-.47-.8-.81c-.2-.34-.3-.72-.3-1.14s.1-.79.3-1.12c.2-.33.47-.6.8-.8.34-.2.71-.3,1.13-.3s.79.1,1.13.29c.34.19.61.46.81.8.2.34.3.71.3,1.12s-.1.8-.3,1.14c-.2.34-.47.61-.81.81-.34.2-.72.3-1.13.3Zm0-.78c.27,0,.51-.06.72-.19s.38-.3.5-.52c.12-.22.18-.47.18-.75s-.06-.52-.18-.74c-.12-.22-.29-.39-.49-.51s-.45-.18-.72-.18-.51.06-.72.18c-.21.12-.38.29-.5.51-.12.22-.18.46-.18.74s.06.53.18.75.28.39.5.52c.21.13.45.19.72.19Z"/><path d="m87.92,9.81v-.74h2.92v.74h-2.92Zm1.05,3.54v-6.07h.81v6.07h-.81Z"/><path d="m93.47,13.44c-.43,0-.81-.1-1.15-.29-.34-.2-.61-.46-.81-.8-.2-.34-.3-.72-.3-1.14s.1-.8.29-1.13c.19-.34.46-.6.79-.8.33-.2.71-.29,1.12-.29s.75.09,1.05.27c.3.18.54.43.71.75.17.32.26.68.26,1.08,0,.06,0,.12,0,.19,0,.07-.02.15-.04.24h-3.61v-.67h3.18l-.3.26c0-.29-.05-.53-.15-.73s-.25-.36-.43-.47c-.19-.11-.41-.17-.67-.17s-.52.06-.73.18c-.21.12-.37.29-.49.5-.11.22-.17.47-.17.76s.06.56.18.79c.12.23.29.4.51.52.22.12.48.18.77.18.24,0,.46-.04.66-.13s.37-.21.52-.38l.52.53c-.2.24-.45.42-.75.55s-.61.19-.95.19Z"/><path d="m98.27,13.44c-.42,0-.8-.1-1.14-.3-.34-.2-.61-.47-.8-.81s-.29-.71-.29-1.13.1-.8.29-1.13c.19-.34.46-.6.8-.8.34-.2.72-.29,1.14-.29.33,0,.64.06.92.18.28.12.52.3.73.54l-.54.54c-.13-.16-.29-.27-.48-.36-.19-.08-.4-.12-.63-.12-.27,0-.51.06-.72.18-.21.12-.38.29-.5.51-.12.22-.18.46-.18.75s.06.53.18.75c.12.22.28.39.5.51.21.13.45.19.72.19.23,0,.44-.04.63-.12s.35-.2.49-.36l.53.54c-.2.23-.44.41-.72.53-.29.13-.59.19-.92.19Z"/><path d="m100.72,13.35v-6.43h.81v6.43h-.81Zm3.02,0v-2.49c0-.32-.1-.59-.31-.8s-.47-.32-.79-.32c-.22,0-.41.05-.58.14s-.3.23-.4.4c-.1.17-.14.36-.14.58l-.33-.19c0-.32.07-.61.22-.86s.34-.45.6-.6c.26-.15.55-.22.87-.22s.61.07.86.22c.25.14.45.35.59.6s.22.55.22.89v2.66h-.81Z"/><path d="m107.66,13.35v-6.25h.85v6.25h-.85Zm.57-2.43v-.74h1.7c.23,0,.44-.05.63-.14.18-.1.33-.23.43-.41s.16-.38.16-.62-.05-.45-.16-.62-.25-.31-.43-.41c-.18-.1-.39-.14-.63-.14h-1.7v-.74h1.75c.38,0,.73.08,1.03.23.3.16.54.38.72.66.18.29.27.62.27,1.01s-.09.72-.27,1c-.18.29-.42.51-.72.67-.3.16-.65.24-1.03.24h-1.75Z"/><path d="m114.44,13.35l-1.96-4.28h.9l1.58,3.61h-.52l1.58-3.61h.86l-1.96,4.28h-.48Z"/><path d="m117.18,9.81v-.74h2.92v.74h-2.92Zm1.05,3.54v-6.07h.81v6.07h-.81Z"/><path d="m121.29,13.44c-.17,0-.31-.06-.42-.18-.11-.12-.17-.26-.17-.42s.06-.31.17-.42c.11-.11.25-.17.42-.17s.31.06.42.17c.11.11.17.25.17.42s-.06.3-.17.42c-.11.12-.25.18-.42.18Z"/><path d="m125.2,13.35v-6.25h.85v6.25h-.85Zm.58,0v-.77h3.35v.77h-3.35Z"/><path d="m129.28,9.81v-.74h2.92v.74h-2.92Zm1.05,3.54v-6.07h.81v6.07h-.81Z"/><path d="m134.66,13.44c-.4,0-.75-.1-1.06-.29-.31-.2-.56-.46-.74-.8-.18-.34-.27-.71-.27-1.13s.09-.8.27-1.13c.18-.34.43-.6.74-.8.31-.2.67-.3,1.06-.3.32,0,.61.07.86.2.26.13.47.32.63.56.16.24.25.51.27.82v1.29c-.02.31-.11.58-.26.82-.16.24-.36.43-.62.56s-.55.2-.87.2Zm.14-.76c.27,0,.51-.06.71-.19.2-.13.36-.3.47-.52.11-.22.17-.47.17-.75s-.06-.55-.18-.77c-.12-.22-.28-.39-.48-.51s-.44-.19-.71-.19-.51.06-.71.19-.36.3-.48.52c-.12.22-.18.47-.18.75s.06.54.18.76c.12.22.28.39.49.52.21.13.45.19.72.19Zm2.11.67h-.82v-1.15l.15-1.04-.15-1.04v-3.19h.82v6.43Z"/><path d="m138.8,13.44c-.17,0-.31-.06-.42-.18-.11-.12-.17-.26-.17-.42s.06-.31.17-.42c.11-.11.25-.17.42-.17s.31.06.42.17c.11.11.17.25.17.42s-.06.3-.17.42c-.11.12-.25.18-.42.18Z"/><path d="m44.78,94.36l2.56-6.25h.61l2.55,6.25h-.92l-2.1-5.28h.31l-2.11,5.28h-.9Zm1.22-1.41v-.74h3.28v.74h-3.28Z"/><path d="m52.92,94.45c-.35,0-.67-.08-.95-.24-.28-.16-.5-.38-.65-.66-.16-.28-.23-.61-.23-.98v-2.48h.81v2.45c0,.23.04.44.12.61s.2.3.36.39c.16.09.34.13.55.13.32,0,.57-.1.75-.3.18-.2.27-.48.27-.83v-2.45h.81v2.48c0,.37-.08.7-.23.98-.16.28-.37.5-.64.66s-.59.24-.95.24Z"/><path d="m55.44,90.82v-.74h2.92v.74h-2.92Zm1.05,3.54v-6.07h.81v6.07h-.81Z"/><path d="m59.15,94.36v-6.43h.81v6.43h-.81Zm3.02,0v-2.49c0-.32-.1-.59-.31-.8s-.47-.32-.79-.32c-.22,0-.41.05-.58.14s-.3.23-.4.4c-.1.17-.14.36-.14.58l-.33-.19c0-.32.07-.61.22-.86s.34-.45.6-.6c.26-.15.55-.22.87-.22s.61.07.86.22c.25.14.45.35.59.6s.22.55.22.89v2.66h-.81Z"/><path d="m66.03,94.45c-.42,0-.8-.1-1.13-.3s-.6-.47-.8-.81c-.2-.34-.3-.72-.3-1.14s.1-.79.3-1.12c.2-.33.47-.6.8-.8.34-.2.71-.3,1.13-.3s.79.1,1.13.29c.34.19.61.46.81.8.2.34.3.71.3,1.12s-.1.8-.3,1.14c-.2.34-.47.61-.81.81-.34.2-.72.3-1.13.3Zm0-.78c.27,0,.51-.06.72-.19s.38-.3.5-.52c.12-.22.18-.47.18-.75s-.06-.52-.18-.74c-.12-.22-.29-.39-.49-.51s-.45-.18-.72-.18-.51.06-.72.18c-.21.12-.38.29-.5.51-.12.22-.18.46-.18.74s.06.53.18.75.28.39.5.52c.21.13.45.19.72.19Z"/><path d="m69.18,94.36v-4.28h.81v4.28h-.81Zm.81-2.44l-.31-.13c0-.55.13-.98.38-1.3s.61-.49,1.09-.49c.22,0,.41.04.58.11.17.08.34.2.49.37l-.53.55c-.09-.1-.19-.17-.3-.21s-.23-.06-.38-.06c-.3,0-.55.1-.74.29-.19.19-.29.48-.29.87Z"/><path d="m73.2,89.23c-.15,0-.27-.05-.37-.15-.1-.1-.14-.22-.14-.37s.05-.27.14-.36c.1-.1.22-.15.37-.15s.27.05.37.15.14.22.14.36-.05.27-.14.37c-.1.1-.22.15-.37.15Zm-.4,5.13v-4.28h.81v4.28h-.81Z"/><path d="m74.46,93.92l2.54-3.39h.95l-2.54,3.39h-.95Zm0,.44v-.44l.72-.3h2.72v.74h-3.44Zm.15-3.54v-.74h3.34v.44l-.75.3h-2.59Z"/><path d="m80.72,94.45c-.43,0-.81-.1-1.15-.29-.34-.2-.61-.46-.81-.8-.2-.34-.3-.72-.3-1.14s.1-.8.29-1.13c.19-.34.46-.6.79-.8.33-.2.71-.29,1.12-.29s.75.09,1.05.27c.3.18.54.43.71.75.17.32.26.68.26,1.08,0,.06,0,.12,0,.19,0,.07-.02.15-.04.24h-3.61v-.67h3.18l-.3.26c0-.29-.05-.53-.15-.73s-.25-.36-.43-.47c-.19-.11-.41-.17-.67-.17s-.52.06-.73.18c-.21.12-.37.29-.49.5-.11.22-.17.47-.17.76s.06.56.18.79c.12.23.29.4.51.52.22.12.48.18.77.18.24,0,.46-.04.66-.13s.37-.21.52-.38l.52.53c-.2.24-.45.42-.75.55s-.61.19-.95.19Z"/><path d="m85.38,94.45c-.4,0-.75-.1-1.06-.29-.31-.2-.56-.46-.74-.8-.18-.34-.27-.71-.27-1.13s.09-.8.27-1.13c.18-.34.43-.6.74-.8.31-.2.67-.3,1.06-.3.32,0,.61.07.86.2.26.13.47.32.63.56.16.24.25.51.27.82v1.29c-.02.31-.11.58-.26.82-.16.24-.36.43-.62.56s-.55.2-.87.2Zm.14-.76c.27,0,.51-.06.71-.19.2-.13.36-.3.47-.52.11-.22.17-.47.17-.75s-.06-.55-.18-.77c-.12-.22-.28-.39-.48-.51s-.44-.19-.71-.19-.51.06-.71.19-.36.3-.48.52c-.12.22-.18.47-.18.75s.06.54.18.76c.12.22.28.39.49.52.21.13.45.19.72.19Zm2.11.67h-.82v-1.15l.15-1.04-.15-1.04v-3.19h.82v6.43Z"/><path d="m92.56,94.45c-.49,0-.91-.09-1.26-.27-.35-.18-.66-.44-.93-.78l.58-.58c.2.28.43.48.68.63.26.14.58.21.95.21s.67-.08.9-.24.34-.38.34-.67c0-.23-.05-.42-.16-.57-.11-.14-.25-.26-.44-.36-.18-.09-.38-.18-.6-.25-.22-.08-.43-.16-.65-.24-.22-.09-.41-.2-.59-.32-.18-.13-.33-.3-.44-.51s-.17-.47-.17-.79c0-.35.09-.66.26-.9.17-.25.4-.44.7-.58.3-.13.63-.2,1-.2.41,0,.77.08,1.1.24.32.16.59.37.79.63l-.58.58c-.19-.22-.39-.38-.6-.49-.21-.11-.46-.16-.73-.16-.34,0-.6.07-.8.22-.2.15-.3.35-.3.62,0,.21.06.38.17.51.11.13.26.24.44.33.18.09.38.17.6.25.22.07.44.16.65.25.22.09.41.2.59.34.18.14.33.32.44.54.11.22.17.49.17.82,0,.55-.19.98-.57,1.3-.38.31-.9.47-1.54.47Z"/><path d="m96.09,89.23c-.15,0-.27-.05-.37-.15-.1-.1-.14-.22-.14-.37s.05-.27.14-.36c.1-.1.22-.15.37-.15s.27.05.37.15.14.22.14.36-.05.27-.14.37c-.1.1-.22.15-.37.15Zm-.4,5.13v-4.28h.81v4.28h-.81Z"/><path d="m99.46,94.28c-.39,0-.74-.09-1.05-.28-.31-.19-.55-.44-.73-.77s-.27-.69-.27-1.1.09-.77.27-1.09.42-.58.73-.76c.31-.19.66-.28,1.05-.28.34,0,.63.07.89.2.26.13.46.32.62.55s.24.51.25.83v1.13c-.02.31-.1.59-.26.82-.15.24-.36.42-.62.55-.26.13-.55.2-.88.2Zm0,1.95c-.44,0-.83-.08-1.17-.24-.34-.16-.61-.39-.81-.68l.52-.53c.17.22.38.39.62.51.24.12.53.18.85.18.44,0,.78-.12,1.04-.35.26-.23.38-.54.38-.93v-1.06l.14-.96-.14-.95v-1.12h.81v4.1c0,.41-.09.76-.28,1.07-.19.31-.45.55-.79.72s-.73.26-1.17.26Zm.16-2.72c.26,0,.5-.06.7-.17.2-.11.36-.27.46-.48s.16-.45.16-.72-.06-.52-.17-.72c-.11-.21-.27-.37-.46-.49-.2-.12-.43-.17-.7-.17s-.51.06-.71.17c-.2.12-.36.28-.48.49-.12.21-.18.45-.18.72s.06.51.18.72c.12.21.28.37.49.49s.45.18.72.18Z"/><path d="m102.9,94.36v-4.28h.81v4.28h-.81Zm3.02,0v-2.49c0-.32-.1-.59-.31-.8s-.47-.32-.79-.32c-.22,0-.41.05-.58.14s-.3.23-.4.4c-.1.17-.14.36-.14.58l-.33-.19c0-.32.07-.61.22-.86s.34-.45.6-.6c.26-.15.55-.22.87-.22s.61.08.86.24.45.37.59.63.22.54.22.83v2.66h-.81Z"/><path d="m109.65,94.45c-.39,0-.74-.1-1.06-.29-.32-.2-.57-.46-.75-.8-.18-.34-.27-.71-.27-1.13s.09-.8.27-1.13c.18-.34.43-.6.75-.8.31-.2.67-.3,1.07-.3.32,0,.61.07.87.2.26.13.46.32.62.56.16.24.24.51.26.82v1.29c-.02.31-.1.58-.26.82-.15.24-.36.43-.61.56-.26.13-.55.2-.88.2Zm.13-.76c.4,0,.73-.14.97-.41.25-.27.37-.62.37-1.05,0-.29-.06-.55-.17-.77-.11-.22-.27-.39-.47-.51s-.44-.18-.71-.18-.51.06-.72.19c-.21.13-.37.3-.49.52-.12.22-.18.47-.18.75s.06.54.18.76c.12.22.28.39.49.52.21.13.45.19.72.19Zm1.29.67v-1.15l.15-1.04-.15-1.04v-1.04h.82v4.28h-.82Z"/><path d="m112.65,90.82v-.74h2.92v.74h-2.92Zm1.05,3.54v-6.07h.81v6.07h-.81Z"/><path d="m118.18,94.45c-.42,0-.8-.1-1.13-.3s-.6-.47-.8-.81c-.2-.34-.3-.72-.3-1.14s.1-.79.3-1.12c.2-.33.47-.6.8-.8.34-.2.71-.3,1.13-.3s.79.1,1.13.29c.34.19.61.46.81.8.2.34.3.71.3,1.12s-.1.8-.3,1.14c-.2.34-.47.61-.81.81-.34.2-.72.3-1.13.3Zm0-.78c.27,0,.51-.06.72-.19s.38-.3.5-.52c.12-.22.18-.47.18-.75s-.06-.52-.18-.74c-.12-.22-.29-.39-.49-.51s-.45-.18-.72-.18-.51.06-.72.18c-.21.12-.38.29-.5.51-.12.22-.18.46-.18.74s.06.53.18.75.28.39.5.52c.21.13.45.19.72.19Z"/><path d="m121.32,94.36v-4.28h.81v4.28h-.81Zm.81-2.44l-.31-.13c0-.55.13-.98.38-1.3s.61-.49,1.09-.49c.22,0,.41.04.58.11.17.08.34.2.49.37l-.53.55c-.09-.1-.19-.17-.3-.21s-.23-.06-.38-.06c-.3,0-.55.1-.74.29-.19.19-.29.48-.29.87Z"/><path d="m126.26,94.39l-1.85-4.31h.9l1.38,3.38h-.29l1.45-3.38h.9l-2,4.31h-.49Zm-1.22,1.75l1.26-2.58.45.83-.81,1.75h-.9Z"/><path class="cls-1" d="m76.92,71.64l1.29-3.12-1.12-.46.26-.64,2.99,1.23-.26.64-1.11-.46-1.29,3.12-.76-.31Z"/><path class="cls-1" d="m79.72,72.7l.86-3.97.8.17-.34,1.56,1.57.34.34-1.56.8.17-.86,3.97-.8-.17.38-1.74-1.57-.34-.38,1.74-.8-.17Z"/><path class="cls-1" d="m87.86,73.61l-.89-.02-.34-.93-1.63-.03-.35.92h-.87s1.66-4.05,1.66-4.05h.87s1.55,4.11,1.55,4.11Zm-1.48-1.64l-.53-1.52-.58,1.5,1.11.02Z"/><path class="cls-1" d="m88.76,73.5l-.71-4,.79-.14,2.11,2.38-.48-2.67.75-.13.71,4-.81.14-2.08-2.32.46,2.61-.75.13Z"/><path class="cls-1" d="m93.18,72.58l-1.43-3.81,2.82-1.06.24.64-2.05.77.32.84,1.91-.72.24.64-1.91.72.39,1.04,2.13-.8.24.64-2.89,1.09Z"/><polygon class="cls-1" points="100.06 69.27 99.49 67.5 97.63 67.5 99.13 66.41 98.56 64.64 100.06 65.74 101.57 64.64 100.99 66.41 102.5 67.5 100.64 67.5 100.06 69.27"/><polygon class="cls-1" points="72.03 69.27 71.46 67.5 69.6 67.5 71.1 66.41 70.53 64.64 72.03 65.74 73.54 64.64 72.96 66.41 74.47 67.5 72.61 67.5 72.03 69.27"/><circle class="cls-3" cx="86.26" cy="50.02" r="27.5"/><circle class="cls-3" cx="86.26" cy="50.02" r="26.16"/><path class="cls-3" d="m102.56,50.02c0,9.01-7.3,16.31-16.31,16.31s-16.31-7.3-16.31-16.31,7.3-16.31,16.31-16.31,16.31,7.3,16.31,16.31Z"/><path class="cls-1" d="m70.51,60.13l-4.29,2.6-.53-.87,4.29-2.6.53.87Z"/><path class="cls-1" d="m64.85,60.46l-.67-1.73c-.15-.39-.23-.7-.25-.92-.03-.31.03-.6.16-.87.13-.28.33-.52.59-.74.26-.22.61-.41,1.05-.58.38-.15.74-.23,1.05-.24.39-.01.73.05,1.02.18.22.1.43.28.63.52.15.18.29.45.42.8l.69,1.78-4.68,1.81Zm.43-1.25l3.1-1.2-.27-.7c-.1-.26-.19-.45-.27-.55-.1-.14-.21-.24-.34-.31-.13-.07-.31-.09-.55-.07-.23.02-.53.1-.89.24-.36.14-.63.28-.8.42-.17.14-.28.29-.35.44-.06.16-.08.33-.05.52.02.14.11.41.26.79l.16.42Z"/><path class="cls-1" d="m67.87,54.22l-5,.47-.14-1.51,3.32-1.23-3.49-.57-.14-1.51,4.99-.47.09.94-3.93.37,4.03.62.09.97-3.84,1.36,3.93-.37.09.94Z"/><path class="cls-1" d="m65.86,48.67l.07-.99c.34,0,.6-.08.78-.23.18-.15.3-.38.35-.68.05-.32.03-.58-.08-.76-.11-.19-.25-.29-.44-.33-.12-.02-.22,0-.32.05-.09.05-.19.16-.28.32-.06.11-.18.36-.35.76-.22.51-.45.86-.68,1.04-.32.26-.68.35-1.07.29-.25-.04-.48-.15-.67-.33-.19-.18-.33-.41-.4-.7-.07-.29-.07-.62,0-1,.11-.62.32-1.07.65-1.33.33-.27.72-.37,1.17-.31l-.12,1.01c-.26,0-.46.06-.6.18-.13.12-.23.32-.27.6-.05.29-.03.53.06.71.06.12.15.19.28.21.12.02.23-.01.33-.1.13-.11.29-.4.49-.86.2-.47.38-.81.54-1.02.16-.21.36-.37.6-.46.24-.1.51-.12.82-.06.28.05.54.17.76.37.22.2.37.45.44.76.07.31.07.68,0,1.11-.11.63-.33,1.08-.68,1.37-.35.29-.8.42-1.37.39Z"/><path class="cls-1" d="m69.06,42.63l-4.55-2.11.43-.92,4.55,2.11-.42.92Z"/><path class="cls-1" d="m69.76,40.98l-4.11-2.87.56-.81,3.92.23-2.75-1.92.54-.77,4.11,2.87-.58.83-3.84-.21,2.68,1.87-.54.77Z"/><path class="cls-1" d="m72.59,37.15l-3.34-3.74,2.57-2.29.57.63-1.81,1.62.79.89,1.56-1.4.57.63-1.56,1.39,1.42,1.59-.76.67Z"/><path class="cls-1" d="m74.27,32.39c-.24-.45-.37-.87-.4-1.25-.02-.28.01-.55.09-.83.08-.27.2-.51.36-.7.22-.26.5-.49.87-.68.65-.34,1.28-.42,1.89-.22.61.2,1.1.66,1.48,1.38.38.72.48,1.38.3,1.99-.18.61-.59,1.09-1.24,1.43-.66.35-1.29.42-1.89.22-.6-.2-1.09-.65-1.46-1.36Zm.91-.52c.26.5.58.82.95.96.37.14.73.11,1.09-.08.36-.19.58-.47.68-.85.09-.38,0-.82-.26-1.34-.27-.51-.58-.83-.93-.96-.35-.13-.72-.1-1.09.09-.37.19-.6.48-.69.85-.09.37,0,.81.26,1.32Z"/><path class="cls-1" d="m81.32,31.97l-.99-4.05-1.45.35-.2-.82,3.87-.95.2.82-1.44.35.99,4.05-.98.24Z"/><path class="cls-1" d="m84.14,31.35l-.08-5.02,3.72-.06v.85s-2.69.04-2.69.04l.02,1.11,2.52-.04v.85s-2.51.04-2.51.04l.02,1.37,2.8-.05v.85s-3.8.06-3.8.06Z"/><path class="cls-1" d="m92.08,30.28l.89.53c-.27.5-.61.84-1.01,1.02-.4.18-.86.21-1.39.09-.65-.15-1.13-.5-1.44-1.04-.31-.54-.38-1.2-.2-1.96.19-.81.55-1.4,1.07-1.75.52-.35,1.13-.45,1.81-.29.6.14,1.04.43,1.33.87.17.26.27.6.29,1.02h-1.03c0-.26-.07-.49-.22-.68-.15-.19-.36-.31-.62-.38-.36-.08-.69-.02-.97.19-.29.21-.5.6-.63,1.18-.14.62-.14,1.08.03,1.4.16.31.42.51.78.59.26.06.51.03.73-.09.23-.12.42-.35.59-.69Z"/><path class="cls-1" d="m93.16,32.52l2.33-4.44.9.47-.92,1.75,1.76.92.92-1.75.9.47-2.33,4.44-.9-.47,1.02-1.94-1.76-.92-1.02,1.94-.9-.47Z"/><path class="cls-1" d="m98.77,36l3.69-3.4,1.1,1.19c.42.45.67.77.76.94.14.26.18.55.13.86-.05.31-.23.61-.52.88-.23.21-.45.34-.68.4-.23.06-.45.07-.65.02-.21-.05-.38-.12-.53-.22-.2-.15-.45-.39-.77-.72l-.45-.49-1.39,1.28-.69-.74Zm3.75-2.08l-1.05.97.38.41c.27.29.47.47.6.54.13.06.26.09.4.07.13-.02.26-.08.36-.18.13-.12.21-.27.22-.42.01-.16-.02-.31-.11-.45-.07-.1-.22-.29-.47-.56l-.33-.36Z"/><path class="cls-1" d="m102.31,40.41l3.5-4.02.54.96-2.62,2.92,3.84-.74.53.94-5.25.89-.53-.94Z"/><path class="cls-1" d="m104.06,44.26l4-1.18-.42-1.43.81-.24,1.12,3.83-.81.24-.42-1.42-4,1.18-.29-.97Z"/><path class="cls-1" d="m104.62,46.42l.95-.16.16.95-.95.16-.16-.95Z"/><path class="cls-1" d="m105.03,50.01l4.96.42-.09,1.01-4.12-.35-.21,2.51-.84-.07.3-3.52Z"/><path class="cls-1" d="m104.4,54.61l4.01,1.13.4-1.43.82.23-1.08,3.84-.82-.23.4-1.43-4.01-1.13.27-.97Z"/><path class="cls-1" d="m107.96,59.82l-.9,1.62c-.2.36-.39.63-.55.79-.22.21-.48.36-.77.43-.3.08-.61.08-.94.02-.33-.06-.7-.21-1.12-.43-.36-.2-.65-.42-.86-.66-.26-.29-.43-.59-.51-.9-.06-.24-.06-.51,0-.82.05-.23.16-.51.34-.83l.93-1.66,4.38,2.45Zm-1.23.47l-2.9-1.62-.37.66c-.14.25-.22.43-.26.56-.04.16-.05.32-.02.46.03.14.13.3.29.47.16.17.41.35.75.54.34.19.62.31.83.35.21.04.4.04.56-.01s.31-.15.43-.29c.1-.11.25-.34.45-.7l.22-.4Z"/><path class="cls-1" d="m101.05,61.48l.75.61-.61.74-.75-.61.61-.75Z"/><path class="cls-2" d="m90.96,39.19s.06.01.05.04c0,.02-.02.04-.04.07-.02.02-.04.04-.07.06-.03.02-.04.04-.05.05-.33.24-.59.53-.79.84-.31.42-.63.88-.97,1.38-.34.49-.69,1.01-1.05,1.54-.36.54-.72,1.08-1.08,1.64s-.71,1.1-1.06,1.64c-.34.54-.68,1.06-1,1.57-.33.51-.62.99-.9,1.42-.39.62-.77,1.25-1.13,1.87s-.75,1.24-1.13,1.87c-.15.23-.32.52-.53.88s-.43.72-.66,1.09c-.23.37-.47.72-.72,1.05-.25.33-.49.59-.72.78-.07.06-.14.09-.22.08s-.16-.04-.25-.08c-.17-.14-.3-.38-.39-.71-.09-.33-.15-.69-.18-1.08-.03-.38-.04-.76-.04-1.13,0-.37.01-.67.02-.89.04-.8.11-1.6.21-2.38.1-.79.22-1.57.38-2.36v.02c-.46.63-.88,1.28-1.28,1.93-.4.66-.8,1.32-1.2,1.99-.83,1.38-1.64,2.78-2.43,4.18-.79,1.41-1.54,2.84-2.25,4.3-.12.27-.25.54-.4.79-.15.25-.29.51-.42.79-.04.06-.08.12-.12.21-.04.08-.09.14-.14.16-.04,0-.05-.02-.05-.09s.02-.15.05-.25c.03-.1.06-.19.09-.29.03-.09.06-.16.07-.19.18-.56.39-1.11.62-1.66.23-.55.46-1.09.7-1.63.49-1.12,1.02-2.21,1.57-3.28.55-1.07,1.12-2.14,1.72-3.2.41-.71.83-1.4,1.25-2.09.42-.69.85-1.37,1.3-2.06.23-.32.44-.65.64-.99.2-.34.43-.67.69-1,.09-.11.2-.22.32-.33s.28-.13.44-.09c.16.08.26.2.29.37.02.09.01.18-.01.27-.02.09-.05.18-.07.27-.23.78-.43,1.57-.6,2.36-.17.79-.32,1.59-.46,2.39-.06.41-.12.81-.19,1.21-.06.4-.11.8-.14,1.21-.04.41-.06.8-.08,1.2-.02.39-.02.79,0,1.18.33-.32.63-.67.88-1.05s.5-.77.75-1.16c.67-1.03,1.31-2.07,1.92-3.11s1.24-2.09,1.88-3.15c.22-.34.5-.75.82-1.22s.67-.95,1.02-1.44c.35-.49.7-.97,1.04-1.43s.63-.85.88-1.17c.25-.33.5-.64.75-.94.25-.3.52-.61.78-.91.24-.27.5-.52.78-.75.28-.24.59-.42.92-.56Z"/><path class="cls-2" d="m86.3,51.63s.06-.06.13-.11c.07-.05.12-.07.13-.05,0,0,0,.02,0,.02,0,0-.01.02-.03.06-.29.38-.6.75-.91,1.09-.32.34-.63.7-.93,1.06-.13.16-.29.36-.47.61-.19.25-.34.45-.46.61-.05.06-.1.12-.17.18s-.13.12-.21.17c-.07.05-.15.07-.24.08-.08,0-.17-.02-.27-.08-.09-.06-.13-.16-.13-.3,0-.13.01-.26.04-.37.05-.25.15-.54.3-.88.15-.33.32-.68.51-1.03.19-.36.4-.71.62-1.05.22-.34.42-.66.62-.93.19-.28.36-.51.51-.69.14-.18.24-.29.3-.32.06-.04.11-.05.15-.04.02,0,.04.02.06.03.02.02.02.04,0,.09-.08.25-.19.52-.31.81-.12.29-.26.6-.41.92-.15.32-.3.66-.46,1-.16.34-.31.69-.45,1.05.07-.08.17-.18.3-.31.12-.12.23-.22.3-.29.24-.23.48-.45.72-.68.23-.22.48-.44.75-.65Zm.83-4.54c.04.07.06.15.05.23,0,.08-.03.17-.07.25-.04.08-.09.15-.14.22-.06.07-.12.12-.18.16-.05.04-.12.07-.19.1-.08.03-.16.05-.23.06s-.15,0-.22-.01c-.07-.02-.13-.06-.17-.13-.08-.14-.09-.29-.02-.44.07-.15.16-.27.27-.36.05-.05.12-.09.2-.13s.17-.07.26-.08c.09-.02.18-.02.26,0,.08.01.15.06.2.14Z"/><path class="cls-2" d="m92.08,40.71s.03.04.02.09c0,.05-.02.1-.03.15-.01.06-.03.11-.04.16-.01.05-.03.09-.03.11-.2.58-.42,1.15-.66,1.71-.24.56-.48,1.11-.72,1.67-.27.59-.54,1.18-.81,1.76-.27.58-.55,1.16-.82,1.74-.36.75-.73,1.5-1.11,2.24-.38.74-.75,1.48-1.13,2.23-.06.12-.12.23-.18.35-.06.12-.12.24-.18.35.57-.58,1.16-1.13,1.76-1.66,0-.01.03-.04.08-.08.05-.04.1-.09.16-.13.06-.04.12-.08.17-.12.05-.03.09-.05.11-.04.02,0,.01.03-.02.07-.04.04-.07.09-.11.14-.14.18-.29.36-.44.52-.15.17-.3.34-.44.51-.22.25-.44.49-.65.73-.21.24-.42.49-.63.75-.08.09-.16.19-.23.29-.07.1-.15.2-.23.3-.06.08-.13.15-.21.21s-.17.08-.28.07c-.19-.02-.31-.12-.35-.29-.03-.13-.02-.28.03-.44.05-.17.1-.31.15-.42.38-.91.79-1.83,1.25-2.75.36-.72.7-1.4,1.01-2.04.31-.64.64-1.31.99-1.99.29-.58.58-1.15.87-1.72.29-.57.6-1.13.92-1.7.22-.39.44-.78.66-1.18s.45-.78.71-1.15c0-.01.03-.04.07-.1.04-.05.08-.11.12-.17.04-.06.09-.11.13-.15.04-.04.07-.05.09-.04Z"/><path class="cls-2" d="m92.6,50.48c-.06.1-.13.21-.21.33-.08.12-.16.24-.24.34-.08.11-.13.17-.14.19-.32.4-.65.79-.99,1.18-.34.39-.73.75-1.15,1.1-.2.17-.42.34-.65.49-.23.15-.47.26-.74.32-.23.04-.44,0-.65-.11-.2-.11-.31-.29-.33-.54-.04-.55.05-1.06.26-1.55s.47-.95.76-1.41c.15-.22.3-.43.47-.63.17-.2.35-.4.54-.59.18-.19.38-.36.58-.52.21-.16.43-.3.66-.42.11-.06.23-.1.36-.13.13-.03.26-.02.38.01.25.09.39.25.41.49.02.23-.03.49-.14.76-.06.12-.12.23-.17.34-.06.11-.12.22-.19.33-.28.43-.6.81-.99,1.14-.27.22-.55.43-.83.61-.28.18-.61.36-.98.53-.16.31-.26.64-.29.99.27-.05.57-.17.88-.36.31-.19.61-.41.91-.66.3-.25.59-.51.87-.78.28-.27.54-.51.78-.73.02-.01.07-.07.16-.16s.19-.2.29-.31.24-.25.42-.42c.02.01,0,.07-.06.17Zm-3.45,1.25c-.08.12-.13.22-.17.31-.04.08-.08.18-.13.29.31-.14.6-.32.88-.54.28-.22.53-.47.75-.74.22-.27.41-.57.56-.89.15-.32.26-.65.31-1-.46.33-.86.71-1.2,1.16-.34.45-.67.92-.99,1.42Z"/><path class="cls-2" d="m94.95,48.02c.03.1.03.2,0,.29-.03.09-.08.18-.14.26-.06.08-.12.17-.19.25-.07.08-.12.17-.15.26-.07.18-.12.36-.16.55-.04.19-.07.38-.1.57-.02.21-.04.41-.06.6-.02.19-.04.39-.05.58-.04.35-.13.68-.27,1.01-.15.33-.36.6-.63.81-.33.24-.67.38-1.03.42-.19,0-.36-.02-.5-.07,0,0-.04,0-.09-.03-.05-.02-.11-.04-.16-.06-.06-.02-.11-.04-.15-.07-.04-.03-.05-.05-.05-.07,0-.02.06-.02.16,0,.1.02.16.02.18.02.13.01.27,0,.42-.02.27-.07.5-.2.68-.4.16-.16.29-.37.4-.61.11-.24.16-.48.15-.7,0-.22,0-.45-.01-.69,0-.24-.02-.48-.04-.73-.2.26-.45.54-.76.85-.31.31-.61.59-.91.86-.3.26-.56.48-.79.65-.22.17-.35.25-.39.22-.02-.02.08-.16.31-.42.23-.25.52-.56.85-.92.33-.37.67-.76,1-1.19.34-.43.6-.84.79-1.24.06-.15.12-.29.19-.43.06-.14.13-.29.22-.44.08-.12.19-.23.3-.33.11-.1.25-.16.4-.19.13-.02.25,0,.37.08.11.08.18.18.22.31Z"/><path class="cls-2" d="m101.36,39.08s.02.03.03.07c0,.11-.02.22-.07.35-.05.12-.09.24-.13.36-.16.43-.32.85-.49,1.26-.17.41-.35.83-.52,1.25-.26.6-.53,1.19-.8,1.77-.27.58-.54,1.16-.82,1.74-.34.72-.71,1.48-1.1,2.27-.4.79-.78,1.54-1.14,2.26.16-.19.36-.41.59-.66.23-.25.47-.49.72-.75.25-.25.49-.5.73-.74s.44-.45.61-.64c.11-.12.23-.24.38-.36.15-.12.31-.17.49-.15.12.02.22.07.29.17s.09.21.06.32c-.03.11-.08.23-.16.35-.08.12-.15.24-.21.34-.16.27-.33.55-.52.85s-.35.58-.5.86c-.14.27-.26.54-.37.83-.11.28-.19.57-.25.86.33-.38.66-.74.97-1.08.31-.34.66-.69,1.03-1.04.08-.07.15-.14.23-.21.08-.07.17-.13.27-.19.06-.03.08-.03.06.01-.02.04-.04.07-.06.09-.04.06-.08.11-.12.16-.04.05-.09.11-.13.16-.31.35-.6.7-.86,1.06-.26.36-.54.72-.84,1.08-.09.12-.17.24-.27.36-.09.12-.19.23-.29.33-.09.09-.2.15-.32.18-.12.03-.23-.01-.33-.12-.09-.1-.14-.23-.15-.39-.01-.16-.02-.3,0-.41,0-.24.06-.51.16-.81.1-.3.22-.59.36-.89.14-.3.28-.59.44-.87.15-.29.28-.55.39-.79-.27.27-.55.56-.85.86s-.62.64-.93,1.01c-.32.37-.64.79-.96,1.24-.32.45-.64.96-.95,1.52-.04.07-.08.15-.13.23-.05.08-.12.13-.2.15-.11.03-.21,0-.3-.07-.09-.08-.13-.17-.12-.28,0-.08.03-.16.06-.24.03-.08.07-.15.1-.23.24-.59.51-1.22.81-1.89.3-.68.58-1.3.85-1.87.27-.59.54-1.18.82-1.75.28-.58.57-1.15.86-1.73.3-.58.59-1.15.89-1.72.29-.57.6-1.13.91-1.69.21-.4.43-.79.66-1.19s.47-.78.73-1.14c.02-.02.04-.06.07-.12.03-.05.07-.11.11-.17.04-.06.08-.1.12-.14.04-.04.07-.05.09-.05Z"/></g></svg>