<?xml version="1.0" encoding="UTF-8"?><svg id="idms_logo" xmlns="http://www.w3.org/2000/svg" xmlns:xlink="http://www.w3.org/1999/xlink" viewBox="0 0 300 300"><defs><style>.cls-1{fill:url(#linear-gradient-2);}.cls-2{fill:url(#radial-gradient);}.cls-3{fill:none;}.cls-4{fill:url(#linear-gradient-3);}.cls-5{fill:url(#linear-gradient);}.cls-6{fill:url(#linear-gradient-4);}</style><linearGradient id="linear-gradient" x1="161.56" y1="262.52" x2="26.72" y2="112.12" gradientUnits="userSpaceOnUse"><stop offset="0" stop-color="#fe005a"/><stop offset="1" stop-color="#ff7300"/></linearGradient><linearGradient id="linear-gradient-2" x1="133.37" y1="60.73" x2="52.98" y2="132.48" gradientUnits="userSpaceOnUse"><stop offset="0" stop-color="#f0047f"/><stop offset=".6" stop-color="#ab1ac4"/><stop offset="1" stop-color="#702dff"/></linearGradient><linearGradient id="linear-gradient-3" x1="162.66" y1="248.8" x2="243.05" y2="165.82" xlink:href="#linear-gradient-2"/><linearGradient id="linear-gradient-4" x1="139.74" y1="54.17" x2="262.48" y2="176.05" gradientUnits="userSpaceOnUse"><stop offset="0" stop-color="#fe005a"/><stop offset="1" stop-color="#ff7300"/></linearGradient><radialGradient id="radial-gradient" cx="149.53" cy="149.57" fx="149.53" fy="149.57" r="112.45" gradientUnits="userSpaceOnUse"><stop offset="0" stop-color="#fe330a"/><stop offset=".5" stop-color="#f71b46"/><stop offset="1" stop-color="#f0047f"/></radialGradient></defs><path class="cls-3" d="m173.48,156.89c3.88-3.81,3.88-10.04,0-13.92l-16.41-16.2c-3.88-3.81-10.18-3.81-14.13,0l-16.41,16.2c-3.88,3.88-3.88,10.11,0,13.92l16.41,16.27c3.95,3.88,10.25,3.88,14.13,0l16.41-16.27Z"/><path class="cls-5" d="m75.93,152.4l-1.26-1.2c-9.9-9.9-15.39-22.96-15.39-36.96,0-6.12,1.07-12.05,3.09-17.66.25-.76.5-1.51.82-2.21.06-.06.06-.13.13-.19.13-.44.32-.82.5-1.26L6.37,150l105.51,104.69c8.51-9.08,13.18-20.81,13.18-33.3s-5.11-25.29-14.38-34.5l-34.75-34.5Z"/><path class="cls-1" d="m70.08,122.46c.31,1.29.76,2.54,1.25,3.75.09.27.13.49.31.76.49,1.38,1.11,2.63,1.83,3.97.4.85.85,1.74,1.34,2.5.45.8.89,1.52,1.43,2.23.13.4.4.76.71,1.07.54.8,1.11,1.65,1.78,2.41.58.76,1.2,1.47,1.83,2.19.27.27.54.53.76.85l32.64-32.37c18.46-18.64,18.82-48.52.89-67.52l-32.33,32.06-.31.31c-9.1,9.19-14.09,21.41-14.05,34.2-.04,1.65.04,3.26.22,4.86.27,2.94.85,5.93,1.69,8.74Z"/><path class="cls-4" d="m186.47,190.27l-.31.31c-9.1,9.19-14.09,21.4-14.05,34.2-.04,1.65.04,3.26.22,4.86.27,2.94.85,5.93,1.69,8.74.31,1.29.76,2.54,1.25,3.75.09.27.13.49.31.76.49,1.38,1.11,2.63,1.83,3.97.4.85.85,1.74,1.34,2.5.45.8.89,1.52,1.43,2.23.13.4.4.76.71,1.07.54.8,1.11,1.65,1.78,2.41.58.76,1.2,1.47,1.83,2.19.27.27.54.54.76.85l32.64-32.37c18.46-18.64,18.82-48.52.89-67.52l-32.33,32.06Z"/><path class="cls-6" d="m240.21,192.82c-.13,1.2-.32,2.33-.57,3.53-.13.63-.32,1.32-.5,2.02-.25,1.01-.5,2.08-.82,3.09-.25.69-.5,1.39-.76,2.08-.32.95-.69,1.89-1.07,2.84-.13.19-.19.44-.25.63l57.39-57.01-105.45-104.75c-8.51,9.08-13.18,20.81-13.18,33.3s5.11,25.29,14.38,34.5l34.75,34.5,1.26,1.26c9.9,9.84,15.39,22.96,15.39,36.89,0,1.83-.13,3.59-.32,5.36-.06.57-.19,1.2-.25,1.77Z"/><path class="cls-2" d="m165.89,264.38s-.02-.02-.03-.03l-6.3-6.3c-2.56-2.42-3.88-5.68-3.88-9.21v-46.6c0-7.82,3.12-15.16,8.72-20.7l25.76-25.55c1.66-1.59,2.56-3.74,2.56-6.02,0-2.22-.9-4.36-2.56-6.02l-25.76-25.48c-5.61-5.54-8.72-12.95-8.72-20.84v-46.6c0-3.46,1.32-6.65,3.88-9.14l2.97-2.94h.02s1.65-1.65,1.65-1.65l1.66-1.64s.05-.07.08-.1l4.74-4.74c.66-.66.66-1.73,0-2.39l-19.44-19.44c-.66-.66-1.73-.66-2.39,0l-19.45,19.45c-.66.66-.66,1.73,0,2.39l4.8,4.8s.02.02.03.03l.53.53h0s5.76,5.7,5.76,5.7c2.49,2.49,3.81,5.68,3.81,9.14v46.6c0,7.89-3.05,15.3-8.72,20.84l-25.76,25.48c-1.66,1.66-2.49,3.81-2.49,6.02,0,2.29.83,4.43,2.49,6.02l25.76,25.55c5.68,5.54,8.72,12.88,8.72,20.7v46.6c0,3.53-1.32,6.79-3.81,9.21l-6.3,6.3s-.06.07-.09.1l-4.73,4.73c-.66.66-.66,1.73,0,2.39l19.44,19.44c.66.66,1.73.66,2.39,0l19.45-19.45c.66-.66.66-1.73,0-2.39l-4.8-4.8Zm-22.94-91.22l-16.41-16.27c-3.88-3.81-3.88-10.04,0-13.92l16.41-16.2c3.95-3.81,10.25-3.81,14.13,0l16.41,16.2c3.88,3.88,3.88,10.11,0,13.92l-16.41,16.27c-3.88,3.88-10.18,3.88-14.13,0Z"/></svg>