<?xml version="1.0" encoding="UTF-8"?><svg id="Layer_2" xmlns="http://www.w3.org/2000/svg" viewBox="0 0 15 15"><defs><style>.cls-1{fill:#ff0096;stroke-width:0px;}</style></defs><g id="Defects_Configuration_1R"><path class="cls-1" d="M15,15H0V0h15v15ZM1.22,13.78h12.57V1.22H1.22v12.57Z"/><path class="cls-1" d="M9.33,3.8h.29v-.55h-.34c-.75,0-1.37.12-1.79.38-.42-.26-1.04-.38-1.79-.38h-.34v.55h.29c.95,0,1.28.31,1.28.87v5.64c0,.57-.37.87-1.28.89h-.29v.56h.34c.73,0,1.36-.12,1.79-.39.42.27,1.05.39,1.79.39h.34v-.56h-.29c-.9-.02-1.28-.31-1.28-.89v-5.64c0-.55.32-.86,1.28-.87Z"/><path class="cls-1" d="M8.68,8.68v.75h-2.36v-.75h2.36Z"/></g></svg>