<?xml version="1.0" encoding="UTF-8"?><svg id="Layer_2" xmlns="http://www.w3.org/2000/svg" viewBox="0 0 24.2 20.75"><defs><style>.cls-1{fill:#fa0096;stroke-width:0px;}.cls-2{fill:#ffe1ff;stroke-width:.75px;}.cls-2,.cls-3{stroke:#fa0096;stroke-miterlimit:10;}.cls-3{fill:#fff;stroke-width:.6px;}</style></defs><g id="grn_entry"><rect class="cls-2" x="6.31" y="2.86" width="15.02" height="15.02" rx="1.5" ry="1.5" transform="translate(-3.29 12.81) rotate(-45)"/><path class="cls-1" d="m14.76,6.19c0,.14-.11.25-.25.25h-1.37c-.14,0-.25-.11-.25-.25v-1.23c0-.14.11-.25.25-.25h1.37c.14,0,.25.11.25.25v1.23Zm-1.62,9.85c-.14,0-.25-.11-.25-.25v-7.31c0-.14.11-.25.25-.25h1.37c.14,0,.25.11.25.25v7.31c0,.14-.11.25-.25.25h-1.37Z"/><circle class="cls-3" cx="4.3" cy="10.37" r="4"/><polygon class="cls-1" points="6.8 9.92 4.8 9.92 4.8 7.87 3.82 7.87 3.82 9.92 1.8 9.92 1.8 10.83 3.82 10.83 3.82 12.87 4.8 12.87 4.8 10.83 6.8 10.83 6.8 9.92"/></g></svg>