<?xml version="1.0" encoding="UTF-8"?><svg id="Layer_2" xmlns="http://www.w3.org/2000/svg" viewBox="0 0 14 14"><defs><style>.cls-1{fill:#ff0096;stroke-width:0px;}</style></defs><g id="PO_CG_Entry"><path class="cls-1" d="M12.89,1.42h-.73v.81c0,.24-.1.46-.27.63-.17.17-.4.26-.65.26s-.48-.09-.65-.26c-.17-.17-.27-.39-.27-.63v-.81h-2.41v.81c0,.24-.1.46-.27.63-.17.17-.4.26-.65.26s-.48-.09-.65-.26c-.17-.17-.27-.39-.27-.63v-.81h-2.41v.81c0,.24-.1.46-.27.63-.17.17-.4.26-.65.26s-.48-.09-.65-.26c-.17-.17-.27-.39-.27-.63v-.81h-.73c-.61,0-1.11.48-1.11,1.07v10.44c0,.59.5,1.07,1.11,1.07h11.79c.61,0,1.11-.48,1.11-1.07V2.49c0-.59-.5-1.07-1.11-1.07ZM13.08,12.81c0,.17-.14.3-.31.3H1.23c-.17,0-.31-.13-.31-.3V4.31h12.16v8.5Z"/><path class="cls-1" d="M2.13,2.22c0,.34.28.61.63.61s.63-.27.63-.61V.61c0-.34-.28-.61-.63-.61s-.63.27-.63.61v1.61Z"/><path class="cls-1" d="M6.37,2.22c0,.34.28.61.63.61s.63-.27.63-.61V.61c0-.34-.28-.61-.63-.61s-.63.27-.63.61v1.61Z"/><path class="cls-1" d="M10.61,2.22c0,.34.28.61.63.61s.63-.27.63-.61V.61c0-.34-.28-.61-.63-.61s-.63.27-.63.61v1.61Z"/><path class="cls-1" d="M11.02,7.03H2.98c-.27,0-.48-.19-.48-.42s.22-.42.48-.42h8.03c.27,0,.48.19.48.42s-.22.42-.48.42Z"/><path class="cls-1" d="M11.02,9.11H2.98c-.27,0-.48-.19-.48-.42s.22-.42.48-.42h8.03c.27,0,.48.19.48.42s-.22.42-.48.42Z"/><path class="cls-1" d="M11.02,11.19H2.98c-.27,0-.48-.19-.48-.42s.22-.42.48-.42h8.03c.27,0,.48.19.48.42s-.22.42-.48.42Z"/></g></svg>