<?xml version="1.0" encoding="UTF-8"?><svg id="Layer_2" xmlns="http://www.w3.org/2000/svg" xmlns:xlink="http://www.w3.org/1999/xlink" viewBox="0 0 18.94 18.94"><defs><style>.cls-1{fill:url(#radial-gradient);}</style><radialGradient id="radial-gradient" cx="4.86" cy="-1.61" fx="4.86" fy="-1.61" r="15.6" gradientTransform="translate(.01)" gradientUnits="userSpaceOnUse"><stop offset="0" stop-color="#fa7d00"/><stop offset=".43" stop-color="#fa7d00"/><stop offset=".59" stop-color="#fa7d00"/><stop offset=".7" stop-color="#fa7d00"/><stop offset=".79" stop-color="#fa7d00"/><stop offset=".86" stop-color="#fa7d00"/><stop offset=".93" stop-color="#fa7d00"/><stop offset=".99" stop-color="#fa7d00"/><stop offset="1" stop-color="#fa7d00"/></radialGradient></defs><g id="npd_request_edit"><path class="cls-1" d="m9.47,18.94c-.4,0-.76-.45-1.11-.88-.32-.39-.61-.76-.96-.86-.07-.02-.14-.03-.22-.03-.32,0-.71.15-1.08.29-.36.14-.73.28-1.03.28-.13,0-.24-.03-.33-.08-.34-.2-.43-.75-.51-1.29-.08-.48-.15-.98-.41-1.25-.26-.26-.76-.34-1.25-.42-.54-.08-1.1-.17-1.29-.51-.19-.33,0-.85.2-1.36.18-.46.36-.94.26-1.31-.09-.35-.46-.65-.86-.96-.43-.35-.88-.71-.88-1.11s.45-.76.88-1.11c.39-.32.76-.62.86-.96.1-.37-.09-.84-.26-1.31-.19-.5-.39-1.03-.2-1.36.2-.34.75-.42,1.29-.51.48-.08.99-.15,1.25-.42s.34-.76.42-1.25c.08-.54.17-1.1.51-1.29.09-.05.2-.08.33-.08.3,0,.67.14,1.03.28.37.14.76.29,1.08.29.08,0,.16,0,.22-.03.35-.09.65-.46.96-.86.35-.43.71-.88,1.11-.88s.76.45,1.11.88c.32.39.62.76.96.86.07.02.14.03.22.03.32,0,.71-.15,1.08-.29.36-.14.73-.28,1.03-.28.13,0,.24.03.33.08.34.2.42.75.51,1.29.08.48.15.98.42,1.25.26.26.76.34,1.25.42.54.08,1.1.17,1.29.51.19.33,0,.85-.2,1.36-.18.46-.36.94-.26,1.3.09.35.46.65.86.96.43.35.88.71.88,1.11s-.45.76-.88,1.11c-.39.32-.76.62-.86.96-.1.37.09.84.26,1.3.19.51.39,1.03.2,1.36-.2.34-.75.42-1.29.51-.48.08-.99.15-1.25.42-.26.26-.34.76-.41,1.25-.08.54-.17,1.1-.51,1.29-.09.05-.2.08-.33.08-.3,0-.67-.14-1.03-.28-.37-.14-.76-.29-1.08-.29-.08,0-.16,0-.22.03-.35.09-.65.46-.96.86-.35.43-.71.88-1.11.88Z"/></g></svg>