<?xml version="1.0" encoding="UTF-8"?><svg id="Layer_2" xmlns="http://www.w3.org/2000/svg" xmlns:xlink="http://www.w3.org/1999/xlink" viewBox="0 0 538.58 85.04"><defs><style>.cls-1{fill:url(#linear-gradient-2);}.cls-2{fill:#fa0096;}.cls-3{fill:url(#linear-gradient-15);}.cls-4{fill:url(#linear-gradient-14);}.cls-5{fill:url(#linear-gradient-6);}.cls-6{fill:url(#linear-gradient-11);}.cls-7{fill:url(#linear-gradient-10);}.cls-8{fill:url(#radial-gradient);}.cls-9{fill:url(#linear-gradient-16);}.cls-10{fill:url(#linear-gradient-5);}.cls-11{fill:none;}.cls-12{fill:url(#linear-gradient-7);}.cls-13{fill:url(#linear-gradient-9);}.cls-14{fill:url(#linear-gradient-3);}.cls-15{fill:url(#linear-gradient);}.cls-16{fill:url(#linear-gradient-4);}.cls-17{fill:url(#linear-gradient-8);}.cls-18{fill:url(#linear-gradient-12);}.cls-19{fill:url(#linear-gradient-13);}</style><linearGradient id="linear-gradient" x1="104.88" y1="23.94" x2="105" y2="39.48" gradientUnits="userSpaceOnUse"><stop offset="0" stop-color="#f81d40"/><stop offset=".37" stop-color="#f0047f"/><stop offset=".47" stop-color="#eb0583" stop-opacity="1"/><stop offset=".58" stop-color="#df098f" stop-opacity=".99"/><stop offset=".69" stop-color="#cb0fa3" stop-opacity=".97"/><stop offset=".8" stop-color="#b018be" stop-opacity=".95"/><stop offset=".92" stop-color="#8c23e2" stop-opacity=".92"/><stop offset="1" stop-color="#702dff" stop-opacity=".9"/></linearGradient><linearGradient id="linear-gradient-2" x1="118.74" y1="23.83" x2="118.87" y2="39.37" xlink:href="#linear-gradient"/><linearGradient id="linear-gradient-3" x1="141.62" y1="23.65" x2="141.74" y2="39.19" xlink:href="#linear-gradient"/><linearGradient id="linear-gradient-4" x1="164.43" y1="23.47" x2="164.55" y2="39.01" xlink:href="#linear-gradient"/><linearGradient id="linear-gradient-5" x1="104.85" y1="47.26" x2="105.03" y2="62.87" xlink:href="#linear-gradient"/><linearGradient id="linear-gradient-6" x1="116.47" y1="47.12" x2="116.65" y2="62.73" xlink:href="#linear-gradient"/><linearGradient id="linear-gradient-7" x1="130.17" y1="46.96" x2="130.35" y2="62.57" xlink:href="#linear-gradient"/><linearGradient id="linear-gradient-8" x1="143.8" y1="46.8" x2="143.98" y2="62.41" xlink:href="#linear-gradient"/><linearGradient id="linear-gradient-9" x1="157.48" y1="46.64" x2="157.66" y2="62.25" xlink:href="#linear-gradient"/><linearGradient id="linear-gradient-10" x1="171.12" y1="46.48" x2="171.3" y2="62.09" xlink:href="#linear-gradient"/><linearGradient id="linear-gradient-11" x1="187.15" y1="46.29" x2="187.33" y2="61.9" xlink:href="#linear-gradient"/><linearGradient id="linear-gradient-12" x1="203.13" y1="46.1" x2="203.32" y2="61.71" xlink:href="#linear-gradient"/><linearGradient id="linear-gradient-13" x1="65.42" y1="64.69" x2="38.85" y2="35.06" gradientUnits="userSpaceOnUse"><stop offset="0" stop-color="#f0047f"/><stop offset=".12" stop-color="#f00678"/><stop offset=".29" stop-color="#f20d67"/><stop offset=".48" stop-color="#f6184b"/><stop offset=".54" stop-color="#f81d40"/><stop offset=".68" stop-color="#f81f3d"/><stop offset=".78" stop-color="#f92937"/><stop offset=".86" stop-color="#fa382b"/><stop offset=".94" stop-color="#fc4e1b"/><stop offset="1" stop-color="#ff660a"/></linearGradient><linearGradient id="linear-gradient-14" x1="59.86" y1="24.93" x2="44.02" y2="39.07" gradientUnits="userSpaceOnUse"><stop offset="0" stop-color="#f0047f"/><stop offset=".26" stop-color="#cc0fa2"/><stop offset=".76" stop-color="#8a24e4"/><stop offset="1" stop-color="#702dff"/></linearGradient><linearGradient id="linear-gradient-15" x1="65.64" y1="61.99" x2="81.48" y2="45.64" xlink:href="#linear-gradient-14"/><radialGradient id="radial-gradient" cx="63.05" cy="42.43" fx="63.05" fy="42.43" r="22.16" gradientUnits="userSpaceOnUse"><stop offset="0" stop-color="#fe330a"/><stop offset=".53" stop-color="#f6194a"/><stop offset="1" stop-color="#f0047f"/></radialGradient><linearGradient id="linear-gradient-16" x1="1643.39" y1="-67.22" x2="1616.82" y2="-96.86" gradientTransform="translate(1704.26 -46.88) rotate(-180)" gradientUnits="userSpaceOnUse"><stop offset="0" stop-color="#f0047f"/><stop offset=".12" stop-color="#f00678"/><stop offset=".29" stop-color="#f20d67"/><stop offset=".48" stop-color="#f6184b"/><stop offset=".54" stop-color="#f81d40"/><stop offset=".68" stop-color="#f81f3d"/><stop offset=".78" stop-color="#f92937"/><stop offset=".86" stop-color="#fa382b"/><stop offset=".94" stop-color="#fc4e1b"/><stop offset="1" stop-color="#ff660a"/></linearGradient></defs><g id="PO_Format_Domestic"><rect class="cls-11" width="538.58" height="85.04"/><path d="m320.1,53.41c-.11,0-.2-.04-.27-.12-.08-.08-.11-.17-.11-.28,0-.11.04-.21.11-.28.08-.07.17-.11.27-.11.12,0,.21.04.29.11s.11.17.11.28c0,.11-.04.2-.11.28s-.17.12-.29.12Zm-.28,4.58v-3.76h.57v3.76h-.57Z"/><path d="m321.54,57.99v-3.76h.57v3.76h-.57Zm2.76,0v-2.21c0-.33-.1-.6-.29-.8-.2-.21-.46-.31-.78-.31-.22,0-.41.05-.58.14-.17.1-.3.23-.4.39-.1.17-.15.35-.15.57l-.26-.14c0-.28.07-.54.2-.76.13-.22.32-.4.54-.53s.49-.19.79-.19.55.07.78.21.4.33.53.56c.13.23.19.49.19.77v2.3h-.57Z"/><path d="m325.49,54.73v-.5h2.79v.5h-2.79Zm.95,3.26v-4.4c0-.26.06-.49.17-.7.12-.2.28-.36.48-.48.21-.11.44-.17.71-.17.2,0,.38.04.54.11.16.07.3.17.43.3l-.37.37c-.09-.09-.18-.15-.27-.19-.09-.04-.2-.06-.33-.06-.25,0-.45.07-.59.22-.14.15-.21.35-.21.61v4.38h-.57Z"/><path d="m330.54,58.07c-.37,0-.7-.09-1-.26-.3-.18-.54-.41-.71-.71s-.26-.63-.26-1,.09-.69.26-.98.41-.53.71-.7.63-.26,1-.26.71.09,1,.26c.3.17.53.4.71.7.17.3.26.62.26.99s-.09.71-.26,1c-.18.3-.41.53-.71.71-.3.18-.63.26-1,.26Zm0-.54c.27,0,.51-.06.71-.18.21-.12.37-.29.49-.51.12-.22.18-.46.18-.74s-.06-.51-.18-.72c-.12-.21-.29-.38-.49-.5-.21-.12-.45-.18-.71-.18s-.5.06-.71.18c-.21.12-.37.29-.49.5-.12.21-.18.45-.18.72s.06.52.18.74c.12.22.28.39.49.51s.45.18.71.18Z"/><path d="m337.35,57.75l.33.32c-.24.2-.5.36-.79.46-.29.1-.61.16-.94.16-.36,0-.7-.06-1.01-.2s-.59-.31-.83-.55c-.24-.23-.42-.51-.55-.82-.13-.31-.2-.65-.2-1.02s.07-.72.2-1.03c.13-.31.32-.59.56-.82.24-.23.52-.42.84-.55s.66-.2,1.03-.2c.49,0,.92.11,1.3.33.37.22.67.52.88.91.21.39.32.83.32,1.34,0,.22-.02.43-.07.6s-.12.35-.21.51l-.49-.05c.08-.1.13-.2.18-.3.04-.1.07-.22.09-.34s.03-.28.03-.46c0-.43-.08-.8-.25-1.12-.16-.31-.4-.55-.7-.72s-.66-.25-1.06-.25-.78.09-1.11.27c-.32.18-.58.43-.76.75s-.28.7-.28,1.14.09.79.27,1.11c.18.32.43.57.74.74.31.18.67.26,1.07.26.3,0,.57-.04.8-.12.23-.08.44-.2.62-.36Zm-1.55-.5c-.2,0-.39-.05-.57-.15-.17-.1-.31-.24-.41-.42-.1-.18-.15-.37-.15-.58s.05-.42.15-.6c.1-.18.24-.32.41-.42s.36-.16.57-.16c.27,0,.49.07.66.2.17.14.25.32.25.54v.85c0,.22-.08.4-.25.53-.17.14-.39.2-.66.2Zm.02-.4c.22,0,.4-.07.52-.21.13-.14.19-.32.19-.55s-.06-.42-.19-.56c-.13-.14-.3-.2-.52-.2s-.38.07-.51.21c-.14.14-.21.32-.21.55s.07.41.21.55c.14.14.31.21.5.21Zm.73.34v-.58l.08-.55-.08-.54v-.55h.44v2.22h-.44Zm.17-.39h1.48v.39h-1.48v-.39Z"/><path d="m339.86,53.41c-.11,0-.2-.04-.27-.12-.08-.08-.11-.17-.11-.28,0-.11.04-.21.11-.28.08-.07.17-.11.27-.11.12,0,.21.04.29.11s.11.17.11.28c0,.11-.04.2-.11.28s-.17.12-.29.12Zm-.28,4.58v-3.76h.57v3.76h-.57Z"/><path d="m342.91,58.07c-.35,0-.66-.09-.94-.26-.28-.17-.5-.4-.67-.7-.16-.3-.25-.63-.25-1s.08-.71.25-1c.16-.3.39-.53.67-.7.28-.17.59-.26.94-.26.29,0,.54.06.78.17.23.11.42.27.58.48.15.21.24.45.27.72v1.18c-.03.27-.12.51-.27.72-.15.21-.34.37-.57.48-.23.12-.49.18-.78.18Zm.1-.54c.26,0,.5-.06.69-.18.2-.12.36-.29.47-.5.11-.22.17-.46.17-.74s-.06-.53-.17-.74-.27-.38-.47-.5-.43-.18-.69-.18-.5.06-.7.18c-.2.12-.36.29-.48.51-.12.22-.17.46-.17.74s.06.52.17.74c.12.22.28.38.48.5.21.12.44.18.71.18Zm1.87.46h-.57v-1.01l.11-.93-.11-.9v-2.82h.57v5.66Z"/><path d="m346.02,57.99v-3.76h.57v3.76h-.57Zm2.61,0v-2.3c0-.31-.09-.56-.28-.74-.19-.18-.43-.28-.71-.28-.19,0-.37.04-.53.12-.16.08-.29.2-.38.35-.09.15-.14.33-.14.54l-.26-.1c0-.29.06-.54.19-.75.13-.21.3-.38.52-.5.22-.12.46-.18.74-.18s.51.06.72.18c.21.12.38.28.51.5s.19.47.19.76v2.41h-.57Zm2.62,0v-2.3c0-.31-.09-.56-.28-.74s-.43-.28-.72-.28c-.19,0-.36.04-.52.12-.16.08-.29.2-.38.35-.09.15-.14.33-.14.54l-.34-.1c.02-.29.09-.54.23-.75s.32-.38.54-.5c.22-.12.47-.18.74-.18s.51.06.73.18c.22.12.39.28.52.5s.19.47.19.76v2.41h-.57Z"/><path d="m354.04,58.07c-.2,0-.4-.03-.59-.08-.19-.06-.36-.13-.51-.24-.15-.1-.29-.22-.4-.36l.36-.37c.15.18.32.32.51.4.19.09.4.13.64.13.25,0,.45-.05.59-.14.14-.1.21-.23.21-.4,0-.16-.05-.29-.15-.38-.1-.09-.23-.16-.39-.22s-.33-.11-.5-.16c-.18-.05-.35-.11-.51-.19-.16-.08-.29-.19-.39-.32-.1-.14-.15-.32-.15-.54s.05-.4.16-.56.26-.28.45-.37.43-.13.7-.13c.29,0,.54.05.77.15.23.1.42.25.56.45l-.36.36c-.11-.14-.25-.25-.42-.33-.17-.08-.36-.12-.57-.12-.24,0-.43.05-.55.14s-.19.21-.19.36.05.26.15.34c.1.08.23.15.39.2.16.05.33.1.5.15s.35.12.51.2c.16.08.29.19.39.34.1.14.15.33.15.57,0,.34-.12.6-.37.8-.25.2-.58.3-1,.3Z"/><path d="m356.58,53.41c-.11,0-.2-.04-.27-.12-.08-.08-.11-.17-.11-.28,0-.11.04-.21.11-.28.08-.07.17-.11.27-.11.12,0,.21.04.29.11s.11.17.11.28c0,.11-.04.2-.11.28s-.17.12-.29.12Zm-.28,4.58v-3.76h.57v3.76h-.57Z"/><path d="m358.02,57.99v-3.76h.57v3.76h-.57Zm2.76,0v-2.21c0-.33-.1-.6-.29-.8-.2-.21-.46-.31-.78-.31-.22,0-.41.05-.58.14-.17.1-.3.23-.4.39-.1.17-.15.35-.15.57l-.26-.14c0-.28.07-.54.2-.76.13-.22.32-.4.54-.53s.49-.19.79-.19.55.07.78.21.4.33.53.56c.13.23.19.49.19.77v2.3h-.57Z"/><path d="m361.97,54.73v-.5h2.79v.5h-2.79Zm.95,3.26v-4.4c0-.26.06-.49.17-.7.12-.2.28-.36.48-.48.21-.11.44-.17.71-.17.2,0,.38.04.54.11.16.07.3.17.43.3l-.37.37c-.09-.09-.18-.15-.27-.19-.09-.04-.2-.06-.33-.06-.25,0-.45.07-.59.22-.14.15-.21.35-.21.61v4.38h-.57Z"/><path d="m367.02,58.07c-.37,0-.7-.09-1-.26-.3-.18-.54-.41-.71-.71s-.26-.63-.26-1,.09-.69.26-.98.41-.53.71-.7.63-.26,1-.26.71.09,1,.26c.3.17.53.4.71.7.17.3.26.62.26.99s-.09.71-.26,1c-.18.3-.41.53-.71.71-.3.18-.63.26-1,.26Zm0-.54c.27,0,.51-.06.71-.18.21-.12.37-.29.49-.51.12-.22.18-.46.18-.74s-.06-.51-.18-.72c-.12-.21-.29-.38-.49-.5-.21-.12-.45-.18-.71-.18s-.5.06-.71.18c-.21.12-.37.29-.49.5-.12.21-.18.45-.18.72s.06.52.18.74c.12.22.28.39.49.51s.45.18.71.18Z"/><path d="m369.38,54.73v-.5h2.48v.5h-2.48Zm.96,3.26v-5.34h.57v5.34h-.57Z"/><path d="m374.25,58.07c-.38,0-.72-.09-1.03-.26-.3-.17-.54-.41-.71-.7s-.26-.63-.26-1.01.09-.7.26-1c.17-.3.41-.53.7-.7.3-.17.63-.26.99-.26.34,0,.65.08.92.23s.48.37.63.64c.15.27.23.59.23.95,0,.04,0,.09,0,.15,0,.06-.02.12-.03.2h-3.29v-.48h2.98l-.2.18c0-.28-.04-.52-.14-.72-.1-.2-.24-.35-.43-.46s-.41-.16-.67-.16-.51.06-.72.18-.36.28-.48.49c-.12.21-.17.46-.17.75s.06.54.18.76.29.39.51.51c.22.12.47.18.75.18.23,0,.44-.04.64-.12.19-.08.36-.21.49-.37l.36.37c-.18.21-.4.37-.66.48-.26.11-.54.17-.84.17Z"/><path d="m378.57,58.07c-.37,0-.71-.09-1.01-.26-.3-.17-.54-.41-.71-.71-.17-.3-.26-.63-.26-1s.09-.7.26-1c.17-.3.41-.53.71-.7.3-.17.63-.26,1.01-.26.29,0,.55.05.8.16.25.11.46.26.63.45l-.37.38c-.13-.14-.29-.25-.47-.33s-.38-.12-.59-.12c-.27,0-.51.06-.72.18-.21.12-.37.29-.49.5-.12.21-.18.46-.18.73s.06.52.18.73c.12.22.28.39.49.51s.45.18.72.18c.22,0,.41-.04.6-.12.18-.08.34-.19.47-.33l.38.38c-.18.2-.39.35-.64.46-.25.11-.52.16-.8.16Z"/><path d="m380.8,57.99v-5.66h.57v5.66h-.57Zm2.76,0v-2.21c0-.33-.1-.6-.29-.8-.2-.21-.46-.31-.78-.31-.22,0-.41.05-.58.14-.17.1-.3.23-.4.39-.1.17-.15.35-.15.57l-.26-.14c0-.28.07-.54.2-.76.13-.22.32-.4.54-.53s.49-.19.79-.19.55.07.78.2c.23.13.4.31.53.54.13.23.19.5.19.8v2.3h-.57Z"/><path d="m385.79,58.07c-.13,0-.25-.05-.33-.14-.09-.09-.13-.2-.13-.33s.04-.24.13-.32c.09-.09.2-.13.33-.13s.24.04.32.13.13.2.13.32-.04.24-.13.33c-.09.09-.19.14-.32.14Z"/><path d="m389.08,58.07c-.37,0-.71-.09-1.01-.26-.3-.17-.54-.41-.71-.71-.17-.3-.26-.63-.26-1s.09-.7.26-1c.17-.3.41-.53.71-.7.3-.17.63-.26,1.01-.26.29,0,.55.05.8.16.25.11.46.26.63.45l-.37.38c-.13-.14-.29-.25-.47-.33s-.38-.12-.59-.12c-.27,0-.51.06-.72.18-.21.12-.37.29-.49.5-.12.21-.18.46-.18.73s.06.52.18.73c.12.22.28.39.49.51s.45.18.72.18c.22,0,.41-.04.6-.12.18-.08.34-.19.47-.33l.38.38c-.18.2-.39.35-.64.46-.25.11-.52.16-.8.16Z"/><path d="m392.96,58.07c-.37,0-.7-.09-1-.26-.3-.18-.54-.41-.71-.71s-.26-.63-.26-1,.09-.69.26-.98.41-.53.71-.7.63-.26,1-.26.71.09,1,.26c.3.17.53.4.71.7.17.3.26.62.26.99s-.09.71-.26,1c-.18.3-.41.53-.71.71-.3.18-.63.26-1,.26Zm0-.54c.27,0,.51-.06.71-.18.21-.12.37-.29.49-.51.12-.22.18-.46.18-.74s-.06-.51-.18-.72c-.12-.21-.29-.38-.49-.5-.21-.12-.45-.18-.71-.18s-.5.06-.71.18c-.21.12-.37.29-.49.5-.12.21-.18.45-.18.72s.06.52.18.74c.12.22.28.39.49.51s.45.18.71.18Z"/><path d="m395.83,57.99v-3.76h.57v3.76h-.57Zm2.61,0v-2.3c0-.31-.09-.56-.28-.74-.19-.18-.43-.28-.71-.28-.19,0-.37.04-.53.12-.16.08-.29.2-.38.35-.09.15-.14.33-.14.54l-.26-.1c0-.29.06-.54.19-.75.13-.21.3-.38.52-.5.22-.12.46-.18.74-.18s.51.06.72.18c.21.12.38.28.51.5s.19.47.19.76v2.41h-.57Zm2.62,0v-2.3c0-.31-.09-.56-.28-.74s-.43-.28-.72-.28c-.19,0-.36.04-.52.12-.16.08-.29.2-.38.35-.09.15-.14.33-.14.54l-.34-.1c.02-.29.09-.54.23-.75s.32-.38.54-.5c.22-.12.47-.18.74-.18s.51.06.73.18c.22.12.39.28.52.5s.19.47.19.76v2.41h-.57Z"/><path class="cls-2" d="m307.23,58.11l-.03-.13c-.01-.06-.02-.11-.02-.16v-4.67l4.43,2.49-4.38,2.46Zm.15-4.62v4.32l3.83-2.16-3.83-2.16Z"/><path class="cls-2" d="m316.02,58.54h-8.09c-.27,0-.52-.14-.65-.36l-.05-.08,4.36-2.46.44.25.44-.25,4.27,2.4-.04.08c-.12.26-.39.42-.68.42Zm-8.51-.38c.1.12.26.19.42.19h8.09c.18,0,.35-.09.46-.23l-4-2.25-.44.25-.44-.25-4.08,2.3Z"/><path class="cls-2" d="m316.75,58.06l-4.29-2.41,4.32-2.43v4.6s0,.05,0,.08l-.02.16Zm-3.89-2.41l3.72,2.1v-4.19l-3.72,2.09Z"/><path class="cls-2" d="m312.03,55.9l-4.85-2.73v-.07c0-.4.34-.72.75-.72h8.09c.41,0,.75.32.75.72v.14l-4.74,2.67Zm-4.65-2.84l4.65,2.62,4.54-2.56v-.03c0-.29-.25-.53-.55-.53h-8.09c-.29,0-.53.22-.55.49Z"/><path d="m421.9,57.99l-1.46-3.76h.59l1.15,3.12h-.21s1.15-3.12,1.15-3.12h.33l1.15,3.13h-.21s1.15-3.13,1.15-3.13h.6l-1.47,3.76h-.33l-1.17-3.08h.24l-1.16,3.08h-.34Z"/><path d="m427.75,57.99l-1.46-3.76h.59l1.15,3.12h-.21s1.15-3.12,1.15-3.12h.33l1.15,3.13h-.21s1.15-3.13,1.15-3.13h.6l-1.47,3.76h-.33l-1.17-3.08h.24l-1.16,3.08h-.34Z"/><path d="m433.59,57.99l-1.46-3.76h.59l1.15,3.12h-.21s1.15-3.12,1.15-3.12h.33l1.15,3.13h-.21s1.15-3.13,1.15-3.13h.6l-1.47,3.76h-.33l-1.17-3.08h.24l-1.16,3.08h-.34Z"/><path d="m438.87,58.07c-.13,0-.25-.05-.33-.14-.09-.09-.13-.2-.13-.33s.04-.24.13-.32c.09-.09.2-.13.33-.13s.24.04.32.13.13.2.13.32-.04.24-.13.33c-.09.09-.19.14-.32.14Z"/><path d="m440.89,53.41c-.11,0-.2-.04-.27-.12-.08-.08-.11-.17-.11-.28,0-.11.04-.21.11-.28.08-.07.17-.11.27-.11.12,0,.21.04.29.11s.11.17.11.28c0,.11-.04.2-.11.28s-.17.12-.29.12Zm-.28,4.58v-3.76h.57v3.76h-.57Z"/><path d="m443.94,58.07c-.35,0-.66-.09-.94-.26-.28-.17-.5-.4-.67-.7-.16-.3-.25-.63-.25-1s.08-.71.25-1c.16-.3.39-.53.67-.7.28-.17.59-.26.94-.26.29,0,.54.06.78.17.23.11.42.27.58.48.15.21.24.45.27.72v1.18c-.03.27-.12.51-.27.72-.15.21-.34.37-.57.48-.23.12-.49.18-.78.18Zm.1-.54c.26,0,.5-.06.69-.18.2-.12.36-.29.47-.5.11-.22.17-.46.17-.74s-.06-.53-.17-.74-.27-.38-.47-.5-.43-.18-.69-.18-.5.06-.7.18c-.2.12-.36.29-.48.51-.12.22-.17.46-.17.74s.06.52.17.74c.12.22.28.38.48.5.21.12.44.18.71.18Zm1.87.46h-.57v-1.01l.11-.93-.11-.9v-2.82h.57v5.66Z"/><path d="m447.05,57.99v-3.76h.57v3.76h-.57Zm2.61,0v-2.3c0-.31-.09-.56-.28-.74-.19-.18-.43-.28-.71-.28-.19,0-.37.04-.53.12-.16.08-.29.2-.38.35-.09.15-.14.33-.14.54l-.26-.1c0-.29.06-.54.19-.75.13-.21.3-.38.52-.5.22-.12.46-.18.74-.18s.51.06.72.18c.21.12.38.28.51.5s.19.47.19.76v2.41h-.57Zm2.62,0v-2.3c0-.31-.09-.56-.28-.74s-.43-.28-.72-.28c-.19,0-.36.04-.52.12-.16.08-.29.2-.38.35-.09.15-.14.33-.14.54l-.34-.1c.02-.29.09-.54.23-.75s.32-.38.54-.5c.22-.12.47-.18.74-.18s.51.06.73.18c.22.12.39.28.52.5s.19.47.19.76v2.41h-.57Z"/><path d="m455.07,58.07c-.2,0-.4-.03-.59-.08-.19-.06-.36-.13-.51-.24-.15-.1-.29-.22-.4-.36l.36-.37c.15.18.32.32.51.4.19.09.4.13.64.13.25,0,.45-.05.59-.14.14-.1.21-.23.21-.4,0-.16-.05-.29-.15-.38-.1-.09-.23-.16-.39-.22s-.33-.11-.5-.16c-.18-.05-.35-.11-.51-.19-.16-.08-.29-.19-.39-.32-.1-.14-.15-.32-.15-.54s.05-.4.16-.56.26-.28.45-.37.43-.13.7-.13c.29,0,.54.05.77.15.23.1.42.25.56.45l-.36.36c-.11-.14-.25-.25-.42-.33-.17-.08-.36-.12-.57-.12-.24,0-.43.05-.55.14s-.19.21-.19.36.05.26.15.34c.1.08.23.15.39.2.16.05.33.1.5.15s.35.12.51.2c.16.08.29.19.39.34.1.14.15.33.15.57,0,.34-.12.6-.37.8-.25.2-.58.3-1,.3Z"/><path d="m457.62,53.41c-.11,0-.2-.04-.27-.12-.08-.08-.11-.17-.11-.28,0-.11.04-.21.11-.28.08-.07.17-.11.27-.11.12,0,.21.04.29.11s.11.17.11.28c0,.11-.04.2-.11.28s-.17.12-.29.12Zm-.28,4.58v-3.76h.57v3.76h-.57Z"/><path d="m459.05,57.99v-3.76h.57v3.76h-.57Zm2.76,0v-2.21c0-.33-.1-.6-.29-.8-.2-.21-.46-.31-.78-.31-.22,0-.41.05-.58.14-.17.1-.3.23-.4.39-.1.17-.15.35-.15.57l-.26-.14c0-.28.07-.54.2-.76.13-.22.32-.4.54-.53s.49-.19.79-.19.55.07.78.21.4.33.53.56c.13.23.19.49.19.77v2.3h-.57Z"/><path d="m463,54.73v-.5h2.79v.5h-2.79Zm.95,3.26v-4.4c0-.26.06-.49.17-.7.12-.2.28-.36.48-.48.21-.11.44-.17.71-.17.2,0,.38.04.54.11.16.07.3.17.43.3l-.37.37c-.09-.09-.18-.15-.27-.19-.09-.04-.2-.06-.33-.06-.25,0-.45.07-.59.22-.14.15-.21.35-.21.61v4.38h-.57Z"/><path d="m468.05,58.07c-.37,0-.7-.09-1-.26-.3-.18-.54-.41-.71-.71s-.26-.63-.26-1,.09-.69.26-.98.41-.53.71-.7.63-.26,1-.26.71.09,1,.26c.3.17.53.4.71.7.17.3.26.62.26.99s-.09.71-.26,1c-.18.3-.41.53-.71.71-.3.18-.63.26-1,.26Zm0-.54c.27,0,.51-.06.71-.18.21-.12.37-.29.49-.51.12-.22.18-.46.18-.74s-.06-.51-.18-.72c-.12-.21-.29-.38-.49-.5-.21-.12-.45-.18-.71-.18s-.5.06-.71.18c-.21.12-.37.29-.49.5-.12.21-.18.45-.18.72s.06.52.18.74c.12.22.28.39.49.51s.45.18.71.18Z"/><path d="m470.41,54.73v-.5h2.48v.5h-2.48Zm.96,3.26v-5.34h.57v5.34h-.57Z"/><path d="m475.28,58.07c-.38,0-.72-.09-1.03-.26-.3-.17-.54-.41-.71-.7s-.26-.63-.26-1.01.09-.7.26-1c.17-.3.41-.53.7-.7.3-.17.63-.26.99-.26.34,0,.65.08.92.23s.48.37.63.64c.15.27.23.59.23.95,0,.04,0,.09,0,.15,0,.06-.02.12-.03.2h-3.29v-.48h2.98l-.2.18c0-.28-.04-.52-.14-.72-.1-.2-.24-.35-.43-.46s-.41-.16-.67-.16-.51.06-.72.18-.36.28-.48.49c-.12.21-.17.46-.17.75s.06.54.18.76.29.39.51.51c.22.12.47.18.75.18.23,0,.44-.04.64-.12.19-.08.36-.21.49-.37l.36.37c-.18.21-.4.37-.66.48-.26.11-.54.17-.84.17Z"/><path d="m479.6,58.07c-.37,0-.71-.09-1.01-.26-.3-.17-.54-.41-.71-.71-.17-.3-.26-.63-.26-1s.09-.7.26-1c.17-.3.41-.53.71-.7.3-.17.63-.26,1.01-.26.29,0,.55.05.8.16.25.11.46.26.63.45l-.37.38c-.13-.14-.29-.25-.47-.33s-.38-.12-.59-.12c-.27,0-.51.06-.72.18-.21.12-.37.29-.49.5-.12.21-.18.46-.18.73s.06.52.18.73c.12.22.28.39.49.51s.45.18.72.18c.22,0,.41-.04.6-.12.18-.08.34-.19.47-.33l.38.38c-.18.2-.39.35-.64.46-.25.11-.52.16-.8.16Z"/><path d="m481.84,57.99v-5.66h.57v5.66h-.57Zm2.76,0v-2.21c0-.33-.1-.6-.29-.8-.2-.21-.46-.31-.78-.31-.22,0-.41.05-.58.14-.17.1-.3.23-.4.39-.1.17-.15.35-.15.57l-.26-.14c0-.28.07-.54.2-.76.13-.22.32-.4.54-.53s.49-.19.79-.19.55.07.78.2c.23.13.4.31.53.54.13.23.19.5.19.8v2.3h-.57Z"/><path d="m486.83,58.07c-.13,0-.25-.05-.33-.14-.09-.09-.13-.2-.13-.33s.04-.24.13-.32c.09-.09.2-.13.33-.13s.24.04.32.13.13.2.13.32-.04.24-.13.33c-.09.09-.19.14-.32.14Z"/><path d="m490.11,58.07c-.37,0-.71-.09-1.01-.26-.3-.17-.54-.41-.71-.71-.17-.3-.26-.63-.26-1s.09-.7.26-1c.17-.3.41-.53.71-.7.3-.17.63-.26,1.01-.26.29,0,.55.05.8.16.25.11.46.26.63.45l-.37.38c-.13-.14-.29-.25-.47-.33s-.38-.12-.59-.12c-.27,0-.51.06-.72.18-.21.12-.37.29-.49.5-.12.21-.18.46-.18.73s.06.52.18.73c.12.22.28.39.49.51s.45.18.72.18c.22,0,.41-.04.6-.12.18-.08.34-.19.47-.33l.38.38c-.18.2-.39.35-.64.46-.25.11-.52.16-.8.16Z"/><path d="m494,58.07c-.37,0-.7-.09-1-.26-.3-.18-.54-.41-.71-.71s-.26-.63-.26-1,.09-.69.26-.98.41-.53.71-.7.63-.26,1-.26.71.09,1,.26c.3.17.53.4.71.7.17.3.26.62.26.99s-.09.71-.26,1c-.18.3-.41.53-.71.71-.3.18-.63.26-1,.26Zm0-.54c.27,0,.51-.06.71-.18.21-.12.37-.29.49-.51.12-.22.18-.46.18-.74s-.06-.51-.18-.72c-.12-.21-.29-.38-.49-.5-.21-.12-.45-.18-.71-.18s-.5.06-.71.18c-.21.12-.37.29-.49.5-.12.21-.18.45-.18.72s.06.52.18.74c.12.22.28.39.49.51s.45.18.71.18Z"/><path d="m496.86,57.99v-3.76h.57v3.76h-.57Zm2.61,0v-2.3c0-.31-.09-.56-.28-.74-.19-.18-.43-.28-.71-.28-.19,0-.37.04-.53.12-.16.08-.29.2-.38.35-.09.15-.14.33-.14.54l-.26-.1c0-.29.06-.54.19-.75.13-.21.3-.38.52-.5.22-.12.46-.18.74-.18s.51.06.72.18c.21.12.38.28.51.5s.19.47.19.76v2.41h-.57Zm2.62,0v-2.3c0-.31-.09-.56-.28-.74s-.43-.28-.72-.28c-.19,0-.36.04-.52.12-.16.08-.29.2-.38.35-.09.15-.14.33-.14.54l-.34-.1c.02-.29.09-.54.23-.75s.32-.38.54-.5c.22-.12.47-.18.74-.18s.51.06.73.18c.22.12.39.28.52.5s.19.47.19.76v2.41h-.57Z"/><path class="cls-2" d="m413.37,54.04l-.06-.02c-.28-.09-.54-.21-.77-.37l-.05-.03.03-.06c.08-.15.16-.29.25-.42h0c.21-.3.46-.53.73-.7.14-.08.28-.14.42-.19l.21-.06-.15.17c-.06.07-.12.16-.18.26-.16.29-.29.7-.39,1.18,0,.04-.02.08-.02.13l-.02.1Zm-.72-.47c.19.12.41.22.63.3,0-.03,0-.05.01-.08.1-.5.23-.92.4-1.22.02-.04.04-.07.06-.11-.07.03-.14.07-.2.11-.26.16-.49.38-.69.66-.07.11-.14.22-.21.34Z"/><path class="cls-2" d="m415.46,55.43h-2.15v-.07c0-.42.04-.83.09-1.22v-.07s.07.02.07.02c.59.15,1.23.15,1.82,0l.06-.02v.07c.07.38.1.79.1,1.22v.07Zm-2.02-.13h1.9c0-.37-.03-.73-.08-1.06-.57.14-1.18.14-1.75,0-.05.34-.07.7-.08,1.06Z"/><path class="cls-2" d="m415.36,56.84l-.06-.02c-.59-.16-1.23-.17-1.82-.01l-.06.02v-.07c-.06-.38-.09-.79-.1-1.2v-.07s2.15,0,2.15,0v.07c0,.42-.03.83-.09,1.22v.07Zm-1-.27c.31,0,.61.04.9.11.05-.34.07-.69.08-1.06h-1.9c0,.36.03.71.08,1.05.28-.06.56-.1.85-.1Z"/><path class="cls-2" d="m413.27,55.43h-1.18v-.07c.01-.59.14-1.16.36-1.66l.03-.06.06.04c.06.04.11.07.16.1.19.11.41.2.63.27l.05.02v.06c-.07.39-.1.81-.1,1.25v.07Zm-1.05-.13h.93c0-.4.04-.78.09-1.14-.21-.07-.41-.16-.6-.26-.04-.02-.07-.04-.11-.06-.19.44-.3.95-.31,1.47Z"/><path class="cls-2" d="m412.46,57.25l-.03-.06c-.22-.49-.34-1.06-.35-1.64v-.07s1.18,0,1.18,0v.07c0,.43.04.84.09,1.23v.06s-.04.02-.04.02c-.28.09-.55.21-.79.36l-.06.04Zm-.25-1.64c.02.51.12,1.01.31,1.45.22-.13.46-.24.71-.33-.05-.36-.08-.74-.08-1.13h-.94Z"/><path class="cls-2" d="m414.38,54.18c-.31,0-.62-.04-.91-.12h-.06s.01-.08.01-.08c.05-.32.12-.6.2-.85.1-.3.22-.54.34-.7.07-.08.13-.14.2-.19.14-.09.28-.09.42,0h0c.12.07.24.21.34.4.16.28.29.69.38,1.17,0,.05.02.11.03.16v.06s-.05.01-.05.01c-.3.08-.6.12-.91.12Zm-.83-.23c.54.13,1.12.13,1.66,0,0-.03-.01-.07-.02-.1-.09-.46-.22-.85-.37-1.13-.09-.17-.19-.29-.29-.35-.1-.06-.2-.06-.3,0-.06.03-.11.09-.17.16-.12.15-.23.38-.32.66-.07.22-.14.48-.19.77Z"/><path class="cls-2" d="m414.38,58.73c-.07,0-.14-.02-.21-.06-.12-.07-.23-.21-.34-.4-.16-.29-.29-.69-.38-1.17-.01-.06-.02-.12-.03-.18v-.06s.05-.01.05-.01c.29-.07.58-.11.89-.11h0c.32,0,.64.04.94.13l.05.02v.06c-.06.32-.13.6-.21.85-.1.3-.22.54-.34.7-.06.08-.13.14-.2.19-.07.04-.14.06-.21.06Zm-.83-1.78s.01.08.02.11h0c.09.46.21.85.36,1.13.09.17.2.29.29.35.1.06.2.06.3,0,.06-.03.11-.09.17-.16.12-.15.23-.38.32-.66.08-.23.14-.48.19-.77-.28-.07-.57-.11-.86-.11h0c-.27,0-.54.03-.8.09Z"/><path class="cls-2" d="m413.49,58.67c-.55-.18-1.04-.52-1.41-.99l-.04-.05.05-.04c.09-.09.19-.17.3-.25l.06-.04.03.06c.08.16.17.3.26.44h0c.22.31.47.54.74.71.02.01.04.03.07.04l-.04.12Zm-1.28-1.03c.23.27.49.49.78.66-.13-.12-.25-.26-.36-.42h0c-.08-.12-.16-.25-.24-.39-.06.05-.13.1-.18.15Z"/><path class="cls-2" d="m414.65,58.72l.15-.17c.06-.07.12-.16.18-.26.16-.29.29-.7.39-1.18,0-.05.02-.1.03-.15v-.07s.08.02.08.02c.28.09.54.22.77.37l.05.03-.03.06c-.07.15-.16.29-.24.41-.21.3-.46.53-.73.7-.14.08-.28.14-.42.19l-.21.06Zm.84-1.67s0,.05-.01.08c-.1.5-.23.92-.4,1.22h0s-.04.07-.06.11c.07-.03.14-.07.2-.11.26-.16.49-.38.69-.66.07-.1.14-.22.21-.34-.19-.12-.4-.22-.63-.3Z"/><path class="cls-2" d="m412.45,53.59l-.06-.04s-.09-.07-.14-.11c-.05-.04-.1-.09-.16-.14l-.05-.04.04-.05c.38-.46.86-.79,1.4-.97l.04.12h-.01s-.04.03-.05.04c-.4.24-.74.63-.99,1.12l-.03.06Zm-.22-.34s.07.06.1.09h0s.05.04.08.06c.16-.31.36-.57.58-.79-.28.16-.54.38-.76.64Z"/><path class="cls-2" d="m412.02,57.62l-.04-.05c-.42-.58-.66-1.27-.68-2.01v-.07s.74,0,.74,0v.06c.01.6.14,1.18.36,1.68l.02.05-.04.03c-.07.05-.12.09-.17.13-.04.04-.09.08-.14.13l-.05.05Zm-.59-2c.03.66.24,1.29.61,1.81.03-.03.07-.06.1-.09.04-.03.08-.07.13-.1-.21-.49-.33-1.04-.35-1.62h-.49Z"/><path class="cls-2" d="m416.32,53.59l-.03-.06c-.07-.15-.16-.29-.25-.41-.21-.3-.46-.54-.74-.71h0s-.04-.02-.05-.03h-.01s.04-.13.04-.13c.54.18,1.02.51,1.4.97l.04.05-.05.04c-.09.09-.19.17-.29.25l-.06.04Zm-.54-.98c.13.12.25.26.36.42.08.11.15.24.22.37.06-.05.12-.1.18-.15-.22-.26-.48-.47-.76-.64Z"/><path class="cls-2" d="m414.12,58.72l-.21-.06c-.15-.04-.29-.11-.42-.19-.4-.24-.74-.63-.99-1.14l-.03-.06.05-.03s.1-.06.15-.09c.2-.11.41-.2.63-.27l.06-.02v.07c.07.32.14.61.22.86.1.3.22.54.35.71,0,.01.02.02.03.03l.16.18Zm-1.49-1.39c.24.46.55.81.91,1.03.07.04.14.08.2.11-.1-.17-.2-.37-.28-.62-.08-.24-.15-.51-.2-.81-.19.06-.38.15-.55.24-.03.02-.06.03-.09.05Z"/><path class="cls-2" d="m417.46,55.43h-.74v-.06c-.01-.61-.14-1.19-.37-1.7l-.02-.05.04-.03c.06-.04.11-.08.15-.12.05-.04.1-.09.15-.14l.05-.05.04.05c.44.58.68,1.28.69,2.03v.07Zm-.62-.13h.49c-.03-.67-.24-1.3-.63-1.83-.04.04-.08.07-.11.1-.04.03-.07.06-.11.09.22.49.34,1.06.36,1.64Z"/><path class="cls-2" d="m416.72,57.65l-.05-.05c-.09-.09-.2-.18-.3-.26l-.04-.03.02-.05c.23-.51.36-1.1.37-1.71v-.06h.74v.07c-.02.76-.26,1.46-.7,2.04l-.04.05Zm-.24-.38c.08.06.15.12.22.19.39-.53.6-1.16.63-1.84h-.49c-.02.59-.14,1.15-.36,1.65Z"/><path class="cls-2" d="m412.04,55.43h-.74v-.07c.02-.75.26-1.45.7-2.03l.04-.05.05.05c.09.09.2.18.31.26l.04.03-.02.05c-.23.51-.36,1.1-.37,1.7v.06Zm-.61-.13h.49c.02-.58.14-1.15.36-1.64-.08-.06-.16-.12-.23-.19-.38.53-.6,1.16-.63,1.83Z"/><path class="cls-2" d="m416.29,57.28l-.06-.04c-.06-.04-.12-.08-.18-.11h0c-.19-.11-.39-.19-.6-.26l-.05-.02v-.06c.07-.39.1-.81.1-1.25v-.07h1.18v.07c-.01.59-.14,1.17-.36,1.67l-.03.06Zm-.19-.27s.09.05.13.08c.19-.45.3-.95.32-1.48h-.94c0,.4-.03.78-.09,1.14.2.07.39.15.57.25Z"/><path class="cls-2" d="m415.27,58.67l-.04-.12s.05-.02.07-.04c.39-.24.74-.62.99-1.12l.03-.06.05.04s.07.06.11.09c.06.05.12.1.18.16l.04.04-.04.05c-.38.45-.86.78-1.39.96Zm1.08-1.15c-.16.3-.36.57-.58.78.28-.16.53-.37.76-.63-.04-.04-.08-.08-.12-.11-.02-.01-.03-.03-.05-.04Z"/><path class="cls-2" d="m415.4,54.04v-.07c-.07-.31-.13-.6-.22-.84-.1-.3-.22-.54-.35-.71-.01-.01-.02-.03-.03-.04l-.15-.17.21.06c.15.04.29.11.42.19.39.23.73.62.98,1.12l.03.06-.05.03c-.05.03-.11.07-.17.1-.19.11-.39.2-.61.26l-.06.02Zm-.38-1.58c.1.17.2.37.28.62.08.23.14.5.2.79.18-.06.36-.14.52-.23.04-.02.07-.04.11-.07-.23-.45-.55-.79-.9-1.01-.07-.04-.13-.08-.2-.11Z"/><path class="cls-2" d="m416.68,55.43h-1.18v-.07c0-.43-.04-.85-.09-1.25v-.06s.04-.02.04-.02c.28-.09.55-.21.79-.37l.06-.04.03.06c.22.5.35,1.07.36,1.66v.07Zm-1.06-.13h.94c-.02-.52-.13-1.03-.32-1.47-.22.14-.46.25-.71.33.05.36.08.75.09,1.14Z"/><path class="cls-2" d="m414.38,58.81c-1.87,0-3.39-1.51-3.39-3.36s1.52-3.36,3.39-3.36,3.39,1.51,3.39,3.36-1.52,3.36-3.39,3.36Zm0-6.58c-1.79,0-3.25,1.45-3.25,3.22s1.46,3.22,3.25,3.22,3.25-1.45,3.25-3.22-1.46-3.22-3.25-3.22Z"/><path d="m238.96,55.57v-.5h3.3v.5h-3.3Zm1.39-1.97h.52v3.42h-.52v-3.42Z"/><path d="m244.04,57.99l1.74-2.27.2-.08c-.08.1-.16.18-.26.25-.1.07-.21.12-.34.16-.13.04-.28.06-.44.06-.33,0-.63-.08-.9-.24-.27-.16-.49-.38-.65-.65-.16-.27-.25-.58-.25-.92s.09-.67.26-.96c.17-.29.41-.51.69-.68.29-.17.61-.25.96-.25s.69.08.97.25c.29.17.52.39.69.67s.25.6.25.94c0,.47-.16.93-.49,1.38l-1.75,2.34h-.69Zm1.03-2.36c.25,0,.47-.06.67-.18.2-.12.36-.28.47-.48.12-.21.17-.43.17-.68s-.06-.49-.17-.69-.27-.36-.47-.48c-.2-.12-.42-.18-.67-.18s-.47.06-.67.18c-.2.12-.36.28-.48.49-.12.21-.18.43-.18.68s.06.47.18.67c.12.2.28.36.48.48.2.12.42.18.67.18Z"/><path d="m247.53,53v-.52h1.67v.52h-1.67Zm1.17,4.98v-5.5h.58v5.5h-.58Z"/><path d="m253.93,58.07c-.36,0-.68-.07-.96-.21-.28-.14-.49-.33-.65-.57-.16-.24-.23-.52-.23-.83,0-.25.05-.47.15-.68.1-.21.24-.38.42-.53s.4-.25.64-.3l.06.17c-.22-.06-.4-.15-.55-.28s-.27-.28-.35-.46-.12-.37-.12-.56c0-.28.07-.53.21-.74.14-.21.33-.38.56-.5.24-.12.51-.18.81-.18s.58.06.82.18c.24.12.43.29.56.5.13.21.2.46.2.74,0,.2-.04.39-.12.56-.08.18-.19.33-.34.46-.15.13-.34.22-.56.28l.06-.17c.25.05.46.15.64.3.18.15.32.32.42.53.1.21.15.43.15.68,0,.31-.08.59-.23.83-.15.24-.37.43-.65.57s-.6.21-.96.21Zm0-.53c.25,0,.47-.05.66-.14.19-.1.34-.23.45-.4.11-.17.16-.37.16-.59s-.05-.42-.16-.59c-.11-.17-.26-.3-.45-.4-.19-.1-.41-.15-.66-.15s-.46.05-.65.15c-.19.1-.34.23-.45.4s-.17.36-.17.59.06.41.17.59.26.31.45.4c.19.1.41.14.65.14Zm0-2.73c.3,0,.55-.09.74-.27s.29-.41.29-.69-.1-.51-.29-.69c-.19-.18-.44-.26-.74-.26s-.54.09-.73.26c-.19.18-.29.41-.29.69s.1.51.29.69.44.27.73.27Z"/><path d="m257.3,57.99l1.74-2.27.2-.08c-.08.1-.16.18-.26.25-.1.07-.21.12-.34.16-.13.04-.28.06-.44.06-.33,0-.63-.08-.9-.24-.27-.16-.49-.38-.65-.65-.16-.27-.25-.58-.25-.92s.09-.67.26-.96c.17-.29.41-.51.69-.68.29-.17.61-.25.96-.25s.69.08.97.25c.29.17.52.39.69.67s.25.6.25.94c0,.47-.16.93-.49,1.38l-1.75,2.34h-.69Zm1.03-2.36c.25,0,.47-.06.67-.18.2-.12.36-.28.47-.48.12-.21.17-.43.17-.68s-.06-.49-.17-.69-.27-.36-.47-.48c-.2-.12-.42-.18-.67-.18s-.47.06-.67.18c-.2.12-.36.28-.48.49-.12.21-.18.43-.18.68s.06.47.18.67c.12.2.28.36.48.48.2.12.42.18.67.18Z"/><path d="m260.81,57.63l2.06-2.13c.24-.25.42-.46.55-.63.13-.17.22-.33.27-.47.05-.14.08-.29.08-.44,0-.31-.1-.56-.3-.74s-.46-.27-.79-.27c-.3,0-.57.07-.79.21-.23.14-.43.35-.61.64l-.41-.36c.21-.34.47-.59.77-.77.3-.18.65-.26,1.05-.26.33,0,.63.06.88.19.25.13.44.31.58.54.14.23.21.51.21.82,0,.22-.03.42-.09.6-.06.18-.16.37-.31.56-.15.19-.36.43-.63.71l-1.74,1.78-.78.02Zm0,.36v-.36l.48-.17h3.21v.53h-3.69Z"/><path d="m267.09,58.07c-.36,0-.68-.07-.96-.21-.28-.14-.49-.33-.65-.57-.16-.24-.23-.52-.23-.83,0-.25.05-.47.15-.68.1-.21.24-.38.42-.53s.4-.25.64-.3l.06.17c-.22-.06-.4-.15-.55-.28s-.27-.28-.35-.46-.12-.37-.12-.56c0-.28.07-.53.21-.74.14-.21.33-.38.56-.5.24-.12.51-.18.81-.18s.58.06.82.18c.24.12.43.29.56.5.13.21.2.46.2.74,0,.2-.04.39-.12.56-.08.18-.19.33-.34.46-.15.13-.34.22-.56.28l.06-.17c.25.05.46.15.64.3.18.15.32.32.42.53.1.21.15.43.15.68,0,.31-.08.59-.23.83-.15.24-.37.43-.65.57s-.6.21-.96.21Zm0-.53c.25,0,.47-.05.66-.14.19-.1.34-.23.45-.4.11-.17.16-.37.16-.59s-.05-.42-.16-.59c-.11-.17-.26-.3-.45-.4-.19-.1-.41-.15-.66-.15s-.46.05-.65.15c-.19.1-.34.23-.45.4s-.17.36-.17.59.06.41.17.59.26.31.45.4c.19.1.41.14.65.14Zm0-2.73c.3,0,.55-.09.74-.27s.29-.41.29-.69-.1-.51-.29-.69c-.19-.18-.44-.26-.74-.26s-.54.09-.73.26c-.19.18-.29.41-.29.69s.1.51.29.69.44.27.73.27Z"/><path d="m270.46,57.99l1.74-2.27.2-.08c-.08.1-.16.18-.26.25-.1.07-.21.12-.34.16-.13.04-.28.06-.44.06-.33,0-.63-.08-.9-.24-.27-.16-.49-.38-.65-.65-.16-.27-.25-.58-.25-.92s.09-.67.26-.96c.17-.29.41-.51.69-.68.29-.17.61-.25.96-.25s.69.08.97.25c.29.17.52.39.69.67s.25.6.25.94c0,.47-.16.93-.49,1.38l-1.75,2.34h-.69Zm1.03-2.36c.25,0,.47-.06.67-.18.2-.12.36-.28.47-.48.12-.21.17-.43.17-.68s-.06-.49-.17-.69-.27-.36-.47-.48c-.2-.12-.42-.18-.67-.18s-.47.06-.67.18c-.2.12-.36.28-.48.49-.12.21-.18.43-.18.68s.06.47.18.67c.12.2.28.36.48.48.2.12.42.18.67.18Z"/><path d="m277.72,58.07c-.36,0-.68-.07-.96-.21-.28-.14-.49-.33-.65-.57-.16-.24-.23-.52-.23-.83,0-.25.05-.47.15-.68.1-.21.24-.38.42-.53s.4-.25.64-.3l.06.17c-.22-.06-.4-.15-.55-.28s-.27-.28-.35-.46-.12-.37-.12-.56c0-.28.07-.53.21-.74.14-.21.33-.38.56-.5.24-.12.51-.18.81-.18s.58.06.82.18c.24.12.43.29.56.5.13.21.2.46.2.74,0,.2-.04.39-.12.56-.08.18-.19.33-.34.46-.15.13-.34.22-.56.28l.06-.17c.25.05.46.15.64.3.18.15.32.32.42.53.1.21.15.43.15.68,0,.31-.08.59-.23.83-.15.24-.37.43-.65.57s-.6.21-.96.21Zm0-.53c.25,0,.47-.05.66-.14.19-.1.34-.23.45-.4.11-.17.16-.37.16-.59s-.05-.42-.16-.59c-.11-.17-.26-.3-.45-.4-.19-.1-.41-.15-.66-.15s-.46.05-.65.15c-.19.1-.34.23-.45.4s-.17.36-.17.59.06.41.17.59.26.31.45.4c.19.1.41.14.65.14Zm0-2.73c.3,0,.55-.09.74-.27s.29-.41.29-.69-.1-.51-.29-.69c-.19-.18-.44-.26-.74-.26s-.54.09-.73.26c-.19.18-.29.41-.29.69s.1.51.29.69.44.27.73.27Z"/><path d="m280.08,53v-.52h1.67v.52h-1.67Zm1.17,4.98v-5.5h.58v5.5h-.58Z"/><path d="m282.7,53v-.52h3.67v.37l-.26.15h-3.41Zm.96,4.98l2.13-5.18.57.04-2.09,5.14h-.61Z"/><path d="m286.63,56.16l2.08-3.68h.66l-2.11,3.68h-.63Zm0,.37v-.37l.25-.16h3.96v.53h-4.21Zm2.8,1.46v-3.67h.58v3.67h-.58Z"/><path d="m292.18,57.99l1.74-2.27.2-.08c-.08.1-.16.18-.26.25-.1.07-.21.12-.34.16-.13.04-.28.06-.44.06-.33,0-.63-.08-.9-.24-.27-.16-.49-.38-.65-.65-.16-.27-.25-.58-.25-.92s.09-.67.26-.96c.17-.29.41-.51.69-.68.29-.17.61-.25.96-.25s.69.08.97.25c.29.17.52.39.69.67s.25.6.25.94c0,.47-.16.93-.49,1.38l-1.75,2.34h-.69Zm1.03-2.36c.25,0,.47-.06.67-.18.2-.12.36-.28.47-.48.12-.21.17-.43.17-.68s-.06-.49-.17-.69-.27-.36-.47-.48c-.2-.12-.42-.18-.67-.18s-.47.06-.67.18c-.2.12-.36.28-.48.49-.12.21-.18.43-.18.68s.06.47.18.67c.12.2.28.36.48.48.2.12.42.18.67.18Z"/><path class="cls-2" d="m232.85,58.81c-1.87,0-3.39-1.51-3.39-3.36s1.52-3.36,3.39-3.36,3.39,1.51,3.39,3.36-1.52,3.36-3.39,3.36Zm0-6.41c-1.7,0-3.09,1.37-3.09,3.06s1.39,3.06,3.09,3.06,3.09-1.37,3.09-3.06-1.39-3.06-3.09-3.06Z"/><path class="cls-2" d="m233.93,57.79c-.09,0-.19-.02-.28-.05-1.62-.52-2.71-2.06-2.65-3.74.01-.32.17-.52.27-.57l.05-.04s.03-.03.05-.04l.19-.13c.09-.06.19-.09.3-.09.04,0,.08,0,.12.01.13.03.24.1.31.21l.21.29c.08.11.11.25.09.39-.02.14-.1.26-.21.34l-.19.13c-.08.05-.17.09-.26.09l-.29.02.07.28c.19.77.66,1.45,1.32,1.89l.21.14.13-.22c.04-.06.09-.11.15-.15l.19-.13c.09-.06.19-.09.3-.09.04,0,.08,0,.11.01.13.03.24.1.31.21l.21.29c.17.23.11.56-.13.72l-.19.13s-.09.06-.15.07c-.07.02-.15.04-.23.04Z"/><path class="cls-2" d="m301.81,51.82c.51,2.42.52,4.86,0,7.29-.52-2.42-.51-4.86,0-7.29h0Z"/><path class="cls-2" d="m406,51.82c.51,2.42.52,4.86,0,7.29-.52-2.42-.51-4.86,0-7.29h0Z"/><path d="m232.37,35.91c-.43,0-.81-.09-1.15-.28-.33-.19-.6-.45-.79-.78s-.29-.7-.29-1.12v-3.75h.63v3.71c0,.33.07.61.21.86s.33.43.57.56.52.2.82.2.57-.06.81-.2c.24-.13.43-.32.57-.56.14-.24.21-.53.21-.85v-3.72h.63v3.76c0,.41-.1.78-.29,1.11-.19.33-.45.59-.79.78-.33.19-.71.28-1.14.28Z"/><path d="m235.87,35.82v-4h.6v4h-.6Zm2.93,0v-2.35c0-.35-.1-.64-.31-.85s-.48-.33-.83-.33c-.23,0-.44.05-.62.15-.18.1-.32.24-.42.42-.1.18-.15.38-.15.6l-.27-.15c0-.3.07-.57.21-.81.14-.24.34-.43.58-.56.24-.14.52-.2.84-.2s.58.07.82.22.43.35.56.59c.13.25.2.52.2.82v2.45h-.61Z"/><path d="m240.84,30.96c-.11,0-.21-.04-.29-.12-.08-.08-.12-.18-.12-.29,0-.12.04-.22.12-.3.08-.08.18-.12.29-.12.13,0,.23.04.3.12.08.08.12.18.12.3s-.04.21-.12.29c-.08.08-.18.12-.3.12Zm-.3,4.86v-4h.61v4h-.61Z"/><path d="m241.97,32.36v-.54h2.63v.54h-2.63Zm1.02,3.46v-5.68h.6v5.68h-.6Z"/><path d="m247.42,35.82v-5.85h.45l.18.74v5.11h-.63Zm4.08,0l-3.73-5.02.09-.83,3.72,5.02-.09.83Zm0,0l-.19-.71v-5.14h.63v5.85h-.45Z"/><path d="m255.13,35.91c-.39,0-.74-.09-1.06-.28s-.57-.44-.75-.76c-.19-.32-.28-.67-.28-1.06s.09-.73.28-1.05c.19-.31.44-.56.75-.74s.67-.28,1.06-.28.75.09,1.06.27c.31.18.56.43.75.74.19.31.28.66.28,1.05s-.09.75-.28,1.07c-.19.31-.44.57-.75.75-.31.19-.67.28-1.06.28Zm0-.58c.29,0,.54-.06.76-.2s.39-.31.52-.54c.13-.23.19-.49.19-.78s-.06-.55-.19-.77c-.13-.22-.3-.4-.52-.53s-.47-.2-.76-.2-.53.07-.75.2-.4.31-.52.53c-.13.22-.19.48-.19.77s.06.56.19.79c.13.23.3.41.52.54s.47.2.75.2Z"/><path d="m258.63,35.91c-.14,0-.26-.05-.35-.14-.09-.1-.14-.21-.14-.35s.05-.25.14-.34c.09-.09.21-.14.35-.14s.25.05.34.14c.09.09.14.21.14.34s-.05.25-.14.35c-.09.1-.21.14-.34.14Z"/><path d="m262.03,35.44l2.19-2.26c.25-.27.45-.49.59-.67.14-.18.24-.35.29-.5.05-.15.08-.31.08-.47,0-.33-.11-.6-.32-.79-.21-.19-.49-.28-.84-.28-.32,0-.6.08-.84.23-.24.15-.45.38-.64.68l-.44-.38c.23-.36.5-.63.82-.82s.69-.28,1.12-.28c.35,0,.67.07.93.2.27.14.47.33.62.58.15.25.22.54.22.88,0,.23-.03.44-.09.63s-.17.39-.33.59c-.16.21-.38.46-.67.75l-1.85,1.89-.83.03Zm0,.38v-.38l.51-.18h3.41v.56h-3.92Z"/><path d="m266.66,35.44l2.19-2.26c.25-.27.45-.49.59-.67.14-.18.24-.35.29-.5.05-.15.08-.31.08-.47,0-.33-.11-.6-.32-.79-.21-.19-.49-.28-.84-.28-.32,0-.6.08-.84.23-.24.15-.45.38-.64.68l-.44-.38c.23-.36.5-.63.82-.82s.69-.28,1.12-.28c.35,0,.67.07.93.2.27.14.47.33.62.58.15.25.22.54.22.88,0,.23-.03.44-.09.63s-.17.39-.33.59c-.16.21-.38.46-.67.75l-1.85,1.89-.83.03Zm0,.38v-.38l.51-.18h3.41v.56h-3.92Z"/><path d="m271.3,35.44l2.19-2.26c.25-.27.45-.49.59-.67.14-.18.24-.35.29-.5.05-.15.08-.31.08-.47,0-.33-.11-.6-.32-.79-.21-.19-.49-.28-.84-.28-.32,0-.6.08-.84.23-.24.15-.45.38-.64.68l-.44-.38c.23-.36.5-.63.82-.82s.69-.28,1.12-.28c.35,0,.67.07.93.2.27.14.47.33.62.58.15.25.22.54.22.88,0,.23-.03.44-.09.63s-.17.39-.33.59c-.16.21-.38.46-.67.75l-1.85,1.89-.83.03Zm0,.38v-.38l.51-.18h3.41v.56h-3.92Z"/><path d="m276.3,36.7l.49-.94.21-.05c-.02.05-.05.1-.09.13-.04.04-.09.06-.15.06-.11,0-.21-.04-.3-.13-.09-.09-.13-.2-.13-.33s.05-.25.15-.35.21-.15.35-.15.25.05.35.15.15.22.15.35c0,.06-.01.12-.03.2-.02.08-.06.18-.12.3l-.51.96-.36-.2Z"/><path d="m281.38,35.91c-.33,0-.62-.06-.87-.19-.25-.13-.46-.3-.64-.52l.45-.41c.13.17.27.3.45.39.17.09.37.13.6.13.21,0,.39-.04.57-.13.17-.09.31-.23.41-.41s.15-.42.15-.71v-4.08h.63v4.07c0,.39-.08.73-.24,1s-.37.49-.63.64c-.27.15-.56.22-.88.22Z"/><path d="m286.16,35.91c-.38,0-.73-.09-1.03-.28-.3-.18-.54-.43-.72-.74-.17-.31-.26-.66-.26-1.05s.09-.75.26-1.07.41-.56.72-.75.64-.28,1.02-.28c.31,0,.58.06.83.18.24.12.44.29.59.51s.24.47.28.76v1.25c-.03.29-.13.54-.28.77-.15.22-.35.39-.59.51-.24.12-.52.18-.82.18Zm.09-.57c.42,0,.75-.14,1.01-.42.25-.28.38-.64.38-1.1,0-.3-.06-.57-.18-.79s-.28-.41-.49-.54c-.21-.13-.45-.19-.73-.19s-.54.07-.76.2c-.22.13-.4.31-.52.54-.13.23-.19.49-.19.79s.06.56.19.78c.13.23.3.41.53.54.22.13.48.2.76.2Zm1.36.48v-1.07l.12-.99-.12-.96v-.98h.6v4h-.6Z"/><path d="m289.73,30.96c-.11,0-.21-.04-.29-.12-.08-.08-.12-.18-.12-.29,0-.12.04-.22.12-.3.08-.08.18-.12.29-.12.13,0,.23.04.3.12.08.08.12.18.12.3s-.04.21-.12.29c-.08.08-.18.12-.3.12Zm-.3,4.86v-4h.61v4h-.61Z"/><path d="m295.93,35.91c-.42,0-.82-.08-1.18-.23s-.68-.37-.95-.65c-.27-.28-.48-.6-.62-.96-.15-.37-.22-.76-.22-1.18s.07-.81.22-1.18c.15-.37.35-.68.62-.96s.58-.48.94-.64c.36-.15.75-.23,1.17-.23.45,0,.86.08,1.21.24s.67.38.94.65l-.43.42c-.21-.23-.45-.4-.75-.53-.29-.13-.62-.19-.98-.19-.33,0-.64.06-.91.18-.28.12-.52.29-.73.51-.21.22-.37.47-.48.77-.11.29-.17.61-.17.96s.06.67.17.96c.11.29.27.55.48.77.21.22.45.39.73.51.28.12.59.18.92.18.38,0,.71-.06,1.01-.2.29-.13.54-.31.75-.54l.43.43c-.26.28-.58.5-.94.66-.37.16-.78.24-1.23.24Z"/><path d="m300.72,35.91c-.39,0-.74-.09-1.06-.28s-.57-.44-.75-.76c-.19-.32-.28-.67-.28-1.06s.09-.73.28-1.05c.19-.31.44-.56.75-.74s.67-.28,1.06-.28.75.09,1.06.27c.31.18.56.43.75.74.19.31.28.66.28,1.05s-.09.75-.28,1.07c-.19.31-.44.57-.75.75-.31.19-.67.28-1.06.28Zm0-.58c.29,0,.54-.06.76-.2s.39-.31.52-.54c.13-.23.19-.49.19-.78s-.06-.55-.19-.77c-.13-.22-.3-.4-.52-.53s-.47-.2-.76-.2-.53.07-.75.2-.4.31-.52.53c-.13.22-.19.48-.19.77s.06.56.19.79c.13.23.3.41.52.54s.47.2.75.2Z"/><path d="m303.77,35.82v-4h.6v4h-.6Zm2.77,0v-2.45c0-.33-.1-.59-.3-.79-.2-.2-.45-.29-.76-.29-.21,0-.39.04-.56.13-.17.09-.3.21-.4.37s-.15.35-.15.57l-.27-.11c0-.31.07-.57.21-.8.14-.23.32-.4.55-.53.23-.12.49-.19.79-.19s.54.06.77.19c.23.12.41.3.54.53.13.23.2.5.2.81v2.56h-.61Zm2.78,0v-2.45c0-.33-.1-.59-.3-.79-.2-.2-.45-.29-.76-.29-.2,0-.38.04-.55.13-.17.09-.3.21-.4.37-.1.16-.15.35-.15.57l-.36-.11c.02-.31.1-.57.24-.8.15-.23.34-.4.57-.53.24-.12.5-.19.79-.19s.54.06.78.19c.23.12.41.3.55.53.13.23.2.5.2.81v2.56h-.6Z"/><path d="m311.05,35.82v-4h.6v4h-.6Zm2.77,0v-2.45c0-.33-.1-.59-.3-.79-.2-.2-.45-.29-.76-.29-.21,0-.39.04-.56.13-.17.09-.3.21-.4.37s-.15.35-.15.57l-.27-.11c0-.31.07-.57.21-.8.14-.23.32-.4.55-.53.23-.12.49-.19.79-.19s.54.06.77.19c.23.12.41.3.54.53.13.23.2.5.2.81v2.56h-.61Zm2.78,0v-2.45c0-.33-.1-.59-.3-.79-.2-.2-.45-.29-.76-.29-.2,0-.38.04-.55.13-.17.09-.3.21-.4.37-.1.16-.15.35-.15.57l-.36-.11c.02-.31.1-.57.24-.8.15-.23.34-.4.57-.53.24-.12.5-.19.79-.19s.54.06.78.19c.23.12.41.3.55.53.13.23.2.5.2.81v2.56h-.6Z"/><path d="m320.2,35.91c-.41,0-.77-.09-1.09-.27-.32-.18-.57-.43-.76-.75-.19-.32-.28-.67-.28-1.07s.09-.74.27-1.06c.18-.31.43-.56.75-.74.31-.18.67-.27,1.06-.27.37,0,.69.08.97.25.28.16.51.39.67.68.16.29.24.63.24,1.01,0,.05,0,.1,0,.16,0,.06-.02.13-.03.21h-3.49v-.51h3.17l-.21.19c0-.29-.04-.55-.15-.76s-.26-.38-.45-.49-.44-.17-.72-.17-.55.06-.76.19-.39.3-.51.52c-.12.22-.18.49-.18.79s.06.58.19.81.31.41.54.54.5.2.8.2c.25,0,.47-.04.68-.13.21-.09.38-.22.52-.4l.39.39c-.19.22-.42.39-.7.51-.28.12-.58.18-.9.18Z"/><path d="m322.95,35.82v-4h.6v4h-.6Zm.6-2.33l-.25-.11c0-.5.12-.9.37-1.2.25-.29.59-.44,1.03-.44.2,0,.38.04.55.11s.32.18.46.34l-.39.42c-.1-.11-.2-.18-.32-.23-.12-.04-.25-.07-.4-.07-.31,0-.56.1-.75.3-.19.2-.29.5-.29.89Z"/><path d="m328.05,35.91c-.39,0-.75-.09-1.07-.28-.32-.18-.57-.43-.75-.75-.19-.32-.28-.67-.28-1.06s.09-.74.28-1.06c.19-.31.44-.56.75-.74.32-.18.67-.27,1.07-.27.3,0,.59.06.85.17.26.11.49.27.67.48l-.39.4c-.14-.15-.3-.27-.5-.35s-.4-.12-.63-.12c-.29,0-.54.07-.76.2s-.4.31-.52.53c-.13.22-.19.48-.19.78s.06.55.19.78c.13.23.3.41.52.54s.48.2.76.2c.23,0,.44-.04.64-.12.19-.08.36-.2.5-.35l.4.4c-.19.21-.42.37-.68.48-.27.11-.55.17-.85.17Z"/><path d="m330.72,30.96c-.11,0-.21-.04-.29-.12-.08-.08-.12-.18-.12-.29,0-.12.04-.22.12-.3.08-.08.18-.12.29-.12.13,0,.23.04.3.12.08.08.12.18.12.3s-.04.21-.12.29c-.08.08-.18.12-.3.12Zm-.3,4.86v-4h.61v4h-.61Z"/><path d="m334,35.91c-.38,0-.73-.09-1.03-.28-.3-.18-.54-.43-.72-.74-.17-.31-.26-.66-.26-1.05s.09-.75.26-1.07.41-.56.72-.75.64-.28,1.02-.28c.31,0,.58.06.83.18.24.12.44.29.59.51s.24.47.28.76v1.25c-.03.29-.13.54-.28.77-.15.22-.35.39-.59.51-.24.12-.52.18-.82.18Zm.09-.57c.42,0,.75-.14,1.01-.42.25-.28.38-.64.38-1.1,0-.3-.06-.57-.18-.79s-.28-.41-.49-.54c-.21-.13-.45-.19-.73-.19s-.54.07-.76.2c-.22.13-.4.31-.52.54-.13.23-.19.49-.19.79s.06.56.19.78c.13.23.3.41.53.54.22.13.48.2.76.2Zm1.36.48v-1.07l.12-.99-.12-.96v-.98h.6v4h-.6Z"/><path d="m337.27,35.82v-6.02h.6v6.02h-.6Z"/><path d="m343.76,35.91c-.42,0-.82-.08-1.18-.23s-.68-.37-.95-.65c-.27-.28-.48-.6-.62-.96-.15-.37-.22-.76-.22-1.18s.07-.81.22-1.18c.15-.37.35-.68.62-.96s.58-.48.94-.64c.36-.15.75-.23,1.17-.23.45,0,.86.08,1.21.24s.67.38.94.65l-.43.42c-.21-.23-.45-.4-.75-.53-.29-.13-.62-.19-.98-.19-.33,0-.64.06-.91.18-.28.12-.52.29-.73.51-.21.22-.37.47-.48.77-.11.29-.17.61-.17.96s.06.67.17.96c.11.29.27.55.48.77.21.22.45.39.73.51.28.12.59.18.92.18.38,0,.71-.06,1.01-.2.29-.13.54-.31.75-.54l.43.43c-.26.28-.58.5-.94.66-.37.16-.78.24-1.23.24Z"/><path d="m348.55,35.91c-.39,0-.74-.09-1.06-.28s-.57-.44-.75-.76c-.19-.32-.28-.67-.28-1.06s.09-.73.28-1.05c.19-.31.44-.56.75-.74s.67-.28,1.06-.28.75.09,1.06.27c.31.18.56.43.75.74.19.31.28.66.28,1.05s-.09.75-.28,1.07c-.19.31-.44.57-.75.75-.31.19-.67.28-1.06.28Zm0-.58c.29,0,.54-.06.76-.2s.39-.31.52-.54c.13-.23.19-.49.19-.78s-.06-.55-.19-.77c-.13-.22-.3-.4-.52-.53s-.47-.2-.76-.2-.53.07-.75.2-.4.31-.52.53c-.13.22-.19.48-.19.77s.06.56.19.79c.13.23.3.41.52.54s.47.2.75.2Z"/><path d="m351.6,35.82v-4h.6v4h-.6Zm2.77,0v-2.45c0-.33-.1-.59-.3-.79-.2-.2-.45-.29-.76-.29-.21,0-.39.04-.56.13-.17.09-.3.21-.4.37s-.15.35-.15.57l-.27-.11c0-.31.07-.57.21-.8.14-.23.32-.4.55-.53.23-.12.49-.19.79-.19s.54.06.77.19c.23.12.41.3.54.53.13.23.2.5.2.81v2.56h-.61Zm2.78,0v-2.45c0-.33-.1-.59-.3-.79-.2-.2-.45-.29-.76-.29-.2,0-.38.04-.55.13-.17.09-.3.21-.4.37-.1.16-.15.35-.15.57l-.36-.11c.02-.31.1-.57.24-.8.15-.23.34-.4.57-.53.24-.12.5-.19.79-.19s.54.06.78.19c.23.12.41.3.55.53.13.23.2.5.2.81v2.56h-.6Z"/><path d="m358.88,37.5v-5.68h.6v1.02l-.12.97.12.98v2.71h-.6Zm2.08-1.6c-.31,0-.59-.06-.83-.19-.25-.12-.45-.3-.6-.51s-.25-.47-.29-.76v-1.25c.03-.29.13-.55.29-.77.16-.22.36-.39.61-.51.25-.12.52-.18.82-.18.37,0,.71.09,1,.28s.53.43.71.75.26.67.26,1.07-.09.74-.26,1.05c-.17.31-.41.56-.71.74-.3.18-.64.28-1.01.28Zm-.1-.57c.29,0,.54-.06.75-.19s.39-.31.51-.54c.12-.23.18-.49.18-.79s-.06-.56-.18-.79c-.12-.23-.29-.4-.51-.54-.22-.13-.47-.2-.75-.2s-.53.07-.74.2c-.21.13-.38.31-.5.54s-.18.49-.18.79.06.56.18.79.29.41.5.54.46.19.74.19Z"/><path d="m363.9,35.82v-6.02h.6v6.02h-.6Z"/><path d="m367.58,35.91c-.41,0-.77-.09-1.09-.27-.32-.18-.57-.43-.76-.75-.19-.32-.28-.67-.28-1.07s.09-.74.27-1.06c.18-.31.43-.56.75-.74.31-.18.67-.27,1.06-.27.37,0,.69.08.97.25.28.16.51.39.67.68.16.29.24.63.24,1.01,0,.05,0,.1,0,.16,0,.06-.02.13-.03.21h-3.49v-.51h3.17l-.21.19c0-.29-.04-.55-.15-.76s-.26-.38-.45-.49-.44-.17-.72-.17-.55.06-.76.19-.39.3-.51.52c-.12.22-.18.49-.18.79s.06.58.19.81.31.41.54.54.5.2.8.2c.25,0,.47-.04.68-.13.21-.09.38-.22.52-.4l.39.39c-.19.22-.42.39-.7.51-.28.12-.58.18-.9.18Z"/><path d="m369.78,35.82l1.7-2.19.33.44-1.32,1.75h-.71Zm3.17,0l-1.35-1.82-.13-.1-1.62-2.07h.75l1.25,1.63.12.1,1.72,2.26h-.74Zm-.94-1.93l-.34-.43,1.24-1.63h.71l-1.6,2.07Z"/><path d="m374.56,36.7l.49-.94.21-.05c-.02.05-.05.1-.09.13-.04.04-.09.06-.15.06-.11,0-.21-.04-.3-.13-.09-.09-.13-.2-.13-.33s.05-.25.15-.35.21-.15.35-.15.25.05.35.15.15.22.15.35c0,.06-.01.12-.03.2-.02.08-.06.18-.12.3l-.51.96-.36-.2Z"/><path d="m378.82,35.82v-5.85h.63v5.85h-.63Zm.41-5.28v-.57h3.42v.57h-3.42Zm0,2.56v-.55h3.2v.55h-3.2Zm0,2.72v-.57h3.47v.57h-3.47Z"/><path d="m385.38,35.91c-.38,0-.73-.09-1.03-.28-.3-.18-.54-.43-.72-.74-.17-.31-.26-.66-.26-1.05s.09-.75.26-1.07.41-.56.72-.75.64-.28,1.02-.28c.31,0,.58.06.83.18.24.12.44.29.59.51s.24.47.28.76v1.25c-.03.29-.13.54-.28.77-.15.22-.35.39-.59.51-.24.12-.52.18-.82.18Zm.09-.57c.42,0,.75-.14,1.01-.42.25-.28.38-.64.38-1.1,0-.3-.06-.57-.18-.79s-.28-.41-.49-.54c-.21-.13-.45-.19-.73-.19s-.54.07-.76.2c-.22.13-.4.31-.52.54-.13.23-.19.49-.19.79s.06.56.19.78c.13.23.3.41.53.54.22.13.48.2.76.2Zm1.36.48v-1.07l.12-.99-.12-.96v-.98h.6v4h-.6Z"/><path d="m389.89,35.91c-.22,0-.43-.03-.63-.09s-.38-.14-.54-.25c-.16-.11-.3-.24-.42-.38l.39-.39c.16.19.34.34.54.43.2.09.43.14.68.14.27,0,.48-.05.63-.15s.23-.24.23-.43c0-.17-.05-.3-.16-.4-.11-.1-.25-.17-.42-.23-.17-.06-.35-.11-.54-.17-.19-.05-.37-.12-.54-.2-.17-.08-.31-.2-.42-.34-.11-.15-.16-.34-.16-.58s.06-.42.17-.59c.11-.17.27-.3.48-.39.21-.09.46-.14.74-.14.3,0,.58.05.82.16.25.11.44.27.59.48l-.39.38c-.12-.15-.27-.27-.45-.35s-.38-.12-.6-.12c-.26,0-.45.05-.59.15-.13.1-.2.23-.2.39s.05.27.16.36c.11.09.25.16.42.21.17.05.35.11.54.16.19.05.37.12.54.21.17.09.31.21.42.36.11.15.16.35.16.61,0,.36-.13.64-.39.85s-.61.32-1.06.32Z"/><path d="m391.89,32.36v-.54h2.63v.54h-2.63Zm1.02,3.46v-5.68h.6v5.68h-.6Z"/><path d="m397.07,35.91c-.41,0-.77-.09-1.09-.27-.32-.18-.57-.43-.76-.75-.19-.32-.28-.67-.28-1.07s.09-.74.27-1.06c.18-.31.43-.56.75-.74.31-.18.67-.27,1.06-.27.37,0,.69.08.97.25.28.16.51.39.67.68.16.29.24.63.24,1.01,0,.05,0,.1,0,.16,0,.06-.02.13-.03.21h-3.49v-.51h3.17l-.21.19c0-.29-.04-.55-.15-.76s-.26-.38-.45-.49-.44-.17-.72-.17-.55.06-.76.19-.39.3-.51.52c-.12.22-.18.49-.18.79s.06.58.19.81.31.41.54.54.5.2.8.2c.25,0,.47-.04.68-.13.21-.09.38-.22.52-.4l.39.39c-.19.22-.42.39-.7.51-.28.12-.58.18-.9.18Z"/><path d="m399.82,35.82v-4h.6v4h-.6Zm.6-2.33l-.25-.11c0-.5.12-.9.37-1.2.25-.29.59-.44,1.03-.44.2,0,.38.04.55.11s.32.18.46.34l-.39.42c-.1-.11-.2-.18-.32-.23-.12-.04-.25-.07-.4-.07-.31,0-.56.1-.75.3-.19.2-.29.5-.29.89Z"/><path d="m403.25,35.82v-4h.6v4h-.6Zm2.93,0v-2.35c0-.35-.1-.64-.31-.85s-.48-.33-.83-.33c-.23,0-.44.05-.62.15-.18.1-.32.24-.42.42-.1.18-.15.38-.15.6l-.27-.15c0-.3.07-.57.21-.81.14-.24.34-.43.58-.56.24-.14.52-.2.84-.2s.58.07.82.22.43.35.56.59c.13.25.2.52.2.82v2.45h-.61Z"/><path d="m409.91,35.82v-5.85h.63v5.85h-.63Zm.41-5.28v-.57h3.42v.57h-3.42Zm0,2.56v-.55h3.2v.55h-3.2Zm0,2.72v-.57h3.47v.57h-3.47Z"/><path d="m414.4,35.82l1.7-2.19.33.44-1.32,1.75h-.71Zm3.17,0l-1.35-1.82-.13-.1-1.62-2.07h.75l1.25,1.63.12.1,1.72,2.26h-.74Zm-.94-1.93l-.34-.43,1.24-1.63h.71l-1.6,2.07Z"/><path d="m419.1,37.5v-5.68h.6v1.02l-.12.97.12.98v2.71h-.6Zm2.08-1.6c-.31,0-.59-.06-.83-.19-.25-.12-.45-.3-.6-.51s-.25-.47-.29-.76v-1.25c.03-.29.13-.55.29-.77.16-.22.36-.39.61-.51.25-.12.52-.18.82-.18.37,0,.71.09,1,.28s.53.43.71.75.26.67.26,1.07-.09.74-.26,1.05c-.17.31-.41.56-.71.74-.3.18-.64.28-1.01.28Zm-.1-.57c.29,0,.54-.06.75-.19s.39-.31.51-.54c.12-.23.18-.49.18-.79s-.06-.56-.18-.79c-.12-.23-.29-.4-.51-.54-.22-.13-.47-.2-.75-.2s-.53.07-.74.2c-.21.13-.38.31-.5.54s-.18.49-.18.79.06.56.18.79.29.41.5.54.46.19.74.19Z"/><path d="m424.12,35.82v-4h.6v4h-.6Zm.6-2.33l-.25-.11c0-.5.12-.9.37-1.2.25-.29.59-.44,1.03-.44.2,0,.38.04.55.11s.32.18.46.34l-.39.42c-.1-.11-.2-.18-.32-.23-.12-.04-.25-.07-.4-.07-.31,0-.56.1-.75.3-.19.2-.29.5-.29.89Z"/><path d="m429.24,35.91c-.41,0-.77-.09-1.09-.27-.32-.18-.57-.43-.76-.75-.19-.32-.28-.67-.28-1.07s.09-.74.27-1.06c.18-.31.43-.56.75-.74.31-.18.67-.27,1.06-.27.37,0,.69.08.97.25.28.16.51.39.67.68.16.29.24.63.24,1.01,0,.05,0,.1,0,.16,0,.06-.02.13-.03.21h-3.49v-.51h3.17l-.21.19c0-.29-.04-.55-.15-.76s-.26-.38-.45-.49-.44-.17-.72-.17-.55.06-.76.19-.39.3-.51.52c-.12.22-.18.49-.18.79s.06.58.19.81.31.41.54.54.5.2.8.2c.25,0,.47-.04.68-.13.21-.09.38-.22.52-.4l.39.39c-.19.22-.42.39-.7.51-.28.12-.58.18-.9.18Z"/><path d="m433.23,35.91c-.22,0-.43-.03-.63-.09s-.38-.14-.54-.25c-.16-.11-.3-.24-.42-.38l.39-.39c.16.19.34.34.54.43.2.09.43.14.68.14.27,0,.48-.05.63-.15s.23-.24.23-.43c0-.17-.05-.3-.16-.4-.11-.1-.25-.17-.42-.23-.17-.06-.35-.11-.54-.17-.19-.05-.37-.12-.54-.2-.17-.08-.31-.2-.42-.34-.11-.15-.16-.34-.16-.58s.06-.42.17-.59c.11-.17.27-.3.48-.39.21-.09.46-.14.74-.14.3,0,.58.05.82.16.25.11.44.27.59.48l-.39.38c-.12-.15-.27-.27-.45-.35s-.38-.12-.6-.12c-.26,0-.45.05-.59.15-.13.1-.2.23-.2.39s.05.27.16.36c.11.09.25.16.42.21.17.05.35.11.54.16.19.05.37.12.54.21.17.09.31.21.42.36.11.15.16.35.16.61,0,.36-.13.64-.39.85s-.61.32-1.06.32Z"/><path d="m436.86,35.91c-.22,0-.43-.03-.63-.09s-.38-.14-.54-.25c-.16-.11-.3-.24-.42-.38l.39-.39c.16.19.34.34.54.43.2.09.43.14.68.14.27,0,.48-.05.63-.15s.23-.24.23-.43c0-.17-.05-.3-.16-.4-.11-.1-.25-.17-.42-.23-.17-.06-.35-.11-.54-.17-.19-.05-.37-.12-.54-.2-.17-.08-.31-.2-.42-.34-.11-.15-.16-.34-.16-.58s.06-.42.17-.59c.11-.17.27-.3.48-.39.21-.09.46-.14.74-.14.3,0,.58.05.82.16.25.11.44.27.59.48l-.39.38c-.12-.15-.27-.27-.45-.35s-.38-.12-.6-.12c-.26,0-.45.05-.59.15-.13.1-.2.23-.2.39s.05.27.16.36c.11.09.25.16.42.21.17.05.35.11.54.16.19.05.37.12.54.21.17.09.31.21.42.36.11.15.16.35.16.61,0,.36-.13.64-.39.85s-.61.32-1.06.32Z"/><path d="m441.26,35.82v-5.85h.63v5.85h-.63Zm.41-2.74v-.57h3.63v.57h-3.63Zm3.46,2.74v-5.85h.63v5.85h-.63Z"/><path d="m447.42,30.96c-.11,0-.21-.04-.29-.12-.08-.08-.12-.18-.12-.29,0-.12.04-.22.12-.3.08-.08.18-.12.29-.12.13,0,.23.04.3.12.08.08.12.18.12.3s-.04.21-.12.29c-.08.08-.18.12-.3.12Zm-.3,4.86v-4h.61v4h-.61Z"/><path d="m450.65,35.78c-.37,0-.71-.09-1-.26-.3-.18-.53-.42-.7-.72-.17-.31-.26-.65-.26-1.04s.08-.73.25-1.03c.17-.3.4-.54.7-.72.3-.18.63-.26,1-.26.31,0,.6.06.85.18.25.12.45.29.6.51.15.22.24.47.28.77v1.13c-.03.29-.13.54-.28.76-.15.22-.35.39-.6.51-.25.12-.52.18-.83.18Zm-.04,1.81c-.41,0-.77-.08-1.09-.23-.32-.15-.57-.36-.77-.63l.39-.39c.16.22.36.38.61.5.25.12.53.18.87.18.46,0,.82-.12,1.09-.37.27-.24.41-.58.41-.99v-.99l.12-.91-.12-.9v-1.03h.6v3.83c0,.39-.09.72-.27,1.01s-.42.51-.74.68c-.32.16-.69.24-1.11.24Zm.15-2.38c.28,0,.52-.06.73-.18.21-.12.37-.29.49-.51.12-.22.18-.47.18-.77s-.06-.54-.18-.76-.28-.39-.49-.51c-.21-.12-.46-.19-.74-.19s-.53.06-.75.19-.39.29-.51.51-.18.47-.18.76.06.54.19.76c.13.22.3.39.51.51.22.12.47.18.75.18Z"/><path d="m453.94,35.82v-6.02h.6v6.02h-.6Zm2.93,0v-2.35c0-.35-.1-.64-.31-.85s-.48-.33-.83-.33c-.23,0-.44.05-.62.15-.18.1-.32.24-.42.42-.1.18-.15.38-.15.6l-.27-.15c0-.3.07-.57.21-.81.14-.24.34-.43.58-.56.24-.14.52-.2.84-.2s.58.07.82.21c.24.14.43.33.56.57s.2.53.2.85v2.45h-.61Z"/><path d="m459.73,35.82l-1.55-4h.63l1.23,3.31h-.22s1.22-3.31,1.22-3.31h.35l1.22,3.32h-.22s1.22-3.32,1.22-3.32h.63l-1.56,4h-.35l-1.24-3.27h.26l-1.24,3.27h-.36Z"/><path d="m466.62,35.91c-.38,0-.73-.09-1.03-.28-.3-.18-.54-.43-.72-.74-.17-.31-.26-.66-.26-1.05s.09-.75.26-1.07.41-.56.72-.75.64-.28,1.02-.28c.31,0,.58.06.83.18.24.12.44.29.59.51s.24.47.28.76v1.25c-.03.29-.13.54-.28.77-.15.22-.35.39-.59.51-.24.12-.52.18-.82.18Zm.09-.57c.42,0,.75-.14,1.01-.42.25-.28.38-.64.38-1.1,0-.3-.06-.57-.18-.79s-.28-.41-.49-.54c-.21-.13-.45-.19-.73-.19s-.54.07-.76.2c-.22.13-.4.31-.52.54-.13.23-.19.49-.19.79s.06.56.19.78c.13.23.3.41.53.54.22.13.48.2.76.2Zm1.36.48v-1.07l.12-.99-.12-.96v-.98h.6v4h-.6Z"/><path d="m471.23,35.84l-1.77-4.01h.66l1.42,3.35h-.25l1.5-3.35h.67l-1.9,4.01h-.34Zm-1.1,1.67l1.11-2.27.33.6-.78,1.67h-.66Z"/><path d="m232.9,45.91c-.42,0-.82-.08-1.18-.23s-.68-.37-.95-.65c-.27-.28-.48-.6-.62-.96-.15-.37-.22-.76-.22-1.18s.07-.81.22-1.18c.15-.37.35-.68.62-.96s.58-.48.94-.64c.36-.15.75-.23,1.17-.23.45,0,.86.08,1.21.24s.67.38.94.65l-.43.42c-.21-.23-.45-.4-.75-.53-.29-.13-.62-.19-.98-.19-.33,0-.64.06-.91.18-.28.12-.52.29-.73.51-.21.22-.37.47-.48.77-.11.29-.17.61-.17.96s.06.67.17.96c.11.29.27.55.48.77.21.22.45.39.73.51.28.12.59.18.92.18.38,0,.71-.06,1.01-.2.29-.13.54-.31.75-.54l.43.43c-.26.28-.58.5-.94.66-.37.16-.78.24-1.23.24Z"/><path d="m237.62,45.91c-.38,0-.73-.09-1.03-.28-.3-.18-.54-.43-.72-.74-.17-.31-.26-.66-.26-1.05s.09-.75.26-1.07.41-.56.72-.75.64-.28,1.02-.28c.31,0,.58.06.83.18.24.12.44.29.59.51s.24.47.28.76v1.25c-.03.29-.13.54-.28.77-.15.22-.35.39-.59.51-.24.12-.52.18-.82.18Zm.09-.57c.42,0,.75-.14,1.01-.42.25-.28.38-.64.38-1.1,0-.3-.06-.57-.18-.79s-.28-.41-.49-.54c-.21-.13-.45-.19-.73-.19s-.54.07-.76.2c-.22.13-.4.31-.52.54-.13.23-.19.49-.19.79s.06.56.19.78c.13.23.3.41.53.54.22.13.48.2.76.2Zm1.36.48v-1.07l.12-.99-.12-.96v-.98h.6v4h-.6Z"/><path d="m242.6,45.91c-.37,0-.71-.09-1-.27-.3-.18-.53-.43-.71-.74s-.26-.67-.26-1.06.09-.75.26-1.07.41-.56.71-.75.63-.28,1-.28c.3,0,.58.06.82.18.25.12.45.29.61.51.16.22.26.47.29.77v1.25c-.03.29-.13.54-.29.76-.16.22-.36.39-.6.51-.25.12-.52.19-.83.19Zm.1-.57c.28,0,.53-.06.74-.19.21-.13.38-.31.5-.54s.18-.49.18-.79-.06-.56-.18-.79c-.12-.23-.29-.4-.5-.54-.21-.13-.46-.2-.74-.2s-.53.07-.75.2c-.22.13-.39.31-.51.54-.12.23-.18.49-.18.79s.06.56.18.79c.12.23.29.41.51.54s.47.19.75.19Zm1.98.48h-.6v-1.07l.12-.99-.12-.96v-3h.6v6.02Z"/><path d="m245.9,45.82v-6.02h.6v3l-.12.96.12.99v1.07h-.6Zm2.08.08c-.31,0-.59-.06-.83-.19-.25-.12-.45-.3-.6-.51s-.25-.47-.29-.76v-1.25c.03-.29.13-.55.29-.77.16-.22.36-.39.61-.51.25-.12.52-.18.82-.18.37,0,.71.09,1,.28s.53.43.71.75.26.67.26,1.07-.09.74-.26,1.05c-.17.31-.41.56-.71.74-.3.18-.64.28-1.01.28Zm-.1-.57c.29,0,.54-.06.75-.19s.39-.31.51-.54c.12-.23.18-.49.18-.79s-.06-.56-.18-.79c-.12-.23-.29-.4-.51-.54-.22-.13-.47-.2-.75-.2s-.53.07-.74.2c-.21.13-.38.31-.5.54s-.18.49-.18.79.06.56.18.79.29.41.5.54.46.19.74.19Z"/><path d="m252.52,45.91c-.33,0-.62-.08-.88-.23-.26-.15-.46-.36-.6-.62-.15-.26-.22-.57-.22-.92v-2.32h.61v2.29c0,.24.04.46.13.64.09.18.22.32.38.42.17.1.36.15.58.15.34,0,.6-.11.8-.33.2-.22.3-.52.3-.88v-2.29h.6v2.32c0,.35-.07.65-.21.92-.14.27-.34.47-.6.62-.26.15-.55.22-.88.22Z"/><path d="m255.34,45.82v-4h.6v4h-.6Zm.6-2.33l-.25-.11c0-.5.12-.9.37-1.2.25-.29.59-.44,1.03-.44.2,0,.38.04.55.11s.32.18.46.34l-.39.42c-.1-.11-.2-.18-.32-.23-.12-.04-.25-.07-.4-.07-.31,0-.56.1-.75.3-.19.2-.29.5-.29.89Z"/><path d="m260,45.84l-1.77-4.01h.66l1.42,3.35h-.25l1.5-3.35h.67l-1.9,4.01h-.34Zm-1.1,1.67l1.11-2.27.33.6-.78,1.67h-.66Z"/><path d="m265.84,45.91c-.33,0-.62-.06-.87-.19-.25-.13-.46-.3-.64-.52l.45-.41c.13.17.27.3.45.39.17.09.37.13.6.13.21,0,.39-.04.57-.13.17-.09.31-.23.41-.41s.15-.42.15-.71v-4.08h.63v4.07c0,.39-.08.73-.24,1s-.37.49-.63.64c-.27.15-.56.22-.88.22Z"/><path d="m270.47,45.91c-.33,0-.62-.08-.88-.23-.26-.15-.46-.36-.6-.62-.15-.26-.22-.57-.22-.92v-2.32h.61v2.29c0,.24.04.46.13.64.09.18.22.32.38.42.17.1.36.15.58.15.34,0,.6-.11.8-.33.2-.22.3-.52.3-.88v-2.29h.6v2.32c0,.35-.07.65-.21.92-.14.27-.34.47-.6.62-.26.15-.55.22-.88.22Z"/><path d="m273.3,45.82v-4h.6v4h-.6Zm2.93,0v-2.35c0-.35-.1-.64-.31-.85s-.48-.33-.83-.33c-.23,0-.44.05-.62.15-.18.1-.32.24-.42.42-.1.18-.15.38-.15.6l-.27-.15c0-.3.07-.57.21-.81.14-.24.34-.43.58-.56.24-.14.52-.2.84-.2s.58.07.82.22.43.35.56.59c.13.25.2.52.2.82v2.45h-.61Z"/><path d="m279.8,45.91c-.39,0-.75-.09-1.07-.28-.32-.18-.57-.43-.75-.75-.19-.32-.28-.67-.28-1.06s.09-.74.28-1.06c.19-.31.44-.56.75-.74.32-.18.67-.27,1.07-.27.3,0,.59.06.85.17.26.11.49.27.67.48l-.39.4c-.14-.15-.3-.27-.5-.35s-.4-.12-.63-.12c-.29,0-.54.07-.76.2s-.4.31-.52.53c-.13.22-.19.48-.19.78s.06.55.19.78c.13.23.3.41.52.54s.48.2.76.2c.23,0,.44-.04.64-.12.19-.08.36-.2.5-.35l.4.4c-.19.21-.42.37-.68.48-.27.11-.55.17-.85.17Z"/><path d="m281.75,42.36v-.54h2.63v.54h-2.63Zm1.02,3.46v-5.68h.6v5.68h-.6Z"/><path d="m285.5,40.96c-.11,0-.21-.04-.29-.12-.08-.08-.12-.18-.12-.29,0-.12.04-.22.12-.3.08-.08.18-.12.29-.12.13,0,.23.04.3.12.08.08.12.18.12.3s-.04.21-.12.29c-.08.08-.18.12-.3.12Zm-.3,4.86v-4h.61v4h-.61Z"/><path d="m288.86,45.91c-.39,0-.74-.09-1.06-.28s-.57-.44-.75-.76c-.19-.32-.28-.67-.28-1.06s.09-.73.28-1.05c.19-.31.44-.56.75-.74s.67-.28,1.06-.28.75.09,1.06.27c.31.18.56.43.75.74.19.31.28.66.28,1.05s-.09.75-.28,1.07c-.19.31-.44.57-.75.75-.31.19-.67.28-1.06.28Zm0-.58c.29,0,.54-.06.76-.2s.39-.31.52-.54c.13-.23.19-.49.19-.78s-.06-.55-.19-.77c-.13-.22-.3-.4-.52-.53s-.47-.2-.76-.2-.53.07-.75.2-.4.31-.52.53c-.13.22-.19.48-.19.77s.06.56.19.79c.13.23.3.41.52.54s.47.2.75.2Z"/><path d="m291.9,45.82v-4h.6v4h-.6Zm2.93,0v-2.35c0-.35-.1-.64-.31-.85s-.48-.33-.83-.33c-.23,0-.44.05-.62.15-.18.1-.32.24-.42.42-.1.18-.15.38-.15.6l-.27-.15c0-.3.07-.57.21-.81.14-.24.34-.43.58-.56.24-.14.52-.2.84-.2s.58.07.82.22.43.35.56.59c.13.25.2.52.2.82v2.45h-.61Z"/><path d="m296.66,46.7l.49-.94.21-.05c-.02.05-.05.1-.09.13-.04.04-.09.06-.15.06-.11,0-.21-.04-.3-.13-.09-.09-.13-.2-.13-.33s.05-.25.15-.35.21-.15.35-.15.25.05.35.15.15.22.15.35c0,.06-.01.12-.03.2-.02.08-.06.18-.12.3l-.51.96-.36-.2Z"/><path d="m300.91,45.82v-5.85h.63v5.85h-.63Zm3.74,0l-3.23-3.05,3.16-2.8h.84l-3.36,2.97v-.36s3.45,3.24,3.45,3.24h-.86Z"/><path d="m306.42,45.82v-6.02h.6v6.02h-.6Zm2.93,0v-2.35c0-.35-.1-.64-.31-.85s-.48-.33-.83-.33c-.23,0-.44.05-.62.15-.18.1-.32.24-.42.42-.1.18-.15.38-.15.6l-.27-.15c0-.3.07-.57.21-.81.14-.24.34-.43.58-.56.24-.14.52-.2.84-.2s.58.07.82.21c.24.14.43.33.56.57s.2.53.2.85v2.45h-.61Z"/><path d="m312.91,45.91c-.39,0-.74-.09-1.06-.28s-.57-.44-.75-.76c-.19-.32-.28-.67-.28-1.06s.09-.73.28-1.05c.19-.31.44-.56.75-.74s.67-.28,1.06-.28.75.09,1.06.27c.31.18.56.43.75.74.19.31.28.66.28,1.05s-.09.75-.28,1.07c-.19.31-.44.57-.75.75-.31.19-.67.28-1.06.28Zm0-.58c.29,0,.54-.06.76-.2s.39-.31.52-.54c.13-.23.19-.49.19-.78s-.06-.55-.19-.77c-.13-.22-.3-.4-.52-.53s-.47-.2-.76-.2-.53.07-.75.2-.4.31-.52.53c-.13.22-.19.48-.19.77s.06.56.19.79c.13.23.3.41.52.54s.47.2.75.2Z"/><path d="m315.96,47.5v-5.68h.6v1.02l-.12.97.12.98v2.71h-.6Zm2.08-1.6c-.31,0-.59-.06-.83-.19-.25-.12-.45-.3-.6-.51s-.25-.47-.29-.76v-1.25c.03-.29.13-.55.29-.77.16-.22.36-.39.61-.51.25-.12.52-.18.82-.18.37,0,.71.09,1,.28s.53.43.71.75.26.67.26,1.07-.09.74-.26,1.05c-.17.31-.41.56-.71.74-.3.18-.64.28-1.01.28Zm-.1-.57c.29,0,.54-.06.75-.19s.39-.31.51-.54c.12-.23.18-.49.18-.79s-.06-.56-.18-.79c-.12-.23-.29-.4-.51-.54-.22-.13-.47-.2-.75-.2s-.53.07-.74.2c-.21.13-.38.31-.5.54s-.18.49-.18.79.06.56.18.79.29.41.5.54.46.19.74.19Z"/><path d="m322.73,45.91c-.38,0-.73-.09-1.03-.28-.3-.18-.54-.43-.72-.74-.17-.31-.26-.66-.26-1.05s.09-.75.26-1.07.41-.56.72-.75.64-.28,1.02-.28c.31,0,.58.06.83.18.24.12.44.29.59.51s.24.47.28.76v1.25c-.03.29-.13.54-.28.77-.15.22-.35.39-.59.51-.24.12-.52.18-.82.18Zm.09-.57c.42,0,.75-.14,1.01-.42.25-.28.38-.64.38-1.1,0-.3-.06-.57-.18-.79s-.28-.41-.49-.54c-.21-.13-.45-.19-.73-.19s-.54.07-.76.2c-.22.13-.4.31-.52.54-.13.23-.19.49-.19.79s.06.56.19.78c.13.23.3.41.53.54.22.13.48.2.76.2Zm1.36.48v-1.07l.12-.99-.12-.96v-.98h.6v4h-.6Z"/><path d="m325.57,42.36v-.54h2.63v.54h-2.63Zm1.02,3.46v-5.68h.6v5.68h-.6Z"/><path d="m331.02,45.82v-5.85h.63v5.85h-.63Zm.4-2.62v-.53h1.72c.39,0,.69-.1.89-.29.21-.2.31-.46.31-.79s-.1-.58-.31-.78c-.21-.2-.5-.3-.89-.3h-1.72v-.54h1.72c.38,0,.71.07.99.21.27.14.48.33.63.57s.22.52.22.83-.07.61-.22.85-.36.43-.63.56c-.27.13-.6.2-.99.2h-1.72Zm3.17,2.62l-2.21-2.7.61-.2,2.41,2.9h-.81Z"/><path d="m337.87,45.91c-.39,0-.74-.09-1.06-.28s-.57-.44-.75-.76c-.19-.32-.28-.67-.28-1.06s.09-.73.28-1.05c.19-.31.44-.56.75-.74s.67-.28,1.06-.28.75.09,1.06.27c.31.18.56.43.75.74.19.31.28.66.28,1.05s-.09.75-.28,1.07c-.19.31-.44.57-.75.75-.31.19-.67.28-1.06.28Zm0-.58c.29,0,.54-.06.76-.2s.39-.31.52-.54c.13-.23.19-.49.19-.78s-.06-.55-.19-.77c-.13-.22-.3-.4-.52-.53s-.47-.2-.76-.2-.53.07-.75.2-.4.31-.52.53c-.13.22-.19.48-.19.77s.06.56.19.79c.13.23.3.41.52.54s.47.2.75.2Z"/><path d="m342.67,45.91c-.38,0-.73-.09-1.03-.28-.3-.18-.54-.43-.72-.74-.17-.31-.26-.66-.26-1.05s.09-.75.26-1.07.41-.56.72-.75.64-.28,1.02-.28c.31,0,.58.06.83.18.24.12.44.29.59.51s.24.47.28.76v1.25c-.03.29-.13.54-.28.77-.15.22-.35.39-.59.51-.24.12-.52.18-.82.18Zm.09-.57c.42,0,.75-.14,1.01-.42.25-.28.38-.64.38-1.1,0-.3-.06-.57-.18-.79s-.28-.41-.49-.54c-.21-.13-.45-.19-.73-.19s-.54.07-.76.2c-.22.13-.4.31-.52.54-.13.23-.19.49-.19.79s.06.56.19.78c.13.23.3.41.53.54.22.13.48.2.76.2Zm1.36.48v-1.07l.12-.99-.12-.96v-.98h.6v4h-.6Z"/><path d="m347.65,45.91c-.37,0-.71-.09-1-.27-.3-.18-.53-.43-.71-.74s-.26-.67-.26-1.06.09-.75.26-1.07.41-.56.71-.75.63-.28,1-.28c.3,0,.58.06.82.18.25.12.45.29.61.51.16.22.26.47.29.77v1.25c-.03.29-.13.54-.29.76-.16.22-.36.39-.6.51-.25.12-.52.19-.83.19Zm.1-.57c.28,0,.53-.06.74-.19.21-.13.38-.31.5-.54s.18-.49.18-.79-.06-.56-.18-.79c-.12-.23-.29-.4-.5-.54-.21-.13-.46-.2-.74-.2s-.53.07-.75.2c-.22.13-.39.31-.51.54-.12.23-.18.49-.18.79s.06.56.18.79c.12.23.29.41.51.54s.47.19.75.19Zm1.98.48h-.6v-1.07l.12-.99-.12-.96v-3h.6v6.02Z"/><path d="m351.04,46.7l.49-.94.21-.05c-.02.05-.05.1-.09.13-.04.04-.09.06-.15.06-.11,0-.21-.04-.3-.13-.09-.09-.13-.2-.13-.33s.05-.25.15-.35.21-.15.35-.15.25.05.35.15.15.22.15.35c0,.06-.01.12-.03.2-.02.08-.06.18-.12.3l-.51.96-.36-.2Z"/><path d="m354.72,40.54v-.57h4.79v.57h-4.79Zm2.08,5.28v-5.69h.63v5.69h-.63Z"/><path d="m360.43,45.82v-6.02h.6v6.02h-.6Zm2.93,0v-2.35c0-.35-.1-.64-.31-.85s-.48-.33-.83-.33c-.23,0-.44.05-.62.15-.18.1-.32.24-.42.42-.1.18-.15.38-.15.6l-.27-.15c0-.3.07-.57.21-.81.14-.24.34-.43.58-.56.24-.14.52-.2.84-.2s.58.07.82.21c.24.14.43.33.56.57s.2.53.2.85v2.45h-.61Z"/><path d="m366.85,45.91c-.38,0-.73-.09-1.03-.28-.3-.18-.54-.43-.72-.74-.17-.31-.26-.66-.26-1.05s.09-.75.26-1.07.41-.56.72-.75.64-.28,1.02-.28c.31,0,.58.06.83.18.24.12.44.29.59.51s.24.47.28.76v1.25c-.03.29-.13.54-.28.77-.15.22-.35.39-.59.51-.24.12-.52.18-.82.18Zm.09-.57c.42,0,.75-.14,1.01-.42.25-.28.38-.64.38-1.1,0-.3-.06-.57-.18-.79s-.28-.41-.49-.54c-.21-.13-.45-.19-.73-.19s-.54.07-.76.2c-.22.13-.4.31-.52.54-.13.23-.19.49-.19.79s.06.56.19.78c.13.23.3.41.53.54.22.13.48.2.76.2Zm1.36.48v-1.07l.12-.99-.12-.96v-.98h.6v4h-.6Z"/><path d="m370.12,45.82v-4h.6v4h-.6Zm2.93,0v-2.35c0-.35-.1-.64-.31-.85s-.48-.33-.83-.33c-.23,0-.44.05-.62.15-.18.1-.32.24-.42.42-.1.18-.15.38-.15.6l-.27-.15c0-.3.07-.57.21-.81.14-.24.34-.43.58-.56.24-.14.52-.2.84-.2s.58.07.82.22.43.35.56.59c.13.25.2.52.2.82v2.45h-.61Z"/><path d="m376.65,45.91c-.41,0-.77-.09-1.09-.27-.32-.18-.57-.43-.76-.75-.19-.32-.28-.67-.28-1.07s.09-.74.27-1.06c.18-.31.43-.56.75-.74.31-.18.67-.27,1.06-.27.37,0,.69.08.97.25.28.16.51.39.67.68.16.29.24.63.24,1.01,0,.05,0,.1,0,.16,0,.06-.02.13-.03.21h-3.49v-.51h3.17l-.21.19c0-.29-.04-.55-.15-.76s-.26-.38-.45-.49-.44-.17-.72-.17-.55.06-.76.19-.39.3-.51.52c-.12.22-.18.49-.18.79s.06.58.19.81.31.41.54.54.5.2.8.2c.25,0,.47-.04.68-.13.21-.09.38-.22.52-.4l.39.39c-.19.22-.42.39-.7.51-.28.12-.58.18-.9.18Z"/><path d="m379.49,46.7l.49-.94.21-.05c-.02.05-.05.1-.09.13-.04.04-.09.06-.15.06-.11,0-.21-.04-.3-.13-.09-.09-.13-.2-.13-.33s.05-.25.15-.35.21-.15.35-.15.25.05.35.15.15.22.15.35c0,.06-.01.12-.03.2-.02.08-.06.18-.12.3l-.51.96-.36-.2Z"/><path d="m383.74,45.82v-5.85h.45l2.55,4.14h-.32l2.55-4.14h.45v5.85h-.63v-4.76l.15.03-2.13,3.46h-.45l-2.13-3.46.15-.03v4.76h-.63Z"/><path d="m392.52,45.91c-.38,0-.73-.09-1.03-.28-.3-.18-.54-.43-.72-.74-.17-.31-.26-.66-.26-1.05s.09-.75.26-1.07.41-.56.72-.75.64-.28,1.02-.28c.31,0,.58.06.83.18.24.12.44.29.59.51s.24.47.28.76v1.25c-.03.29-.13.54-.28.77-.15.22-.35.39-.59.51-.24.12-.52.18-.82.18Zm.09-.57c.42,0,.75-.14,1.01-.42.25-.28.38-.64.38-1.1,0-.3-.06-.57-.18-.79s-.28-.41-.49-.54c-.21-.13-.45-.19-.73-.19s-.54.07-.76.2c-.22.13-.4.31-.52.54-.13.23-.19.49-.19.79s.06.56.19.78c.13.23.3.41.53.54.22.13.48.2.76.2Zm1.36.48v-1.07l.12-.99-.12-.96v-.98h.6v4h-.6Z"/><path d="m395.79,45.82v-6.02h.6v6.02h-.6Zm2.93,0v-2.35c0-.35-.1-.64-.31-.85s-.48-.33-.83-.33c-.23,0-.44.05-.62.15-.18.1-.32.24-.42.42-.1.18-.15.38-.15.6l-.27-.15c0-.3.07-.57.21-.81.14-.24.34-.43.58-.56.24-.14.52-.2.84-.2s.58.07.82.21c.24.14.43.33.56.57s.2.53.2.85v2.45h-.61Z"/><path d="m402.2,45.91c-.38,0-.73-.09-1.03-.28-.3-.18-.54-.43-.72-.74-.17-.31-.26-.66-.26-1.05s.09-.75.26-1.07.41-.56.72-.75.64-.28,1.02-.28c.31,0,.58.06.83.18.24.12.44.29.59.51s.24.47.28.76v1.25c-.03.29-.13.54-.28.77-.15.22-.35.39-.59.51-.24.12-.52.18-.82.18Zm.09-.57c.42,0,.75-.14,1.01-.42.25-.28.38-.64.38-1.1,0-.3-.06-.57-.18-.79s-.28-.41-.49-.54c-.21-.13-.45-.19-.73-.19s-.54.07-.76.2c-.22.13-.4.31-.52.54-.13.23-.19.49-.19.79s.06.56.19.78c.13.23.3.41.53.54.22.13.48.2.76.2Zm1.36.48v-1.07l.12-.99-.12-.96v-.98h.6v4h-.6Z"/><path d="m405.47,45.82v-4h.6v4h-.6Zm.6-2.33l-.25-.11c0-.5.12-.9.37-1.2.25-.29.59-.44,1.03-.44.2,0,.38.04.55.11s.32.18.46.34l-.39.42c-.1-.11-.2-.18-.32-.23-.12-.04-.25-.07-.4-.07-.31,0-.56.1-.75.3-.19.2-.29.5-.29.89Z"/><path d="m410.48,45.91c-.38,0-.73-.09-1.03-.28-.3-.18-.54-.43-.72-.74-.17-.31-.26-.66-.26-1.05s.09-.75.26-1.07.41-.56.72-.75.64-.28,1.02-.28c.31,0,.58.06.83.18.24.12.44.29.59.51s.24.47.28.76v1.25c-.03.29-.13.54-.28.77-.15.22-.35.39-.59.51-.24.12-.52.18-.82.18Zm.09-.57c.42,0,.75-.14,1.01-.42.25-.28.38-.64.38-1.1,0-.3-.06-.57-.18-.79s-.28-.41-.49-.54c-.21-.13-.45-.19-.73-.19s-.54.07-.76.2c-.22.13-.4.31-.52.54-.13.23-.19.49-.19.79s.06.56.19.78c.13.23.3.41.53.54.22.13.48.2.76.2Zm1.36.48v-1.07l.12-.99-.12-.96v-.98h.6v4h-.6Z"/><path d="m414.99,45.91c-.22,0-.43-.03-.63-.09s-.38-.14-.54-.25c-.16-.11-.3-.24-.42-.38l.39-.39c.16.19.34.34.54.43.2.09.43.14.68.14.27,0,.48-.05.63-.15s.23-.24.23-.43c0-.17-.05-.3-.16-.4-.11-.1-.25-.17-.42-.23-.17-.06-.35-.11-.54-.17-.19-.05-.37-.12-.54-.2-.17-.08-.31-.2-.42-.34-.11-.15-.16-.34-.16-.58s.06-.42.17-.59c.11-.17.27-.3.48-.39.21-.09.46-.14.74-.14.3,0,.58.05.82.16.25.11.44.27.59.48l-.39.38c-.12-.15-.27-.27-.45-.35s-.38-.12-.6-.12c-.26,0-.45.05-.59.15-.13.1-.2.23-.2.39s.05.27.16.36c.11.09.25.16.42.21.17.05.35.11.54.16.19.05.37.12.54.21.17.09.31.21.42.36.11.15.16.35.16.61,0,.36-.13.64-.39.85s-.61.32-1.06.32Z"/><path d="m417.39,45.82v-6.02h.6v6.02h-.6Zm2.93,0v-2.35c0-.35-.1-.64-.31-.85s-.48-.33-.83-.33c-.23,0-.44.05-.62.15-.18.1-.32.24-.42.42-.1.18-.15.38-.15.6l-.27-.15c0-.3.07-.57.21-.81.14-.24.34-.43.58-.56.24-.14.52-.2.84-.2s.58.07.82.21c.24.14.43.33.56.57s.2.53.2.85v2.45h-.61Z"/><path d="m421.61,42.36v-.54h2.63v.54h-2.63Zm1.02,3.46v-5.68h.6v5.68h-.6Z"/><path d="m425.07,45.82v-4h.6v4h-.6Zm.6-2.33l-.25-.11c0-.5.12-.9.37-1.2.25-.29.59-.44,1.03-.44.2,0,.38.04.55.11s.32.18.46.34l-.39.42c-.1-.11-.2-.18-.32-.23-.12-.04-.25-.07-.4-.07-.31,0-.56.1-.75.3-.19.2-.29.5-.29.89Z"/><path d="m430.08,45.91c-.38,0-.73-.09-1.03-.28-.3-.18-.54-.43-.72-.74-.17-.31-.26-.66-.26-1.05s.09-.75.26-1.07.41-.56.72-.75.64-.28,1.02-.28c.31,0,.58.06.83.18.24.12.44.29.59.51s.24.47.28.76v1.25c-.03.29-.13.54-.28.77-.15.22-.35.39-.59.51-.24.12-.52.18-.82.18Zm.09-.57c.42,0,.75-.14,1.01-.42.25-.28.38-.64.38-1.1,0-.3-.06-.57-.18-.79s-.28-.41-.49-.54c-.21-.13-.45-.19-.73-.19s-.54.07-.76.2c-.22.13-.4.31-.52.54-.13.23-.19.49-.19.79s.06.56.19.78c.13.23.3.41.53.54.22.13.48.2.76.2Zm1.36.48v-1.07l.12-.99-.12-.96v-.98h.6v4h-.6Z"/><path d="m434.91,43.88l2.2-3.91h.7l-2.24,3.91h-.67Zm0,.39v-.39l.27-.17h4.2v.56h-4.47Zm2.98,1.55v-3.9h.62v3.9h-.62Z"/><path d="m442.53,45.91c-.43,0-.83-.12-1.19-.37s-.65-.6-.86-1.05c-.21-.45-.32-.99-.32-1.6s.11-1.15.32-1.59c.21-.44.5-.79.85-1.04.36-.25.75-.37,1.19-.37s.84.12,1.2.37.64.59.85,1.04c.21.45.32.98.32,1.6s-.11,1.14-.32,1.6c-.21.45-.49.8-.85,1.05-.35.24-.75.37-1.18.37Zm-.02-.59c.34,0,.64-.09.9-.28s.46-.46.61-.82c.15-.36.22-.8.22-1.32s-.07-.95-.22-1.31c-.15-.36-.35-.63-.61-.82s-.56-.28-.9-.28-.63.09-.89.28-.46.46-.61.82-.22.8-.22,1.32.07.96.22,1.32.35.63.61.82.56.28.89.28Z"/><path d="m448.17,45.91c-.43,0-.83-.12-1.19-.37s-.65-.6-.86-1.05c-.21-.45-.32-.99-.32-1.6s.11-1.15.32-1.59c.21-.44.5-.79.85-1.04.36-.25.75-.37,1.19-.37s.84.12,1.2.37.64.59.85,1.04c.21.45.32.98.32,1.6s-.11,1.14-.32,1.6c-.21.45-.49.8-.85,1.05-.35.24-.75.37-1.18.37Zm-.02-.59c.34,0,.64-.09.9-.28s.46-.46.61-.82c.15-.36.22-.8.22-1.32s-.07-.95-.22-1.31c-.15-.36-.35-.63-.61-.82s-.56-.28-.9-.28-.63.09-.89.28-.46.46-.61.82-.22.8-.22,1.32.07.96.22,1.32.35.63.61.82.56.28.89.28Z"/><path d="m453.4,45.91c-.38,0-.72-.09-1.03-.27-.31-.18-.55-.42-.73-.72s-.27-.63-.27-1c0-.5.17-.99.52-1.46l1.85-2.48h.74l-1.84,2.41-.22.08c.08-.1.17-.19.28-.26s.23-.13.36-.17c.14-.04.29-.06.47-.06.35,0,.67.08.95.25.29.17.51.4.69.68.17.29.26.62.26.99s-.09.7-.27,1.01-.43.55-.74.73c-.31.18-.65.27-1.03.27Zm0-.58c.26,0,.49-.06.71-.19s.38-.3.51-.52.19-.46.19-.72-.06-.51-.19-.72-.3-.39-.51-.51-.45-.19-.71-.19-.5.06-.72.19-.38.3-.51.51c-.12.21-.18.46-.18.73s.06.51.18.73c.12.22.29.39.51.51.21.12.45.19.72.19Z"/><path d="m458.65,45.91c-.43,0-.83-.12-1.19-.37s-.65-.6-.86-1.05c-.21-.45-.32-.99-.32-1.6s.11-1.15.32-1.59c.21-.44.5-.79.85-1.04.36-.25.75-.37,1.19-.37s.84.12,1.2.37.64.59.85,1.04c.21.45.32.98.32,1.6s-.11,1.14-.32,1.6c-.21.45-.49.8-.85,1.05-.35.24-.75.37-1.18.37Zm-.02-.59c.34,0,.64-.09.9-.28s.46-.46.61-.82c.15-.36.22-.8.22-1.32s-.07-.95-.22-1.31c-.15-.36-.35-.63-.61-.82s-.56-.28-.9-.28-.63.09-.89.28-.46.46-.61.82-.22.8-.22,1.32.07.96.22,1.32.35.63.61.82.56.28.89.28Z"/><path d="m461.77,40.53v-.55h1.78v.55h-1.78Zm1.24,5.3v-5.85h.62v5.85h-.62Z"/><path d="m465.05,46.7l.49-.94.21-.05c-.02.05-.05.1-.09.13-.04.04-.09.06-.15.06-.11,0-.21-.04-.3-.13-.09-.09-.13-.2-.13-.33s.05-.25.15-.35.21-.15.35-.15.25.05.35.15.15.22.15.35c0,.06-.01.12-.03.2-.02.08-.06.18-.12.3l-.51.96-.36-.2Z"/><path d="m469.31,45.82v-5.85h.63v5.85h-.63Z"/><path d="m471.3,45.82v-4h.6v4h-.6Zm2.93,0v-2.35c0-.35-.1-.64-.31-.85s-.48-.33-.83-.33c-.23,0-.44.05-.62.15-.18.1-.32.24-.42.42-.1.18-.15.38-.15.6l-.27-.15c0-.3.07-.57.21-.81.14-.24.34-.43.58-.56.24-.14.52-.2.84-.2s.58.07.82.22.43.35.56.59c.13.25.2.52.2.82v2.45h-.61Z"/><path d="m477.68,45.91c-.37,0-.71-.09-1-.27-.3-.18-.53-.43-.71-.74s-.26-.67-.26-1.06.09-.75.26-1.07.41-.56.71-.75.63-.28,1-.28c.3,0,.58.06.82.18.25.12.45.29.61.51.16.22.26.47.29.77v1.25c-.03.29-.13.54-.29.76-.16.22-.36.39-.6.51-.25.12-.52.19-.83.19Zm.1-.57c.28,0,.53-.06.74-.19.21-.13.38-.31.5-.54s.18-.49.18-.79-.06-.56-.18-.79c-.12-.23-.29-.4-.5-.54-.21-.13-.46-.2-.74-.2s-.53.07-.75.2c-.22.13-.39.31-.51.54-.12.23-.18.49-.18.79s.06.56.18.79c.12.23.29.41.51.54s.47.19.75.19Zm1.98.48h-.6v-1.07l.12-.99-.12-.96v-3h.6v6.02Z"/><path d="m481.29,40.96c-.11,0-.21-.04-.29-.12-.08-.08-.12-.18-.12-.29,0-.12.04-.22.12-.3.08-.08.18-.12.29-.12.13,0,.23.04.3.12.08.08.12.18.12.3s-.04.21-.12.29c-.08.08-.18.12-.3.12Zm-.3,4.86v-4h.61v4h-.61Z"/><path d="m484.56,45.91c-.38,0-.73-.09-1.03-.28-.3-.18-.54-.43-.72-.74-.17-.31-.26-.66-.26-1.05s.09-.75.26-1.07.41-.56.72-.75.64-.28,1.02-.28c.31,0,.58.06.83.18.24.12.44.29.59.51s.24.47.28.76v1.25c-.03.29-.13.54-.28.77-.15.22-.35.39-.59.51-.24.12-.52.18-.82.18Zm.09-.57c.42,0,.75-.14,1.01-.42.25-.28.38-.64.38-1.1,0-.3-.06-.57-.18-.79s-.28-.41-.49-.54c-.21-.13-.45-.19-.73-.19s-.54.07-.76.2c-.22.13-.4.31-.52.54-.13.23-.19.49-.19.79s.06.56.19.78c.13.23.3.41.53.54.22.13.48.2.76.2Zm1.36.48v-1.07l.12-.99-.12-.96v-.98h.6v4h-.6Z"/><path d="m343.96,69.37c-.34,0-.67-.06-.96-.19-.3-.13-.56-.31-.78-.54-.22-.23-.4-.49-.53-.8-.13-.3-.19-.63-.19-.98s.06-.68.19-.98c.13-.3.3-.57.53-.79s.49-.41.79-.53c.3-.13.63-.19.99-.19.39,0,.75.07,1.08.22.33.15.6.36.83.64l-.46.46c-.16-.22-.36-.4-.61-.51-.25-.12-.53-.18-.83-.18-.36,0-.67.08-.95.24-.28.16-.49.38-.64.66-.15.28-.23.6-.23.97s.08.69.23.97c.16.28.37.5.63.66.26.16.56.24.9.24s.64-.07.89-.2c.25-.13.45-.32.58-.58s.21-.57.21-.93l.4.29h-2.12v-.6h2.4v.1c0,.56-.1,1.04-.3,1.42-.2.38-.48.67-.83.86-.36.19-.76.29-1.22.29Z"/><path d="m348.47,69.37c-.39,0-.72-.07-.99-.21-.27-.14-.52-.34-.73-.61l.45-.45c.16.21.33.38.54.49.2.11.45.16.75.16s.53-.06.7-.19.27-.3.27-.52c0-.18-.04-.33-.13-.44-.08-.11-.2-.2-.34-.28-.14-.07-.3-.14-.47-.2-.17-.06-.34-.12-.51-.19-.17-.07-.33-.15-.47-.25-.14-.1-.26-.23-.34-.4-.09-.16-.13-.37-.13-.62,0-.28.07-.51.2-.7.13-.19.32-.34.55-.45.23-.1.5-.16.79-.16.32,0,.61.06.86.19.25.12.46.29.62.49l-.45.45c-.15-.17-.3-.29-.47-.38-.17-.08-.36-.13-.58-.13-.26,0-.47.06-.63.17-.16.11-.23.27-.23.48,0,.16.04.3.13.4.09.1.2.19.34.26.14.07.3.13.47.19.17.06.34.12.51.19s.33.16.47.27.26.25.34.42c.09.17.13.38.13.64,0,.43-.15.77-.45,1.01-.3.24-.7.36-1.21.36Z"/><path d="m350.43,65.05v-.6h3.99v.6h-3.99Zm1.67,4.26v-4.72h.66v4.72h-.66Z"/><path d="m355.21,69.3v-4.86h.66v4.86h-.66Z"/><path d="m357.04,69.3v-4.86h.47l.2.76v4.1h-.66Zm3.39,0l-3.01-3.98.08-.88,3.02,3.98-.09.88Zm0,0l-.2-.72v-4.14h.66v4.86h-.47Z"/><path d="m362.43,67.19c-.13,0-.24-.04-.33-.13-.09-.09-.13-.2-.13-.32,0-.14.04-.25.13-.33.09-.09.2-.13.33-.13s.24.04.33.13c.09.09.13.2.13.33,0,.13-.04.23-.13.32-.09.09-.2.13-.33.13Zm0,2.18c-.13,0-.24-.05-.33-.14-.09-.09-.13-.2-.13-.32,0-.14.04-.25.13-.33.09-.09.2-.13.33-.13s.24.04.33.13c.09.09.13.2.13.33,0,.12-.04.23-.13.32-.09.09-.2.14-.33.14Z"/><path d="m365.09,68.91l1.81-1.89c.18-.19.33-.35.43-.49s.18-.27.22-.38c.04-.12.07-.24.07-.36,0-.25-.08-.44-.24-.58-.16-.14-.37-.21-.62-.21s-.47.06-.66.18c-.19.12-.36.3-.5.55l-.47-.39c.19-.32.43-.56.7-.72.27-.16.59-.24.95-.24.3,0,.56.06.79.18s.4.28.52.49c.12.21.18.46.18.74,0,.2-.02.38-.07.54s-.14.32-.26.49c-.12.17-.3.36-.52.59l-1.46,1.49-.86.02Zm0,.4v-.4l.57-.19h2.73v.59h-3.29Z"/><path d="m368.72,65.03v-.59h3.26v.41l-.29.18h-2.97Zm.77,4.27l1.84-4.47.66.02-1.79,4.45h-.7Z"/><path d="m372.42,69.3l2.01-4.86h.48l2,4.86h-.72l-1.65-4.11h.25l-1.66,4.11h-.71Zm.95-1.1v-.57h2.58v.57h-2.58Z"/><path d="m377.07,69.3l2.01-4.86h.48l2,4.86h-.72l-1.65-4.11h.25l-1.66,4.11h-.71Zm.95-1.1v-.57h2.58v.57h-2.58Z"/><path d="m384.2,69.37c-.34,0-.67-.06-.96-.19-.3-.13-.56-.31-.78-.54-.22-.23-.4-.49-.53-.8-.13-.3-.19-.63-.19-.98s.06-.68.19-.98c.13-.3.3-.57.53-.79s.49-.41.79-.53c.3-.13.63-.19.99-.19.39,0,.75.07,1.08.22.33.15.6.36.83.64l-.46.46c-.16-.22-.36-.4-.61-.51-.25-.12-.53-.18-.83-.18-.36,0-.67.08-.95.24-.28.16-.49.38-.64.66-.15.28-.23.6-.23.97s.08.69.23.97c.16.28.37.5.63.66.26.16.56.24.9.24s.64-.07.89-.2c.25-.13.45-.32.58-.58s.21-.57.21-.93l.4.29h-2.12v-.6h2.4v.1c0,.56-.1,1.04-.3,1.42-.2.38-.48.67-.83.86-.36.19-.76.29-1.22.29Z"/><path d="m389.71,69.37c-.35,0-.68-.06-.98-.19s-.56-.31-.79-.54c-.22-.23-.4-.49-.52-.8s-.18-.63-.18-.97.06-.68.18-.98c.12-.3.3-.57.52-.79.22-.23.48-.4.78-.53.3-.13.62-.19.98-.19.39,0,.73.07,1.02.2.29.13.55.31.78.53l-.46.46c-.16-.17-.35-.31-.57-.41-.22-.1-.48-.15-.77-.15-.26,0-.5.05-.71.14-.22.09-.4.22-.56.39s-.28.37-.37.59c-.09.23-.13.48-.13.75s.04.52.13.75c.09.23.21.43.37.6s.35.3.56.39c.22.09.45.14.71.14.31,0,.57-.05.8-.15s.42-.24.57-.41l.46.45c-.23.23-.49.42-.79.55-.3.13-.65.2-1.03.2Z"/><path d="m392.35,69.3v-4.86h.66v4.86h-.66Z"/><path d="m395.92,69.37c-.37,0-.7-.1-1.01-.31-.3-.21-.55-.5-.72-.87-.18-.38-.27-.82-.27-1.33s.09-.95.27-1.32c.18-.37.42-.66.72-.86.3-.2.63-.3,1-.3s.71.1,1.01.3c.3.2.54.49.72.86.18.37.27.82.27,1.33s-.09.95-.27,1.33c-.18.38-.41.67-.71.87-.3.2-.63.3-.99.3Zm-.01-.62c.26,0,.49-.07.68-.21.2-.14.35-.35.46-.63.11-.28.17-.63.17-1.04s-.06-.75-.17-1.03c-.11-.28-.27-.49-.47-.63-.2-.14-.43-.21-.69-.21s-.48.07-.68.21c-.2.14-.35.35-.46.63-.11.28-.17.62-.17,1.03s.06.76.17,1.04c.11.28.26.49.46.63.2.14.43.21.69.21Z"/><path d="m398.18,65.03v-.59h3.26v.41l-.29.18h-2.97Zm.77,4.27l1.84-4.47.66.02-1.79,4.45h-.7Z"/><path d="m401.83,68.91l1.81-1.89c.18-.19.33-.35.43-.49s.18-.27.22-.38c.04-.12.07-.24.07-.36,0-.25-.08-.44-.24-.58-.16-.14-.37-.21-.62-.21s-.47.06-.66.18c-.19.12-.36.3-.5.55l-.47-.39c.19-.32.43-.56.7-.72.27-.16.59-.24.95-.24.3,0,.56.06.79.18s.4.28.52.49c.12.21.18.46.18.74,0,.2-.02.38-.07.54s-.14.32-.26.49c-.12.17-.3.36-.52.59l-1.46,1.49-.86.02Zm0,.4v-.4l.57-.19h2.73v.59h-3.29Z"/><path d="m406.46,69.3l1.48-2,.24-.13c-.06.09-.12.18-.21.25s-.18.12-.29.16c-.12.04-.26.06-.42.06-.28,0-.54-.07-.78-.2s-.43-.32-.57-.56c-.14-.24-.21-.51-.21-.82s.08-.6.23-.85c.16-.25.36-.46.62-.61.26-.15.55-.23.86-.23s.61.07.87.22c.26.15.46.35.61.6s.23.53.23.84c0,.43-.15.86-.45,1.28l-1.44,1.98h-.77Zm.95-2.18c.2,0,.38-.05.53-.14s.28-.22.37-.39.14-.34.14-.54-.05-.39-.14-.55-.22-.29-.37-.38-.34-.14-.53-.14-.38.05-.53.14-.28.22-.38.38-.14.34-.14.55.05.38.14.54c.09.16.22.29.38.38s.34.14.53.14Z"/><path d="m409.98,69.3v-4.86h.47l2.08,3.38h-.32l2.08-3.38h.47v4.86h-.66v-3.7l.16.04-1.64,2.67h-.47l-1.64-2.67.15-.04v3.7h-.66Z"/><path d="m415.55,65.03v-.59h1.59v.59h-1.59Zm1,4.27v-4.86h.66v4.86h-.66Z"/><path d="m418.06,68.85l2.77-3.96h.78l-2.77,3.96h-.78Zm0,.46v-.46l.57-.15h2.93v.6h-3.5Zm.15-4.26v-.6h3.4v.45l-.57.15h-2.83Z"/><path d="m422.48,69.3v-4.86h.66v4.86h-.66Zm.45,0v-.57h1.48c.28,0,.5-.08.66-.25.16-.17.24-.37.24-.6,0-.16-.04-.3-.11-.43-.07-.13-.17-.23-.31-.3s-.29-.11-.47-.11h-1.5v-.57h1.41c.24,0,.42-.06.56-.19.14-.12.21-.3.21-.54s-.07-.41-.22-.54c-.15-.12-.34-.19-.58-.19h-1.38v-.57h1.39c.32,0,.59.06.8.17s.38.27.49.45.17.39.17.62c0,.26-.07.49-.22.69-.14.2-.35.35-.63.46l.06-.21c.32.11.56.28.74.51.18.23.26.49.26.8,0,.26-.06.49-.19.69-.13.21-.31.37-.55.49s-.53.19-.87.19h-1.45Z"/><path d="m232.29,69.38c-.35,0-.67-.06-.97-.19-.3-.13-.56-.3-.78-.53-.22-.23-.39-.49-.51-.79-.12-.3-.18-.62-.18-.97s.06-.67.18-.97c.12-.3.29-.56.51-.79.22-.22.48-.4.77-.52.3-.13.62-.19.96-.19.37,0,.71.07,1,.2s.55.31.77.54l-.35.35c-.17-.19-.37-.33-.61-.44s-.51-.16-.81-.16c-.27,0-.52.05-.75.15s-.43.24-.6.42-.3.39-.4.63c-.09.24-.14.5-.14.79s.05.55.14.79.23.45.4.63c.17.18.37.32.6.42.23.1.48.15.76.15.31,0,.59-.05.83-.16s.45-.25.62-.44l.35.36c-.22.23-.48.41-.78.54-.3.13-.64.2-1.01.2Z"/><path d="m234.98,69.31v-4.82h.52v4.82h-.52Z"/><path d="m236.74,69.31v-4.82h.37l.15.61v4.21h-.52Zm3.36,0l-3.07-4.13.08-.69,3.07,4.13-.07.69Zm0,0l-.16-.58v-4.23h.52v4.82h-.37Z"/><path d="m242.04,67.17c-.12,0-.21-.04-.29-.12-.07-.08-.11-.17-.11-.28,0-.12.04-.21.11-.29.07-.07.17-.11.29-.11s.21.04.29.11c.08.07.12.17.12.29,0,.11-.04.2-.12.28-.08.08-.17.12-.29.12Zm0,2.2c-.12,0-.21-.04-.29-.12-.07-.08-.11-.17-.11-.28,0-.12.04-.21.11-.29.07-.08.17-.12.29-.12s.21.04.29.12c.08.08.12.17.12.29,0,.11-.04.2-.12.28-.08.08-.17.12-.29.12Z"/><path d="m246.91,69.38c-.35,0-.67-.08-.94-.23-.28-.16-.49-.37-.65-.64s-.24-.58-.24-.92v-3.09h.52v3.06c0,.27.06.51.17.71.11.2.27.35.47.46s.43.16.67.16.47-.05.67-.16c.2-.11.35-.26.47-.46.12-.2.17-.43.17-.7v-3.07h.52v3.09c0,.34-.08.65-.24.92-.16.27-.37.48-.65.64-.28.16-.59.23-.94.23Z"/><path d="m249.55,64.95v-.46h3.21v.32l-.23.13h-2.98Zm.84,4.36l1.87-4.53.5.03-1.83,4.49h-.54Z"/><path d="m253.2,68.99l1.8-1.86c.21-.22.37-.4.48-.55.12-.15.2-.29.24-.41.04-.12.07-.25.07-.39,0-.28-.09-.49-.26-.65-.17-.16-.41-.23-.69-.23-.26,0-.49.06-.69.19-.2.12-.37.31-.53.56l-.36-.31c.19-.29.41-.52.68-.67.26-.15.57-.23.92-.23.29,0,.55.06.77.17.22.11.39.27.51.48.12.21.18.45.18.72,0,.19-.03.37-.08.52s-.14.32-.27.49-.31.38-.55.62l-1.53,1.55-.69.02Zm0,.31v-.31l.42-.15h2.8v.46h-3.23Z"/><path d="m257.85,69.31l1.52-1.99.18-.07c-.07.08-.14.16-.23.22s-.18.11-.3.14c-.11.03-.24.05-.39.05-.29,0-.55-.07-.78-.21-.24-.14-.42-.33-.57-.57-.14-.24-.22-.51-.22-.8s.08-.59.23-.84c.15-.25.36-.45.61-.6s.53-.22.84-.22.6.07.85.22.45.34.6.59c.15.25.22.52.22.83,0,.41-.14.81-.43,1.2l-1.53,2.05h-.61Zm.9-2.06c.22,0,.41-.05.59-.15.17-.1.31-.24.41-.42.1-.18.15-.38.15-.59s-.05-.42-.15-.6c-.1-.18-.24-.32-.41-.42s-.37-.16-.59-.16-.41.05-.59.16-.31.25-.42.43-.16.38-.16.6.05.41.16.59.24.32.42.42.37.16.58.16Z"/><path d="m263.07,69.38c-.36,0-.69-.1-.98-.3-.3-.2-.53-.49-.71-.86-.18-.37-.26-.81-.26-1.32s.09-.95.26-1.31.41-.65.7-.85.62-.3.98-.3.69.1.99.3c.29.2.53.49.7.86s.26.81.26,1.32-.09.94-.26,1.32c-.17.37-.41.66-.7.86-.29.2-.62.3-.98.3Zm-.01-.48c.28,0,.52-.08.74-.23s.38-.38.51-.68c.12-.3.18-.66.18-1.09s-.06-.79-.18-1.08c-.12-.3-.29-.52-.51-.68-.21-.15-.46-.23-.74-.23s-.52.08-.73.23c-.21.15-.38.38-.5.67s-.18.66-.18,1.08.06.79.18,1.09c.12.3.29.52.5.68s.46.23.73.23Z"/><path d="m267.71,69.38c-.36,0-.69-.1-.98-.3-.3-.2-.53-.49-.71-.86-.18-.37-.26-.81-.26-1.32s.09-.95.26-1.31.41-.65.7-.85.62-.3.98-.3.69.1.99.3c.29.2.53.49.7.86s.26.81.26,1.32-.09.94-.26,1.32c-.17.37-.41.66-.7.86-.29.2-.62.3-.98.3Zm-.01-.48c.28,0,.52-.08.74-.23s.38-.38.51-.68c.12-.3.18-.66.18-1.09s-.06-.79-.18-1.08c-.12-.3-.29-.52-.51-.68-.21-.15-.46-.23-.74-.23s-.52.08-.73.23c-.21.15-.38.38-.5.67s-.18.66-.18,1.08.06.79.18,1.09c.12.3.29.52.5.68s.46.23.73.23Z"/><path d="m270.64,69.31v-4.82h.37l2.1,3.41h-.26l2.1-3.41h.37v4.82h-.52v-3.92l.12.03-1.75,2.85h-.37l-1.75-2.85.12-.03v3.92h-.52Z"/><path d="m276.55,69.31v-4.82h.52v4.82h-.52Zm.34-2.25v-.47h2.99v.47h-2.99Zm2.85,2.25v-4.82h.52v4.82h-.52Z"/><path d="m281.14,68.99l1.8-1.86c.21-.22.37-.4.48-.55.12-.15.2-.29.24-.41.04-.12.07-.25.07-.39,0-.28-.09-.49-.26-.65-.17-.16-.41-.23-.69-.23-.26,0-.49.06-.69.19-.2.12-.37.31-.53.56l-.36-.31c.19-.29.41-.52.68-.67.26-.15.57-.23.92-.23.29,0,.55.06.77.17.22.11.39.27.51.48.12.21.18.45.18.72,0,.19-.03.37-.08.52s-.14.32-.27.49-.31.38-.55.62l-1.53,1.55-.69.02Zm0,.31v-.31l.42-.15h2.8v.46h-3.23Z"/><path d="m287.02,69.38c-.36,0-.69-.1-.98-.3-.3-.2-.53-.49-.71-.86-.18-.37-.26-.81-.26-1.32s.09-.95.26-1.31.41-.65.7-.85.62-.3.98-.3.69.1.99.3c.29.2.53.49.7.86s.26.81.26,1.32-.09.94-.26,1.32c-.17.37-.41.66-.7.86-.29.2-.62.3-.98.3Zm-.01-.48c.28,0,.52-.08.74-.23s.38-.38.51-.68c.12-.3.18-.66.18-1.09s-.06-.79-.18-1.08c-.12-.3-.29-.52-.51-.68-.21-.15-.46-.23-.74-.23s-.52.08-.73.23c-.21.15-.38.38-.5.67s-.18.66-.18,1.08.06.79.18,1.09c.12.3.29.52.5.68s.46.23.73.23Z"/><path d="m289.57,68.99l1.8-1.86c.21-.22.37-.4.48-.55.12-.15.2-.29.24-.41.04-.12.07-.25.07-.39,0-.28-.09-.49-.26-.65-.17-.16-.41-.23-.69-.23-.26,0-.49.06-.69.19-.2.12-.37.31-.53.56l-.36-.31c.19-.29.41-.52.68-.67.26-.15.57-.23.92-.23.29,0,.55.06.77.17.22.11.39.27.51.48.12.21.18.45.18.72,0,.19-.03.37-.08.52s-.14.32-.27.49-.31.38-.55.62l-1.53,1.55-.69.02Zm0,.31v-.31l.42-.15h2.8v.46h-3.23Z"/><path d="m293.37,64.95v-.46h1.46v.46h-1.46Zm1.02,4.36v-4.82h.51v4.82h-.51Z"/><path d="m296.13,69.31v-4.82h.52v4.82h-.52Zm.33-1.93v-.46h1.43c.2,0,.38-.04.53-.12.16-.08.28-.19.37-.34s.14-.32.14-.53-.05-.38-.14-.53-.22-.26-.37-.34c-.16-.08-.34-.12-.53-.12h-1.43v-.45h1.47c.29,0,.55.06.78.18.23.12.41.29.55.5.13.21.2.47.2.76s-.07.54-.2.76c-.13.22-.32.38-.55.5-.23.12-.49.18-.78.18h-1.47Z"/><path d="m299.88,64.96v-.47h3.94v.47h-3.94Zm1.71,4.35v-4.68h.52v4.68h-.52Z"/><path d="m306.53,69.38c-.35,0-.67-.06-.97-.19-.3-.13-.56-.3-.78-.53-.22-.23-.39-.49-.51-.79-.12-.3-.18-.62-.18-.97s.06-.67.18-.97c.12-.3.29-.56.51-.79.22-.22.48-.4.77-.52.3-.13.62-.19.96-.19.37,0,.71.07,1,.2s.55.31.77.54l-.35.35c-.17-.19-.37-.33-.61-.44s-.51-.16-.81-.16c-.27,0-.52.05-.75.15s-.43.24-.6.42-.3.39-.4.63c-.09.24-.14.5-.14.79s.05.55.14.79.23.45.4.63c.17.18.37.32.6.42.23.1.48.15.76.15.31,0,.59-.05.83-.16s.45-.25.62-.44l.35.36c-.22.23-.48.41-.78.54-.3.13-.64.2-1.01.2Z"/><path d="m310.35,69.38c-.31,0-.59-.06-.85-.18-.26-.12-.47-.3-.65-.53l.35-.34c.12.18.28.32.48.42.2.1.42.15.66.15s.44-.04.61-.13c.17-.09.31-.21.4-.37.1-.16.15-.35.15-.56s-.05-.41-.15-.57c-.1-.16-.23-.28-.41-.37-.18-.09-.39-.13-.63-.13-.08,0-.16,0-.24.01s-.16.03-.24.05l.2-.29c.08-.04.17-.07.26-.1s.2-.04.31-.04c.27,0,.51.06.73.19s.39.29.51.51c.12.22.19.47.19.75,0,.3-.07.57-.21.8-.14.23-.34.41-.59.54-.25.13-.54.2-.87.2Zm-1.29-4.43v-.46h2.9v.31l-.45.14h-2.46Zm.76,1.87v-.31l1.54-1.71.6.02-1.57,1.74-.57.27Z"/><path d="m314.13,69.38c-.32,0-.61-.06-.86-.18-.25-.12-.47-.3-.64-.53l.35-.34c.12.18.28.32.48.42.2.1.43.15.67.15.24,0,.44-.05.62-.14.18-.09.32-.22.42-.39.1-.17.15-.36.15-.58s-.05-.43-.15-.59c-.1-.17-.23-.29-.4-.38-.17-.09-.36-.13-.57-.13s-.39.03-.55.08c-.17.05-.32.14-.46.26v-.34c.07-.09.17-.17.28-.23s.23-.11.36-.14.28-.05.45-.05c.32,0,.6.07.84.21.24.14.42.32.54.56.12.23.19.5.19.79s-.07.57-.22.81-.35.42-.6.55-.55.2-.89.2Zm-.95-2.36l-.28-.28.21-2.25h.47l-.23,2.3-.18.23Zm.06-2.07l-.13-.46h2.5v.46h-2.37Z"/><path d="m316.19,64.95v-.46h3.21v.32l-.23.13h-2.98Zm.84,4.36l1.87-4.53.5.03-1.83,4.49h-.54Z"/><path d="m321.24,69.38c-.31,0-.59-.06-.85-.18-.26-.12-.47-.3-.65-.53l.35-.34c.12.18.28.32.48.42.2.1.42.15.66.15s.44-.04.61-.13c.17-.09.31-.21.4-.37.1-.16.15-.35.15-.56s-.05-.41-.15-.57c-.1-.16-.23-.28-.41-.37-.18-.09-.39-.13-.63-.13-.08,0-.16,0-.24.01s-.16.03-.24.05l.2-.29c.08-.04.17-.07.26-.1s.2-.04.31-.04c.27,0,.51.06.73.19s.39.29.51.51c.12.22.19.47.19.75,0,.3-.07.57-.21.8-.14.23-.34.41-.59.54-.25.13-.54.2-.87.2Zm-1.29-4.43v-.46h2.9v.31l-.45.14h-2.46Zm.76,1.87v-.31l1.54-1.71.6.02-1.57,1.74-.57.27Z"/><path d="m325.26,69.38c-.31,0-.59-.07-.84-.22s-.45-.34-.6-.59c-.15-.25-.22-.52-.22-.83,0-.41.14-.81.43-1.2l1.53-2.04h.61l-1.51,1.98-.18.07c.07-.08.14-.15.23-.21.09-.06.19-.1.3-.14.11-.03.24-.05.39-.05.29,0,.55.07.78.21.24.14.42.33.57.56.14.24.21.51.21.81s-.08.58-.23.83-.35.45-.61.6-.54.22-.85.22Zm0-.48c.21,0,.41-.05.58-.16.18-.1.32-.25.42-.43.1-.18.16-.38.16-.59s-.05-.42-.16-.59c-.1-.18-.24-.32-.42-.42-.18-.1-.37-.16-.58-.16s-.41.05-.59.16c-.18.1-.32.25-.42.42-.1.18-.15.37-.15.6s.05.42.15.6c.1.18.24.32.42.42.18.1.37.15.59.15Z"/><path d="m329.59,69.38c-.36,0-.69-.1-.98-.3-.3-.2-.53-.49-.71-.86-.18-.37-.26-.81-.26-1.32s.09-.95.26-1.31.41-.65.7-.85.62-.3.98-.3.69.1.99.3c.29.2.53.49.7.86s.26.81.26,1.32-.09.94-.26,1.32c-.17.37-.41.66-.7.86-.29.2-.62.3-.98.3Zm-.01-.48c.28,0,.52-.08.74-.23s.38-.38.51-.68c.12-.3.18-.66.18-1.09s-.06-.79-.18-1.08c-.12-.3-.29-.52-.51-.68-.21-.15-.46-.23-.74-.23s-.52.08-.73.23c-.21.15-.38.38-.5.67s-.18.66-.18,1.08.06.79.18,1.09c.12.3.29.52.5.68s.46.23.73.23Z"/><path class="cls-2" d="m336.16,63.45c.51,2.42.52,4.86,0,7.29-.52-2.42-.51-4.86,0-7.29h0Z"/><path d="m436.61,69.3v-4.82h.52v4.82h-.52Z"/><path d="m438.36,69.3v-4.82h.52v4.82h-.52Zm.34-4.35v-.47h2.82v.47h-2.82Zm0,2.11v-.45h2.64v.45h-2.64Zm0,2.24v-.47h2.86v.47h-2.86Z"/><path d="m444.62,69.37c-.35,0-.67-.06-.97-.19-.3-.13-.56-.3-.78-.53-.22-.23-.39-.49-.51-.79-.12-.3-.18-.62-.18-.97s.06-.67.18-.97c.12-.3.29-.56.51-.79.22-.22.48-.4.77-.52.3-.13.62-.19.96-.19.37,0,.71.07,1,.2s.55.31.77.54l-.35.35c-.17-.19-.37-.33-.61-.44s-.51-.16-.81-.16c-.27,0-.52.05-.75.15s-.43.24-.6.42-.3.39-.4.63c-.09.24-.14.5-.14.79s.05.55.14.79.23.45.4.63c.17.18.37.32.6.42.23.1.48.15.76.15.31,0,.59-.05.83-.16s.45-.25.62-.44l.35.36c-.22.23-.48.41-.78.54-.3.13-.64.2-1.01.2Z"/><path d="m447.64,67.17c-.12,0-.21-.04-.29-.12-.07-.08-.11-.17-.11-.28,0-.12.04-.21.11-.29.07-.07.17-.11.29-.11s.21.04.29.11c.08.07.12.17.12.29,0,.11-.04.2-.12.28-.08.08-.17.12-.29.12Zm0,2.2c-.12,0-.21-.04-.29-.12-.07-.08-.11-.17-.11-.28,0-.12.04-.21.11-.29.07-.08.17-.12.29-.12s.21.04.29.12c.08.08.12.17.12.29,0,.11-.04.2-.12.28-.08.08-.17.12-.29.12Z"/><path d="m450.18,69.3l1.99-4.82h.39l1.97,4.82h-.56l-1.72-4.26h.21l-1.73,4.26h-.55Zm.91-1.25v-.46h2.54v.46h-2.54Z"/><path d="m454.78,69.3l1.99-4.82h.39l1.97,4.82h-.56l-1.72-4.26h.21l-1.73,4.26h-.55Zm.91-1.25v-.46h2.54v.46h-2.54Z"/><path d="m461.83,69.37c-.34,0-.66-.06-.96-.19-.3-.13-.56-.3-.78-.52-.22-.22-.39-.49-.52-.79-.12-.3-.18-.63-.18-.98s.06-.67.19-.97c.12-.3.3-.56.52-.79.22-.23.48-.4.78-.53.3-.13.63-.19.98-.19.39,0,.75.08,1.08.23.33.15.6.37.81.65l-.36.36c-.17-.24-.39-.42-.65-.55s-.56-.19-.88-.19c-.38,0-.72.08-1.01.26-.29.17-.52.41-.68.7-.16.3-.24.64-.24,1.03s.08.72.24,1.02c.16.3.39.53.67.7.28.17.61.26.97.26s.68-.07.94-.22.47-.35.61-.63.22-.61.22-.99l.3.22h-2.13v-.47h2.37v.08c0,.54-.1,1-.29,1.37-.2.37-.47.66-.81.85s-.74.29-1.2.29Z"/><path d="m467.33,69.37c-.35,0-.67-.06-.97-.19-.3-.13-.56-.3-.78-.53-.22-.23-.39-.49-.51-.79-.12-.3-.18-.62-.18-.97s.06-.67.18-.97c.12-.3.29-.56.51-.79.22-.22.48-.4.77-.52.3-.13.62-.19.96-.19.37,0,.71.07,1,.2s.55.31.77.54l-.35.35c-.17-.19-.37-.33-.61-.44s-.51-.16-.81-.16c-.27,0-.52.05-.75.15s-.43.24-.6.42-.3.39-.4.63c-.09.24-.14.5-.14.79s.05.55.14.79.23.45.4.63c.17.18.37.32.6.42.23.1.48.15.76.15.31,0,.59-.05.83-.16s.45-.25.62-.44l.35.36c-.22.23-.48.41-.78.54-.3.13-.64.2-1.01.2Z"/><path d="m470.02,69.3v-4.82h.52v4.82h-.52Z"/><path d="m473.49,69.37c-.36,0-.69-.1-.98-.3-.3-.2-.53-.49-.71-.86-.18-.37-.26-.81-.26-1.32s.09-.95.26-1.31.41-.65.7-.85.62-.3.98-.3.69.1.99.3c.29.2.53.49.7.86s.26.81.26,1.32-.09.94-.26,1.32c-.17.37-.41.66-.7.86-.29.2-.62.3-.98.3Zm-.01-.48c.28,0,.52-.08.74-.23s.38-.38.51-.68c.12-.3.18-.66.18-1.09s-.06-.79-.18-1.08c-.12-.3-.29-.52-.51-.68-.21-.15-.46-.23-.74-.23s-.52.08-.73.23c-.21.15-.38.38-.5.67s-.18.66-.18,1.08.06.79.18,1.09c.12.3.29.52.5.68s.46.23.73.23Z"/><path d="m475.77,64.94v-.46h3.21v.32l-.23.13h-2.98Zm.84,4.36l1.87-4.53.5.03-1.83,4.49h-.54Z"/><path d="m479.42,68.99l1.8-1.86c.21-.22.37-.4.48-.55.12-.15.2-.29.24-.41.04-.12.07-.25.07-.39,0-.28-.09-.49-.26-.65-.17-.16-.41-.23-.69-.23-.26,0-.49.06-.69.19-.2.12-.37.31-.53.56l-.36-.31c.19-.29.41-.52.68-.67.26-.15.57-.23.92-.23.29,0,.55.06.77.17.22.11.39.27.51.48.12.21.18.45.18.72,0,.19-.03.37-.08.52s-.14.32-.27.49-.31.38-.55.62l-1.53,1.55-.69.02Zm0,.31v-.31l.42-.15h2.8v.46h-3.23Z"/><path d="m484.07,69.3l1.52-1.99.18-.07c-.07.08-.14.16-.23.22s-.18.11-.3.14c-.11.03-.24.05-.39.05-.29,0-.55-.07-.78-.21-.24-.14-.42-.33-.57-.57-.14-.24-.22-.51-.22-.8s.08-.59.23-.84c.15-.25.36-.45.61-.6s.53-.22.84-.22.6.07.85.22.45.34.6.59c.15.25.22.52.22.83,0,.41-.14.81-.43,1.2l-1.53,2.05h-.61Zm.9-2.06c.22,0,.41-.05.59-.15.17-.1.31-.24.41-.42.1-.18.15-.38.15-.59s-.05-.42-.15-.6c-.1-.18-.24-.32-.41-.42s-.37-.16-.59-.16-.41.05-.59.16-.31.25-.42.43-.16.38-.16.6.05.41.16.59.24.32.42.42.37.16.58.16Z"/><path d="m487.58,69.3v-4.82h.37l2.1,3.41h-.26l2.1-3.41h.37v4.82h-.52v-3.92l.12.03-1.75,2.85h-.37l-1.75-2.85.12-.03v3.92h-.52Z"/><path d="m493.12,64.94v-.46h1.46v.46h-1.46Zm1.02,4.36v-4.82h.51v4.82h-.51Z"/><path d="m495.56,68.96l2.84-4.13h.61l-2.84,4.13h-.61Zm0,.34v-.34l.45-.13h2.95v.47h-3.4Zm.13-4.35v-.47h3.32v.34l-.45.13h-2.87Z"/><path d="m499.95,69.3v-4.82h.52v4.82h-.52Zm.33,0v-.46h1.54c.32,0,.57-.09.76-.27.18-.18.28-.4.28-.67,0-.17-.04-.33-.12-.47s-.19-.25-.34-.33c-.15-.08-.32-.12-.53-.12h-1.58v-.45h1.5c.26,0,.47-.07.63-.21.15-.14.23-.34.23-.6s-.08-.46-.25-.6c-.17-.14-.39-.21-.66-.21h-1.45v-.45h1.46c.3,0,.56.05.77.16s.37.25.48.43c.11.18.16.39.16.62,0,.27-.07.5-.21.7-.14.19-.35.34-.62.44l.05-.17c.32.1.56.26.74.48.18.22.27.49.27.8,0,.26-.06.49-.19.69-.12.2-.31.36-.54.48-.24.12-.52.18-.86.18h-1.5Z"/><path class="cls-2" d="m430.98,63.45c.51,2.42.52,4.86,0,7.29-.52-2.42-.51-4.86,0-7.29h0Z"/><path d="m230.61,24.6v-9.45h1.73v9.45h-1.73Z"/><path d="m234.61,24.6v-9.45h1.73v9.45h-1.73Zm1.19,0v-1.42h2.76c.72,0,1.35-.14,1.9-.42s.97-.67,1.27-1.17.46-1.08.46-1.73-.15-1.22-.46-1.71c-.31-.49-.74-.88-1.28-1.16-.54-.28-1.17-.42-1.88-.42h-2.76v-1.42h2.8c.76,0,1.46.12,2.12.36.65.24,1.22.57,1.7,1,.49.43.86.93,1.13,1.5.27.57.4,1.19.4,1.87s-.13,1.29-.4,1.86c-.27.58-.65,1.08-1.12,1.5-.48.43-1.04.76-1.7,1-.65.24-1.35.36-2.1.36h-2.83Z"/><path d="m245.71,24.6v-9.45h1.2l4.37,6.47h-.78l4.37-6.47h1.2v9.45h-1.73v-6.72l.39.09-3.24,4.79h-1.2l-3.24-4.79.39-.09v6.72h-1.73Z"/><path d="m261.06,24.74c-.83,0-1.54-.13-2.11-.4-.58-.27-1.1-.67-1.56-1.19l1.17-1.05c.29.38.63.67,1.04.88.4.21.91.32,1.53.32.58,0,1.04-.11,1.39-.32.34-.22.52-.51.52-.89,0-.31-.09-.57-.27-.77-.18-.2-.42-.36-.71-.49s-.62-.25-.98-.35-.71-.22-1.06-.35-.68-.29-.97-.49c-.3-.2-.53-.45-.71-.77-.18-.31-.27-.72-.27-1.2,0-.56.15-1.03.46-1.42.31-.39.72-.69,1.24-.9.52-.21,1.1-.31,1.74-.31.69,0,1.31.12,1.85.36.54.24.99.55,1.33.93l-1.17,1.05c-.3-.31-.61-.53-.94-.68-.33-.15-.7-.22-1.12-.22-.52,0-.93.09-1.22.28s-.44.45-.44.8c0,.29.09.52.27.7.18.18.42.32.71.45.29.12.62.24.98.34.35.11.71.23,1.06.36.35.13.68.31.98.52.29.21.53.48.71.82.18.33.27.75.27,1.26,0,.85-.33,1.52-1,2.01s-1.56.74-2.69.74Z"/><path d="m269.47,24.6v-9.45h1.73v9.45h-1.73Z"/><path d="m273.48,24.6v-9.45h1.2l.53,1.78v7.67h-1.73Zm7.27,0l-6.29-7.38.21-2.07,6.29,7.38-.21,2.07Zm0,0l-.52-1.66v-7.79h1.73v9.45h-1.2Z"/><path d="m284.23,24.6v-9.45h1.73v9.45h-1.73Zm1.19-8.03v-1.42h5.59v1.42h-5.59Zm0,3.98v-1.42h5.34v1.42h-5.34Z"/><path d="m297.4,24.74c-.75,0-1.45-.13-2.1-.38-.65-.25-1.22-.6-1.71-1.05-.49-.45-.87-.96-1.15-1.55-.28-.59-.41-1.22-.41-1.9s.14-1.31.41-1.89c.27-.58.65-1.1,1.14-1.55.48-.45,1.05-.79,1.7-1.04.65-.25,1.34-.37,2.09-.37s1.45.12,2.09.37c.65.25,1.21.59,1.7,1.04.49.45.87.96,1.15,1.55s.41,1.22.41,1.9-.14,1.31-.41,1.9-.65,1.1-1.14,1.55c-.49.44-1.05.79-1.7,1.04-.65.25-1.34.38-2.08.38Zm-.03-1.48c.71,0,1.33-.14,1.87-.43.53-.29.95-.69,1.26-1.19.31-.51.46-1.1.46-1.76,0-.5-.09-.95-.26-1.36-.18-.41-.42-.77-.74-1.07-.32-.3-.7-.53-1.13-.7-.44-.16-.92-.24-1.45-.24-.7,0-1.32.14-1.85.43-.54.28-.96.68-1.26,1.18-.31.5-.46,1.09-.46,1.76,0,.49.09.95.26,1.37s.42.78.74,1.07.69.53,1.13.7.92.25,1.44.25Z"/><path d="m303.01,16.57v-1.42h8.56v1.42h-8.56Zm3.42,8.03v-9.18h1.73v9.18h-1.73Z"/><path d="m313.08,24.6v-9.45h1.73v9.45h-1.73Zm1.19-8.03v-1.42h5.8v1.42h-5.8Zm0,3.89v-1.36h5.37v1.36h-5.37Zm0,4.14v-1.42h5.88v1.42h-5.88Z"/><path d="m326.49,24.74c-.76,0-1.46-.12-2.11-.37-.65-.25-1.21-.59-1.69-1.04-.48-.45-.85-.96-1.11-1.55s-.39-1.22-.39-1.9.13-1.31.39-1.9.63-1.1,1.11-1.55c.48-.44,1.04-.79,1.69-1.04.64-.25,1.35-.38,2.11-.38.85,0,1.58.13,2.21.38.62.25,1.17.59,1.65,1.03l-1.17,1.05c-.31-.31-.69-.54-1.13-.72s-.96-.26-1.55-.26c-.52,0-1,.08-1.43.24s-.8.39-1.12.7c-.31.3-.56.66-.73,1.07-.17.41-.26.87-.26,1.36s.08.95.26,1.36c.17.41.41.77.73,1.07.31.3.69.53,1.12.7.43.16.91.24,1.43.24.64,0,1.18-.09,1.63-.26.44-.18.82-.42,1.13-.72l1.17,1.05c-.48.44-1.04.79-1.69,1.04-.65.25-1.4.38-2.23.38Z"/><path d="m331.96,24.6v-9.45h1.73v9.45h-1.73Zm1.19-4.19v-1.42h5.86v1.42h-5.86Zm5.49,4.19v-9.45h1.73v9.45h-1.73Z"/><path d="m345.64,24.6v-9.45h1.73v9.45h-1.73Zm1.19-3.56v-1.35h2.62c.36,0,.68-.06.95-.2.27-.13.49-.31.65-.55.16-.24.24-.52.24-.84s-.08-.61-.24-.84c-.16-.24-.38-.42-.65-.55-.27-.13-.59-.2-.95-.2h-2.62v-1.35h2.71c.66,0,1.25.12,1.78.36s.94.58,1.25,1.03c.3.44.46.96.46,1.55s-.15,1.11-.46,1.55c-.31.44-.72.78-1.25,1.03-.52.24-1.12.36-1.78.36h-2.71Z"/><path d="m354.58,24.6v-9.45h1.73v9.45h-1.73Zm1.19-4.01v-1.28h2.65c.53,0,.94-.12,1.24-.37s.44-.59.44-1.03c0-.4-.15-.73-.44-1s-.7-.41-1.23-.41h-2.67v-1.35h2.74c.66,0,1.24.12,1.74.36.5.24.89.56,1.16.97.27.41.41.88.41,1.4,0,.55-.14,1.03-.41,1.43-.28.4-.66.72-1.16.94-.5.23-1.08.34-1.74.34h-2.74Zm4.57,4.01l-3.67-4.1,1.6-.53,4.25,4.63h-2.18Z"/><path d="m363.79,24.6v-9.45h1.73v9.45h-1.73Z"/><path d="m371.26,24.6l-4.25-9.45h1.88l3.31,7.65h-.66l3.34-7.65h1.85l-4.27,9.45h-1.2Z"/><path d="m376.05,24.6l4.32-9.45h1.2l4.29,9.45h-1.86l-3.36-7.65h.63l-3.39,7.65h-1.83Zm2.13-1.82v-1.35h5.56v1.35h-5.56Z"/><path d="m385.14,16.57v-1.42h8.56v1.42h-8.56Zm3.42,8.03v-9.18h1.73v9.18h-1.73Z"/><path d="m395.2,24.6v-9.45h1.73v9.45h-1.73Zm1.19-8.03v-1.42h5.8v1.42h-5.8Zm0,3.89v-1.36h5.37v1.36h-5.37Zm0,4.14v-1.42h5.88v1.42h-5.88Z"/><path d="m407.05,24.6v-9.45h1.73v9.45h-1.73Zm1.19,0v-1.42h5.49v1.42h-5.49Z"/><path d="m415.3,24.6v-9.45h1.73v9.45h-1.73Z"/><path d="m419.3,24.6v-9.45h1.2l4.37,6.47h-.78l4.37-6.47h1.2v9.45h-1.73v-6.72l.39.09-3.24,4.79h-1.2l-3.24-4.79.39-.09v6.72h-1.73Z"/><path d="m431.93,24.6v-9.45h1.73v9.45h-1.73Z"/><path d="m435.16,16.57v-1.42h8.56v1.42h-8.56Zm3.42,8.03v-9.18h1.73v9.18h-1.73Z"/><path d="m445.22,24.6v-9.45h1.73v9.45h-1.73Zm1.19-8.03v-1.42h5.8v1.42h-5.8Zm0,3.89v-1.36h5.37v1.36h-5.37Zm0,4.14v-1.42h5.88v1.42h-5.88Z"/><path d="m454.07,24.6v-9.45h1.73v9.45h-1.73Zm1.19,0v-1.42h2.76c.72,0,1.35-.14,1.9-.42s.97-.67,1.27-1.17.46-1.08.46-1.73-.15-1.22-.46-1.71c-.31-.49-.74-.88-1.28-1.16-.54-.28-1.17-.42-1.88-.42h-2.76v-1.42h2.8c.76,0,1.46.12,2.12.36.65.24,1.22.57,1.7,1,.49.43.86.93,1.13,1.5.27.57.4,1.19.4,1.87s-.13,1.29-.4,1.86c-.27.58-.65,1.08-1.12,1.5-.48.43-1.04.76-1.7,1-.65.24-1.35.36-2.1.36h-2.83Z"/><path class="cls-15" d="m103.16,23.04h3.53v15.55h-3.53v-15.55Z"/><path class="cls-1" d="m109.99,23.04h9.19c4.24,0,8.48,1.41,8.48,7.07v1.41c0,5.65-4.24,7.07-8.48,7.07h-9.19v-15.55Zm8.48,13.55c2.83,0,5.65-.94,5.65-4.71v-2.12c0-3.77-2.83-4.71-5.65-4.71h-4.95v11.54h4.95Z"/><path class="cls-14" d="m130.96,23.04h4.71l6.01,12.01,6.01-12.01h4.71v15.55h-3.53v-11.54l-5.77,11.54h-2.83l-5.77-11.54v11.54h-3.53v-15.55Z"/><path class="cls-16" d="m155.69,36.59h12.72c.71,0,1.41,0,1.41-.82v-4.01c0-.82-.71-.82-1.41-.82h-7.07c-2.83,0-5.65,0-5.65-3.18v-1.53c0-3.18,2.83-3.18,5.65-3.18h10.84v2h-11.54c-.71,0-1.41,0-1.41.82v2.24c0,.82.71.82,1.41.82h7.07c2.83,0,5.65,0,5.65,3.18v3.3c0,3.18-2.83,3.18-5.65,3.18h-12.01v-2Z"/><path class="cls-10" d="m103.16,46.45h3.53v15.55h-3.53v-15.55Z"/><path class="cls-5" d="m109.76,50.69h8.95c2.36,0,4.71,0,4.71,2.71v8.6h-3.3v-8.83c0-.71-.59-.71-1.18-.71h-5.89v9.54h-3.3v-11.31Z"/><path class="cls-12" d="m126.25,49.16c0-2.71,2.36-2.71,4.71-2.71h3.3v1.77h-3.53c-.59,0-1.18,0-1.18.71v1.77h4.71v1.77h-4.71v9.54h-3.3v-12.84Z"/><path class="cls-17" d="m137.08,53.4c0-2.71,2.36-2.71,4.71-2.71h4.24c2.36,0,4.71,0,4.71,2.71v5.89c0,2.71-2.36,2.71-4.71,2.71h-4.24c-2.36,0-4.71,0-4.71-2.71v-5.89Zm4.48,6.83h4.71c.59,0,1.18,0,1.18-.71v-6.36c0-.71-.59-.71-1.18-.71h-4.71c-.59,0-1.18,0-1.18.71v6.36c0,.71.59.71,1.18.71Z"/><path class="cls-13" d="m153.57,46.45h3.3v4.24h4.71v1.77h-4.71v7.07c0,.71.59.71,1.18.71h3.53v1.77h-3.3c-2.36,0-4.71,0-4.71-2.71v-12.84Z"/><path class="cls-7" d="m164.4,53.4c0-2.71,2.36-2.71,4.71-2.71h4.24c2.36,0,4.71,0,4.71,2.71v3.3h-10.37v2.83c0,.71.59.71,1.18.71h8.72v1.77h-8.48c-2.36,0-4.71,0-4.71-2.71v-5.89Zm10.37,1.53v-1.77c0-.71-.59-.71-1.18-.71h-4.71c-.59,0-1.18,0-1.18.71v1.77h7.07Z"/><path class="cls-6" d="m180.89,53.4c0-2.71,2.36-2.71,4.71-2.71h8.01v1.77h-8.25c-.59,0-1.18,0-1.18.71v6.36c0,.71.59.71,1.18.71h8.25v1.77h-8.01c-2.36,0-4.71,0-4.71-2.71v-5.89Z"/><path class="cls-18" d="m196.44,46.45h3.3v4.24h5.65c2.36,0,4.71,0,4.71,2.71v8.6h-3.3v-8.83c0-.71-.59-.71-1.18-.71h-5.89v9.54h-3.3v-15.55Z"/><path class="cls-11" d="m67.77,43.88c.76-.75.76-1.98,0-2.74l-3.23-3.19c-.76-.75-2.01-.75-2.78,0l-3.23,3.19c-.76.76-.76,1.99,0,2.74l3.23,3.21c.78.76,2.02.76,2.78,0l3.23-3.21Z"/><path class="cls-19" d="m48.54,42.99l-.25-.24c-1.95-1.95-3.03-4.52-3.03-7.28,0-1.21.21-2.37.61-3.48.05-.15.1-.3.16-.44.01-.01.01-.02.02-.04.02-.09.06-.16.1-.25l-11.32,11.25,20.79,20.63c1.68-1.79,2.6-4.1,2.6-6.56s-1.01-4.98-2.83-6.8l-6.85-6.8Z"/><path class="cls-4" d="m47.39,37.09c.06.25.15.5.25.74.02.05.03.1.06.15.1.27.22.52.36.78.08.17.17.34.26.49.09.16.18.3.28.44.03.08.08.15.14.21.11.16.22.33.35.47.11.15.24.29.36.43.05.05.11.11.15.17l6.43-6.38c3.64-3.67,3.71-9.56.18-13.3l-6.37,6.32-.06.06c-1.79,1.81-2.78,4.22-2.77,6.74,0,.33,0,.64.04.96.05.58.17,1.17.33,1.72Z"/><path class="cls-3" d="m70.33,50.45l-.06.06c-1.79,1.81-2.78,4.22-2.77,6.74,0,.33,0,.64.04.96.05.58.17,1.17.33,1.72.06.25.15.5.25.74.02.05.03.1.06.15.1.27.22.52.36.78.08.17.17.34.26.49.09.16.18.3.28.44.03.08.08.15.14.21.11.16.22.33.35.47.11.15.24.29.36.43.05.05.11.11.15.17l6.43-6.38c3.64-3.67,3.71-9.56.18-13.3l-6.37,6.32Z"/><path class="cls-8" d="m66.27,65.06s0,0,0,0l-1.24-1.24c-.5-.48-.76-1.12-.76-1.81v-9.18c0-1.54.61-2.99,1.72-4.08l5.08-5.03c.33-.31.5-.74.5-1.19,0-.44-.18-.86-.5-1.19l-5.08-5.02c-1.11-1.09-1.72-2.55-1.72-4.11v-9.18c0-.68.26-1.31.76-1.8l.59-.58h0s.33-.33.33-.33l.33-.32s0-.01.02-.02l.93-.93c.13-.13.13-.34,0-.47l-3.83-3.83c-.13-.13-.34-.13-.47,0l-3.83,3.83c-.13.13-.13.34,0,.47l.95.95s0,0,0,0l.11.1h0s1.14,1.12,1.14,1.12c.49.49.75,1.12.75,1.8v9.18c0,1.56-.6,3.02-1.72,4.11l-5.08,5.02c-.33.33-.49.75-.49,1.19,0,.45.16.87.49,1.19l5.08,5.03c1.12,1.09,1.72,2.54,1.72,4.08v9.18c0,.7-.26,1.34-.75,1.81l-1.24,1.24s-.01.01-.02.02l-.93.93c-.13.13-.13.34,0,.47l3.83,3.83c.13.13.34.13.47,0l3.83-3.83c.13-.13.13-.34,0-.47l-.95-.95Zm-4.52-17.98l-3.23-3.21c-.76-.75-.76-1.98,0-2.74l3.23-3.19c.78-.75,2.02-.75,2.78,0l3.23,3.19c.76.76.76,1.99,0,2.74l-3.23,3.21c-.76.76-2.01.76-2.78,0Z"/><path class="cls-9" d="m77.74,42.04l.25.24c1.95,1.95,3.03,4.52,3.03,7.28,0,1.21-.21,2.37-.61,3.48-.05.15-.1.3-.16.44-.01.01-.01.02-.02.04-.02.09-.06.16-.1.25l11.32-11.25-20.79-20.63c-1.68,1.79-2.6,4.1-2.6,6.56s1.01,4.98,2.83,6.8l6.85,6.8Z"/></g></svg>