<?xml version="1.0" encoding="UTF-8"?><svg id="Layer_2" xmlns="http://www.w3.org/2000/svg" xmlns:xlink="http://www.w3.org/1999/xlink" viewBox="0 0 124 36"><defs><style>.cls-1{fill:url(#linear-gradient-2);}.cls-2{fill:url(#linear-gradient-15);}.cls-3{fill:url(#linear-gradient-14);}.cls-4{fill:url(#linear-gradient-6);}.cls-5{fill:url(#linear-gradient-11);}.cls-6{fill:url(#linear-gradient-10);}.cls-7{fill:url(#radial-gradient);}.cls-8{fill:url(#linear-gradient-16);}.cls-9{fill:url(#linear-gradient-5);}.cls-10{fill:none;}.cls-11{fill:url(#linear-gradient-7);}.cls-12{fill:url(#linear-gradient-9);}.cls-13{fill:url(#linear-gradient-3);}.cls-14{fill:url(#linear-gradient);}.cls-15{fill:url(#linear-gradient-4);}.cls-16{fill:url(#linear-gradient-8);}.cls-17{fill:url(#linear-gradient-12);}.cls-18{fill:url(#linear-gradient-13);}</style><linearGradient id="linear-gradient" x1="45.61" y1="4.23" x2="45.7" y2="15.75" gradientUnits="userSpaceOnUse"><stop offset="0" stop-color="#f81d40"/><stop offset=".37" stop-color="#f0047f"/><stop offset=".47" stop-color="#eb0583" stop-opacity="1"/><stop offset=".58" stop-color="#df098f" stop-opacity=".99"/><stop offset=".69" stop-color="#cb0fa3" stop-opacity=".97"/><stop offset=".8" stop-color="#b018be" stop-opacity=".95"/><stop offset=".92" stop-color="#8c23e2" stop-opacity=".92"/><stop offset="1" stop-color="#702dff" stop-opacity=".9"/></linearGradient><linearGradient id="linear-gradient-2" x1="55.94" y1="4.15" x2="56.03" y2="15.67" xlink:href="#linear-gradient"/><linearGradient id="linear-gradient-3" x1="72.98" y1="4.02" x2="73.07" y2="15.54" xlink:href="#linear-gradient"/><linearGradient id="linear-gradient-4" x1="89.98" y1="3.88" x2="90.07" y2="15.4" xlink:href="#linear-gradient"/><linearGradient id="linear-gradient-5" x1="45.59" y1="21.51" x2="45.73" y2="33.08" xlink:href="#linear-gradient"/><linearGradient id="linear-gradient-6" x1="54.25" y1="21.41" x2="54.38" y2="32.98" xlink:href="#linear-gradient"/><linearGradient id="linear-gradient-7" x1="64.45" y1="21.29" x2="64.59" y2="32.86" xlink:href="#linear-gradient"/><linearGradient id="linear-gradient-8" x1="74.61" y1="21.17" x2="74.74" y2="32.74" xlink:href="#linear-gradient"/><linearGradient id="linear-gradient-9" x1="84.8" y1="21.06" x2="84.93" y2="32.62" xlink:href="#linear-gradient"/><linearGradient id="linear-gradient-10" x1="94.96" y1="20.94" x2="95.1" y2="32.5" xlink:href="#linear-gradient"/><linearGradient id="linear-gradient-11" x1="106.9" y1="20.8" x2="107.04" y2="32.36" xlink:href="#linear-gradient"/><linearGradient id="linear-gradient-12" x1="118.81" y1="20.66" x2="118.95" y2="32.22" xlink:href="#linear-gradient"/><linearGradient id="linear-gradient-13" x1="19.78" y1="32.34" x2="2.62" y2="13.19" gradientUnits="userSpaceOnUse"><stop offset="0" stop-color="#f0047f"/><stop offset=".12" stop-color="#f00678"/><stop offset=".29" stop-color="#f20d67"/><stop offset=".48" stop-color="#f6184b"/><stop offset=".54" stop-color="#f81d40"/><stop offset=".68" stop-color="#f81f3d"/><stop offset=".78" stop-color="#f92937"/><stop offset=".86" stop-color="#fa382b"/><stop offset=".94" stop-color="#fc4e1b"/><stop offset="1" stop-color="#ff660a"/></linearGradient><linearGradient id="linear-gradient-14" x1="16.22" y1="6.64" x2="5.98" y2="15.78" gradientUnits="userSpaceOnUse"><stop offset="0" stop-color="#f0047f"/><stop offset=".26" stop-color="#cc0fa2"/><stop offset=".76" stop-color="#8a24e4"/><stop offset="1" stop-color="#702dff"/></linearGradient><linearGradient id="linear-gradient-15" x1="20" y1="30.57" x2="30.24" y2="20" xlink:href="#linear-gradient-14"/><radialGradient id="radial-gradient" cx="16.53" cy="3.94" fx="16.53" fy="3.94" r="15.54" gradientTransform="translate(3.01 14.32) scale(.93)" gradientUnits="userSpaceOnUse"><stop offset="0" stop-color="#fe330a"/><stop offset=".53" stop-color="#f6194a"/><stop offset="1" stop-color="#f0047f"/></radialGradient><linearGradient id="linear-gradient-16" x1="1699.73" y1="318.35" x2="1682.56" y2="299.2" gradientTransform="translate(1716.68 322) rotate(-180)" gradientUnits="userSpaceOnUse"><stop offset="0" stop-color="#f0047f"/><stop offset=".12" stop-color="#f00678"/><stop offset=".29" stop-color="#f20d67"/><stop offset=".48" stop-color="#f6184b"/><stop offset=".54" stop-color="#f81d40"/><stop offset=".68" stop-color="#f81f3d"/><stop offset=".78" stop-color="#f92937"/><stop offset=".86" stop-color="#fa382b"/><stop offset=".94" stop-color="#fc4e1b"/><stop offset="1" stop-color="#ff660a"/></linearGradient></defs><g id="Integral_Labels"><path class="cls-14" d="m44.33,3.57h2.63v11.52h-2.63V3.57Z"/><path class="cls-1" d="m49.42,3.57h6.84c3.16,0,6.32,1.05,6.32,5.24v1.05c0,4.19-3.16,5.24-6.32,5.24h-6.84V3.57Zm6.32,10.04c2.11,0,4.21-.7,4.21-3.49v-1.57c0-2.79-2.11-3.49-4.21-3.49h-3.69v8.55h3.69Z"/><path class="cls-13" d="m65.04,3.57h3.51l4.48,8.9,4.48-8.9h3.51v11.52h-2.63V6.54l-4.3,8.55h-2.11l-4.3-8.55v8.55h-2.63V3.57Z"/><path class="cls-15" d="m83.46,13.61h9.48c.53,0,1.05,0,1.05-.61v-2.97c0-.61-.53-.61-1.05-.61h-5.26c-2.11,0-4.21,0-4.21-2.36v-1.13c0-2.36,2.11-2.36,4.21-2.36h8.07v1.48h-8.6c-.53,0-1.05,0-1.05.61v1.66c0,.61.53.61,1.05.61h5.26c2.11,0,4.21,0,4.21,2.36v2.44c0,2.36-2.11,2.36-4.21,2.36h-8.95v-1.48Z"/><path class="cls-9" d="m44.33,20.91h2.63v11.52h-2.63v-11.52Z"/><path class="cls-4" d="m49.25,24.05h6.67c1.76,0,3.51,0,3.51,2.01v6.37h-2.46v-6.55c0-.52-.44-.52-.88-.52h-4.39v7.07h-2.46v-8.38Z"/><path class="cls-11" d="m61.53,22.92c0-2.01,1.75-2.01,3.51-2.01h2.46v1.31h-2.63c-.44,0-.88,0-.88.52v1.31h3.51v1.31h-3.51v7.07h-2.46v-9.51Z"/><path class="cls-16" d="m69.6,26.06c0-2.01,1.75-2.01,3.51-2.01h3.16c1.76,0,3.51,0,3.51,2.01v4.36c0,2.01-1.75,2.01-3.51,2.01h-3.16c-1.75,0-3.51,0-3.51-2.01v-4.36Zm3.33,5.06h3.51c.44,0,.88,0,.88-.52v-4.71c0-.52-.44-.52-.88-.52h-3.51c-.44,0-.88,0-.88.52v4.71c0,.52.44.52.88.52Z"/><path class="cls-12" d="m81.89,20.91h2.46v3.14h3.51v1.31h-3.51v5.24c0,.52.44.52.88.52h2.63v1.31h-2.46c-1.75,0-3.51,0-3.51-2.01v-9.51Z"/><path class="cls-6" d="m89.96,26.06c0-2.01,1.75-2.01,3.51-2.01h3.16c1.76,0,3.51,0,3.51,2.01v2.44h-7.72v2.09c0,.52.44.52.88.52h6.49v1.31h-6.32c-1.75,0-3.51,0-3.51-2.01v-4.36Zm7.72,1.13v-1.31c0-.52-.44-.52-.88-.52h-3.51c-.44,0-.88,0-.88.52v1.31h5.26Z"/><path class="cls-5" d="m102.24,26.06c0-2.01,1.75-2.01,3.51-2.01h5.97v1.31h-6.14c-.44,0-.88,0-.88.52v4.71c0,.52.44.52.88.52h6.14v1.31h-5.97c-1.75,0-3.51,0-3.51-2.01v-4.36Z"/><path class="cls-17" d="m113.82,20.91h2.46v3.14h4.21c1.76,0,3.51,0,3.51,2.01v6.37h-2.46v-6.55c0-.52-.44-.52-.88-.52h-4.39v7.07h-2.46v-11.52Z"/><path class="cls-10" d="m21.37,18.88c.5-.48.5-1.28,0-1.77l-2.1-2.06c-.5-.48-1.3-.48-1.81,0l-2.1,2.06c-.5.49-.5,1.29,0,1.77l2.1,2.07c.5.49,1.31.49,1.81,0l2.1-2.07Z"/><path class="cls-18" d="m8.89,18.31l-.16-.15c-1.27-1.26-1.97-2.92-1.97-4.7,0-.78.14-1.53.4-2.25.03-.1.06-.19.1-.28,0,0,0-.02.02-.02.02-.06.04-.1.06-.16L0,18l13.49,13.32c1.09-1.16,1.69-2.65,1.69-4.24s-.65-3.22-1.84-4.39l-4.44-4.39Z"/><path class="cls-3" d="m8.15,14.5c.04.16.1.32.16.48.01.03.02.06.04.1.06.18.14.33.23.5.05.11.11.22.17.32.06.1.11.19.18.28.02.05.05.1.09.14.07.1.14.21.23.31.07.1.15.19.23.28.03.03.07.07.1.11l4.17-4.12c2.36-2.37,2.41-6.17.11-8.59l-4.13,4.08-.04.04c-1.16,1.17-1.8,2.72-1.8,4.35,0,.21,0,.41.03.62.03.37.11.75.22,1.11Z"/><path class="cls-2" d="m23.03,23.12l-.04.04c-1.16,1.17-1.8,2.72-1.8,4.35,0,.21,0,.41.03.62.03.37.11.75.22,1.11.04.16.1.32.16.48.01.03.02.06.04.1.06.18.14.33.23.5.05.11.11.22.17.32.06.1.11.19.18.28.02.05.05.1.09.14.07.1.14.21.23.31.07.1.15.19.23.28.03.03.07.07.1.11l4.17-4.12c2.36-2.37,2.41-6.17.11-8.59l-4.13,4.08Z"/><path class="cls-7" d="m20.4,32.55s0,0,0,0l-.81-.8c-.33-.31-.5-.72-.5-1.17v-5.93c0-1,.4-1.93,1.12-2.63l3.29-3.25c.21-.2.33-.48.33-.77,0-.28-.12-.55-.33-.77l-3.29-3.24c-.72-.7-1.12-1.65-1.12-2.65v-5.93c0-.44.17-.85.5-1.16l.38-.37h0s.21-.21.21-.21l.21-.21s0,0,.01-.01l.61-.6c.08-.08.08-.22,0-.3L18.52.06c-.08-.08-.22-.08-.31,0l-2.49,2.47c-.08.08-.08.22,0,.3l.61.61s0,0,0,0l.07.07h0s.74.73.74.73c.32.32.49.72.49,1.16v5.93c0,1-.39,1.95-1.12,2.65l-3.29,3.24c-.21.21-.32.48-.32.77,0,.29.11.56.32.77l3.29,3.25c.73.7,1.12,1.64,1.12,2.63v5.93c0,.45-.17.86-.49,1.17l-.81.8s0,0-.01.01l-.6.6c-.08.08-.08.22,0,.3l2.49,2.47c.08.08.22.08.31,0l2.49-2.47c.08-.08.08-.22,0-.3l-.61-.61Zm-2.93-11.6l-2.1-2.07c-.5-.48-.5-1.28,0-1.77l2.1-2.06c.5-.48,1.31-.48,1.81,0l2.1,2.06c.5.49.5,1.29,0,1.77l-2.1,2.07c-.5.49-1.3.49-1.81,0Z"/><path class="cls-8" d="m27.84,17.69l.16.15c1.27,1.26,1.97,2.92,1.97,4.7,0,.78-.14,1.53-.4,2.25-.03.1-.06.19-.1.28,0,0,0,.02-.02.02-.02.06-.04.1-.06.16l7.35-7.26-13.49-13.32c-1.09,1.16-1.69,2.65-1.69,4.24s.65,3.22,1.84,4.39l4.44,4.39Z"/></g></svg>