<?xml version="1.0" encoding="UTF-8"?><svg id="Layer_2" xmlns="http://www.w3.org/2000/svg" xmlns:xlink="http://www.w3.org/1999/xlink" viewBox="0 0 225 225"><defs><style>.cls-1{fill:url(#linear-gradient-2);}.cls-2{fill:url(#radial-gradient);}.cls-3{fill:none;}.cls-4{fill:url(#linear-gradient-3);}.cls-5{fill:url(#linear-gradient);}.cls-6{fill:url(#linear-gradient-4);}</style><linearGradient id="linear-gradient" x1="122.57" y1="201.43" x2="15.71" y2="82.24" gradientUnits="userSpaceOnUse"><stop offset="0" stop-color="#fe005a"/><stop offset="1" stop-color="#ff7300"/></linearGradient><linearGradient id="linear-gradient-2" x1="99.77" y1="41.64" x2="36.13" y2="98.44" gradientUnits="userSpaceOnUse"><stop offset="0" stop-color="#f0047f"/><stop offset=".6" stop-color="#ab1ac4"/><stop offset="1" stop-color="#702dff"/></linearGradient><linearGradient id="linear-gradient-3" x1="122.07" y1="190.92" x2="185.74" y2="125.19" xlink:href="#linear-gradient-2"/><linearGradient id="linear-gradient-4" x1="103.87" y1="36.57" x2="200.75" y2="132.77" gradientUnits="userSpaceOnUse"><stop offset="0" stop-color="#fe005a"/><stop offset="1" stop-color="#ff7300"/></linearGradient><radialGradient id="radial-gradient" cx="114.45" cy="112.25" fx="114.45" fy="112.25" r="89.14" gradientTransform="translate(-.96 -.41) scale(.99 1)" gradientUnits="userSpaceOnUse"><stop offset="0" stop-color="#fe330a"/><stop offset=".5" stop-color="#f71b46"/><stop offset="1" stop-color="#f0047f"/></radialGradient></defs><g id="Login_Screen_demo"><path class="cls-3" d="m130.89,117.98c3.04-3.03,3.04-7.98,0-11.06l-12.85-12.88c-3.04-3.03-7.97-3.03-11.06,0l-12.85,12.88c-3.04,3.08-3.04,8.04,0,11.06l12.85,12.94c3.09,3.08,8.03,3.08,11.06,0l12.85-12.94Z"/><path class="cls-5" d="m54.48,114.41l-.99-.95c-7.76-7.87-12.05-18.25-12.05-29.38,0-4.86.84-9.58,2.42-14.04.2-.6.4-1.2.64-1.75.05-.05.05-.1.1-.15.1-.35.25-.65.4-1L0,112.5l82.64,83.22c6.67-7.22,10.32-16.54,10.32-26.47s-4-20.1-11.26-27.42l-27.22-27.42Z"/><path class="cls-1" d="m49.9,90.61c.24,1.03.59,2.02.98,2.98.07.21.1.39.24.6.38,1.1.87,2.09,1.43,3.15.31.67.66,1.38,1.05,1.99.35.64.7,1.21,1.12,1.77.1.32.31.6.56.85.42.64.87,1.31,1.4,1.91.45.6.94,1.17,1.43,1.74.21.21.42.43.59.67l25.57-25.74c14.46-14.82,14.74-38.57.7-53.67l-25.32,25.49-.24.25c-7.13,7.3-11.04,17.02-11,27.19-.04,1.31.03,2.59.17,3.86.21,2.34.66,4.71,1.33,6.95Z"/><path class="cls-4" d="m141.07,144.51l-.24.25c-7.13,7.3-11.04,17.02-11,27.19-.03,1.31.04,2.59.17,3.86.21,2.34.66,4.71,1.33,6.95.24,1.03.59,2.02.98,2.98.07.21.11.39.24.6.38,1.1.87,2.09,1.43,3.15.31.67.66,1.38,1.05,1.99.35.64.7,1.21,1.12,1.77.1.32.31.6.56.85.42.64.87,1.31,1.4,1.91.45.6.94,1.17,1.43,1.74.21.21.42.43.59.67l25.57-25.74c14.46-14.82,14.74-38.57.7-53.67l-25.32,25.49Z"/><path class="cls-6" d="m183.16,146.54c-.1.95-.25,1.85-.44,2.81-.1.5-.25,1.05-.4,1.6-.2.8-.4,1.65-.64,2.46-.2.55-.4,1.1-.59,1.65-.25.75-.54,1.5-.84,2.26-.1.15-.15.35-.2.5l44.95-45.32L142.41,29.23c-6.67,7.22-10.32,16.54-10.32,26.47s4,20.1,11.26,27.42l27.22,27.42.99,1c7.76,7.82,12.05,18.25,12.05,29.33,0,1.45-.1,2.86-.25,4.26-.05.45-.15.95-.2,1.4Z"/><path class="cls-2" d="m124.94,203.43s-.01-.02-.02-.02l-4.94-5.01c-2.01-1.93-3.04-4.51-3.04-7.32v-37.04c0-6.22,2.44-12.05,6.83-16.46l20.17-20.31c1.3-1.27,2.01-2.97,2.01-4.79,0-1.76-.71-3.47-2.01-4.79l-20.17-20.26c-4.39-4.4-6.83-10.29-6.83-16.57v-37.04c0-2.75,1.03-5.28,3.04-7.27l2.33-2.34h.01s1.3-1.31,1.3-1.31l1.3-1.3s.04-.05.06-.08l3.71-3.77c.52-.53.52-1.38,0-1.9L113.47.39c-.52-.53-1.36-.53-1.87,0l-15.23,15.46c-.52.53-.52,1.38,0,1.9l3.76,3.81s.01.02.02.03l.42.42h0s4.51,4.53,4.51,4.53c1.95,1.98,2.98,4.51,2.98,7.27v37.04c0,6.27-2.39,12.16-6.83,16.57l-20.17,20.26c-1.3,1.32-1.95,3.03-1.95,4.79,0,1.82.65,3.52,1.95,4.79l20.17,20.31c4.45,4.4,6.83,10.24,6.83,16.46v37.04c0,2.81-1.03,5.39-2.98,7.32l-4.94,5.01s-.04.06-.07.08l-3.71,3.76c-.52.53-.52,1.38,0,1.9l15.23,15.46c.52.53,1.36.53,1.87,0l15.23-15.46c.52-.53.52-1.38,0-1.9l-3.76-3.81Zm-17.97-72.52l-12.85-12.94c-3.04-3.03-3.04-7.98,0-11.06l12.85-12.88c3.09-3.03,8.03-3.03,11.06,0l12.85,12.88c3.04,3.08,3.04,8.04,0,11.06l-12.85,12.94c-3.04,3.08-7.97,3.08-11.06,0Z"/></g></svg>