<?xml version="1.0" encoding="UTF-8"?><svg id="Layer_2" xmlns="http://www.w3.org/2000/svg" viewBox="0 0 314.96 61.15"><defs><style>.cls-1,.cls-2{fill:#fa0096;}.cls-2{opacity:.8;}.cls-3{opacity:.8;}.cls-4{fill:#282828;}</style></defs><g id="Welcome_to"><g id="_05_welcome_to_waco"><path class="cls-2" d="m32.89,18.84l-5.11-15.6h2.12l4.05,12.72h-.61l3.98-12.72h1.53l3.98,12.72h-.58l4.05-12.72h2.09l-5.08,15.6h-1.51l-4-12.7h.58l-3.98,12.7h-1.51Z"/><path class="cls-2" d="m53.93,19.06c-1.07,0-2.03-.24-2.88-.73-.86-.49-1.53-1.15-2.02-1.99-.5-.84-.74-1.79-.74-2.85s.24-1.99.73-2.83c.49-.84,1.15-1.5,1.98-1.99.83-.49,1.77-.73,2.8-.73s1.86.22,2.62.67c.76.45,1.35,1.07,1.78,1.87.43.79.64,1.69.64,2.7,0,.15,0,.31-.02.48-.02.17-.04.37-.09.6h-9.02v-1.69h7.94l-.74.65c0-.72-.13-1.33-.38-1.83s-.62-.89-1.08-1.17-1.03-.42-1.69-.42-1.3.15-1.82.45c-.52.3-.93.72-1.21,1.26-.29.54-.43,1.18-.43,1.91s.15,1.41.45,1.97c.3.56.73,1,1.28,1.3.55.31,1.19.46,1.91.46.6,0,1.15-.1,1.65-.31.5-.21.93-.52,1.29-.94l1.3,1.33c-.51.6-1.14,1.06-1.88,1.37s-1.53.47-2.37.47Z"/><path class="cls-2" d="m61.03,18.84V2.79h2.03v16.05h-2.03Z"/><path class="cls-2" d="m70.91,19.06c-1.05,0-2-.25-2.85-.74-.85-.5-1.51-1.17-2-2.01s-.73-1.79-.73-2.82.24-1.99.73-2.83c.49-.84,1.15-1.5,2-1.99.85-.49,1.8-.73,2.85-.73.82,0,1.59.15,2.29.46.71.31,1.31.75,1.82,1.34l-1.35,1.35c-.33-.39-.73-.69-1.2-.89-.47-.2-.99-.3-1.56-.3-.68,0-1.28.15-1.8.46-.53.31-.94.73-1.24,1.27-.3.54-.45,1.16-.45,1.87s.15,1.33.45,1.87c.3.54.71.97,1.24,1.28.52.31,1.12.47,1.8.47.57,0,1.09-.1,1.56-.3.47-.2.88-.5,1.23-.89l1.33,1.35c-.49.57-1.1,1.01-1.81,1.33-.71.31-1.48.47-2.31.47Z"/><path class="cls-2" d="m81.71,19.06c-1.05,0-2-.25-2.83-.74-.84-.5-1.51-1.17-2-2.01-.5-.85-.74-1.79-.74-2.84s.25-1.97.74-2.8c.49-.83,1.16-1.5,2-1.99.84-.5,1.78-.74,2.83-.74s1.98.24,2.82.73c.85.49,1.52,1.15,2.01,1.99.49.84.74,1.78.74,2.81s-.25,2-.74,2.84c-.5.85-1.17,1.52-2.01,2.01-.85.49-1.79.74-2.82.74Zm0-1.96c.67,0,1.27-.16,1.8-.47.52-.32.94-.75,1.24-1.29.3-.55.45-1.17.45-1.88s-.15-1.3-.46-1.84c-.31-.54-.72-.96-1.24-1.27-.52-.31-1.11-.46-1.79-.46s-1.28.15-1.8.46c-.53.31-.94.73-1.24,1.27-.3.54-.45,1.15-.45,1.84s.15,1.33.45,1.88c.3.55.71.98,1.24,1.29.52.31,1.12.47,1.8.47Z"/><path class="cls-2" d="m89.56,18.84v-10.68h2.03v10.68h-2.03Zm7.22,0v-6.45c0-.79-.24-1.42-.73-1.88-.49-.46-1.1-.69-1.83-.69-.5,0-.94.11-1.33.32-.39.21-.71.5-.95.88-.24.38-.36.82-.36,1.35l-.83-.4c0-.81.18-1.51.53-2.11.35-.6.84-1.07,1.45-1.4.61-.34,1.3-.51,2.07-.51s1.43.17,2.04.49c.61.33,1.09.79,1.44,1.39.35.6.53,1.31.53,2.14v6.88h-2.03Zm7.22,0v-6.45c0-.79-.24-1.42-.73-1.88-.49-.46-1.09-.69-1.81-.69-.5,0-.94.11-1.34.32-.4.21-.72.5-.96.88-.24.38-.36.82-.36,1.35l-1.15-.4c.04-.82.27-1.53.66-2.12.4-.59.91-1.06,1.54-1.39s1.32-.51,2.07-.51,1.48.17,2.09.49c.62.33,1.11.79,1.47,1.39.37.6.55,1.32.55,2.16v6.86h-2.05Z"/><path class="cls-2" d="m113.75,19.06c-1.07,0-2.03-.24-2.88-.73-.86-.49-1.53-1.15-2.02-1.99-.5-.84-.74-1.79-.74-2.85s.24-1.99.73-2.83c.49-.84,1.15-1.5,1.98-1.99.83-.49,1.77-.73,2.8-.73s1.86.22,2.62.67c.76.45,1.35,1.07,1.78,1.87.43.79.64,1.69.64,2.7,0,.15,0,.31-.02.48-.02.17-.04.37-.09.6h-9.02v-1.69h7.94l-.74.65c0-.72-.13-1.33-.38-1.83s-.62-.89-1.08-1.17-1.03-.42-1.69-.42-1.3.15-1.82.45c-.52.3-.93.72-1.21,1.26-.29.54-.43,1.18-.43,1.91s.15,1.41.45,1.97c.3.56.73,1,1.28,1.3.55.31,1.19.46,1.91.46.6,0,1.15-.1,1.65-.31.5-.21.93-.52,1.29-.94l1.3,1.33c-.51.6-1.14,1.06-1.88,1.37s-1.53.47-2.37.47Z"/><path class="cls-2" d="m124.54,10v-1.84h7.29v1.84h-7.29Zm2.63,8.83V3.69h2.03v15.15h-2.03Z"/><path class="cls-2" d="m138.36,19.06c-1.05,0-2-.25-2.83-.74-.84-.5-1.51-1.17-2-2.01-.5-.85-.74-1.79-.74-2.84s.25-1.97.74-2.8c.49-.83,1.16-1.5,2-1.99.84-.5,1.78-.74,2.83-.74s1.98.24,2.82.73c.85.49,1.52,1.15,2.01,1.99.49.84.74,1.78.74,2.81s-.25,2-.74,2.84c-.5.85-1.17,1.52-2.01,2.01-.85.49-1.79.74-2.82.74Zm0-1.96c.67,0,1.27-.16,1.8-.47.52-.32.94-.75,1.24-1.29.3-.55.45-1.17.45-1.88s-.15-1.3-.46-1.84c-.31-.54-.72-.96-1.24-1.27-.52-.31-1.11-.46-1.79-.46s-1.28.15-1.8.46c-.53.31-.94.73-1.24,1.27-.3.54-.45,1.15-.45,1.84s.15,1.33.45,1.88c.3.55.71.98,1.24,1.29.52.31,1.12.47,1.8.47Z"/><path class="cls-2" d="m151.25,18.84V3.24h2.12v15.6h-2.12Z"/><path class="cls-2" d="m157.05,18.84V3.24h2.12v15.6h-2.12Zm1.39,0v-1.93h4.34c1.15,0,2.17-.25,3.04-.75.87-.5,1.55-1.2,2.04-2.08.49-.88.73-1.9.73-3.06s-.25-2.15-.74-3.03c-.5-.88-1.18-1.57-2.05-2.07-.87-.49-1.88-.74-3.01-.74h-4.32v-1.93h4.37c1.14,0,2.19.2,3.16.58.97.39,1.81.94,2.52,1.64.71.71,1.27,1.53,1.66,2.47s.6,1.98.6,3.1-.2,2.14-.6,3.09c-.4.95-.95,1.78-1.65,2.48-.71.7-1.54,1.25-2.51,1.64-.97.39-2.01.58-3.14.58h-4.43Z"/><path class="cls-2" d="m173.7,18.84V3.24h1.49l6.61,10.86h-1.01l6.61-10.86h1.48v15.6h-2.11V6.95l.5.13-5.22,8.56h-1.49l-5.22-8.56.47-.13v11.89h-2.12Z"/><path class="cls-2" d="m196.6,19.06c-1.23,0-2.28-.22-3.15-.67s-1.64-1.1-2.32-1.96l1.44-1.44c.49.69,1.06,1.21,1.71,1.56.65.35,1.44.53,2.38.53s1.68-.2,2.24-.61c.56-.4.84-.96.84-1.66,0-.58-.14-1.06-.41-1.42-.27-.36-.63-.66-1.09-.89-.46-.23-.96-.44-1.5-.63-.54-.19-1.08-.39-1.62-.61-.54-.22-1.04-.49-1.49-.81-.45-.32-.81-.75-1.09-1.27s-.42-1.18-.42-1.98c0-.88.21-1.64.64-2.26.43-.62,1.01-1.1,1.75-1.44.74-.34,1.58-.51,2.51-.51,1.02,0,1.93.2,2.75.6.81.4,1.47.92,1.98,1.56l-1.44,1.44c-.46-.54-.96-.94-1.5-1.21s-1.14-.4-1.83-.4c-.84,0-1.51.18-2,.55-.5.37-.74.88-.74,1.54,0,.53.14.95.42,1.27.28.32.64.6,1.09.82s.95.43,1.5.62c.55.19,1.09.39,1.63.62s1.04.51,1.49.85c.45.35.81.79,1.09,1.34.28.55.42,1.23.42,2.06,0,1.38-.48,2.46-1.43,3.24s-2.24,1.17-3.86,1.17Z"/><path class="cls-2" d="m209.43,18.84V3.24h2.12v15.6h-2.12Z"/><path class="cls-2" d="m214.87,18.84v-10.68h2.03v10.68h-2.03Zm7.56,0v-6.23c0-.81-.25-1.48-.76-2-.51-.52-1.17-.79-1.98-.79-.54,0-1.02.12-1.44.36-.42.24-.75.57-.99.99-.24.42-.36.9-.36,1.44l-.83-.47c0-.81.18-1.53.54-2.16.36-.63.86-1.13,1.51-1.5.64-.37,1.37-.55,2.18-.55s1.53.2,2.15.61c.62.41,1.11.93,1.47,1.58.36.65.54,1.35.54,2.08v6.63h-2.02Z"/><path class="cls-2" d="m225.96,10v-1.84h8.05v1.84h-8.05Zm2.63,8.83V6.56c0-.79.17-1.49.52-2.08.34-.59.82-1.06,1.43-1.41s1.32-.52,2.13-.52c.61,0,1.15.1,1.6.31.45.21.86.52,1.24.92l-1.33,1.3c-.2-.21-.41-.37-.65-.48s-.53-.17-.88-.17c-.65,0-1.14.19-1.5.56-.35.37-.53.89-.53,1.55v12.27h-2.02Z"/><path class="cls-2" d="m240.31,19.06c-1.05,0-2-.25-2.83-.74-.84-.5-1.51-1.17-2-2.01-.5-.85-.74-1.79-.74-2.84s.25-1.97.74-2.8c.49-.83,1.16-1.5,2-1.99.84-.5,1.78-.74,2.83-.74s1.98.24,2.82.73c.85.49,1.52,1.15,2.01,1.99.49.84.74,1.78.74,2.81s-.25,2-.74,2.84c-.5.85-1.17,1.52-2.01,2.01-.85.49-1.79.74-2.82.74Zm0-1.96c.67,0,1.27-.16,1.8-.47.52-.32.94-.75,1.24-1.29.3-.55.45-1.17.45-1.88s-.15-1.3-.46-1.84c-.31-.54-.72-.96-1.24-1.27-.52-.31-1.11-.46-1.79-.46s-1.28.15-1.8.46c-.53.31-.94.73-1.24,1.27-.3.54-.45,1.15-.45,1.84s.15,1.33.45,1.88c.3.55.71.98,1.24,1.29.52.31,1.12.47,1.8.47Z"/><path class="cls-2" d="m246.84,10v-1.84h7.29v1.84h-7.29Zm2.63,8.83V3.69h2.03v15.15h-2.03Z"/><path class="cls-2" d="m260.72,19.06c-1.07,0-2.03-.24-2.88-.73-.86-.49-1.53-1.15-2.02-1.99-.5-.84-.74-1.79-.74-2.85s.24-1.99.73-2.83c.49-.84,1.15-1.5,1.98-1.99.83-.49,1.77-.73,2.8-.73s1.86.22,2.62.67c.76.45,1.35,1.07,1.78,1.87.43.79.64,1.69.64,2.7,0,.15,0,.31-.02.48-.02.17-.04.37-.09.6h-9.02v-1.69h7.94l-.74.65c0-.72-.13-1.33-.38-1.83s-.62-.89-1.08-1.17-1.03-.42-1.69-.42-1.3.15-1.82.45c-.52.3-.93.72-1.21,1.26-.29.54-.43,1.18-.43,1.91s.15,1.41.45,1.97c.3.56.73,1,1.28,1.3.55.31,1.19.46,1.91.46.6,0,1.15-.1,1.65-.31.5-.21.93-.52,1.29-.94l1.3,1.33c-.51.6-1.14,1.06-1.88,1.37s-1.53.47-2.37.47Z"/><path class="cls-2" d="m272.71,19.06c-1.05,0-2-.25-2.85-.74-.85-.5-1.51-1.17-2-2.01s-.73-1.79-.73-2.82.24-1.99.73-2.83c.49-.84,1.15-1.5,2-1.99.85-.49,1.8-.73,2.85-.73.82,0,1.59.15,2.29.46.71.31,1.31.75,1.82,1.34l-1.35,1.35c-.33-.39-.73-.69-1.2-.89-.47-.2-.99-.3-1.56-.3-.68,0-1.28.15-1.8.46-.53.31-.94.73-1.24,1.27-.3.54-.45,1.16-.45,1.87s.15,1.33.45,1.87c.3.54.71.97,1.24,1.28.52.31,1.12.47,1.8.47.57,0,1.09-.1,1.56-.3.47-.2.88-.5,1.23-.89l1.33,1.35c-.49.57-1.1,1.01-1.81,1.33-.71.31-1.48.47-2.31.47Z"/><path class="cls-2" d="m278.83,18.84V2.79h2.03v16.05h-2.03Zm7.56,0v-6.23c0-.81-.25-1.48-.76-2-.51-.52-1.17-.79-1.98-.79-.54,0-1.02.12-1.44.36-.42.24-.75.57-.99.99-.24.42-.36.9-.36,1.44l-.83-.47c0-.81.18-1.53.54-2.16.36-.63.86-1.13,1.51-1.5.64-.37,1.37-.55,2.18-.55s1.53.18,2.15.54c.62.36,1.11.86,1.47,1.51.36.64.54,1.39.54,2.22v6.63h-2.02Z"/></g><g id="_06_red_stroke_top" class="cls-3"><path class="cls-1" d="m0,30.34c100.89-.61,214.07-.62,314.96,0-100.89.62-214.07.61-314.96,0h0Z"/></g><g id="_07_red-stroke_bottom" class="cls-3"><path class="cls-1" d="m0,60.69c100.89-.61,214.07-.62,314.96,0-100.89.62-214.07.61-314.96,0h0Z"/></g><g id="_08_idms" class="cls-3"><path class="cls-4" d="m14.12,49.78v-11.7h1.59v11.7h-1.59Z"/><path class="cls-4" d="m18.2,49.78v-8.01h1.52v8.01h-1.52Zm5.67,0v-4.67c0-.61-.19-1.11-.57-1.5-.38-.39-.88-.59-1.48-.59-.41,0-.77.09-1.08.27-.32.18-.56.43-.74.74-.18.31-.27.67-.27,1.08l-.62-.35c0-.61.13-1.15.41-1.62.27-.47.65-.85,1.13-1.12.48-.28,1.03-.41,1.64-.41s1.14.15,1.61.46c.47.3.84.7,1.11,1.19.27.49.41,1.01.41,1.56v4.97h-1.52Z"/><path class="cls-4" d="m26.61,43.16v-1.38h5.47v1.38h-5.47Zm1.97,6.63v-11.36h1.52v11.36h-1.52Z"/><path class="cls-4" d="m37.02,49.95c-.8,0-1.52-.18-2.16-.55-.64-.37-1.15-.86-1.52-1.49-.37-.63-.56-1.34-.56-2.14s.18-1.49.55-2.12c.37-.63.86-1.13,1.49-1.49.62-.37,1.32-.55,2.1-.55s1.4.17,1.97.51c.57.34,1.01.8,1.33,1.4.32.6.48,1.27.48,2.02,0,.11,0,.23-.02.36-.01.13-.03.28-.07.45h-6.77v-1.26h5.96l-.56.49c0-.54-.1-1-.29-1.37-.19-.38-.46-.67-.81-.88-.35-.21-.77-.31-1.27-.31s-.97.11-1.37.34c-.39.23-.7.54-.91.94-.21.4-.32.88-.32,1.43s.11,1.05.34,1.48c.22.42.55.75.96.98s.89.35,1.43.35c.45,0,.86-.08,1.24-.24.38-.16.7-.39.97-.71l.98,1c-.38.45-.85.79-1.41,1.03-.56.24-1.15.35-1.78.35Z"/><path class="cls-4" d="m45.67,49.65c-.73,0-1.39-.17-1.97-.52-.58-.35-1.04-.83-1.38-1.44-.34-.61-.51-1.3-.51-2.07s.17-1.45.51-2.05c.34-.6.8-1.08,1.38-1.43.58-.35,1.23-.53,1.97-.53.63,0,1.19.12,1.67.37.48.25.87.59,1.16,1.04.29.44.44.96.46,1.56v2.12c-.03.58-.19,1.1-.48,1.54-.29.44-.67.79-1.16,1.04s-1.04.37-1.65.37Zm0,3.66c-.82,0-1.55-.15-2.18-.46-.64-.3-1.15-.73-1.53-1.28l.98-1c.33.42.71.73,1.16.95.45.22.98.33,1.6.33.82,0,1.47-.22,1.95-.65.48-.43.72-1.01.72-1.74v-1.99l.27-1.8-.27-1.79v-2.11h1.52v7.69c0,.76-.18,1.43-.53,2.01-.35.57-.85,1.02-1.48,1.35s-1.37.49-2.2.49Zm.3-5.09c.5,0,.93-.11,1.31-.32.38-.21.67-.51.87-.9s.3-.84.3-1.36-.1-.97-.31-1.36-.5-.69-.87-.91c-.37-.22-.81-.33-1.32-.33s-.95.11-1.33.33c-.38.22-.68.52-.9.91-.22.39-.33.83-.33,1.34s.11.96.33,1.35c.22.39.52.7.91.92.39.22.83.33,1.34.33Z"/><path class="cls-4" d="m52.12,49.78v-8.01h1.52v8.01h-1.52Zm1.52-4.57l-.57-.25c0-1.02.24-1.84.71-2.45.47-.61,1.15-.91,2.04-.91.41,0,.77.07,1.1.21s.63.37.91.7l-1,1.03c-.17-.18-.35-.31-.56-.39-.2-.08-.44-.12-.71-.12-.56,0-1.02.18-1.38.54s-.54.91-.54,1.64Z"/><path class="cls-4" d="m62.04,49.95c-.73,0-1.4-.18-1.99-.55-.6-.37-1.07-.86-1.41-1.49-.34-.63-.51-1.34-.51-2.12s.17-1.49.51-2.12c.34-.63.81-1.13,1.4-1.5s1.26-.56,2-.56c.61,0,1.15.13,1.63.38.48.25.86.6,1.16,1.04.29.44.46.96.49,1.54v2.41c-.03.57-.19,1.08-.48,1.53s-.67.8-1.15,1.05-1.03.38-1.64.38Zm.25-1.43c.75,0,1.36-.26,1.82-.77.46-.51.69-1.17.69-1.96,0-.55-.1-1.03-.31-1.44-.21-.41-.5-.73-.89-.96-.38-.23-.83-.35-1.33-.35s-.95.12-1.34.35c-.39.24-.69.56-.91.97-.22.41-.33.88-.33,1.41s.11,1.01.33,1.42c.22.41.53.73.92.97.39.24.84.35,1.35.35Zm2.41,1.26v-2.16l.29-1.96-.29-1.94v-1.96h1.54v8.01h-1.54Z"/><path class="cls-4" d="m67.67,43.16v-1.38h5.47v1.38h-5.47Zm1.97,6.63v-11.36h1.52v11.36h-1.52Z"/><path class="cls-4" d="m78.09,49.95c-.8,0-1.52-.18-2.16-.55-.64-.37-1.15-.86-1.52-1.49-.37-.63-.56-1.34-.56-2.14s.18-1.49.55-2.12c.37-.63.86-1.13,1.49-1.49.62-.37,1.32-.55,2.1-.55s1.4.17,1.97.51c.57.34,1.01.8,1.33,1.4.32.6.48,1.27.48,2.02,0,.11,0,.23-.02.36-.01.13-.03.28-.07.45h-6.77v-1.26h5.96l-.56.49c0-.54-.1-1-.29-1.37-.19-.38-.46-.67-.81-.88-.35-.21-.77-.31-1.27-.31s-.97.11-1.37.34c-.39.23-.7.54-.91.94-.21.4-.32.88-.32,1.43s.11,1.05.34,1.48c.22.42.55.75.96.98s.89.35,1.43.35c.45,0,.86-.08,1.24-.24.38-.16.7-.39.97-.71l.98,1c-.38.45-.85.79-1.41,1.03-.56.24-1.15.35-1.78.35Z"/><path class="cls-4" d="m86.81,49.95c-.74,0-1.41-.18-1.99-.55s-1.05-.86-1.39-1.49c-.34-.63-.51-1.34-.51-2.12s.17-1.49.51-2.12c.34-.63.81-1.13,1.39-1.5s1.25-.56,1.99-.56c.6,0,1.14.13,1.62.38s.87.6,1.17,1.04c.3.44.46.96.5,1.54v2.41c-.03.57-.2,1.08-.49,1.53-.29.45-.68.8-1.16,1.05s-1.03.38-1.64.38Zm.25-1.43c.51,0,.95-.12,1.33-.35.38-.24.67-.56.89-.97.21-.41.32-.88.32-1.41s-.11-1.03-.33-1.43c-.22-.4-.52-.72-.89-.96s-.82-.35-1.32-.35-.95.12-1.33.35-.68.56-.9.97c-.22.41-.33.88-.33,1.41s.11,1.01.33,1.42c.22.41.52.73.91.97.39.24.83.35,1.34.35Zm3.97,1.26h-1.54v-2.16l.29-1.96-.29-1.94v-5.98h1.54v12.04Z"/><path class="cls-4" d="m97.02,49.78v-11.7h1.59v11.7h-1.59Zm1.05,0v-1.45h3.26c.87,0,1.62-.19,2.28-.56s1.16-.9,1.53-1.56c.37-.66.55-1.43.55-2.29s-.19-1.61-.56-2.28-.88-1.18-1.54-1.55c-.65-.37-1.41-.56-2.26-.56h-3.24v-1.45h3.27c.85,0,1.65.15,2.37.44.73.29,1.36.7,1.89,1.23.53.53.95,1.15,1.25,1.85.3.71.45,1.48.45,2.33s-.15,1.6-.45,2.32c-.3.71-.71,1.33-1.24,1.86-.53.53-1.16.94-1.88,1.23s-1.51.44-2.35.44h-3.32Z"/><path class="cls-4" d="m110.01,40.17c-.28,0-.51-.09-.69-.28-.18-.19-.27-.42-.27-.7s.09-.5.27-.68c.18-.19.41-.28.69-.28s.51.09.69.28c.18.18.27.41.27.68s-.09.51-.27.7c-.18.19-.41.28-.69.28Zm-.76,9.61v-8.01h1.52v8.01h-1.52Z"/><path class="cls-4" d="m116.34,49.65c-.73,0-1.39-.17-1.97-.52-.58-.35-1.04-.83-1.38-1.44-.34-.61-.51-1.3-.51-2.07s.17-1.45.51-2.05c.34-.6.8-1.08,1.38-1.43.58-.35,1.23-.53,1.97-.53.63,0,1.19.12,1.67.37.48.25.87.59,1.16,1.04.29.44.44.96.46,1.56v2.12c-.03.58-.19,1.1-.48,1.54-.29.44-.67.79-1.16,1.04s-1.04.37-1.65.37Zm0,3.66c-.82,0-1.55-.15-2.18-.46-.64-.3-1.15-.73-1.53-1.28l.98-1c.33.42.71.73,1.16.95.45.22.98.33,1.6.33.82,0,1.47-.22,1.95-.65.48-.43.72-1.01.72-1.74v-1.99l.27-1.8-.27-1.79v-2.11h1.52v7.69c0,.76-.18,1.43-.53,2.01-.35.57-.85,1.02-1.48,1.35s-1.37.49-2.2.49Zm.3-5.09c.5,0,.93-.11,1.31-.32.38-.21.67-.51.87-.9s.3-.84.3-1.36-.1-.97-.31-1.36-.5-.69-.87-.91c-.37-.22-.81-.33-1.32-.33s-.95.11-1.33.33c-.38.22-.68.52-.9.91-.22.39-.33.83-.33,1.34s.11.96.33,1.35c.22.39.52.7.91.92.39.22.83.33,1.34.33Z"/><path class="cls-4" d="m123.56,40.17c-.28,0-.51-.09-.69-.28-.18-.19-.27-.42-.27-.7s.09-.5.27-.68c.18-.19.41-.28.69-.28s.51.09.69.28c.18.18.27.41.27.68s-.09.51-.27.7c-.18.19-.41.28-.69.28Zm-.76,9.61v-8.01h1.52v8.01h-1.52Z"/><path class="cls-4" d="m125.82,43.16v-1.38h5.47v1.38h-5.47Zm1.97,6.63v-11.36h1.52v11.36h-1.52Z"/><path class="cls-4" d="m135.93,49.95c-.73,0-1.4-.18-1.99-.55-.6-.37-1.07-.86-1.41-1.49-.34-.63-.51-1.34-.51-2.12s.17-1.49.51-2.12c.34-.63.81-1.13,1.4-1.5s1.26-.56,2-.56c.61,0,1.15.13,1.63.38.48.25.86.6,1.16,1.04.29.44.46.96.49,1.54v2.41c-.03.57-.19,1.08-.48,1.53s-.67.8-1.15,1.05-1.03.38-1.64.38Zm.25-1.43c.75,0,1.36-.26,1.82-.77.46-.51.69-1.17.69-1.96,0-.55-.1-1.03-.31-1.44-.21-.41-.5-.73-.89-.96-.38-.23-.83-.35-1.33-.35s-.95.12-1.34.35c-.39.24-.69.56-.91.97-.22.41-.33.88-.33,1.41s.11,1.01.33,1.42c.22.41.53.73.92.97.39.24.84.35,1.35.35Zm2.41,1.26v-2.16l.29-1.96-.29-1.94v-1.96h1.54v8.01h-1.54Z"/><path class="cls-4" d="m142.34,49.78v-12.04h1.52v12.04h-1.52Z"/><path class="cls-4" d="m149.86,49.78v-11.7h1.11l4.96,8.14h-.76l4.96-8.14h1.11v11.7h-1.59v-8.92l.37.1-3.91,6.42h-1.11l-3.92-6.42.35-.1v8.92h-1.59Z"/><path class="cls-4" d="m167.16,49.95c-.73,0-1.4-.18-1.99-.55-.6-.37-1.07-.86-1.41-1.49-.34-.63-.51-1.34-.51-2.12s.17-1.49.51-2.12c.34-.63.81-1.13,1.4-1.5s1.26-.56,2-.56c.61,0,1.15.13,1.63.38.48.25.86.6,1.16,1.04.29.44.46.96.49,1.54v2.41c-.03.57-.19,1.08-.48,1.53s-.67.8-1.15,1.05-1.03.38-1.64.38Zm.25-1.43c.75,0,1.36-.26,1.82-.77.46-.51.69-1.17.69-1.96,0-.55-.1-1.03-.31-1.44-.21-.41-.5-.73-.89-.96-.38-.23-.83-.35-1.33-.35s-.95.12-1.34.35c-.39.24-.69.56-.91.97-.22.41-.33.88-.33,1.41s.11,1.01.33,1.42c.22.41.53.73.92.97.39.24.84.35,1.35.35Zm2.41,1.26v-2.16l.29-1.96-.29-1.94v-1.96h1.54v8.01h-1.54Z"/><path class="cls-4" d="m173.57,49.78v-8.01h1.52v8.01h-1.52Zm5.67,0v-4.67c0-.61-.19-1.11-.57-1.5-.38-.39-.88-.59-1.48-.59-.41,0-.77.09-1.08.27-.32.18-.56.43-.74.74-.18.31-.27.67-.27,1.08l-.62-.35c0-.61.13-1.15.41-1.62.27-.47.65-.85,1.13-1.12.48-.28,1.03-.41,1.64-.41s1.14.15,1.61.46c.47.3.84.7,1.11,1.19.27.49.41,1.01.41,1.56v4.97h-1.52Z"/><path class="cls-4" d="m186.22,49.95c-.73,0-1.4-.18-1.99-.55-.6-.37-1.07-.86-1.41-1.49-.34-.63-.51-1.34-.51-2.12s.17-1.49.51-2.12c.34-.63.81-1.13,1.4-1.5s1.26-.56,2-.56c.61,0,1.15.13,1.63.38.48.25.86.6,1.16,1.04.29.44.46.96.49,1.54v2.41c-.03.57-.19,1.08-.48,1.53s-.67.8-1.15,1.05-1.03.38-1.64.38Zm.25-1.43c.75,0,1.36-.26,1.82-.77.46-.51.69-1.17.69-1.96,0-.55-.1-1.03-.31-1.44-.21-.41-.5-.73-.89-.96-.38-.23-.83-.35-1.33-.35s-.95.12-1.34.35c-.39.24-.69.56-.91.97-.22.41-.33.88-.33,1.41s.11,1.01.33,1.42c.22.41.53.73.92.97.39.24.84.35,1.35.35Zm2.41,1.26v-2.16l.29-1.96-.29-1.94v-1.96h1.54v8.01h-1.54Z"/><path class="cls-4" d="m195.96,49.65c-.73,0-1.39-.17-1.97-.52-.58-.35-1.04-.83-1.38-1.44-.34-.61-.51-1.3-.51-2.07s.17-1.45.51-2.05c.34-.6.8-1.08,1.38-1.43.58-.35,1.23-.53,1.97-.53.63,0,1.19.12,1.67.37.48.25.87.59,1.16,1.04.29.44.44.96.46,1.56v2.12c-.03.58-.19,1.1-.48,1.54-.29.44-.67.79-1.16,1.04s-1.04.37-1.65.37Zm0,3.66c-.82,0-1.55-.15-2.18-.46-.64-.3-1.15-.73-1.53-1.28l.98-1c.33.42.71.73,1.16.95.45.22.98.33,1.6.33.82,0,1.47-.22,1.95-.65.48-.43.72-1.01.72-1.74v-1.99l.27-1.8-.27-1.79v-2.11h1.52v7.69c0,.76-.18,1.43-.53,2.01-.35.57-.85,1.02-1.48,1.35s-1.37.49-2.2.49Zm.3-5.09c.5,0,.93-.11,1.31-.32.38-.21.67-.51.87-.9s.3-.84.3-1.36-.1-.97-.31-1.36-.5-.69-.87-.91c-.37-.22-.81-.33-1.32-.33s-.95.11-1.33.33c-.38.22-.68.52-.9.91-.22.39-.33.83-.33,1.34s.11.96.33,1.35c.22.39.52.7.91.92.39.22.83.33,1.34.33Z"/><path class="cls-4" d="m206.12,49.95c-.8,0-1.52-.18-2.16-.55-.64-.37-1.15-.86-1.52-1.49-.37-.63-.56-1.34-.56-2.14s.18-1.49.55-2.12c.37-.63.86-1.13,1.49-1.49.62-.37,1.32-.55,2.1-.55s1.4.17,1.97.51c.57.34,1.01.8,1.33,1.4.32.6.48,1.27.48,2.02,0,.11,0,.23-.02.36-.01.13-.03.28-.07.45h-6.77v-1.26h5.96l-.56.49c0-.54-.1-1-.29-1.37-.19-.38-.46-.67-.81-.88-.35-.21-.77-.31-1.27-.31s-.97.11-1.37.34c-.39.23-.7.54-.91.94-.21.4-.32.88-.32,1.43s.11,1.05.34,1.48c.22.42.55.75.96.98s.89.35,1.43.35c.45,0,.86-.08,1.24-.24.38-.16.7-.39.97-.71l.98,1c-.38.45-.85.79-1.41,1.03-.56.24-1.15.35-1.78.35Z"/><path class="cls-4" d="m211.45,49.78v-8.01h1.52v8.01h-1.52Zm5.42,0v-4.84c0-.6-.18-1.06-.55-1.41s-.82-.51-1.38-.51c-.37,0-.7.08-1,.24-.29.16-.53.38-.71.66-.18.28-.27.62-.27,1.01l-.62-.3c0-.61.13-1.13.4-1.58.26-.45.63-.8,1.09-1.05.46-.25.98-.38,1.55-.38s1.07.12,1.53.37c.46.25.82.6,1.08,1.04.26.45.4.98.4,1.6v5.16h-1.52Zm5.42,0v-4.84c0-.6-.18-1.06-.55-1.41s-.82-.51-1.36-.51c-.37,0-.71.08-1,.24s-.54.38-.72.66c-.18.28-.27.62-.27,1.01l-.86-.3c.03-.62.2-1.15.5-1.59s.68-.79,1.16-1.04c.47-.25.99-.38,1.55-.38s1.11.12,1.57.37.83.6,1.11,1.04c.28.45.41.99.41,1.62v5.14h-1.54Z"/><path class="cls-4" d="m229.59,49.95c-.8,0-1.52-.18-2.16-.55-.64-.37-1.15-.86-1.52-1.49-.37-.63-.56-1.34-.56-2.14s.18-1.49.55-2.12c.37-.63.86-1.13,1.49-1.49.62-.37,1.32-.55,2.1-.55s1.4.17,1.97.51c.57.34,1.01.8,1.33,1.4.32.6.48,1.27.48,2.02,0,.11,0,.23-.02.36-.01.13-.03.28-.07.45h-6.77v-1.26h5.96l-.56.49c0-.54-.1-1-.29-1.37-.19-.38-.46-.67-.81-.88-.35-.21-.77-.31-1.27-.31s-.97.11-1.37.34c-.39.23-.7.54-.91.94-.21.4-.32.88-.32,1.43s.11,1.05.34,1.48c.22.42.55.75.96.98s.89.35,1.43.35c.45,0,.86-.08,1.24-.24.38-.16.7-.39.97-.71l.98,1c-.38.45-.85.79-1.41,1.03-.56.24-1.15.35-1.78.35Z"/><path class="cls-4" d="m234.92,49.78v-8.01h1.52v8.01h-1.52Zm5.67,0v-4.67c0-.61-.19-1.11-.57-1.5-.38-.39-.88-.59-1.48-.59-.41,0-.77.09-1.08.27-.32.18-.56.43-.74.74-.18.31-.27.67-.27,1.08l-.62-.35c0-.61.13-1.15.41-1.62.27-.47.65-.85,1.13-1.12.48-.28,1.03-.41,1.64-.41s1.14.15,1.61.46c.47.3.84.7,1.11,1.19.27.49.41,1.01.41,1.56v4.97h-1.52Z"/><path class="cls-4" d="m243.32,43.16v-1.38h5.47v1.38h-5.47Zm1.97,6.63v-11.36h1.52v11.36h-1.52Z"/><path class="cls-4" d="m257.31,49.95c-.92,0-1.71-.17-2.36-.51-.65-.34-1.23-.83-1.74-1.47l1.08-1.08c.37.52.8.91,1.28,1.17.48.26,1.08.4,1.79.4s1.26-.15,1.68-.46c.42-.3.63-.72.63-1.25,0-.44-.1-.79-.3-1.06-.2-.27-.47-.49-.82-.67-.34-.17-.72-.33-1.12-.47-.4-.14-.81-.29-1.21-.46-.4-.16-.78-.37-1.11-.61-.34-.24-.61-.56-.82-.95s-.31-.89-.31-1.48c0-.66.16-1.23.48-1.69.32-.47.76-.83,1.32-1.08.56-.25,1.18-.38,1.88-.38.76,0,1.45.15,2.06.45s1.1.69,1.48,1.17l-1.08,1.08c-.35-.41-.72-.71-1.12-.91-.4-.2-.86-.3-1.38-.3-.63,0-1.13.14-1.5.41s-.56.66-.56,1.15c0,.39.1.71.31.95.21.24.48.45.82.62.34.17.71.32,1.12.46.41.14.82.3,1.22.46.4.17.78.38,1.11.64.34.26.61.59.82,1,.21.41.31.92.31,1.54,0,1.03-.36,1.84-1.07,2.43-.71.58-1.68.88-2.89.88Z"/><path class="cls-4" d="m265.47,49.85l-3.48-8.08h1.69l2.58,6.32h-.54l2.72-6.32h1.69l-3.75,8.08h-.91Zm-2.29,3.29l2.36-4.84.84,1.55-1.52,3.29h-1.69Z"/><path class="cls-4" d="m273.76,49.95c-.45,0-.87-.06-1.27-.18s-.77-.29-1.11-.51c-.34-.22-.63-.48-.88-.78l.98-.98c.29.36.63.63,1.01.8.38.17.81.26,1.28.26s.84-.08,1.1-.24c.26-.16.39-.39.39-.68s-.1-.52-.31-.68c-.21-.16-.47-.3-.8-.4s-.67-.21-1.04-.32-.71-.24-1.04-.41c-.33-.17-.59-.4-.8-.69-.21-.29-.31-.68-.31-1.16s.12-.9.35-1.26.57-.63.99-.82.93-.29,1.53-.29c.63,0,1.19.11,1.68.33.49.22.89.55,1.21.99l-.98.98c-.23-.29-.5-.52-.83-.67-.33-.16-.71-.24-1.12-.24-.44,0-.77.08-1,.23-.23.15-.35.36-.35.63s.1.48.3.62c.2.15.47.27.8.37.33.1.68.21,1.04.31.36.11.7.25,1.03.43.33.18.59.42.8.73.21.3.31.7.31,1.2,0,.75-.27,1.35-.8,1.79s-1.25.66-2.15.66Z"/><path class="cls-4" d="m277.67,43.16v-1.38h5.47v1.38h-5.47Zm1.97,6.63v-11.36h1.52v11.36h-1.52Z"/><path class="cls-4" d="m288.08,49.95c-.8,0-1.52-.18-2.16-.55-.64-.37-1.15-.86-1.52-1.49-.37-.63-.56-1.34-.56-2.14s.18-1.49.55-2.12c.37-.63.86-1.13,1.49-1.49.62-.37,1.32-.55,2.1-.55s1.4.17,1.97.51c.57.34,1.01.8,1.33,1.4.32.6.48,1.27.48,2.02,0,.11,0,.23-.02.36-.01.13-.03.28-.07.45h-6.77v-1.26h5.96l-.56.49c0-.54-.1-1-.29-1.37-.19-.38-.46-.67-.81-.88-.35-.21-.77-.31-1.27-.31s-.97.11-1.37.34c-.39.23-.7.54-.91.94-.21.4-.32.88-.32,1.43s.11,1.05.34,1.48c.22.42.55.75.96.98s.89.35,1.43.35c.45,0,.86-.08,1.24-.24.38-.16.7-.39.97-.71l.98,1c-.38.45-.85.79-1.41,1.03-.56.24-1.15.35-1.78.35Z"/><path class="cls-4" d="m293.41,49.78v-8.01h1.52v8.01h-1.52Zm5.42,0v-4.84c0-.6-.18-1.06-.55-1.41s-.82-.51-1.38-.51c-.37,0-.7.08-1,.24-.29.16-.53.38-.71.66-.18.28-.27.62-.27,1.01l-.62-.3c0-.61.13-1.13.4-1.58.26-.45.63-.8,1.09-1.05.46-.25.98-.38,1.55-.38s1.07.12,1.53.37c.46.25.82.6,1.08,1.04.26.45.4.98.4,1.6v5.16h-1.52Zm5.42,0v-4.84c0-.6-.18-1.06-.55-1.41s-.82-.51-1.36-.51c-.37,0-.71.08-1,.24s-.54.38-.72.66c-.18.28-.27.62-.27,1.01l-.86-.3c.03-.62.2-1.15.5-1.59s.68-.79,1.16-1.04c.47-.25.99-.38,1.55-.38s1.11.12,1.57.37.83.6,1.11,1.04c.28.45.41.99.41,1.62v5.14h-1.54Z"/></g></g></svg>