<?xml version="1.0" encoding="UTF-8"?><svg id="Layer_2" xmlns="http://www.w3.org/2000/svg" viewBox="0 0 16 16"><defs><style>.cls-1{fill:#ff0096;stroke-width:0px;}</style></defs><g id="PO_CG_Entry"><path class="cls-1" d="m14.74,1.62h-.84v.92c0,.27-.11.53-.31.72-.2.19-.46.3-.74.3s-.54-.11-.74-.3c-.2-.19-.31-.45-.31-.72v-.92h-2.75v.92c0,.27-.11.53-.31.72-.2.19-.46.3-.74.3s-.54-.11-.74-.3c-.2-.19-.31-.45-.31-.72v-.92h-2.75v.92c0,.27-.11.53-.31.72-.2.19-.46.3-.74.3s-.54-.11-.74-.3c-.2-.19-.31-.45-.31-.72v-.92h-.84c-.7,0-1.26.55-1.26,1.22v11.93c0,.68.57,1.22,1.26,1.22h13.47c.7,0,1.26-.55,1.26-1.22V2.84c0-.68-.57-1.22-1.26-1.22Zm.21,13.02c0,.19-.16.34-.35.34H1.4c-.19,0-.35-.15-.35-.34V4.93h13.9v9.72Z"/><path class="cls-1" d="m2.43,2.54c0,.39.32.7.72.7s.72-.31.72-.7V.7c0-.39-.32-.7-.72-.7s-.72.31-.72.7v1.84Z"/><path class="cls-1" d="m7.28,2.54c0,.39.32.7.72.7s.72-.31.72-.7V.7c0-.39-.32-.7-.72-.7s-.72.31-.72.7v1.84Z"/><path class="cls-1" d="m12.13,2.54c0,.39.32.7.72.7s.72-.31.72-.7V.7c0-.39-.32-.7-.72-.7s-.72.31-.72.7v1.84Z"/><rect class="cls-1" x="1.83" y="5.74" width="2.43" height="2.35"/><rect class="cls-1" x="5.13" y="5.74" width="2.43" height="2.35"/><rect class="cls-1" x="8.44" y="5.74" width="2.43" height="2.35"/><rect class="cls-1" x="11.75" y="5.74" width="2.43" height="2.35"/><rect class="cls-1" x="1.83" y="8.79" width="2.43" height="2.35"/><rect class="cls-1" x="5.13" y="8.79" width="2.43" height="2.35"/><rect class="cls-1" x="8.44" y="8.79" width="2.43" height="2.35"/><rect class="cls-1" x="11.75" y="8.79" width="2.43" height="2.35"/><rect class="cls-1" x="1.83" y="11.84" width="2.43" height="2.35"/><rect class="cls-1" x="5.13" y="11.84" width="2.43" height="2.35"/><rect class="cls-1" x="8.44" y="11.84" width="2.43" height="2.35"/><rect class="cls-1" x="11.75" y="11.84" width="2.43" height="2.35"/></g></svg>