<?xml version="1.0" encoding="UTF-8"?><svg id="Layer_2" xmlns="http://www.w3.org/2000/svg" viewBox="0 0 20 20"><defs><style>.cls-1{fill:#fa0096;stroke-width:0px;}</style></defs><g id="PO_Terms"><path class="cls-1" d="m19.97,9.75c-.09-.94-.34-1.86-.74-2.72-.2-.42-.44-.83-.71-1.22-.07-.1-.14-.19-.21-.28-.04-.05-.07-.09-.11-.14-.04-.05-.07-.09-.11-.14l-.12-.13s-.08-.09-.12-.13l-.12-.13-.03-.03-.03-.03-.06-.06c-.34-.33-.71-.63-1.09-.89-.39-.26-.8-.5-1.23-.69-.85-.4-1.76-.66-2.68-.77.9.24,1.74.61,2.48,1.09.37.24.72.51,1.05.8.32.29.61.61.87.94l.05.06.02.03.02.03.09.13s.06.09.09.13l.08.13s.06.09.08.13c.03.04.05.09.08.13.05.09.1.18.15.27.19.37.34.75.46,1.14.23.78.32,1.58.27,2.37-.05.79-.24,1.55-.56,2.25-.32.7-.77,1.33-1.32,1.87-.55.54-1.19,1-1.88,1.34-.41.2-.83.36-1.26.48l-.35-1.43-4.6,3.99,6,1.72-.37-1.52c.74-.28,1.44-.65,2.07-1.08.87-.6,1.63-1.32,2.23-2.13.61-.81,1.07-1.71,1.34-2.66.27-.95.35-1.92.26-2.86Z"/><path class="cls-1" d="m3.88,15.72c-.32-.29-.61-.61-.87-.94l-.05-.06-.02-.03-.02-.03-.09-.13s-.06-.09-.09-.13l-.08-.13s-.06-.09-.08-.13c-.03-.04-.05-.09-.08-.13-.05-.09-.1-.18-.15-.27-.19-.37-.34-.75-.46-1.14-.23-.78-.32-1.58-.27-2.37.05-.79.24-1.55.56-2.25.32-.7.77-1.33,1.32-1.87.55-.54,1.19-1,1.88-1.34.41-.2.83-.36,1.26-.48l.35,1.43,4.6-3.99L5.57,0l.37,1.52c-.74.28-1.44.65-2.07,1.08-.87.6-1.63,1.32-2.23,2.13-.61.81-1.07,1.71-1.34,2.66C.03,8.33-.05,9.3.03,10.25c.09.94.34,1.86.74,2.72.2.42.44.83.71,1.22.07.1.14.19.21.28.04.05.07.09.11.14.04.05.07.09.11.14l.12.13s.08.09.12.13l.12.13.03.03.03.03.06.06c.34.33.71.63,1.09.89.39.26.8.5,1.23.69.85.4,1.76.66,2.68.77-.9-.24-1.74-.61-2.48-1.09-.37-.24-.72-.51-1.05-.8Z"/></g></svg>