<?xml version="1.0" encoding="UTF-8"?><svg id="Layer_2" xmlns="http://www.w3.org/2000/svg" viewBox="0 0 18 13.5"><defs><style>.cls-1{fill:#007daf;}.cls-1,.cls-2{fill-rule:evenodd;stroke-width:0px;}.cls-2{fill:#ff0096;}</style></defs><g id="SPS_Inv_D2"><path class="cls-2" d="M17.39,9.43H2.09l1.82-1.81c.23-.25.22-.63-.03-.86-.24-.22-.6-.22-.84,0L.18,9.61c-.24.24-.24.62,0,.86l2.86,2.85c.24.24.63.24.87,0,.24-.24.24-.62,0-.86l-1.82-1.81h15.29c.34,0,.61-.27.61-.61s-.27-.61-.61-.61h0Z"/><path class="cls-1" d="M.61,2.85h15.29l-1.82-1.8c-.25-.23-.26-.61-.03-.86.23-.25.62-.26.87-.03.01,0,.02.02.03.03l2.86,2.84c.24.24.24.62,0,.86l-2.86,2.84c-.24.24-.63.24-.87,0-.24-.24-.24-.62,0-.86l1.82-1.8H.61c-.34,0-.61-.27-.61-.61s.27-.61.61-.61h0Z"/></g></svg>