<?xml version="1.0" encoding="UTF-8"?><svg id="Layer_2" xmlns="http://www.w3.org/2000/svg" viewBox="0 0 21 18.95"><defs><style>.cls-1{fill:#fa0096;fill-rule:evenodd;stroke-width:0px;}</style></defs><g id="_Attributes_mtrl_before"><polygon class="cls-1" points="5.55 0 15.45 0 15.45 4.11 5.55 4.11 5.55 0 5.55 0"/><path class="cls-1" d="M3.5,17.2c0,.97-.78,1.75-1.75,1.75s-1.75-.78-1.75-1.75.78-1.75,1.75-1.75,1.75.78,1.75,1.75h0Z"/><path class="cls-1" d="M12.27,17.2c0,.97-.78,1.75-1.75,1.75s-1.75-.78-1.75-1.75.78-1.75,1.75-1.75,1.75.78,1.75,1.75h0Z"/><path class="cls-1" d="M21,17.2c0,.97-.78,1.75-1.75,1.75s-1.75-.78-1.75-1.75.78-1.75,1.75-1.75,1.75.78,1.75,1.75h0Z"/><path class="cls-1" d="M12.4,9.36l-1.31-1.31v-2.77h-1.17v2.77l-1.31,1.31H1.17v5.25h1.17v-4.08h6.27l1.31,1.31v2.77h1.17v-2.77l1.31-1.31h6.27v4.08h1.17v-5.25h-7.44ZM10.5,11.4l-1.46-1.46,1.46-1.46,1.46,1.46-1.46,1.46h0Z"/></g></svg>