<svg xmlns="http://www.w3.org/2000/svg" viewBox="0 0 300.6 299.02"><g stroke="#f44800" fill="#f44800"><path d="M5.004 185.555a14.613 14.613 0 00-.173 20.71l86.35 87.798a14.613 14.613 0 0020.711.173l183.703-180.674a14.613 14.613 0 00.172-20.71l-86.35-87.798a14.613 14.613 0 00-20.71-.173L5.004 185.555zm8.154.692l176.103-173.2a12.526 12.526 0 0117.752.149l80.6 81.95a12.526 12.526 0 01-.148 17.752L111.362 286.097a12.526 12.526 0 01-17.752-.148L13.01 204a12.526 12.526 0 01.148-17.752z" stroke-linejoin="round" stroke-opacity=".557" stroke-linecap="round" stroke-width=".6276539999999999"/><path d="M88.88 225.38c.285-.234.607-.503.965-.808l1.253-1.233c2.792-2.746 4.164-5.48 4.116-8.203-.025-2.746-1.258-5.36-3.699-7.842-2.558-2.601-5.14-3.937-7.742-4.006s-5.301 1.27-8.094 4.016c-.382.376-.764.775-1.146 1.198-.406.4-.764.799-1.075 1.198l15.421 15.68m8.4-23.755c2.112 2.148 3.621 4.35 4.525 6.607.905 2.256 1.253 4.52 1.045 6.79-.185 2.247-.902 4.502-2.151 6.764s-2.973 4.473-5.169 6.632a70.157 70.157 0 01-3.649 3.308 37.75 37.75 0 01-4.43 3.371l-23.767-24.164a43.096 43.096 0 013.552-4.409c1.314-1.48 2.473-2.713 3.475-3.7 2.124-2.088 4.28-3.74 6.468-4.952 2.212-1.236 4.443-1.951 6.693-2.146s4.496.18 6.737 1.121c2.24.942 4.465 2.535 6.671 4.778M105.315 168.797c3.723-3.661 7.233-5.798 10.528-6.41 3.272-.635 6.281.443 9.027 3.235 1.714 1.743 2.705 3.562 2.973 5.458.269 1.848-.044 3.822-.937 5.922a44.49 44.49 0 013.688.598 57.89 57.89 0 014.075.922c1.394.32 2.811.71 4.251 1.171 1.417.438 2.786.9 4.108 1.384l-6.265 6.161a417.254 417.254 0 00-3.826-1.097 57.1 57.1 0 00-3.826-1.026 63.025 63.025 0 00-3.615-.81 31.734 31.734 0 00-3.333-.526l-2.757 2.711 8.908 9.058-5.585 5.492-24.047-24.45a44.456 44.456 0 013.266-4.199 68.657 68.657 0 013.367-3.594m5.005 4.445c-.405.399-.764.775-1.074 1.127l-.825.952 6.62 6.73 1.575-1.549c2.1-2.065 3.345-3.807 3.736-5.224.39-1.417-.037-2.758-1.28-4.023-1.198-1.217-2.508-1.618-3.932-1.204-1.423.367-3.03 1.43-4.82 3.19M171.851 152.727a69.606 69.606 0 00-3.5-1.769l-3.607-1.805-9.665 9.506a173.429 173.429 0 011.709 3.672 118.125 118.125 0 001.746 3.494l-5.8 5.704c-1.698-3.589-3.244-6.928-4.639-10.016s-2.683-6.023-3.868-8.803a463.798 463.798 0 01-3.235-8.016 190.988 190.988 0 01-2.777-7.692l5.335-5.246c2.501.92 5.037 1.9 7.609 2.94a215.543 215.543 0 017.961 3.367c2.783 1.207 5.707 2.533 8.773 3.98s6.377 3.046 9.937 4.804l-5.979 5.88m-25.566-12.604c.233.475.535 1.14.907 1.995.371.856.8 1.842 1.289 2.958a594.555 594.555 0 011.602 3.706c.605 1.33 1.244 2.72 1.918 4.17l7.053-6.936a505.207 505.207 0 00-4.138-1.987 101.88 101.88 0 00-3.679-1.664l-2.936-1.338c-.849-.386-1.52-.687-2.016-.904M189.64 135.232l-24.4-24.808 16.61-16.337 4.613 4.69-11.026 10.844 5.105 5.19 9.809-9.647 4.612 4.69-9.809 9.647 10.07 10.239-5.585 5.492M212.801 63.648l4.683 4.761-7.482 7.359 19.717 20.047-5.585 5.493-19.717-20.048-7.482 7.359-4.683-4.761 20.55-20.21" stroke-width="1.04609"/></g></svg>