<?xml version="1.0" encoding="UTF-8"?><svg id="Layer_2" xmlns="http://www.w3.org/2000/svg" viewBox="0 0 16 14"><defs><style>.cls-1{fill:#ff0096;stroke-width:0px;}</style></defs><g id="_Attributes_mtrl"><path class="cls-1" d="M7.8.02c-.76.06-1.49.24-2.17.52-.34.14-.67.31-.97.5-.08.05-.15.1-.23.15-.04.02-.07.05-.11.08-.04.03-.07.05-.11.08l-.11.08s-.07.06-.1.09l-.1.09-.03.02-.02.02-.05.04c-.26.24-.5.49-.71.77-.21.27-.4.56-.55.86-.32.6-.53,1.23-.62,1.88.19-.63.49-1.22.87-1.74.19-.26.41-.51.64-.73.23-.22.49-.43.75-.61l.05-.03.02-.02.03-.02.1-.06s.07-.04.1-.06l.11-.06s.07-.04.11-.06c.04-.02.07-.04.11-.06.07-.04.14-.07.22-.1.29-.13.6-.24.91-.32.62-.16,1.27-.23,1.9-.19.63.03,1.24.17,1.8.39.56.22,1.06.54,1.5.92.43.38.8.83,1.07,1.31.16.28.29.58.38.88l-1.15.25,3.19,3.22,1.38-4.2-1.21.26c-.22-.52-.52-1.01-.86-1.45-.48-.61-1.06-1.14-1.7-1.56-.65-.42-1.37-.75-2.13-.94-.76-.19-1.53-.24-2.29-.19Z"/><path class="cls-1" d="M12.58,11.29c-.23.22-.49.43-.75.61l-.05.03-.02.02-.03.02-.1.06s-.07.04-.1.06l-.11.06s-.07.04-.11.06c-.04.02-.07.04-.11.06-.07.04-.14.07-.22.1-.29.13-.6.24-.91.32-.62.16-1.27.23-1.9.19-.63-.03-1.24-.17-1.8-.39-.56-.22-1.06-.54-1.5-.92-.43-.38-.8-.83-1.07-1.31-.16-.28-.29-.58-.38-.88l1.15-.25-3.19-3.22-1.38,4.2,1.21-.26c.22.52.52,1.01.86,1.45.48.61,1.06,1.14,1.7,1.56.65.42,1.37.75,2.13.94.76.19,1.53.24,2.29.19.76-.06,1.49-.24,2.17-.52.34-.14.67-.31.97-.5.08-.05.15-.1.23-.15.04-.02.07-.05.11-.08.04-.03.07-.05.11-.08l.11-.08s.07-.06.1-.09l.1-.09.03-.02.02-.02.05-.04c.26-.24.5-.49.71-.77.21-.27.4-.56.55-.86.32-.6.53-1.23.62-1.88-.19.63-.49,1.22-.87,1.74-.19.26-.41.51-.64.73Z"/></g></svg>