<?xml version="1.0" encoding="UTF-8"?><svg id="Layer_2" xmlns="http://www.w3.org/2000/svg" viewBox="0 0 9.55 9.44"><defs><style>.cls-1{opacity:.75;}.cls-2{fill:red;}</style></defs><g id="PR_Log"><g><g class="cls-1"><path class="cls-2" d="M8.46,.13c.21-.21,.59-.16,.86,.1h0c.26,.26,.31,.65,.1,.86"/><rect class="cls-2" x="4.32" y="1.95" width="5.19" height="1.35" transform="translate(.17 5.66) rotate(-45)"/><polygon class="cls-2" points="4.42 4.17 3.76 5.78 5.38 5.12 4.42 4.17"/></g><g class="cls-1"><path class="cls-2" d="M8.05,9.44H1.1c-.61,0-1.1-.49-1.1-1.1V1.39C0,.78,.49,.29,1.1,.29H6.44c.24,0,.44,.2,.44,.44s-.2,.44-.44,.44H1.1c-.12,0-.22,.1-.22,.22v6.95c0,.12,.1,.22,.22,.22h6.95c.12,0,.22-.1,.22-.22V3.19c0-.24,.2-.44,.44-.44s.44,.2,.44,.44v5.15c0,.61-.5,1.1-1.1,1.1Z"/></g></g></g></svg>