<?xml version="1.0" encoding="UTF-8"?><svg id="Layer_2" xmlns="http://www.w3.org/2000/svg" viewBox="0 0 12.51 16.4"><defs><style>.cls-1{fill:#FF007D;}</style></defs><g id="PR_Log"><g id="Icon_delete"><path class="cls-1" d="M12.27,1.36h-4.05V.4c0-.22-.18-.4-.39-.4h-3.15c-.22,0-.39,.18-.39,.4v.97H.23c-.13,0-.23,.11-.23,.24v.76H12.51v-.76c0-.13-.1-.24-.23-.24Zm-4.77-.24h-2.5v-.27c0-.07,.06-.13,.12-.13h2.25c.07,0,.12,.06,.12,.13v.27Z"/><path class="cls-1" d="M1.56,16.4c-.44,0-.79-.35-.79-.78V4.57l-.77-.73,.05-.62H12.51v.75l-.64,.45-.07,11.2c0,.43-.36,.78-.79,.78H1.56Zm6.76-1.18h1.6V5.32h-1.6V15.22Zm-2.84,0h1.6V5.32h-1.6V15.22Zm-2.84,0h1.6V5.32h-1.6V15.22Z"/></g></g></svg>