<?xml version="1.0" encoding="UTF-8"?><svg xmlns="http://www.w3.org/2000/svg" xmlns:xlink="http://www.w3.org/1999/xlink" viewBox="0 0 27.38 25"><defs><style>.cls-1{fill:#fff;}.cls-2{opacity:.6;}.cls-3{isolation:isolate;}.cls-4{fill:#d1d3d4;mix-blend-mode:multiply;}.cls-5{fill:url(#linear-gradient);}</style><linearGradient id="linear-gradient" x1="4.88" y1="20.87" x2="26.57" y2="-.82" gradientUnits="userSpaceOnUse"><stop offset="0" stop-color="#00ff15"/><stop offset="1" stop-color="#009f0d"/></linearGradient></defs><g class="cls-3"><g id="Layer_2"><g id="Attendance"><path class="cls-5" d="m5.14,12.36c-1.45,2.4-5.14,3.64-5.14,3.64,0,0,5.76,2.23,10.09,9,3.82-6.22,12.93-13.63,16.94-16.53-.62-3.96.19-7.27.35-8.47C17.88,7.41,10.44,18.92,10.44,18.92c0,0-2.49-4.3-5.3-6.56Z"/><path class="cls-4" d="m23.88,9.57c-1.79,1.32-3.54,2.73-5.23,4.21-.75.66-1.48,1.33-2.2,2.02-.68.65-1.35,1.33-2.01,2.02-.65.69-1.29,1.39-1.9,2.12-.37.44-.72.89-1.07,1.34-.5.64-.95,1.33-1.4,2.02-.21-.31-.42-.62-.65-.92-.16-.21-.32-.41-.48-.61-.29-.37-.6-.73-.91-1.08-.7-.8-1.47-1.55-2.28-2.22-.42-.35-.85-.68-1.28-1.01-.34-.25-.68-.47-1.03-.71.35.29.71.58,1.05.88.38.33.74.67,1.11,1.01.77.73,1.49,1.53,2.17,2.36.35.43.69.87,1.02,1.32.46.62.87,1.28,1.3,1.92.29-.43.57-.86.86-1.29.14-.21.29-.4.44-.6.18-.24.36-.48.54-.72.36-.45.72-.9,1.09-1.33.86-1.01,1.75-1.98,2.67-2.92.53-.54,1.05-1.08,1.59-1.6.61-.59,1.22-1.17,1.83-1.75,1.35-1.28,2.74-2.52,4.14-3.74.61-.53,1.22-1.06,1.83-1.59-.4.29-.81.57-1.2.86Z"/><g class="cls-2"><path class="cls-1" d="m6.65,14.49c-.49-.52-1.01-.98-1.55-1.42-.09.14-.17.28-.26.41-.88,1.24-2.11,2.08-3.34,2.83.17-.07.34-.14.51-.22.91-.43,1.82-.99,2.53-1.75.23-.24.43-.5.63-.78.61.52,1.18,1.08,1.72,1.68,1.05,1.17,2.01,2.42,2.96,3.68-.38-.68-.79-1.33-1.22-1.97-.59-.88-1.26-1.71-1.98-2.47Z"/><path class="cls-1" d="m24.9,2.71c-.63.54-1.25,1.1-1.86,1.66-.72.65-1.4,1.36-2.08,2.05-.64.65-1.26,1.33-1.87,2.01-1.01,1.13-1.99,2.3-2.94,3.49-1.41,1.77-2.74,3.62-4,5.53.63-.84,1.27-1.68,1.92-2.51,1.11-1.41,2.24-2.8,3.4-4.16.64-.75,1.3-1.49,1.96-2.22.67-.73,1.34-1.45,2.03-2.16.97-.99,1.95-1.97,2.98-2.88.64-.58,1.3-1.14,1.96-1.7-.11.84-.22,1.69-.28,2.54-.04.55-.05,1.1-.04,1.64,0,.5.04.99.07,1.48,0-.07,0-.13,0-.2,0-.5,0-1.01.01-1.51.02-.57.08-1.14.14-1.71.11-.95.28-1.88.42-2.82-.6.49-1.21.96-1.8,1.47Z"/></g></g></g></g></svg>